  0
SECTION
  2
HEADER
  9
$ACADVER
  1
AC1018
  9
$ACADMAINTVER
 70
     0
  9
$DWGCODEPAGE
  3
ANSI_932
  9
$INSBASE
 10
0.0
 20
0.0
 30
0.0
  9
$EXTMIN
 10
1.000000000000000E+20
 20
1.000000000000000E+20
 30
1.000000000000000E+20
  9
$EXTMAX
 10
-1.000000000000000E+20
 20
-1.000000000000000E+20
 30
-1.000000000000000E+20
  9
$LIMMIN
 10
0.0
 20
0.0
  9
$LIMMAX
 10
12.0
 20
9.0
  9
$ORTHOMODE
 70
     0
  9
$REGENMODE
 70
     1
  9
$FILLMODE
 70
     1
  9
$QTEXTMODE
 70
     0
  9
$MIRRTEXT
 70
     1
  9
$LTSCALE
 40
1.0
  9
$ATTMODE
 70
     1
  9
$TEXTSIZE
 40
0.2
  9
$TRACEWID
 40
0.05
  9
$TEXTSTYLE
  7
Standard
  9
$CLAYER
  8
0
  9
$CELTYPE
  6
ByLayer
  9
$CECOLOR
 62
   256
  9
$CELTSCALE
 40
1.0
  9
$DISPSILH
 70
     0
  9
$DIMSCALE
 40
1.0
  9
$DIMASZ
 40
0.18
  9
$DIMEXO
 40
0.0625
  9
$DIMDLI
 40
0.38
  9
$DIMRND
 40
0.0
  9
$DIMDLE
 40
0.0
  9
$DIMEXE
 40
0.18
  9
$DIMTP
 40
0.0
  9
$DIMTM
 40
0.0
  9
$DIMTXT
 40
0.18
  9
$DIMCEN
 40
0.09
  9
$DIMTSZ
 40
0.0
  9
$DIMTOL
 70
     0
  9
$DIMLIM
 70
     0
  9
$DIMTIH
 70
     1
  9
$DIMTOH
 70
     1
  9
$DIMSE1
 70
     0
  9
$DIMSE2
 70
     0
  9
$DIMTAD
 70
     0
  9
$DIMZIN
 70
     0
  9
$DIMBLK
  1

  9
$DIMASO
 70
     1
  9
$DIMSHO
 70
     1
  9
$DIMPOST
  1

  9
$DIMAPOST
  1

  9
$DIMALT
 70
     0
  9
$DIMALTD
 70
     2
  9
$DIMALTF
 40
25.4
  9
$DIMLFAC
 40
1.0
  9
$DIMTOFL
 70
     0
  9
$DIMTVP
 40
0.0
  9
$DIMTIX
 70
     0
  9
$DIMSOXD
 70
     0
  9
$DIMSAH
 70
     0
  9
$DIMBLK1
  1

  9
$DIMBLK2
  1

  9
$DIMSTYLE
  2
Standard
  9
$DIMCLRD
 70
     0
  9
$DIMCLRE
 70
     0
  9
$DIMCLRT
 70
     0
  9
$DIMTFAC
 40
1.0
  9
$DIMGAP
 40
0.09
  9
$DIMJUST
 70
     0
  9
$DIMSD1
 70
     0
  9
$DIMSD2
 70
     0
  9
$DIMTOLJ
 70
     1
  9
$DIMTZIN
 70
     0
  9
$DIMALTZ
 70
     0
  9
$DIMALTTZ
 70
     0
  9
$DIMUPT
 70
     0
  9
$DIMDEC
 70
     4
  9
$DIMTDEC
 70
     4
  9
$DIMALTU
 70
     2
  9
$DIMALTTD
 70
     2
  9
$DIMTXSTY
  7
Standard
  9
$DIMAUNIT
 70
     0
  9
$DIMADEC
 70
     0
  9
$DIMALTRND
 40
0.0
  9
$DIMAZIN
 70
     0
  9
$DIMDSEP
 70
    46
  9
$DIMATFIT
 70
     3
  9
$DIMFRAC
 70
     0
  9
$DIMLDRBLK
  1

  9
$DIMLUNIT
 70
     2
  9
$DIMLWD
 70
    -2
  9
$DIMLWE
 70
    -2
  9
$DIMTMOVE
 70
     0
  9
$LUNITS
 70
     2
  9
$LUPREC
 70
     4
  9
$SKETCHINC
 40
0.1
  9
$FILLETRAD
 40
0.5
  9
$AUNITS
 70
     0
  9
$AUPREC
 70
     0
  9
$MENU
  1
.
  9
$ELEVATION
 40
0.0
  9
$PELEVATION
 40
0.0
  9
$THICKNESS
 40
0.0
  9
$LIMCHECK
 70
     0
  9
$CHAMFERA
 40
0.5
  9
$CHAMFERB
 40
0.5
  9
$CHAMFERC
 40
1.0
  9
$CHAMFERD
 40
0.0
  9
$SKPOLY
 70
     0
  9
$TDCREATE
 40
2456982.405335648
  9
$TDUCREATE
 40
2456982.363668981
  9
$TDUPDATE
 40
2456982.40533566
  9
$TDUUPDATE
 40
2456982.363668993
  9
$TDINDWG
 40
0.0000000116
  9
$TDUSRTIMER
 40
0.0000000116
  9
$USRTIMER
 70
     1
  9
$ANGBASE
 50
0.0
  9
$ANGDIR
 70
     0
  9
$PDMODE
 70
     0
  9
$PDSIZE
 40
0.0
  9
$PLINEWID
 40
0.0
  9
$SPLFRAME
 70
     0
  9
$SPLINETYPE
 70
     6
  9
$SPLINESEGS
 70
     8
  9
$HANDSEED
  5
113
  9
$SURFTAB1
 70
     6
  9
$SURFTAB2
 70
     6
  9
$SURFTYPE
 70
     6
  9
$SURFU
 70
     6
  9
$SURFV
 70
     6
  9
$UCSBASE
  2

  9
$UCSNAME
  2

  9
$UCSORG
 10
0.0
 20
0.0
 30
0.0
  9
$UCSXDIR
 10
1.0
 20
0.0
 30
0.0
  9
$UCSYDIR
 10
0.0
 20
1.0
 30
0.0
  9
$UCSORTHOREF
  2

  9
$UCSORTHOVIEW
 70
     0
  9
$UCSORGTOP
 10
0.0
 20
0.0
 30
0.0
  9
$UCSORGBOTTOM
 10
0.0
 20
0.0
 30
0.0
  9
$UCSORGLEFT
 10
0.0
 20
0.0
 30
0.0
  9
$UCSORGRIGHT
 10
0.0
 20
0.0
 30
0.0
  9
$UCSORGFRONT
 10
0.0
 20
0.0
 30
0.0
  9
$UCSORGBACK
 10
0.0
 20
0.0
 30
0.0
  9
$PUCSBASE
  2

  9
$PUCSNAME
  2

  9
$PUCSORG
 10
0.0
 20
0.0
 30
0.0
  9
$PUCSXDIR
 10
1.0
 20
0.0
 30
0.0
  9
$PUCSYDIR
 10
0.0
 20
1.0
 30
0.0
  9
$PUCSORTHOREF
  2

  9
$PUCSORTHOVIEW
 70
     0
  9
$PUCSORGTOP
 10
0.0
 20
0.0
 30
0.0
  9
$PUCSORGBOTTOM
 10
0.0
 20
0.0
 30
0.0
  9
$PUCSORGLEFT
 10
0.0
 20
0.0
 30
0.0
  9
$PUCSORGRIGHT
 10
0.0
 20
0.0
 30
0.0
  9
$PUCSORGFRONT
 10
0.0
 20
0.0
 30
0.0
  9
$PUCSORGBACK
 10
0.0
 20
0.0
 30
0.0
  9
$USERI1
 70
     0
  9
$USERI2
 70
     0
  9
$USERI3
 70
     0
  9
$USERI4
 70
     0
  9
$USERI5
 70
     0
  9
$USERR1
 40
0.0
  9
$USERR2
 40
0.0
  9
$USERR3
 40
0.0
  9
$USERR4
 40
0.0
  9
$USERR5
 40
0.0
  9
$WORLDVIEW
 70
     1
  9
$SHADEDGE
 70
     3
  9
$SHADEDIF
 70
    70
  9
$TILEMODE
 70
     1
  9
$MAXACTVP
 70
    64
  9
$PINSBASE
 10
0.0
 20
0.0
 30
0.0
  9
$PLIMCHECK
 70
     0
  9
$PEXTMIN
 10
1.000000000000000E+20
 20
1.000000000000000E+20
 30
1.000000000000000E+20
  9
$PEXTMAX
 10
-1.000000000000000E+20
 20
-1.000000000000000E+20
 30
-1.000000000000000E+20
  9
$PLIMMIN
 10
0.0
 20
0.0
  9
$PLIMMAX
 10
12.0
 20
9.0
  9
$UNITMODE
 70
     0
  9
$VISRETAIN
 70
     1
  9
$PLINEGEN
 70
     0
  9
$PSLTSCALE
 70
     1
  9
$TREEDEPTH
 70
  3020
  9
$CMLSTYLE
  2
Standard
  9
$CMLJUST
 70
     0
  9
$CMLSCALE
 40
1.0
  9
$PROXYGRAPHICS
 70
     1
  9
$MEASUREMENT
 70
     0
  9
$CELWEIGHT
370
    -1
  9
$ENDCAPS
280
     0
  9
$JOINSTYLE
280
     0
  9
$LWDISPLAY
290
     1
  9
$INSUNITS
 70
     1
  9
$HYPERLINKBASE
  1

  9
$STYLESHEET
  1

  9
$XEDIT
290
     1
  9
$CEPSNTYPE
380
     0
  9
$PSTYLEMODE
290
     1
  9
$FINGERPRINTGUID
  2
{B296DC17-D71C-5987-6C8B-82C89C3C5106}
  9
$VERSIONGUID
  2
{FAEB1C32-E019-11D5-929B-00C0DF256EC4}
  9
$EXTNAMES
290
     1
  9
$PSVPSCALE
 40
0.0
  9
$OLESTARTUP
290
     0
  9
$SORTENTS
280
   127
  9
$INDEXCTL
280
     0
  9
$HIDETEXT
280
     1
  9
$XCLIPFRAME
290
     0
  9
$HALOGAP
280
     0
  9
$OBSCOLOR
 70
   257
  9
$OBSLTYPE
280
     0
  9
$INTERSECTIONDISPLAY
280
     0
  9
$INTERSECTIONCOLOR
 70
   257
  9
$DIMASSOC
280
     2
  9
$PROJECTNAME
  1

  0
ENDSEC
  0
SECTION
  2
CLASSES
  0
CLASS
  1
ACDBDICTIONARYWDFLT
  2
AcDbDictionaryWithDefault
  3
ObjectDBX Classes
 90
        0
 91
        3
280
     0
281
     0
  0
CLASS
  1
VISUALSTYLE
  2
AcDbVisualStyle
  3
ObjectDBX Classes
 90
     4095
 91
        3
280
     0
281
     0
  0
ENDSEC
  0
SECTION
  2
TABLES
  0
TABLE
  2
VPORT
  5
8
330
0
100
AcDbSymbolTable
 70
     1
  0
VPORT
  5
29
330
8
100
AcDbSymbolTableRecord
100
AcDbViewportTableRecord
  2
*Active
 70
     0
 10
0.0
 20
0.0
 11
1.0
 21
1.0
 12
0.0
 22
0.0
 13
0.0
 23
0.0
 14
0.5
 24
0.5
 15
0.5
 25
0.5
 16
0.0
 26
0.0
 36
1.0
 17
149.9992851730037
 27
-74.67080822243473
 37
0.0
 40
149.9999741921007
 41
1.999990813077125
 42
50.0
 43
0.0
 44
0.0
 50
0.0
 51
0.0
 71
     0
 72
   100
 73
     1
 74
     3
 75
     0
 76
     0
 77
     0
 78
     0
281
     0
 65
     1
110
0.0
120
0.0
130
0.0
111
1.0
121
0.0
131
0.0
112
0.0
122
1.0
132
0.0
 79
     0
146
0.0
  0
ENDTAB
  0
TABLE
  2
LTYPE
  5
5
330
0
100
AcDbSymbolTable
 70
     1
  0
LTYPE
  5
14
330
5
100
AcDbSymbolTableRecord
100
AcDbLinetypeTableRecord
  2
ByBlock
 70
     0
  3

 72
    65
 73
     0
 40
0.0
  0
LTYPE
  5
15
330
5
100
AcDbSymbolTableRecord
100
AcDbLinetypeTableRecord
  2
ByLayer
 70
     0
  3

 72
    65
 73
     0
 40
0.0
  0
LTYPE
  5
16
330
5
100
AcDbSymbolTableRecord
100
AcDbLinetypeTableRecord
  2
Continuous
 70
     0
  3
Solid line
 72
    65
 73
     0
 40
0.0
  0
ENDTAB
  0
TABLE
  2
LAYER
  5
2
330
0
100
AcDbSymbolTable
 70
     2
  0
LAYER
  5
10
330
2
100
AcDbSymbolTableRecord
100
AcDbLayerTableRecord
  2
0
 70
     0
 62
     7
  6
Continuous
370
    -3
390
F
  0
LAYER
  5
3B
330
2
100
AcDbSymbolTableRecord
100
AcDbLayerTableRecord
  2
Layer 1
 70
     0
 62
     7
  6
Continuous
370
    -3
390
F
  0
ENDTAB
  0
TABLE
  2
STYLE
  5
3
330
0
100
AcDbSymbolTable
 70
     1
  0
STYLE
  5
11
330
3
100
AcDbSymbolTableRecord
100
AcDbTextStyleTableRecord
  2
Standard
 70
     0
 40
0.0
 41
1.0
 50
0.0
 71
     0
 42
0.2
  3
txt
  4

  0
ENDTAB
  0
TABLE
  2
VIEW
  5
6
330
0
100
AcDbSymbolTable
 70
     0
  0
ENDTAB
  0
TABLE
  2
UCS
  5
7
330
0
100
AcDbSymbolTable
 70
     0
  0
ENDTAB
  0
TABLE
  2
APPID
  5
9
330
0
100
AcDbSymbolTable
 70
     1
  0
APPID
  5
12
330
9
100
AcDbSymbolTableRecord
100
AcDbRegAppTableRecord
  2
ACAD
 70
     0
  0
ENDTAB
  0
TABLE
  2
DIMSTYLE
  5
A
330
0
100
AcDbSymbolTable
 70
     1
100
AcDbDimStyleTable
  0
DIMSTYLE
105
27
330
A
100
AcDbSymbolTableRecord
100
AcDbDimStyleTableRecord
  2
Standard
 70
     0
340
11
  0
ENDTAB
  0
TABLE
  2
BLOCK_RECORD
  5
1
330
0
100
AcDbSymbolTable
 70
     2
  0
BLOCK_RECORD
  5
1F
330
1
100
AcDbSymbolTableRecord
100
AcDbBlockTableRecord
  2
*Model_Space
340
22
  0
BLOCK_RECORD
  5
1B
330
1
100
AcDbSymbolTableRecord
100
AcDbBlockTableRecord
  2
*Paper_Space
340
1E
  0
BLOCK_RECORD
  5
23
330
1
100
AcDbSymbolTableRecord
100
AcDbBlockTableRecord
  2
*Paper_Space0
340
26
  0
BLOCK_RECORD
  5
A0
330
1
100
AcDbSymbolTableRecord
100
AcDbBlockTableRecord
  2
block 2
340
0
102
{BLKREFS
331
A1
102
}
  0
ENDTAB
  0
ENDSEC
  0
SECTION
  2
BLOCKS
  0
BLOCK
  5
20
330
1F
100
AcDbEntity
  8
0
100
AcDbBlockBegin
  2
*Model_Space
 70
     0
 71
     0
 10
0.0
 20
0.0
 30
0.0
  3
*Model_Space
  1

  0
ENDBLK
  5
21
330
1F
100
AcDbEntity
  8
0
100
AcDbBlockEnd
  0
BLOCK
  5
1C
330
1B
100
AcDbEntity
 67
     1
  8
0
100
AcDbBlockBegin
  2
*Paper_Space
 70
     0
 71
     0
 10
0.0
 20
0.0
 30
0.0
  3
*Paper_Space
  1

  0
ENDBLK
  5
1D
330
1B
100
AcDbEntity
 67
     1
  8
0
100
AcDbBlockEnd
  0
BLOCK
  5
24
330
23
100
AcDbEntity
  8
0
100
AcDbBlockBegin
  2
*Paper_Space0
 70
     0
 71
     0
 10
0.0
 20
0.0
 30
0.0
  3
*Paper_Space0
  1

  0
ENDBLK
  5
25
330
23
100
AcDbEntity
  8
0
100
AcDbBlockEnd
  0
BLOCK
  5
A2
330
A0
100
AcDbEntity
  8
0
100
AcDbBlockBegin
  2
block 2
 70
     0
 71
     0
 10
0.0
 20
0.0
 30
0.0
  3
block 2
  1

  0
POLYLINE
  5
A4
330
A0
100
AcDbEntity
  8
Layer 1
370
     0
100
AcDb2dPolyline
 66
     1
 10
0.0
 20
0.0
 30
0.0
  0
VERTEX
  5
A5
330
A4
100
AcDbEntity
  8
Layer 1
370
     0
100
AcDbVertex
100
AcDb2dVertex
 10
251.352788565634
 20
-84.90110539327125
 30
0.0
  0
VERTEX
  5
A6
330
A4
100
AcDbEntity
  8
Layer 1
370
     0
100
AcDbVertex
100
AcDb2dVertex
 10
249.8534830104533
 20
-84.90110539327125
 30
0.0
  0
VERTEX
  5
A7
330
A4
100
AcDbEntity
  8
Layer 1
370
     0
100
AcDbVertex
100
AcDb2dVertex
 10
249.1021076851203
 20
-86.1992173721134
 30
0.0
  0
VERTEX
  5
A8
330
A4
100
AcDbEntity
  8
Layer 1
370
     0
100
AcDbVertex
100
AcDb2dVertex
 10
249.8534830104533
 20
-87.50077444644079
 30
0.0
  0
VERTEX
  5
A9
330
A4
100
AcDbEntity
  8
Layer 1
370
     0
100
AcDbVertex
100
AcDb2dVertex
 10
251.352788565634
 20
-87.50077444644079
 30
0.0
  0
VERTEX
  5
AA
330
A4
100
AcDbEntity
  8
Layer 1
370
     0
100
AcDbVertex
100
AcDb2dVertex
 10
252.104163890967
 20
-86.1992173721134
 30
0.0
  0
VERTEX
  5
AB
330
A4
100
AcDbEntity
  8
Layer 1
370
     0
100
AcDbVertex
100
AcDb2dVertex
 10
251.352788565634
 20
-84.90110539327125
 30
0.0
  0
SEQEND
  5
AC
330
A4
100
AcDbEntity
  8
Layer 1
370
     0
  0
POLYLINE
  5
AD
330
A0
100
AcDbEntity
  8
Layer 1
370
     0
100
AcDb2dPolyline
 66
     1
 10
0.0
 20
0.0
 30
0.0
  0
VERTEX
  5
AE
330
AD
100
AcDbEntity
  8
Layer 1
370
     0
100
AcDbVertex
100
AcDb2dVertex
 10
251.352788565634
 20
-134.9040825400587
 30
0.0
  0
VERTEX
  5
AF
330
AD
100
AcDbEntity
  8
Layer 1
370
     0
100
AcDbVertex
100
AcDb2dVertex
 10
249.8534830104533
 20
-134.9040825400587
 30
0.0
  0
VERTEX
  5
B0
330
AD
100
AcDbEntity
  8
Layer 1
370
     0
100
AcDbVertex
100
AcDb2dVertex
 10
249.1021076851203
 20
-136.2056396143861
 30
0.0
  0
VERTEX
  5
B1
330
AD
100
AcDbEntity
  8
Layer 1
370
     0
100
AcDbVertex
100
AcDb2dVertex
 10
249.8534830104533
 20
-137.5037515932282
 30
0.0
  0
VERTEX
  5
B2
330
AD
100
AcDbEntity
  8
Layer 1
370
     0
100
AcDbVertex
100
AcDb2dVertex
 10
251.352788565634
 20
-137.5037515932282
 30
0.0
  0
VERTEX
  5
B3
330
AD
100
AcDbEntity
  8
Layer 1
370
     0
100
AcDbVertex
100
AcDb2dVertex
 10
252.104163890967
 20
-136.2056396143861
 30
0.0
  0
VERTEX
  5
B4
330
AD
100
AcDbEntity
  8
Layer 1
370
     0
100
AcDbVertex
100
AcDb2dVertex
 10
251.352788565634
 20
-134.9040825400587
 30
0.0
  0
SEQEND
  5
B5
330
AD
100
AcDbEntity
  8
Layer 1
370
     0
  0
POLYLINE
  5
B6
330
A0
100
AcDbEntity
  8
Layer 1
370
     0
100
AcDb2dPolyline
 66
     1
 10
0.0
 20
0.0
 30
0.0
  0
VERTEX
  5
B7
330
B6
100
AcDbEntity
  8
Layer 1
370
     0
100
AcDbVertex
100
AcDb2dVertex
 10
236.3562879183415
 20
-69.90443249120445
 30
0.0
  0
VERTEX
  5
B8
330
B6
100
AcDbEntity
  8
Layer 1
370
     0
100
AcDbVertex
100
AcDb2dVertex
 10
234.8569823631608
 20
-69.90443249120445
 30
0.0
  0
VERTEX
  5
B9
330
B6
100
AcDbEntity
  8
Layer 1
370
     0
100
AcDbVertex
100
AcDb2dVertex
 10
234.1056070378278
 20
-71.19909937456134
 30
0.0
  0
VERTEX
  5
BA
330
B6
100
AcDbEntity
  8
Layer 1
370
     0
100
AcDbVertex
100
AcDb2dVertex
 10
234.8569823631608
 20
-72.50100095843726
 30
0.0
  0
VERTEX
  5
BB
330
B6
100
AcDbEntity
  8
Layer 1
370
     0
100
AcDbVertex
100
AcDb2dVertex
 10
236.3562879183415
 20
-72.50100095843726
 30
0.0
  0
VERTEX
  5
BC
330
B6
100
AcDbEntity
  8
Layer 1
370
     0
100
AcDbVertex
100
AcDb2dVertex
 10
237.1076632436745
 20
-71.19909937456134
 30
0.0
  0
VERTEX
  5
BD
330
B6
100
AcDbEntity
  8
Layer 1
370
     0
100
AcDbVertex
100
AcDb2dVertex
 10
236.3562879183415
 20
-69.90443249120445
 30
0.0
  0
SEQEND
  5
BE
330
B6
100
AcDbEntity
  8
Layer 1
370
     0
  0
SPLINE
  5
BF
330
A0
100
AcDbEntity
  8
Layer 1
370
     0
100
AcDbSpline
210
0.0
220
0.0
230
1.0
 70
    11
 71
     3
 72
    17
 73
    13
 74
     0
 42
0.0000000001
 43
0.0000000001
 40
0.0
 40
0.0
 40
0.0
 40
0.0
 40
1.0
 40
1.0
 40
1.0
 40
2.0
 40
2.0
 40
2.0
 40
3.0
 40
3.0
 40
3.0
 40
4.0
 40
4.0
 40
4.0
 40
4.0
 10
234.2926757226768
 20
-110.142114230277
 30
0.0
 10
233.7070094901844
 20
-109.5564479977845
 30
0.0
 10
232.757885683998
 20
-109.5564479977845
 30
0.0
 10
232.1722194515056
 20
-110.142114230277
 30
0.0
 10
231.5865532190131
 20
-110.7277804627694
 30
0.0
 10
231.5865532190131
 20
-111.6772487785043
 30
0.0
 10
232.1722194515056
 20
-112.2629150109968
 30
0.0
 10
232.757885683998
 20
-112.8478922243922
 30
0.0
 10
233.7070094901844
 20
-112.8478922243922
 30
0.0
 10
234.2926757226768
 20
-112.2629150109968
 30
0.0
 10
234.8779974456208
 20
-111.6772487785043
 30
0.0
 10
234.8779974456208
 20
-110.7277804627694
 30
0.0
 10
234.2926757226768
 20
-110.142114230277
 30
0.0
  0
SPLINE
  5
C0
330
A0
100
AcDbEntity
  8
Layer 1
370
     0
100
AcDbSpline
210
0.0
220
0.0
230
1.0
 70
    11
 71
     3
 72
    26
 73
    22
 74
     0
 42
0.0000000001
 43
0.0000000001
 40
0.0
 40
0.0
 40
0.0
 40
0.0
 40
1.0
 40
1.0
 40
1.0
 40
2.0
 40
2.0
 40
2.0
 40
3.0
 40
3.0
 40
3.0
 40
4.0
 40
4.0
 40
4.0
 40
5.0
 40
5.0
 40
5.0
 40
6.0
 40
6.0
 40
6.0
 40
7.0
 40
7.0
 40
7.0
 40
7.0
 10
211.1058050687513
 20
-119.202026337387
 30
0.0
 10
211.1058050687513
 20
-119.202026337387
 30
0.0
 10
207.1074272485704
 20
-119.202026337387
 30
0.0
 10
207.1074272485704
 20
-119.202026337387
 30
0.0
 10
207.1074272485704
 20
-119.202026337387
 30
0.0
 10
207.1074272485704
 20
-126.1583631412035
 30
0.0
 10
207.1074272485704
 20
-126.1583631412035
 30
0.0
 10
207.1074272485704
 20
-127.1285020298498
 30
0.0
 10
207.4991346052433
 20
-128.000111187618
 30
0.0
 10
208.1306206076896
 20
-128.634697776001
 30
0.0
 10
208.7655517056211
 20
-129.2665282879959
 30
0.0
 10
209.6402614493261
 20
-129.6578911351203
 30
0.0
 10
210.6069552424871
 20
-129.6578911351203
 30
0.0
 10
212.5403428288094
 20
-129.6578911351203
 30
0.0
 10
214.1064832364039
 20
-128.0917507275257
 30
0.0
 10
214.1064832364039
 20
-126.1583631412035
 30
0.0
 10
214.1064832364039
 20
-126.1583631412035
 30
0.0
 10
214.1064832364039
 20
-119.202026337387
 30
0.0
 10
214.1064832364039
 20
-119.202026337387
 30
0.0
 10
214.1064832364039
 20
-119.202026337387
 30
0.0
 10
211.1058050687513
 20
-119.202026337387
 30
0.0
 10
211.1058050687513
 20
-119.202026337387
 30
0.0
  0
SPLINE
  5
C1
330
A0
100
AcDbEntity
  8
Layer 1
370
     0
100
AcDbSpline
210
0.0
220
0.0
230
1.0
 70
    11
 71
     3
 72
    17
 73
    13
 74
     0
 42
0.0000000001
 43
0.0000000001
 40
0.0
 40
0.0
 40
0.0
 40
0.0
 40
1.0
 40
1.0
 40
1.0
 40
2.0
 40
2.0
 40
2.0
 40
3.0
 40
3.0
 40
3.0
 40
4.0
 40
4.0
 40
4.0
 40
4.0
 10
211.6652885755559
 20
-87.51524384747883
 30
0.0
 10
211.0796223430634
 20
-86.92957761498636
 30
0.0
 10
210.1308430464256
 20
-86.92957761498636
 30
0.0
 10
209.5451768139332
 20
-87.51524384747883
 30
0.0
 10
208.9595105814407
 20
-88.1009100799713
 30
0.0
 10
208.9595105814407
 20
-89.04968937660911
 30
0.0
 10
209.5451768139332
 20
-89.63535560910158
 30
0.0
 10
210.1308430464256
 20
-90.22102184159405
 30
0.0
 10
211.0796223430634
 20
-90.22102184159405
 30
0.0
 10
211.6652885755559
 20
-89.63535560910158
 30
0.0
 10
212.2509548080484
 20
-89.04968937660911
 30
0.0
 10
212.2509548080484
 20
-88.1009100799713
 30
0.0
 10
211.6652885755559
 20
-87.51524384747883
 30
0.0
  0
SPLINE
  5
C2
330
A0
100
AcDbEntity
  8
Layer 1
370
     0
100
AcDbSpline
210
0.0
220
0.0
230
1.0
 70
    11
 71
     3
 72
    17
 73
    13
 74
     0
 42
0.0000000001
 43
0.0000000001
 40
0.0
 40
0.0
 40
0.0
 40
0.0
 40
1.0
 40
1.0
 40
1.0
 40
2.0
 40
2.0
 40
2.0
 40
3.0
 40
3.0
 40
3.0
 40
4.0
 40
4.0
 40
4.0
 40
4.0
 10
211.6652885755559
 20
-132.7695013773979
 30
0.0
 10
211.0796223430634
 20
-132.1838351449054
 30
0.0
 10
210.1308430464256
 20
-132.1838351449054
 30
0.0
 10
209.5451768139332
 20
-132.7695013773979
 30
0.0
 10
208.9595105814407
 20
-133.3551676098904
 30
0.0
 10
208.9595105814407
 20
-134.3039469065282
 30
0.0
 10
209.5451768139332
 20
-134.8896131390207
 30
0.0
 10
210.1308430464256
 20
-135.4787244669984
 30
0.0
 10
211.0796223430634
 20
-135.4787244669984
 30
0.0
 10
211.6652885755559
 20
-134.8896131390207
 30
0.0
 10
212.2509548080484
 20
-134.3039469065282
 30
0.0
 10
212.2509548080484
 20
-133.3551676098904
 30
0.0
 10
211.6652885755559
 20
-132.7695013773979
 30
0.0
  0
POLYLINE
  5
C3
330
A0
100
AcDbEntity
  8
Layer 1
370
     0
100
AcDb2dPolyline
 66
     1
 10
0.0
 20
0.0
 30
0.0
  0
VERTEX
  5
C4
330
C3
100
AcDbEntity
  8
Layer 1
370
     0
100
AcDbVertex
100
AcDb2dVertex
 10
186.3534830263283
 20
-69.90443249120445
 30
0.0
  0
VERTEX
  5
C5
330
C3
100
AcDbEntity
  8
Layer 1
370
     0
100
AcDbVertex
100
AcDb2dVertex
 10
184.8507323756623
 20
-69.90443249120445
 30
0.0
  0
VERTEX
  5
C6
330
C3
100
AcDbEntity
  8
Layer 1
370
     0
100
AcDbVertex
100
AcDb2dVertex
 10
184.1028021458146
 20
-71.20254447004659
 30
0.0
  0
VERTEX
  5
C7
330
C3
100
AcDbEntity
  8
Layer 1
370
     0
100
AcDbVertex
100
AcDb2dVertex
 10
184.8507323756623
 20
-72.50100095843726
 30
0.0
  0
VERTEX
  5
C8
330
C3
100
AcDbEntity
  8
Layer 1
370
     0
100
AcDbVertex
100
AcDb2dVertex
 10
186.3534830263283
 20
-72.50100095843726
 30
0.0
  0
VERTEX
  5
C9
330
C3
100
AcDbEntity
  8
Layer 1
370
     0
100
AcDbVertex
100
AcDb2dVertex
 10
187.101413256176
 20
-71.20254447004659
 30
0.0
  0
VERTEX
  5
CA
330
C3
100
AcDbEntity
  8
Layer 1
370
     0
100
AcDbVertex
100
AcDb2dVertex
 10
186.3534830263283
 20
-69.90443249120445
 30
0.0
  0
SEQEND
  5
CB
330
C3
100
AcDbEntity
  8
Layer 1
370
     0
  0
POLYLINE
  5
CC
330
A0
100
AcDbEntity
  8
Layer 1
370
     0
100
AcDb2dPolyline
 66
     1
 10
0.0
 20
0.0
 30
0.0
  0
VERTEX
  5
CD
330
CC
100
AcDbEntity
  8
Layer 1
370
     0
100
AcDbVertex
100
AcDb2dVertex
 10
171.3569823790358
 20
-84.90110539327125
 30
0.0
  0
VERTEX
  5
CE
330
CC
100
AcDbEntity
  8
Layer 1
370
     0
100
AcDbVertex
100
AcDb2dVertex
 10
169.8542317283698
 20
-84.90110539327125
 30
0.0
  0
VERTEX
  5
CF
330
CC
100
AcDbEntity
  8
Layer 1
370
     0
100
AcDbVertex
100
AcDb2dVertex
 10
169.1025118934883
 20
-86.1992173721134
 30
0.0
  0
VERTEX
  5
D0
330
CC
100
AcDbEntity
  8
Layer 1
370
     0
100
AcDbVertex
100
AcDb2dVertex
 10
169.8542317283698
 20
-87.50077444644079
 30
0.0
  0
VERTEX
  5
D1
330
CC
100
AcDbEntity
  8
Layer 1
370
     0
100
AcDbVertex
100
AcDb2dVertex
 10
171.3569823790358
 20
-87.50077444644079
 30
0.0
  0
VERTEX
  5
D2
330
CC
100
AcDbEntity
  8
Layer 1
370
     0
100
AcDbVertex
100
AcDb2dVertex
 10
172.1049126088835
 20
-86.1992173721134
 30
0.0
  0
VERTEX
  5
D3
330
CC
100
AcDbEntity
  8
Layer 1
370
     0
100
AcDbVertex
100
AcDb2dVertex
 10
171.3569823790358
 20
-84.90110539327125
 30
0.0
  0
SEQEND
  5
D4
330
CC
100
AcDbEntity
  8
Layer 1
370
     0
  0
POLYLINE
  5
D5
330
A0
100
AcDbEntity
  8
Layer 1
370
     0
100
AcDb2dPolyline
 66
     1
 10
0.0
 20
0.0
 30
0.0
  0
VERTEX
  5
D6
330
D5
100
AcDbEntity
  8
Layer 1
370
     0
100
AcDbVertex
100
AcDb2dVertex
 10
171.3569823790358
 20
-134.9040825400587
 30
0.0
  0
VERTEX
  5
D7
330
D5
100
AcDbEntity
  8
Layer 1
370
     0
100
AcDbVertex
100
AcDb2dVertex
 10
169.857676823855
 20
-134.9040825400587
 30
0.0
  0
VERTEX
  5
D8
330
D5
100
AcDbEntity
  8
Layer 1
370
     0
100
AcDbVertex
100
AcDb2dVertex
 10
169.106301498522
 20
-136.2056396143861
 30
0.0
  0
VERTEX
  5
D9
330
D5
100
AcDbEntity
  8
Layer 1
370
     0
100
AcDbVertex
100
AcDb2dVertex
 10
169.857676823855
 20
-137.5037515932282
 30
0.0
  0
VERTEX
  5
DA
330
D5
100
AcDbEntity
  8
Layer 1
370
     0
100
AcDbVertex
100
AcDb2dVertex
 10
171.3569823790358
 20
-137.5037515932282
 30
0.0
  0
VERTEX
  5
DB
330
D5
100
AcDbEntity
  8
Layer 1
370
     0
100
AcDbVertex
100
AcDb2dVertex
 10
172.1049126088835
 20
-136.2056396143861
 30
0.0
  0
VERTEX
  5
DC
330
D5
100
AcDbEntity
  8
Layer 1
370
     0
100
AcDbVertex
100
AcDb2dVertex
 10
171.3569823790358
 20
-134.9040825400587
 30
0.0
  0
SEQEND
  5
DD
330
D5
100
AcDbEntity
  8
Layer 1
370
     0
  0
SPLINE
  5
DE
330
A0
100
AcDbEntity
  8
Layer 1
370
     0
100
AcDbSpline
210
0.0
220
0.0
230
1.0
 70
    11
 71
     3
 72
   167
 73
   163
 74
     0
 42
0.0000000001
 43
0.0000000001
 40
0.0
 40
0.0
 40
0.0
 40
0.0
 40
1.0
 40
1.0
 40
1.0
 40
2.0
 40
2.0
 40
2.0
 40
3.0
 40
3.0
 40
3.0
 40
4.0
 40
4.0
 40
4.0
 40
5.0
 40
5.0
 40
5.0
 40
6.0
 40
6.0
 40
6.0
 40
7.0
 40
7.0
 40
7.0
 40
8.0
 40
8.0
 40
8.0
 40
9.0
 40
9.0
 40
9.0
 40
10.0
 40
10.0
 40
10.0
 40
11.0
 40
11.0
 40
11.0
 40
12.0
 40
12.0
 40
12.0
 40
13.0
 40
13.0
 40
13.0
 40
14.0
 40
14.0
 40
14.0
 40
15.0
 40
15.0
 40
15.0
 40
16.0
 40
16.0
 40
16.0
 40
17.0
 40
17.0
 40
17.0
 40
18.0
 40
18.0
 40
18.0
 40
19.0
 40
19.0
 40
19.0
 40
20.0
 40
20.0
 40
20.0
 40
21.0
 40
21.0
 40
21.0
 40
22.0
 40
22.0
 40
22.0
 40
23.0
 40
23.0
 40
23.0
 40
24.0
 40
24.0
 40
24.0
 40
25.0
 40
25.0
 40
25.0
 40
26.0
 40
26.0
 40
26.0
 40
27.0
 40
27.0
 40
27.0
 40
28.0
 40
28.0
 40
28.0
 40
29.0
 40
29.0
 40
29.0
 40
30.0
 40
30.0
 40
30.0
 40
31.0
 40
31.0
 40
31.0
 40
32.0
 40
32.0
 40
32.0
 40
33.0
 40
33.0
 40
33.0
 40
34.0
 40
34.0
 40
34.0
 40
35.0
 40
35.0
 40
35.0
 40
36.0
 40
36.0
 40
36.0
 40
37.0
 40
37.0
 40
37.0
 40
38.0
 40
38.0
 40
38.0
 40
39.0
 40
39.0
 40
39.0
 40
40.0
 40
40.0
 40
40.0
 40
41.0
 40
41.0
 40
41.0
 40
42.0
 40
42.0
 40
42.0
 40
43.0
 40
43.0
 40
43.0
 40
44.0
 40
44.0
 40
44.0
 40
45.0
 40
45.0
 40
45.0
 40
46.0
 40
46.0
 40
46.0
 40
47.0
 40
47.0
 40
47.0
 40
48.0
 40
48.0
 40
48.0
 40
49.0
 40
49.0
 40
49.0
 40
50.0
 40
50.0
 40
50.0
 40
51.0
 40
51.0
 40
51.0
 40
52.0
 40
52.0
 40
52.0
 40
53.0
 40
53.0
 40
53.0
 40
54.0
 40
54.0
 40
54.0
 40
54.0
 10
252.5664957050876
 20
-130.5295002928885
 30
0.0
 10
252.3546223327447
 20
-130.4833360133861
 30
0.0
 10
252.1465385654356
 20
-130.4233913519428
 30
0.0
 10
251.9456894986455
 20
-130.3496663085584
 30
0.0
 10
251.4692327930355
 20
-130.1870578016546
 30
0.0
 10
251.0175807749192
 20
-129.957614442337
 30
0.0
 10
250.6048583357863
 20
-129.6723605361583
 30
0.0
 10
249.0456081191622
 20
-128.5961127065663
 30
0.0
 10
248.0189696645578
 20
-126.7543646601517
 30
0.0
 10
248.0189696645578
 20
-124.6590575860227
 30
0.0
 10
248.0189696645578
 20
-124.6590575860227
 30
0.0
 10
248.0155245690725
 20
-97.6610500515396
 30
0.0
 10
248.0155245690725
 20
-97.6610500515396
 30
0.0
 10
248.0155245690725
 20
-95.6146633333012
 30
0.0
 10
249.042163023677
 20
-93.80529918444799
 30
0.0
 10
250.6048583357863
 20
-92.72216116388543
 30
0.0
 10
250.9755506099992
 20
-92.467913117074
 30
0.0
 10
251.3775932531278
 20
-92.24949406330916
 30
0.0
 10
251.800995488265
 20
-92.08344046092012
 30
0.0
 10
252.1182887824565
 20
-91.95666094706293
 30
0.0
 10
252.4500514776861
 20
-91.85399710160247
 30
0.0
 10
252.7921494593714
 20
-91.78716224918863
 30
0.0
 10
252.7993841598905
 20
-91.78371715370338
 30
0.0
 10
252.8028292553757
 20
-91.78371715370338
 30
0.0
 10
252.8062743508609
 20
-91.78371715370338
 30
0.0
 10
255.0324950534294
 20
-90.90521780496468
 30
0.0
 10
256.605870161543
 20
-88.73549666835433
 30
0.0
 10
256.605870161543
 20
-86.1992173721134
 30
0.0
 10
256.605870161543
 20
-82.88641355349715
 30
0.0
 10
253.9211072498878
 20
-80.20199515139048
 30
0.0
 10
250.6048583357863
 20
-80.20199515139048
 30
0.0
 10
250.1886908011681
 20
-80.20199515139048
 30
0.0
 10
249.7866481580395
 20
-80.24402531631053
 30
0.0
 10
249.3949408013665
 20
-80.32532956976242
 30
0.0
 10
249.1162325766098
 20
-80.42799341522287
 30
0.0
 10
248.8268445558489
 20
-80.51274276416001
 30
0.0
 10
248.5271212486321
 20
-80.57268742560336
 30
0.0
 10
248.5271212486321
 20
-80.57268742560336
 30
0.0
 10
248.5236761531469
 20
-80.57268742560336
 30
0.0
 10
248.5198865481131
 20
-80.57268742560336
 30
0.0
 10
248.1178439049844
 20
-80.65674775544346
 30
0.0
 10
247.698231274881
 20
-80.69946693946055
 30
0.0
 10
247.2675943392248
 20
-80.69946693946055
 30
0.0
 10
243.8138861152618
 20
-80.69946693946055
 30
0.0
 10
241.0164685812389
 20
-77.89447019537013
 30
0.0
 10
241.0164685812389
 20
-74.43059893972568
 30
0.0
 10
241.0164685812389
 20
-74.18358559343328
 30
0.0
 10
241.0305934727285
 20
-73.94380694765988
 30
0.0
 10
241.0588432557075
 20
-73.70368379233797
 30
0.0
 10
241.3234265889747
 20
-73.12869735584977
 30
0.0
 10
241.4998154778195
 20
-72.50789114940775
 30
0.0
 10
241.5704399352671
 20
-71.85160045946766
 30
0.0
 10
241.5949001132124
 20
-71.64007159667332
 30
0.0
 10
241.6055799092167
 20
-71.42130803335995
 30
0.0
 10
241.6055799092167
 20
-71.20254447004659
 30
0.0
 10
241.6055799092167
 20
-69.89375269520018
 30
0.0
 10
241.1894123745985
 20
-68.68383516078043
 30
0.0
 10
240.4766221187003
 20
-67.69957138064456
 30
0.0
 10
239.3900390026525
 20
-66.1861409339743
 30
0.0
 10
237.6120252227151
 20
-65.20187715383842
 30
0.0
 10
235.6049125930085
 20
-65.20187715383842
 30
0.0
 10
233.6012450587872
 20
-65.20187715383842
 30
0.0
 10
231.8232312788498
 20
-66.1861409339743
 30
0.0
 10
230.736648162802
 20
-67.69957138064456
 30
0.0
 10
230.4190103590619
 20
-68.13709850727129
 30
0.0
 10
230.1616617263138
 20
-68.62044540385183
 30
0.0
 10
229.9711479459795
 20
-69.13893227438194
 30
0.0
 10
229.9180934755066
 20
-69.39283581164484
 30
0.0
 10
229.8440239225737
 20
-69.64329425342251
 30
0.0
 10
229.7523843826661
 20
-69.8830728991959
 30
0.0
 10
228.9197048038812
 20
-72.10929360176435
 30
0.0
 10
226.7079535023508
 20
-73.70023869685272
 30
0.0
 10
224.1079399396328
 20
-73.70023869685272
 30
0.0
 10
224.1079399396328
 20
-73.70023869685272
 30
0.0
 10
197.1063150548901
 20
-73.70023869685272
 30
0.0
 10
197.1063150548901
 20
-73.70023869685272
 30
0.0
 10
194.5166367786278
 20
-73.70023869685272
 30
0.0
 10
192.3117756680679
 20
-72.12341849325387
 30
0.0
 10
191.4687608028273
 20
-69.91511228720873
 30
0.0
 10
191.4687608028273
 20
-69.91132268217495
 30
0.0
 10
191.4687608028273
 20
-69.91132268217495
 30
0.0
 10
191.4687608028273
 20
-69.91132268217495
 30
0.0
 10
191.3664414669153
 20
-69.64673934890776
 30
0.0
 10
191.2889268184972
 20
-69.37526582467008
 30
0.0
 10
191.2251925520201
 20
-69.09655759991337
 30
0.0
 10
191.2251925520201
 20
-69.09655759991337
 30
0.0
 10
191.2251925520201
 20
-69.09655759991337
 30
0.0
 10
191.2251925520201
 20
-69.09311250442812
 30
0.0
 10
191.0384683767195
 20
-68.59219562087279
 30
0.0
 10
190.7842203299081
 20
-68.12641871126701
 30
0.0
 10
190.4776068317209
 20
-67.69957138064456
 30
0.0
 10
189.3910237156731
 20
-66.1861409339743
 30
0.0
 10
187.6130099357356
 20
-65.20187715383842
 30
0.0
 10
185.6058973060291
 20
-65.20187715383842
 30
0.0
 10
183.6018852622593
 20
-65.20187715383842
 30
0.0
 10
181.8238714823218
 20
-66.1861409339743
 30
0.0
 10
180.7338432707888
 20
-67.69957138064456
 30
0.0
 10
180.0213975244391
 20
-68.68383516078043
 30
0.0
 10
179.6048854802724
 20
-69.89375269520018
 30
0.0
 10
179.6048854802724
 20
-71.20254447004659
 30
0.0
 10
179.6048854802724
 20
-71.46712780331377
 30
0.0
 10
179.6224554672472
 20
-71.72482094561046
 30
0.0
 10
179.6575954411967
 20
-71.97872448287337
 30
0.0
 10
179.7953992606067
 20
-72.37732203051678
 30
0.0
 10
179.8942735010334
 20
-72.79348956513496
 30
0.0
 10
179.9542181624767
 20
-73.2241265007912
 30
0.0
 10
179.9965928369453
 20
-73.53108450852696
 30
0.0
 10
180.0176079194053
 20
-73.84148761174797
 30
0.0
 10
180.0176079194053
 20
-74.15878090593948
 30
0.0
 10
180.0176079194053
 20
-77.7504652040867
 30
0.0
 10
177.2201903853825
 20
-80.66088187002576
 30
0.0
 10
173.7664821614195
 20
-80.66088187002576
 30
0.0
 10
173.3785644097804
 20
-80.66088187002576
 30
0.0
 10
173.000981944597
 20
-80.62505287697915
 30
0.0
 10
172.6340792754179
 20
-80.55477292908006
 30
0.0
 10
172.3340114586526
 20
-80.49827336312197
 30
0.0
 10
172.0411783424064
 20
-80.41696910967006
 30
0.0
 10
171.7593695317129
 20
-80.31499428330667
 30
0.0
 10
171.3852321620148
 20
-80.24058022082528
 30
0.0
 10
171.0007595058609
 20
-80.20199515139048
 30
0.0
 10
170.6056070537028
 20
-80.20199515139048
 30
0.0
 10
167.2931477446351
 20
-80.20199515139048
 30
0.0
 10
164.6045952279461
 20
-82.88641355349715
 30
0.0
 10
164.6045952279461
 20
-86.1992173721134
 30
0.0
 10
164.6045952279461
 20
-88.71827119092808
 30
0.0
 10
166.1535101581144
 20
-90.87007783101512
 30
0.0
 10
168.3514810777038
 20
-91.75891246620958
 30
0.0
 10
168.7393988293429
 20
-91.82919241410868
 30
0.0
 10
169.1097465940073
 20
-91.94219154602487
 30
0.0
 10
169.4663139767306
 20
-92.09033065189061
 30
0.0
 10
169.8718017153446
 20
-92.25982934976491
 30
0.0
 10
170.2528292760132
 20
-92.47135821255925
 30
0.0
 10
170.6056070537028
 20
-92.72905135485594
 30
0.0
 10
172.119037500373
 20
-93.81218937541848
 30
0.0
 10
173.1067463759942
 20
-95.625687638854
 30
0.0
 10
173.1067463759942
 20
-97.67827552896586
 30
0.0
 10
173.1067463759942
 20
-97.67827552896586
 30
0.0
 10
173.1067463759942
 20
-124.7017767700398
 30
0.0
 10
173.1067463759942
 20
-124.7017767700398
 30
0.0
 10
173.1067463759942
 20
-126.7474744691812
 30
0.0
 10
172.119037500373
 20
-128.5540825416462
 30
0.0
 10
170.6056070537028
 20
-129.640665657694
 30
0.0
 10
170.1997748055403
 20
-129.9334987739402
 30
0.0
 10
169.7519123924579
 20
-130.1732774197136
 30
0.0
 10
169.2754556868478
 20
-130.3496663085584
 30
0.0
 10
169.0356770410744
 20
-130.4378607529808
 30
0.0
 10
168.7852185992968
 20
-130.5115857963652
 30
0.0
 10
168.5278699665486
 20
-130.5715304578085
 30
0.0
 10
166.2382595070516
 20
-131.4148898325977
 30
0.0
 10
164.6045952279461
 20
-133.6163058476723
 30
0.0
 10
164.6045952279461
 20
-136.2021945189009
 30
0.0
 10
164.6045952279461
 20
-139.5149983375171
 30
0.0
 10
167.2931477446351
 20
-142.1994167396238
 30
0.0
 10
170.6056070537028
 20
-142.1994167396238
 30
0.0
 10
170.6056070537028
 20
-142.1994167396238
 30
0.0
 10
250.6048583357863
 20
-142.1994167396238
 30
0.0
 10
250.6048583357863
 20
-142.1994167396238
 30
0.0
 10
253.9211072498878
 20
-142.1994167396238
 30
0.0
 10
256.605870161543
 20
-139.5149983375171
 30
0.0
 10
256.605870161543
 20
-136.2021945189009
 30
0.0
 10
256.605870161543
 20
-133.5735866636552
 30
0.0
 10
254.9194959215132
 20
-131.3404757701163
 30
0.0
 10
252.5664957050876
 20
-130.5295002928885
 30
0.0
  0
SPLINE
  5
DF
330
A0
100
AcDbEntity
  8
Layer 1
370
     0
100
AcDbSpline
210
0.0
220
0.0
230
1.0
 70
    11
 71
     3
 72
    17
 73
    13
 74
     0
 42
0.0000000001
 43
0.0000000001
 40
0.0
 40
0.0
 40
0.0
 40
0.0
 40
1.0
 40
1.0
 40
1.0
 40
2.0
 40
2.0
 40
2.0
 40
3.0
 40
3.0
 40
3.0
 40
4.0
 40
4.0
 40
4.0
 40
4.0
 10
189.0382459379835
 20
-112.2629150109968
 30
0.0
 10
188.452579705491
 20
-112.8478922243922
 30
0.0
 10
187.5034558993047
 20
-112.8478922243922
 30
0.0
 10
186.9177896668122
 20
-112.2629150109968
 30
0.0
 10
186.3324679438683
 20
-111.6772487785043
 30
0.0
 10
186.3324679438683
 20
-110.7277804627694
 30
0.0
 10
186.9177896668122
 20
-110.142114230277
 30
0.0
 10
187.5034558993047
 20
-109.5564479977845
 30
0.0
 10
188.452579705491
 20
-109.5564479977845
 30
0.0
 10
189.0382459379835
 20
-110.142114230277
 30
0.0
 10
189.6235676609274
 20
-110.7277804627694
 30
0.0
 10
189.6235676609274
 20
-111.6772487785043
 30
0.0
 10
189.0382459379835
 20
-112.2629150109968
 30
0.0
  0
POLYLINE
  5
E0
330
A0
100
AcDbEntity
  8
Layer 1
370
     0
100
AcDb2dPolyline
 66
     1
 10
0.0
 20
0.0
 30
0.0
  0
VERTEX
  5
E1
330
E0
100
AcDbEntity
  8
Layer 1
370
     0
100
AcDbVertex
100
AcDb2dVertex
 10
209.3546630335989
 20
-109.0383056368029
 30
0.0
  0
VERTEX
  5
E2
330
E0
100
AcDbEntity
  8
Layer 1
370
     0
100
AcDbVertex
100
AcDb2dVertex
 10
211.852357260405
 20
-109.0383056368029
 30
0.0
  0
VERTEX
  5
E3
330
E0
100
AcDbEntity
  8
Layer 1
370
     0
100
AcDbVertex
100
AcDb2dVertex
 10
213.1046494692933
 20
-111.204581677928
 30
0.0
  0
VERTEX
  5
E4
330
E0
100
AcDbEntity
  8
Layer 1
370
     0
100
AcDbVertex
100
AcDb2dVertex
 10
211.852357260405
 20
-113.3667236044708
 30
0.0
  0
VERTEX
  5
E5
330
E0
100
AcDbEntity
  8
Layer 1
370
     0
100
AcDbVertex
100
AcDb2dVertex
 10
209.3546630335989
 20
-113.3667236044708
 30
0.0
  0
VERTEX
  5
E6
330
E0
100
AcDbEntity
  8
Layer 1
370
     0
100
AcDbVertex
100
AcDb2dVertex
 10
208.1023708247105
 20
-111.204581677928
 30
0.0
  0
VERTEX
  5
E7
330
E0
100
AcDbEntity
  8
Layer 1
370
     0
100
AcDbVertex
100
AcDb2dVertex
 10
209.3546630335989
 20
-109.0383056368029
 30
0.0
  0
SEQEND
  5
E8
330
E0
100
AcDbEntity
  8
Layer 1
370
     0
  0
ENDBLK
  5
A3
330
A0
100
AcDbEntity
  8
0
100
AcDbBlockEnd
  0
ENDSEC
  0
SECTION
  2
ENTITIES
  0
POLYLINE
  5
3C
330
1F
100
AcDbEntity
  8
Layer 1
370
     0
100
AcDb2dPolyline
 66
     1
 10
0.0
 20
0.0
 30
0.0
  0
VERTEX
  5
3D
330
3C
100
AcDbEntity
  8
Layer 1
370
     0
100
AcDbVertex
100
AcDb2dVertex
 10
79.819761807302
 20
-90.28561738194249
 30
0.0
  0
VERTEX
  5
3E
330
3C
100
AcDbEntity
  8
Layer 1
370
     0
100
AcDbVertex
100
AcDb2dVertex
 10
81.11890731478972
 20
-89.53596460435213
 30
0.0
  0
VERTEX
  5
3F
330
3C
100
AcDbEntity
  8
Layer 1
370
     0
100
AcDbVertex
100
AcDb2dVertex
 10
82.41805282227743
 20
-90.28561738194249
 30
0.0
  0
VERTEX
  5
40
330
3C
100
AcDbEntity
  8
Layer 1
370
     0
100
AcDbVertex
100
AcDb2dVertex
 10
82.41805282227743
 20
-91.78561195622027
 30
0.0
  0
VERTEX
  5
41
330
3C
100
AcDbEntity
  8
Layer 1
370
     0
100
AcDbVertex
100
AcDb2dVertex
 10
81.11890731478972
 20
-92.53595375290769
 30
0.0
  0
VERTEX
  5
42
330
3C
100
AcDbEntity
  8
Layer 1
370
     0
100
AcDbVertex
100
AcDb2dVertex
 10
79.819761807302
 20
-91.78561195622027
 30
0.0
  0
VERTEX
  5
43
330
3C
100
AcDbEntity
  8
Layer 1
370
     0
100
AcDbVertex
100
AcDb2dVertex
 10
79.819761807302
 20
-90.28561738194249
 30
0.0
  0
SEQEND
  5
44
330
3C
100
AcDbEntity
  8
Layer 1
370
     0
  0
POLYLINE
  5
45
330
1F
100
AcDbEntity
  8
Layer 1
370
     0
100
AcDb2dPolyline
 66
     1
 10
0.0
 20
0.0
 30
0.0
  0
VERTEX
  5
46
330
45
100
AcDbEntity
  8
Layer 1
370
     0
100
AcDbVertex
100
AcDb2dVertex
 10
79.82010631685053
 20
-140.2863552166645
 30
0.0
  0
VERTEX
  5
47
330
45
100
AcDbEntity
  8
Layer 1
370
     0
100
AcDbVertex
100
AcDb2dVertex
 10
81.11925182433825
 20
-139.5360134199771
 30
0.0
  0
VERTEX
  5
48
330
45
100
AcDbEntity
  8
Layer 1
370
     0
100
AcDbVertex
100
AcDb2dVertex
 10
82.41839733182596
 20
-140.2863552166645
 30
0.0
  0
VERTEX
  5
49
330
45
100
AcDbEntity
  8
Layer 1
370
     0
100
AcDbVertex
100
AcDb2dVertex
 10
82.41839733182596
 20
-141.7863497909423
 30
0.0
  0
VERTEX
  5
4A
330
45
100
AcDbEntity
  8
Layer 1
370
     0
100
AcDbVertex
100
AcDb2dVertex
 10
81.11925182433825
 20
-142.5360025685327
 30
0.0
  0
VERTEX
  5
4B
330
45
100
AcDbEntity
  8
Layer 1
370
     0
100
AcDbVertex
100
AcDb2dVertex
 10
79.82010631685053
 20
-141.7863497909423
 30
0.0
  0
VERTEX
  5
4C
330
45
100
AcDbEntity
  8
Layer 1
370
     0
100
AcDbVertex
100
AcDb2dVertex
 10
79.82010631685053
 20
-140.2863552166645
 30
0.0
  0
SEQEND
  5
4D
330
45
100
AcDbEntity
  8
Layer 1
370
     0
  0
SPLINE
  5
4E
330
1F
100
AcDbEntity
  8
Layer 1
370
     0
100
AcDbSpline
210
0.0
220
0.0
230
1.0
 70
    11
 71
     3
 72
    47
 73
    43
 74
     0
 42
0.0000000001
 43
0.0000000001
 40
0.0
 40
0.0
 40
0.0
 40
0.0
 40
1.0
 40
1.0
 40
1.0
 40
2.0
 40
2.0
 40
2.0
 40
3.0
 40
3.0
 40
3.0
 40
4.0
 40
4.0
 40
4.0
 40
5.0
 40
5.0
 40
5.0
 40
6.0
 40
6.0
 40
6.0
 40
7.0
 40
7.0
 40
7.0
 40
8.0
 40
8.0
 40
8.0
 40
9.0
 40
9.0
 40
9.0
 40
10.0
 40
10.0
 40
10.0
 40
11.0
 40
11.0
 40
11.0
 40
12.0
 40
12.0
 40
12.0
 40
13.0
 40
13.0
 40
13.0
 40
14.0
 40
14.0
 40
14.0
 40
14.0
 10
81.11787378614414
 20
-147.0366753104631
 30
0.0
 10
73.94242890946579
 20
-147.0366753104631
 30
0.0
 10
67.90627710975954
 20
-142.1577310842522
 30
0.0
 10
66.14238822131163
 20
-135.536257561602
 30
0.0
 10
65.80029023962632
 20
-134.2622612511567
 30
0.0
 10
65.62011174574775
 20
-132.9186740119092
 30
0.0
 10
65.62011174574775
 20
-131.53581268413
 30
0.0
 10
65.62011174574775
 20
-131.53581268413
 30
0.0
 10
65.62011174574775
 20
-100.5368435078519
 30
0.0
 10
65.62011174574775
 20
-100.5368435078519
 30
0.0
 10
65.62011174574775
 20
-98.78742402044203
 30
0.0
 10
65.90949976650874
 20
-97.10415036634896
 30
0.0
 10
66.44590113356215
 20
-95.53456486326914
 30
0.0
 10
68.52708331620157
 20
-89.42778860611529
 30
0.0
 10
74.30933157864489
 20
-85.03598088151878
 30
0.0
 10
81.11787378614414
 20
-85.03598088151878
 30
0.0
 10
87.92986108912865
 20
-85.03598088151878
 30
0.0
 10
93.71210935157198
 20
-89.42778860611529
 30
0.0
 10
95.7932915342114
 20
-95.53456486326914
 30
0.0
 10
95.8497911001695
 20
-95.70061846565818
 30
0.0
 10
95.90284557064234
 20
-95.86598304895017
 30
0.0
 10
95.95555553156667
 20
-96.03548174682447
 30
0.0
 10
95.95555553156667
 20
-96.03548174682447
 30
0.0
 10
99.11987573476864
 20
-96.03548174682447
 30
0.0
 10
99.11987573476864
 20
-96.03548174682447
 30
0.0
 10
99.11987573476864
 20
-96.03548174682447
 30
0.0
 10
99.11987573476864
 20
-100.0359266242966
 30
0.0
 10
99.11987573476864
 20
-100.0359266242966
 30
0.0
 10
99.11987573476864
 20
-100.0359266242966
 30
0.0
 10
96.60840112602152
 20
-100.0359266242966
 30
0.0
 10
96.60840112602152
 20
-100.0359266242966
 30
0.0
 10
96.61529131699201
 20
-100.2019802266856
 30
0.0
 10
96.61873641247726
 20
-100.3673448099776
 30
0.0
 10
96.61873641247726
 20
-100.5368435078519
 30
0.0
 10
96.61873641247726
 20
-100.5368435078519
 30
0.0
 10
96.61873641247726
 20
-131.53581268413
 30
0.0
 10
96.61873641247726
 20
-131.53581268413
 30
0.0
 10
96.61873641247726
 20
-132.9186740119092
 30
0.0
 10
96.43890242814723
 20
-134.2622612511567
 30
0.0
 10
96.09680444646192
 20
-135.536257561602
 30
0.0
 10
94.332915558014
 20
-142.1577310842522
 30
0.0
 10
88.29676375830776
 20
-147.0366753104631
 30
0.0
 10
81.11787378614414
 20
-147.0366753104631
 30
0.0
  0
SPLINE
  5
4F
330
1F
100
AcDbEntity
  8
Layer 1
370
     0
100
AcDbSpline
210
0.0
220
0.0
230
1.0
 70
    11
 71
     3
 72
    17
 73
    13
 74
     0
 42
0.0000000001
 43
0.0000000001
 40
0.0
 40
0.0
 40
0.0
 40
0.0
 40
1.0
 40
1.0
 40
1.0
 40
2.0
 40
2.0
 40
2.0
 40
3.0
 40
3.0
 40
3.0
 40
4.0
 40
4.0
 40
4.0
 40
4.0
 10
86.11877439253281
 20
-108.0361273601438
 30
0.0
 10
85.29057343787875
 20
-108.0361273601438
 30
0.0
 10
84.61877981825504
 20
-107.36433374052
 30
0.0
 10
84.61877981825504
 20
-106.536132785866
 30
0.0
 10
84.61877981825504
 20
-105.7079318312119
 30
0.0
 10
85.29057343787875
 20
-105.0361382115882
 30
0.0
 10
86.11877439253281
 20
-105.0361382115882
 30
0.0
 10
86.94731985673539
 20
-105.0361382115882
 30
0.0
 10
87.61876896681059
 20
-105.7079318312119
 30
0.0
 10
87.61876896681059
 20
-106.536132785866
 30
0.0
 10
87.61876896681059
 20
-107.36433374052
 30
0.0
 10
86.94731985673539
 20
-108.0361273601438
 30
0.0
 10
86.11877439253281
 20
-108.0361273601438
 30
0.0
  0
SPLINE
  5
50
330
1F
100
AcDbEntity
  8
Layer 1
370
     0
100
AcDbSpline
210
0.0
220
0.0
230
1.0
 70
    11
 71
     3
 72
    17
 73
    13
 74
     0
 42
0.0000000001
 43
0.0000000001
 40
0.0
 40
0.0
 40
0.0
 40
0.0
 40
1.0
 40
1.0
 40
1.0
 40
2.0
 40
2.0
 40
2.0
 40
3.0
 40
3.0
 40
3.0
 40
4.0
 40
4.0
 40
4.0
 40
4.0
 10
76.1186957274981
 20
-108.0361273601438
 30
0.0
 10
75.29049477284404
 20
-108.0361273601438
 30
0.0
 10
74.61870115322033
 20
-107.36433374052
 30
0.0
 10
74.61870115322033
 20
-106.536132785866
 30
0.0
 10
74.61870115322033
 20
-105.7079318312119
 30
0.0
 10
75.29049477284404
 20
-105.0361382115882
 30
0.0
 10
76.1186957274981
 20
-105.0361382115882
 30
0.0
 10
76.9472411917007
 20
-105.0361382115882
 30
0.0
 10
77.61869030177589
 20
-105.7079318312119
 30
0.0
 10
77.61869030177589
 20
-106.536132785866
 30
0.0
 10
77.61869030177589
 20
-107.36433374052
 30
0.0
 10
76.9472411917007
 20
-108.0361273601438
 30
0.0
 10
76.1186957274981
 20
-108.0361273601438
 30
0.0
  0
SPLINE
  5
51
330
1F
100
AcDbEntity
  8
Layer 1
370
     0
100
AcDbSpline
210
0.0
220
0.0
230
1.0
 70
    11
 71
     3
 72
    17
 73
    13
 74
     0
 42
0.0000000001
 43
0.0000000001
 40
0.0
 40
0.0
 40
0.0
 40
0.0
 40
1.0
 40
1.0
 40
1.0
 40
2.0
 40
2.0
 40
2.0
 40
3.0
 40
3.0
 40
3.0
 40
4.0
 40
4.0
 40
4.0
 40
4.0
 10
86.11877439253281
 20
-127.0365179803937
 30
0.0
 10
85.29057343787875
 20
-127.0365179803937
 30
0.0
 10
84.61877981825504
 20
-126.3647243607699
 30
0.0
 10
84.61877981825504
 20
-125.5365234061159
 30
0.0
 10
84.61877981825504
 20
-124.7076334323648
 30
0.0
 10
85.29057343787875
 20
-124.0365288318381
 30
0.0
 10
86.11877439253281
 20
-124.0365288318381
 30
0.0
 10
86.94731985673539
 20
-124.0365288318381
 30
0.0
 10
87.61876896681059
 20
-124.7076334323648
 30
0.0
 10
87.61876896681059
 20
-125.5365234061159
 30
0.0
 10
87.61876896681059
 20
-126.3647243607699
 30
0.0
 10
86.94731985673539
 20
-127.0365179803937
 30
0.0
 10
86.11877439253281
 20
-127.0365179803937
 30
0.0
  0
SPLINE
  5
52
330
1F
100
AcDbEntity
  8
Layer 1
370
     0
100
AcDbSpline
210
0.0
220
0.0
230
1.0
 70
    11
 71
     3
 72
    17
 73
    13
 74
     0
 42
0.0000000001
 43
0.0000000001
 40
0.0
 40
0.0
 40
0.0
 40
0.0
 40
1.0
 40
1.0
 40
1.0
 40
2.0
 40
2.0
 40
2.0
 40
3.0
 40
3.0
 40
3.0
 40
4.0
 40
4.0
 40
4.0
 40
4.0
 10
76.11904023704663
 20
-127.0365179803937
 30
0.0
 10
75.29083928239257
 20
-127.0365179803937
 30
0.0
 10
74.61904566276885
 20
-126.3647243607699
 30
0.0
 10
74.61904566276885
 20
-125.5365234061159
 30
0.0
 10
74.61904566276885
 20
-124.7076334323648
 30
0.0
 10
75.29083928239257
 20
-124.0365288318381
 30
0.0
 10
76.11904023704663
 20
-124.0365288318381
 30
0.0
 10
76.9472411917007
 20
-124.0365288318381
 30
0.0
 10
77.61903481132441
 20
-124.7076334323648
 30
0.0
 10
77.61903481132441
 20
-125.5365234061159
 30
0.0
 10
77.61903481132441
 20
-126.3647243607699
 30
0.0
 10
76.9472411917007
 20
-127.0365179803937
 30
0.0
 10
76.11904023704663
 20
-127.0365179803937
 30
0.0
  0
POLYLINE
  5
53
330
1F
100
AcDbEntity
  8
Layer 1
370
     0
100
AcDb2dPolyline
 66
     1
 10
0.0
 20
0.0
 30
0.0
  0
VERTEX
  5
54
330
53
100
AcDbEntity
  8
Layer 1
370
     0
100
AcDbVertex
100
AcDb2dVertex
 10
117.0107733539938
 20
-141.4621663057803
 30
0.0
  0
VERTEX
  5
55
330
53
100
AcDbEntity
  8
Layer 1
370
     0
100
AcDbVertex
100
AcDb2dVertex
 10
115.7116278465061
 20
-142.2118190833707
 30
0.0
  0
VERTEX
  5
56
330
53
100
AcDbEntity
  8
Layer 1
370
     0
100
AcDbVertex
100
AcDb2dVertex
 10
114.4124823390184
 20
-141.4621663057803
 30
0.0
  0
VERTEX
  5
57
330
53
100
AcDbEntity
  8
Layer 1
370
     0
100
AcDbVertex
100
AcDb2dVertex
 10
114.4124823390184
 20
-139.9621717315025
 30
0.0
  0
VERTEX
  5
58
330
53
100
AcDbEntity
  8
Layer 1
370
     0
100
AcDbVertex
100
AcDb2dVertex
 10
115.7116278465061
 20
-139.2118299348151
 30
0.0
  0
VERTEX
  5
59
330
53
100
AcDbEntity
  8
Layer 1
370
     0
100
AcDbVertex
100
AcDb2dVertex
 10
117.0107733539938
 20
-139.9621717315025
 30
0.0
  0
VERTEX
  5
5A
330
53
100
AcDbEntity
  8
Layer 1
370
     0
100
AcDbVertex
100
AcDb2dVertex
 10
117.0107733539938
 20
-141.4621663057803
 30
0.0
  0
SEQEND
  5
5B
330
53
100
AcDbEntity
  8
Layer 1
370
     0
  0
POLYLINE
  5
5C
330
1F
100
AcDbEntity
  8
Layer 1
370
     0
100
AcDb2dPolyline
 66
     1
 10
0.0
 20
0.0
 30
0.0
  0
VERTEX
  5
5D
330
5C
100
AcDbEntity
  8
Layer 1
370
     0
100
AcDbVertex
100
AcDb2dVertex
 10
117.0104288444453
 20
-91.46142847105826
 30
0.0
  0
VERTEX
  5
5E
330
5C
100
AcDbEntity
  8
Layer 1
370
     0
100
AcDbVertex
100
AcDb2dVertex
 10
115.7112833369576
 20
-92.21177026774568
 30
0.0
  0
VERTEX
  5
5F
330
5C
100
AcDbEntity
  8
Layer 1
370
     0
100
AcDbVertex
100
AcDb2dVertex
 10
114.4121378294699
 20
-91.46142847105826
 30
0.0
  0
VERTEX
  5
60
330
5C
100
AcDbEntity
  8
Layer 1
370
     0
100
AcDbVertex
100
AcDb2dVertex
 10
114.4121378294699
 20
-89.96143389678048
 30
0.0
  0
VERTEX
  5
61
330
5C
100
AcDbEntity
  8
Layer 1
370
     0
100
AcDbVertex
100
AcDb2dVertex
 10
115.7112833369576
 20
-89.21178111919012
 30
0.0
  0
VERTEX
  5
62
330
5C
100
AcDbEntity
  8
Layer 1
370
     0
100
AcDbVertex
100
AcDb2dVertex
 10
117.0104288444453
 20
-89.96143389678048
 30
0.0
  0
VERTEX
  5
63
330
5C
100
AcDbEntity
  8
Layer 1
370
     0
100
AcDbVertex
100
AcDb2dVertex
 10
117.0104288444453
 20
-91.46142847105826
 30
0.0
  0
SEQEND
  5
64
330
5C
100
AcDbEntity
  8
Layer 1
370
     0
  0
SPLINE
  5
65
330
1F
100
AcDbEntity
  8
Layer 1
370
     0
100
AcDbSpline
210
0.0
220
0.0
230
1.0
 70
    11
 71
     3
 72
    47
 73
    43
 74
     0
 42
0.0000000001
 43
0.0000000001
 40
0.0
 40
0.0
 40
0.0
 40
0.0
 40
1.0
 40
1.0
 40
1.0
 40
2.0
 40
2.0
 40
2.0
 40
3.0
 40
3.0
 40
3.0
 40
4.0
 40
4.0
 40
4.0
 40
5.0
 40
5.0
 40
5.0
 40
6.0
 40
6.0
 40
6.0
 40
7.0
 40
7.0
 40
7.0
 40
8.0
 40
8.0
 40
8.0
 40
9.0
 40
9.0
 40
9.0
 40
10.0
 40
10.0
 40
10.0
 40
11.0
 40
11.0
 40
11.0
 40
12.0
 40
12.0
 40
12.0
 40
13.0
 40
13.0
 40
13.0
 40
14.0
 40
14.0
 40
14.0
 40
14.0
 10
115.7126613751517
 20
-84.71110837725972
 30
0.0
 10
122.8881062518301
 20
-84.71110837725972
 30
0.0
 10
128.9242580515363
 20
-89.59005260347055
 30
0.0
 10
130.6881469399842
 20
-96.21152612612073
 30
0.0
 10
131.0302449216695
 20
-97.48552243656613
 30
0.0
 10
131.2104234155481
 20
-98.82910967581356
 30
0.0
 10
131.2104234155481
 20
-100.2119710035929
 30
0.0
 10
131.2104234155481
 20
-100.2119710035929
 30
0.0
 10
131.2104234155481
 20
-131.2109401798709
 30
0.0
 10
131.2104234155481
 20
-131.2109401798709
 30
0.0
 10
131.2104234155481
 20
-132.9603596672808
 30
0.0
 10
130.9210353947871
 20
-134.6436333213738
 30
0.0
 10
130.3846340277337
 20
-136.2132188244536
 30
0.0
 10
128.3034518450943
 20
-142.3199950816075
 30
0.0
 10
122.521203582651
 20
-146.711802806204
 30
0.0
 10
115.7126613751517
 20
-146.711802806204
 30
0.0
 10
108.9006740721672
 20
-146.711802806204
 30
0.0
 10
103.1184258097239
 20
-142.3199950816075
 30
0.0
 10
101.0372436270845
 20
-136.2132188244536
 30
0.0
 10
100.9807440611263
 20
-136.0471652220646
 30
0.0
 10
100.9276895906535
 20
-135.8818006387726
 30
0.0
 10
100.8749796297292
 20
-135.7123019408983
 30
0.0
 10
100.8749796297292
 20
-135.7123019408983
 30
0.0
 10
97.7106594265272
 20
-135.7123019408983
 30
0.0
 10
97.7106594265272
 20
-135.7123019408983
 30
0.0
 10
97.7106594265272
 20
-135.7123019408983
 30
0.0
 10
97.7106594265272
 20
-131.7118570634262
 30
0.0
 10
97.7106594265272
 20
-131.7118570634262
 30
0.0
 10
97.7106594265272
 20
-131.7118570634262
 30
0.0
 10
100.2221340352743
 20
-131.7118570634262
 30
0.0
 10
100.2221340352743
 20
-131.7118570634262
 30
0.0
 10
100.2152438443038
 20
-131.5458034610372
 30
0.0
 10
100.2117987488186
 20
-131.3804388777452
 30
0.0
 10
100.2117987488186
 20
-131.2109401798709
 30
0.0
 10
100.2117987488186
 20
-131.2109401798709
 30
0.0
 10
100.2117987488186
 20
-100.2119710035929
 30
0.0
 10
100.2117987488186
 20
-100.2119710035929
 30
0.0
 10
100.2117987488186
 20
-98.82910967581356
 30
0.0
 10
100.3916327331486
 20
-97.48552243656613
 30
0.0
 10
100.7337307148339
 20
-96.21152612612073
 30
0.0
 10
102.4976196032818
 20
-89.59005260347055
 30
0.0
 10
108.5337714029881
 20
-84.71110837725972
 30
0.0
 10
115.7126613751517
 20
-84.71110837725972
 30
0.0
  0
SPLINE
  5
66
330
1F
100
AcDbEntity
  8
Layer 1
370
     0
100
AcDbSpline
210
0.0
220
0.0
230
1.0
 70
    11
 71
     3
 72
    17
 73
    13
 74
     0
 42
0.0000000001
 43
0.0000000001
 40
0.0
 40
0.0
 40
0.0
 40
0.0
 40
1.0
 40
1.0
 40
1.0
 40
2.0
 40
2.0
 40
2.0
 40
3.0
 40
3.0
 40
3.0
 40
4.0
 40
4.0
 40
4.0
 40
4.0
 10
110.711760768763
 20
-123.711656327579
 30
0.0
 10
111.5399617234171
 20
-123.711656327579
 30
0.0
 10
112.2117553430408
 20
-124.3834499472027
 30
0.0
 10
112.2117553430408
 20
-125.2116509018568
 30
0.0
 10
112.2117553430408
 20
-126.0398518565109
 30
0.0
 10
111.5399617234171
 20
-126.7116454761346
 30
0.0
 10
110.711760768763
 20
-126.7116454761346
 30
0.0
 10
109.8832153045605
 20
-126.7116454761346
 30
0.0
 10
109.2117661944853
 20
-126.0398518565109
 30
0.0
 10
109.2117661944853
 20
-125.2116509018568
 30
0.0
 10
109.2117661944853
 20
-124.3834499472027
 30
0.0
 10
109.8832153045605
 20
-123.711656327579
 30
0.0
 10
110.711760768763
 20
-123.711656327579
 30
0.0
  0
SPLINE
  5
67
330
1F
100
AcDbEntity
  8
Layer 1
370
     0
100
AcDbSpline
210
0.0
220
0.0
230
1.0
 70
    11
 71
     3
 72
    17
 73
    13
 74
     0
 42
0.0000000001
 43
0.0000000001
 40
0.0
 40
0.0
 40
0.0
 40
0.0
 40
1.0
 40
1.0
 40
1.0
 40
2.0
 40
2.0
 40
2.0
 40
3.0
 40
3.0
 40
3.0
 40
4.0
 40
4.0
 40
4.0
 40
4.0
 10
120.7118394337977
 20
-123.711656327579
 30
0.0
 10
121.5400403884518
 20
-123.711656327579
 30
0.0
 10
122.2118340080755
 20
-124.3834499472027
 30
0.0
 10
122.2118340080755
 20
-125.2116509018568
 30
0.0
 10
122.2118340080755
 20
-126.0398518565109
 30
0.0
 10
121.5400403884518
 20
-126.7116454761346
 30
0.0
 10
120.7118394337977
 20
-126.7116454761346
 30
0.0
 10
119.8832939695952
 20
-126.7116454761346
 30
0.0
 10
119.21184485952
 20
-126.0398518565109
 30
0.0
 10
119.21184485952
 20
-125.2116509018568
 30
0.0
 10
119.21184485952
 20
-124.3834499472027
 30
0.0
 10
119.8832939695952
 20
-123.711656327579
 30
0.0
 10
120.7118394337977
 20
-123.711656327579
 30
0.0
  0
SPLINE
  5
68
330
1F
100
AcDbEntity
  8
Layer 1
370
     0
100
AcDbSpline
210
0.0
220
0.0
230
1.0
 70
    11
 71
     3
 72
    17
 73
    13
 74
     0
 42
0.0000000001
 43
0.0000000001
 40
0.0
 40
0.0
 40
0.0
 40
0.0
 40
1.0
 40
1.0
 40
1.0
 40
2.0
 40
2.0
 40
2.0
 40
3.0
 40
3.0
 40
3.0
 40
4.0
 40
4.0
 40
4.0
 40
4.0
 10
110.711760768763
 20
-104.7112657073291
 30
0.0
 10
111.5399617234171
 20
-104.7112657073291
 30
0.0
 10
112.2117553430408
 20
-105.3830593269528
 30
0.0
 10
112.2117553430408
 20
-106.2112602816069
 30
0.0
 10
112.2117553430408
 20
-107.040150255358
 30
0.0
 10
111.5399617234171
 20
-107.7112548558847
 30
0.0
 10
110.711760768763
 20
-107.7112548558847
 30
0.0
 10
109.8832153045605
 20
-107.7112548558847
 30
0.0
 10
109.2117661944853
 20
-107.040150255358
 30
0.0
 10
109.2117661944853
 20
-106.2112602816069
 30
0.0
 10
109.2117661944853
 20
-105.3830593269528
 30
0.0
 10
109.8832153045605
 20
-104.7112657073291
 30
0.0
 10
110.711760768763
 20
-104.7112657073291
 30
0.0
  0
SPLINE
  5
69
330
1F
100
AcDbEntity
  8
Layer 1
370
     0
100
AcDbSpline
210
0.0
220
0.0
230
1.0
 70
    11
 71
     3
 72
    17
 73
    13
 74
     0
 42
0.0000000001
 43
0.0000000001
 40
0.0
 40
0.0
 40
0.0
 40
0.0
 40
1.0
 40
1.0
 40
1.0
 40
2.0
 40
2.0
 40
2.0
 40
3.0
 40
3.0
 40
3.0
 40
4.0
 40
4.0
 40
4.0
 40
4.0
 10
120.7114949242492
 20
-104.7112657073291
 30
0.0
 10
121.5396958789033
 20
-104.7112657073291
 30
0.0
 10
122.211489498527
 20
-105.3830593269528
 30
0.0
 10
122.211489498527
 20
-106.2112602816069
 30
0.0
 10
122.211489498527
 20
-107.040150255358
 30
0.0
 10
121.5396958789033
 20
-107.7112548558847
 30
0.0
 10
120.7114949242492
 20
-107.7112548558847
 30
0.0
 10
119.8832939695952
 20
-107.7112548558847
 30
0.0
 10
119.2115003499714
 20
-107.040150255358
 30
0.0
 10
119.2115003499714
 20
-106.2112602816069
 30
0.0
 10
119.2115003499714
 20
-105.3830593269528
 30
0.0
 10
119.8832939695952
 20
-104.7112657073291
 30
0.0
 10
120.7114949242492
 20
-104.7112657073291
 30
0.0
  0
POLYLINE
  5
6A
330
1F
100
AcDbEntity
  8
Layer 1
370
     0
100
AcDb2dPolyline
 66
     1
 10
0.0
 20
0.0
 30
0.0
  0
VERTEX
  5
6B
330
6A
100
AcDbEntity
  8
Layer 1
370
     0
100
AcDbVertex
100
AcDb2dVertex
 10
147.029440609944
 20
-90.34452851474026
 30
0.0
  0
VERTEX
  5
6C
330
6A
100
AcDbEntity
  8
Layer 1
370
     0
100
AcDbVertex
100
AcDb2dVertex
 10
148.3285861174317
 20
-89.59418671805285
 30
0.0
  0
VERTEX
  5
6D
330
6A
100
AcDbEntity
  8
Layer 1
370
     0
100
AcDbVertex
100
AcDb2dVertex
 10
149.6277316249195
 20
-90.34452851474026
 30
0.0
  0
VERTEX
  5
6E
330
6A
100
AcDbEntity
  8
Layer 1
370
     0
100
AcDbVertex
100
AcDb2dVertex
 10
149.6277316249195
 20
-91.84383406992099
 30
0.0
  0
VERTEX
  5
6F
330
6A
100
AcDbEntity
  8
Layer 1
370
     0
100
AcDbVertex
100
AcDb2dVertex
 10
148.3285861174317
 20
-92.59417586660841
 30
0.0
  0
VERTEX
  5
70
330
6A
100
AcDbEntity
  8
Layer 1
370
     0
100
AcDbVertex
100
AcDb2dVertex
 10
147.029440609944
 20
-91.84383406992099
 30
0.0
  0
VERTEX
  5
71
330
6A
100
AcDbEntity
  8
Layer 1
370
     0
100
AcDbVertex
100
AcDb2dVertex
 10
147.029440609944
 20
-90.34452851474026
 30
0.0
  0
SEQEND
  5
72
330
6A
100
AcDbEntity
  8
Layer 1
370
     0
  0
POLYLINE
  5
73
330
1F
100
AcDbEntity
  8
Layer 1
370
     0
100
AcDb2dPolyline
 66
     1
 10
0.0
 20
0.0
 30
0.0
  0
VERTEX
  5
74
330
73
100
AcDbEntity
  8
Layer 1
370
     0
100
AcDbVertex
100
AcDb2dVertex
 10
147.0297851194926
 20
-140.3445773303652
 30
0.0
  0
VERTEX
  5
75
330
73
100
AcDbEntity
  8
Layer 1
370
     0
100
AcDbVertex
100
AcDb2dVertex
 10
148.3289306269803
 20
-139.5942355336778
 30
0.0
  0
VERTEX
  5
76
330
73
100
AcDbEntity
  8
Layer 1
370
     0
100
AcDbVertex
100
AcDb2dVertex
 10
149.628076134468
 20
-140.3445773303652
 30
0.0
  0
VERTEX
  5
77
330
73
100
AcDbEntity
  8
Layer 1
370
     0
100
AcDbVertex
100
AcDb2dVertex
 10
149.628076134468
 20
-141.844571904643
 30
0.0
  0
VERTEX
  5
78
330
73
100
AcDbEntity
  8
Layer 1
370
     0
100
AcDbVertex
100
AcDb2dVertex
 10
148.3289306269803
 20
-142.5942246822334
 30
0.0
  0
VERTEX
  5
79
330
73
100
AcDbEntity
  8
Layer 1
370
     0
100
AcDbVertex
100
AcDb2dVertex
 10
147.0297851194926
 20
-141.844571904643
 30
0.0
  0
VERTEX
  5
7A
330
73
100
AcDbEntity
  8
Layer 1
370
     0
100
AcDbVertex
100
AcDb2dVertex
 10
147.0297851194926
 20
-140.3445773303652
 30
0.0
  0
SEQEND
  5
7B
330
73
100
AcDbEntity
  8
Layer 1
370
     0
  0
SPLINE
  5
7C
330
1F
100
AcDbEntity
  8
Layer 1
370
     0
100
AcDbSpline
210
0.0
220
0.0
230
1.0
 70
    11
 71
     3
 72
    47
 73
    43
 74
     0
 42
0.0000000001
 43
0.0000000001
 40
0.0
 40
0.0
 40
0.0
 40
0.0
 40
1.0
 40
1.0
 40
1.0
 40
2.0
 40
2.0
 40
2.0
 40
3.0
 40
3.0
 40
3.0
 40
4.0
 40
4.0
 40
4.0
 40
5.0
 40
5.0
 40
5.0
 40
6.0
 40
6.0
 40
6.0
 40
7.0
 40
7.0
 40
7.0
 40
8.0
 40
8.0
 40
8.0
 40
9.0
 40
9.0
 40
9.0
 40
10.0
 40
10.0
 40
10.0
 40
11.0
 40
11.0
 40
11.0
 40
12.0
 40
12.0
 40
12.0
 40
13.0
 40
13.0
 40
13.0
 40
14.0
 40
14.0
 40
14.0
 40
14.0
 10
148.3275525887862
 20
-147.0948974241638
 30
0.0
 10
141.1521077121078
 20
-147.0948974241638
 30
0.0
 10
135.1159559124016
 20
-142.215953197953
 30
0.0
 10
133.3520670239537
 20
-135.5944796753028
 30
0.0
 10
133.0099690422684
 20
-134.3204833648574
 30
0.0
 10
132.8297905483898
 20
-132.97689612561
 30
0.0
 10
132.8297905483898
 20
-131.5940347978307
 30
0.0
 10
132.8297905483898
 20
-131.5940347978307
 30
0.0
 10
132.8297905483898
 20
-100.5950656215526
 30
0.0
 10
132.8297905483898
 20
-100.5950656215526
 30
0.0
 10
132.8297905483898
 20
-98.84564613414275
 30
0.0
 10
133.1191785691508
 20
-97.16237248004968
 30
0.0
 10
133.6555799362042
 20
-95.59278697696986
 30
0.0
 10
135.7367621188436
 20
-89.48601071981601
 30
0.0
 10
141.5190103812869
 20
-85.0942029952195
 30
0.0
 10
148.3275525887862
 20
-85.0942029952195
 30
0.0
 10
155.1395398917707
 20
-85.0942029952195
 30
0.0
 10
160.921788154214
 20
-89.48601071981601
 30
0.0
 10
163.0029703368534
 20
-95.59278697696986
 30
0.0
 10
163.0594699028115
 20
-95.7588405793589
 30
0.0
 10
163.1125243732844
 20
-95.92420516265089
 30
0.0
 10
163.1652343342087
 20
-96.0937038605252
 30
0.0
 10
163.1652343342087
 20
-96.0937038605252
 30
0.0
 10
166.3295545374107
 20
-96.0937038605252
 30
0.0
 10
166.3295545374107
 20
-96.0937038605252
 30
0.0
 10
166.3295545374107
 20
-96.0937038605252
 30
0.0
 10
166.3295545374107
 20
-100.0941487379973
 30
0.0
 10
166.3295545374107
 20
-100.0941487379973
 30
0.0
 10
166.3295545374107
 20
-100.0941487379973
 30
0.0
 10
163.8180799286635
 20
-100.0941487379973
 30
0.0
 10
163.8180799286635
 20
-100.0941487379973
 30
0.0
 10
163.824970119634
 20
-100.2602023403863
 30
0.0
 10
163.8284152151193
 20
-100.4262559427754
 30
0.0
 10
163.8284152151193
 20
-100.5950656215526
 30
0.0
 10
163.8284152151193
 20
-100.5950656215526
 30
0.0
 10
163.8284152151193
 20
-131.5940347978307
 30
0.0
 10
163.8284152151193
 20
-131.5940347978307
 30
0.0
 10
163.8284152151193
 20
-132.97689612561
 30
0.0
 10
163.6485812307893
 20
-134.3204833648574
 30
0.0
 10
163.3064832491039
 20
-135.5944796753028
 30
0.0
 10
161.542594360656
 20
-142.215953197953
 30
0.0
 10
155.5064425609498
 20
-147.0948974241638
 30
0.0
 10
148.3275525887862
 20
-147.0948974241638
 30
0.0
  0
SPLINE
  5
7D
330
1F
100
AcDbEntity
  8
Layer 1
370
     0
100
AcDbSpline
210
0.0
220
0.0
230
1.0
 70
    11
 71
     3
 72
    17
 73
    13
 74
     0
 42
0.0000000001
 43
0.0000000001
 40
0.0
 40
0.0
 40
0.0
 40
0.0
 40
1.0
 40
1.0
 40
1.0
 40
2.0
 40
2.0
 40
2.0
 40
3.0
 40
3.0
 40
3.0
 40
4.0
 40
4.0
 40
4.0
 40
4.0
 10
153.3284531951748
 20
-108.0943494738445
 30
0.0
 10
152.5002522405208
 20
-108.0943494738445
 30
0.0
 10
151.8284586208971
 20
-107.4225558542208
 30
0.0
 10
151.8284586208971
 20
-106.5943548995667
 30
0.0
 10
151.8284586208971
 20
-105.7661539449126
 30
0.0
 10
152.5002522405208
 20
-105.0943603252889
 30
0.0
 10
153.3284531951748
 20
-105.0943603252889
 30
0.0
 10
154.1569986593774
 20
-105.0943603252889
 30
0.0
 10
154.8284477694526
 20
-105.7661539449126
 30
0.0
 10
154.8284477694526
 20
-106.5943548995667
 30
0.0
 10
154.8284477694526
 20
-107.4225558542208
 30
0.0
 10
154.1569986593774
 20
-108.0943494738445
 30
0.0
 10
153.3284531951748
 20
-108.0943494738445
 30
0.0
  0
SPLINE
  5
7E
330
1F
100
AcDbEntity
  8
Layer 1
370
     0
100
AcDbSpline
210
0.0
220
0.0
230
1.0
 70
    11
 71
     3
 72
    17
 73
    13
 74
     0
 42
0.0000000001
 43
0.0000000001
 40
0.0
 40
0.0
 40
0.0
 40
0.0
 40
1.0
 40
1.0
 40
1.0
 40
2.0
 40
2.0
 40
2.0
 40
3.0
 40
3.0
 40
3.0
 40
4.0
 40
4.0
 40
4.0
 40
4.0
 10
143.3283745301401
 20
-108.0943494738445
 30
0.0
 10
142.5001735754861
 20
-108.0943494738445
 30
0.0
 10
141.8283799558623
 20
-107.4225558542208
 30
0.0
 10
141.8283799558623
 20
-106.5943548995667
 30
0.0
 10
141.8283799558623
 20
-105.7661539449126
 30
0.0
 10
142.5001735754861
 20
-105.0943603252889
 30
0.0
 10
143.3283745301401
 20
-105.0943603252889
 30
0.0
 10
144.1569199943427
 20
-105.0943603252889
 30
0.0
 10
144.8283691044179
 20
-105.7661539449126
 30
0.0
 10
144.8283691044179
 20
-106.5943548995667
 30
0.0
 10
144.8283691044179
 20
-107.4225558542208
 30
0.0
 10
144.1569199943427
 20
-108.0943494738445
 30
0.0
 10
143.3283745301401
 20
-108.0943494738445
 30
0.0
  0
SPLINE
  5
7F
330
1F
100
AcDbEntity
  8
Layer 1
370
     0
100
AcDbSpline
210
0.0
220
0.0
230
1.0
 70
    11
 71
     3
 72
    17
 73
    13
 74
     0
 42
0.0000000001
 43
0.0000000001
 40
0.0
 40
0.0
 40
0.0
 40
0.0
 40
1.0
 40
1.0
 40
1.0
 40
2.0
 40
2.0
 40
2.0
 40
3.0
 40
3.0
 40
3.0
 40
4.0
 40
4.0
 40
4.0
 40
4.0
 10
153.3284531951748
 20
-127.0947400940944
 30
0.0
 10
152.5002522405208
 20
-127.0947400940944
 30
0.0
 10
151.8284586208971
 20
-126.4229464744707
 30
0.0
 10
151.8284586208971
 20
-125.5947455198166
 30
0.0
 10
151.8284586208971
 20
-124.7658555460655
 30
0.0
 10
152.5002522405208
 20
-124.0947509455388
 30
0.0
 10
153.3284531951748
 20
-124.0947509455388
 30
0.0
 10
154.1569986593774
 20
-124.0947509455388
 30
0.0
 10
154.8284477694526
 20
-124.7658555460655
 30
0.0
 10
154.8284477694526
 20
-125.5947455198166
 30
0.0
 10
154.8284477694526
 20
-126.4229464744707
 30
0.0
 10
154.1569986593774
 20
-127.0947400940944
 30
0.0
 10
153.3284531951748
 20
-127.0947400940944
 30
0.0
  0
SPLINE
  5
80
330
1F
100
AcDbEntity
  8
Layer 1
370
     0
100
AcDbSpline
210
0.0
220
0.0
230
1.0
 70
    11
 71
     3
 72
    17
 73
    13
 74
     0
 42
0.0000000001
 43
0.0000000001
 40
0.0
 40
0.0
 40
0.0
 40
0.0
 40
1.0
 40
1.0
 40
1.0
 40
2.0
 40
2.0
 40
2.0
 40
3.0
 40
3.0
 40
3.0
 40
4.0
 40
4.0
 40
4.0
 40
4.0
 10
143.3287190396887
 20
-127.0947400940944
 30
0.0
 10
142.5005180850346
 20
-127.0947400940944
 30
0.0
 10
141.8287244654109
 20
-126.4229464744707
 30
0.0
 10
141.8287244654109
 20
-125.5947455198166
 30
0.0
 10
141.8287244654109
 20
-124.7658555460655
 30
0.0
 10
142.5005180850346
 20
-124.0947509455388
 30
0.0
 10
143.3287190396887
 20
-124.0947509455388
 30
0.0
 10
144.1569199943427
 20
-124.0947509455388
 30
0.0
 10
144.8287136139664
 20
-124.7658555460655
 30
0.0
 10
144.8287136139664
 20
-125.5947455198166
 30
0.0
 10
144.8287136139664
 20
-126.4229464744707
 30
0.0
 10
144.1569199943427
 20
-127.0947400940944
 30
0.0
 10
143.3287190396887
 20
-127.0947400940944
 30
0.0
  0
SPLINE
  5
81
330
1F
100
AcDbEntity
  8
Layer 1
370
     0
100
AcDbSpline
210
0.0
220
0.0
230
1.0
 70
    11
 71
     3
 72
    20
 73
    16
 74
     0
 42
0.0000000001
 43
0.0000000001
 40
0.0
 40
0.0
 40
0.0
 40
0.0
 40
1.0
 40
1.0
 40
1.0
 40
2.0
 40
2.0
 40
2.0
 40
3.0
 40
3.0
 40
3.0
 40
4.0
 40
4.0
 40
4.0
 40
5.0
 40
5.0
 40
5.0
 40
5.0
 10
284.9404024895288
 20
-7.792461478086607
 30
0.0
 10
284.9404024895288
 20
-7.792461478086607
 30
0.0
 10
284.9404024895288
 20
-64.29306096482952
 30
0.0
 10
284.9404024895288
 20
-64.29306096482952
 30
0.0
 10
284.9404024895288
 20
-64.29306096482952
 30
0.0
 10
222.9397080605845
 20
-64.29306096482952
 30
0.0
 10
222.9397080605845
 20
-64.29306096482952
 30
0.0
 10
222.9397080605845
 20
-64.29306096482952
 30
0.0
 10
222.9397080605845
 20
-2.292366535885242
 30
0.0
 10
222.9397080605845
 20
-2.292366535885242
 30
0.0
 10
222.9397080605845
 20
-2.292366535885242
 30
0.0
 10
279.4406520568759
 20
-2.292366535885242
 30
0.0
 10
279.4406520568759
 20
-2.292366535885242
 30
0.0
 10
282.4778482366722
 20
-2.292366535885242
 30
0.0
 10
284.9404024895288
 20
-4.754920788741826
 30
0.0
 10
284.9404024895288
 20
-7.792461478086607
 30
0.0
  0
SPLINE
  5
82
330
1F
100
AcDbEntity
  8
Layer 1
370
     0
100
AcDbSpline
210
0.0
220
0.0
230
1.0
 70
    11
 71
     3
 72
    17
 73
    13
 74
     0
 42
0.0000000001
 43
0.0000000001
 40
0.0
 40
0.0
 40
0.0
 40
0.0
 40
1.0
 40
1.0
 40
1.0
 40
2.0
 40
2.0
 40
2.0
 40
3.0
 40
3.0
 40
3.0
 40
4.0
 40
4.0
 40
4.0
 40
4.0
 10
280.9406466311538
 20
-38.79315320210727
 30
0.0
 10
280.9406466311538
 20
-39.62135415676133
 30
0.0
 10
280.2691975210785
 20
-40.29314777638505
 30
0.0
 10
279.4406520568759
 20
-40.29314777638505
 30
0.0
 10
278.6124511022219
 20
-40.29314777638505
 30
0.0
 10
277.9406574825982
 20
-39.62135415676133
 30
0.0
 10
277.9406574825982
 20
-38.79315320210727
 30
0.0
 10
277.9406574825982
 20
-37.96460773790469
 30
0.0
 10
278.6124511022219
 20
-37.29315862782949
 30
0.0
 10
279.4406520568759
 20
-37.29315862782949
 30
0.0
 10
280.2691975210785
 20
-37.29315862782949
 30
0.0
 10
280.9406466311538
 20
-37.96460773790469
 30
0.0
 10
280.9406466311538
 20
-38.79315320210727
 30
0.0
  0
SPLINE
  5
83
330
1F
100
AcDbEntity
  8
Layer 1
370
     0
100
AcDbSpline
210
0.0
220
0.0
230
1.0
 70
    11
 71
     3
 72
    17
 73
    13
 74
     0
 42
0.0000000001
 43
0.0000000001
 40
0.0
 40
0.0
 40
0.0
 40
0.0
 40
1.0
 40
1.0
 40
1.0
 40
2.0
 40
2.0
 40
2.0
 40
3.0
 40
3.0
 40
3.0
 40
4.0
 40
4.0
 40
4.0
 40
4.0
 10
249.9409884357786
 20
-7.792805987635132
 30
0.0
 10
249.9409884357786
 20
-8.621351451837718
 30
0.0
 10
249.2691948161549
 20
-9.29280056191291
 30
0.0
 10
248.4409938615009
 20
-9.29280056191291
 30
0.0
 10
247.6124483972983
 20
-9.29280056191291
 30
0.0
 10
246.9409992872231
 20
-8.621351451837718
 30
0.0
 10
246.9409992872231
 20
-7.792805987635132
 30
0.0
 10
246.9409992872231
 20
-6.964605032981071
 30
0.0
 10
247.6124483972983
 20
-6.292811413357353
 30
0.0
 10
248.4409938615009
 20
-6.292811413357353
 30
0.0
 10
249.2691948161549
 20
-6.292811413357353
 30
0.0
 10
249.9409884357786
 20
-6.964605032981071
 30
0.0
 10
249.9409884357786
 20
-7.792805987635132
 30
0.0
  0
SPLINE
  5
84
330
1F
100
AcDbEntity
  8
Layer 1
370
     0
100
AcDbSpline
210
0.0
220
0.0
230
1.0
 70
    11
 71
     3
 72
    17
 73
    13
 74
     0
 42
0.0000000001
 43
0.0000000001
 40
0.0
 40
0.0
 40
0.0
 40
0.0
 40
1.0
 40
1.0
 40
1.0
 40
2.0
 40
2.0
 40
2.0
 40
3.0
 40
3.0
 40
3.0
 40
4.0
 40
4.0
 40
4.0
 40
4.0
 10
280.9406466311538
 20
-7.792805987635132
 30
0.0
 10
280.9406466311538
 20
-8.621351451837718
 30
0.0
 10
280.2691975210785
 20
-9.29280056191291
 30
0.0
 10
279.4406520568759
 20
-9.29280056191291
 30
0.0
 10
278.6124511022219
 20
-9.29280056191291
 30
0.0
 10
277.9406574825982
 20
-8.621351451837718
 30
0.0
 10
277.9406574825982
 20
-7.792805987635132
 30
0.0
 10
277.9406574825982
 20
-6.964605032981071
 30
0.0
 10
278.6124511022219
 20
-6.292811413357353
 30
0.0
 10
279.4406520568759
 20
-6.292811413357353
 30
0.0
 10
280.2691975210785
 20
-6.292811413357353
 30
0.0
 10
280.9406466311538
 20
-6.964605032981071
 30
0.0
 10
280.9406466311538
 20
-7.792805987635132
 30
0.0
  0
SPLINE
  5
85
330
1F
100
AcDbEntity
  8
Layer 1
370
     0
100
AcDbSpline
210
0.0
220
0.0
230
1.0
 70
    11
 71
     3
 72
    17
 73
    13
 74
     0
 42
0.0000000001
 43
0.0000000001
 40
0.0
 40
0.0
 40
0.0
 40
0.0
 40
1.0
 40
1.0
 40
1.0
 40
2.0
 40
2.0
 40
2.0
 40
3.0
 40
3.0
 40
3.0
 40
4.0
 40
4.0
 40
4.0
 40
4.0
 10
234.9406981834523
 20
-12.29278971046847
 30
0.0
 10
234.9406981834523
 20
-13.39728732303957
 30
0.0
 10
234.0453178668359
 20
-14.29301214920453
 30
0.0
 10
232.9408202542648
 20
-14.29301214920453
 30
0.0
 10
231.8363226416937
 20
-14.29301214920453
 30
0.0
 10
230.9405978155287
 20
-13.39728732303957
 30
0.0
 10
230.9405978155287
 20
-12.29278971046847
 30
0.0
 10
230.9405978155287
 20
-11.18829209789737
 30
0.0
 10
231.8363226416937
 20
-10.29291178128094
 30
0.0
 10
232.9408202542648
 20
-10.29291178128094
 30
0.0
 10
234.0453178668359
 20
-10.29291178128094
 30
0.0
 10
234.9406981834523
 20
-11.18829209789737
 30
0.0
 10
234.9406981834523
 20
-12.29278971046847
 30
0.0
  0
SPLINE
  5
86
330
1F
100
AcDbEntity
  8
Layer 1
370
     0
100
AcDbSpline
210
0.0
220
0.0
230
1.0
 70
    11
 71
     3
 72
    17
 73
    13
 74
     0
 42
0.0000000001
 43
0.0000000001
 40
0.0
 40
0.0
 40
0.0
 40
0.0
 40
1.0
 40
1.0
 40
1.0
 40
2.0
 40
2.0
 40
2.0
 40
3.0
 40
3.0
 40
3.0
 40
4.0
 40
4.0
 40
4.0
 40
4.0
 10
276.9408907727787
 20
-54.29332680934333
 30
0.0
 10
276.9408907727787
 20
-55.39782442191444
 30
0.0
 10
276.0458549657108
 20
-56.29286022898234
 30
0.0
 10
274.9413573531397
 20
-56.29286022898234
 30
0.0
 10
273.8361707214715
 20
-56.29286022898234
 30
0.0
 10
272.9411349144036
 20
-55.39782442191444
 30
0.0
 10
272.9411349144036
 20
-54.29332680934333
 30
0.0
 10
272.9411349144036
 20
-53.18848468722371
 30
0.0
 10
273.8361707214715
 20
-52.29310437060728
 30
0.0
 10
274.9413573531397
 20
-52.29310437060728
 30
0.0
 10
276.0458549657108
 20
-52.29310437060728
 30
0.0
 10
276.9408907727787
 20
-53.18848468722371
 30
0.0
 10
276.9408907727787
 20
-54.29332680934333
 30
0.0
  0
SPLINE
  5
87
330
1F
100
AcDbEntity
  8
Layer 1
370
     0
100
AcDbSpline
210
0.0
220
0.0
230
1.0
 70
    11
 71
     3
 72
    17
 73
    13
 74
     0
 42
0.0000000001
 43
0.0000000001
 40
0.0
 40
0.0
 40
0.0
 40
0.0
 40
1.0
 40
1.0
 40
1.0
 40
2.0
 40
2.0
 40
2.0
 40
3.0
 40
3.0
 40
3.0
 40
4.0
 40
4.0
 40
4.0
 40
4.0
 10
234.9410426930009
 20
-54.29332680934333
 30
0.0
 10
234.9410426930009
 20
-55.39782442191444
 30
0.0
 10
234.0460068859329
 20
-56.29286022898234
 30
0.0
 10
232.9415092733618
 20
-56.29286022898234
 30
0.0
 10
231.8363226416937
 20
-56.29286022898234
 30
0.0
 10
230.9412868346258
 20
-55.39782442191444
 30
0.0
 10
230.9412868346258
 20
-54.29332680934333
 30
0.0
 10
230.9412868346258
 20
-53.18848468722371
 30
0.0
 10
231.8363226416937
 20
-52.29310437060728
 30
0.0
 10
232.9415092733618
 20
-52.29310437060728
 30
0.0
 10
234.0460068859329
 20
-52.29310437060728
 30
0.0
 10
234.9410426930009
 20
-53.18848468722371
 30
0.0
 10
234.9410426930009
 20
-54.29332680934333
 30
0.0
  0
SPLINE
  5
88
330
1F
100
AcDbEntity
  8
Layer 1
370
     0
100
AcDbSpline
210
0.0
220
0.0
230
1.0
 70
    11
 71
     3
 72
    17
 73
    13
 74
     0
 42
0.0000000001
 43
0.0000000001
 40
0.0
 40
0.0
 40
0.0
 40
0.0
 40
1.0
 40
1.0
 40
1.0
 40
2.0
 40
2.0
 40
2.0
 40
3.0
 40
3.0
 40
3.0
 40
4.0
 40
4.0
 40
4.0
 40
4.0
 10
269.941145765848
 20
-23.2929795948712
 30
0.0
 10
269.941145765848
 20
-26.60647243258449
 30
0.0
 10
267.2546603064503
 20
-29.29295789198232
 30
0.0
 10
263.9411674687369
 20
-29.29295789198232
 30
0.0
 10
260.6273301214751
 20
-29.29295789198232
 30
0.0
 10
257.9411891716258
 20
-26.60647243258449
 30
0.0
 10
257.9411891716258
 20
-23.2929795948712
 30
0.0
 10
257.9411891716258
 20
-19.97948675715791
 30
0.0
 10
260.6273301214751
 20
-17.29300129776009
 30
0.0
 10
263.9411674687369
 20
-17.29300129776009
 30
0.0
 10
267.2546603064503
 20
-17.29300129776009
 30
0.0
 10
269.941145765848
 20
-19.97948675715791
 30
0.0
 10
269.941145765848
 20
-23.2929795948712
 30
0.0
  0
SPLINE
  5
89
330
1F
100
AcDbEntity
  8
Layer 1
370
     0
100
AcDbSpline
210
0.0
220
0.0
230
1.0
 70
    11
 71
     3
 72
    20
 73
    16
 74
     0
 42
0.0000000001
 43
0.0000000001
 40
0.0
 40
0.0
 40
0.0
 40
0.0
 40
1.0
 40
1.0
 40
1.0
 40
2.0
 40
2.0
 40
2.0
 40
3.0
 40
3.0
 40
3.0
 40
4.0
 40
4.0
 40
4.0
 40
5.0
 40
5.0
 40
5.0
 40
5.0
 10
63.72306991679493
 20
-89.52080618421702
 30
0.0
 10
63.72306991679493
 20
-89.52080618421702
 30
0.0
 10
63.72306991679493
 20
-146.0214056709599
 30
0.0
 10
63.72306991679493
 20
-146.0214056709599
 30
0.0
 10
63.72306991679493
 20
-146.0214056709599
 30
0.0
 10
1.722375487850656
 20
-146.0214056709599
 30
0.0
 10
1.722375487850656
 20
-146.0214056709599
 30
0.0
 10
1.722375487850656
 20
-146.0214056709599
 30
0.0
 10
1.722375487850656
 20
-84.02071124201566
 30
0.0
 10
1.722375487850656
 20
-84.02071124201566
 30
0.0
 10
1.722375487850656
 20
-84.02071124201566
 30
0.0
 10
58.22331948414209
 20
-84.02071124201566
 30
0.0
 10
58.22331948414209
 20
-84.02071124201566
 30
0.0
 10
61.26051566393835
 20
-84.02071124201566
 30
0.0
 10
63.72306991679493
 20
-86.48326549487224
 30
0.0
 10
63.72306991679493
 20
-89.52080618421702
 30
0.0
  0
SPLINE
  5
8A
330
1F
100
AcDbEntity
  8
Layer 1
370
     0
100
AcDbSpline
210
0.0
220
0.0
230
1.0
 70
    11
 71
     3
 72
    17
 73
    13
 74
     0
 42
0.0000000001
 43
0.0000000001
 40
0.0
 40
0.0
 40
0.0
 40
0.0
 40
1.0
 40
1.0
 40
1.0
 40
2.0
 40
2.0
 40
2.0
 40
3.0
 40
3.0
 40
3.0
 40
4.0
 40
4.0
 40
4.0
 40
4.0
 10
59.72331405841987
 20
-120.5214979082377
 30
0.0
 10
59.72331405841987
 20
-121.3496988628917
 30
0.0
 10
59.05186494834467
 20
-122.0214924825155
 30
0.0
 10
58.22331948414209
 20
-122.0214924825155
 30
0.0
 10
57.39511852948803
 20
-122.0214924825155
 30
0.0
 10
56.72332490986431
 20
-121.3496988628917
 30
0.0
 10
56.72332490986431
 20
-120.5214979082377
 30
0.0
 10
56.72332490986431
 20
-119.6929524440351
 30
0.0
 10
57.39511852948803
 20
-119.0215033339599
 30
0.0
 10
58.22331948414209
 20
-119.0215033339599
 30
0.0
 10
59.05186494834467
 20
-119.0215033339599
 30
0.0
 10
59.72331405841987
 20
-119.6929524440351
 30
0.0
 10
59.72331405841987
 20
-120.5214979082377
 30
0.0
  0
SPLINE
  5
8B
330
1F
100
AcDbEntity
  8
Layer 1
370
     0
100
AcDbSpline
210
0.0
220
0.0
230
1.0
 70
    11
 71
     3
 72
    17
 73
    13
 74
     0
 42
0.0000000001
 43
0.0000000001
 40
0.0
 40
0.0
 40
0.0
 40
0.0
 40
1.0
 40
1.0
 40
1.0
 40
2.0
 40
2.0
 40
2.0
 40
3.0
 40
3.0
 40
3.0
 40
4.0
 40
4.0
 40
4.0
 40
4.0
 10
28.72365586304478
 20
-89.52115069376555
 30
0.0
 10
28.72365586304478
 20
-90.34969615796814
 30
0.0
 10
28.05186224342106
 20
-91.02114526804333
 30
0.0
 10
27.223661288767
 20
-91.02114526804333
 30
0.0
 10
26.39511582456442
 20
-91.02114526804333
 30
0.0
 10
25.72366671448922
 20
-90.34969615796814
 30
0.0
 10
25.72366671448922
 20
-89.52115069376555
 30
0.0
 10
25.72366671448922
 20
-88.69294973911148
 30
0.0
 10
26.39511582456442
 20
-88.02115611948777
 30
0.0
 10
27.223661288767
 20
-88.02115611948777
 30
0.0
 10
28.05186224342106
 20
-88.02115611948777
 30
0.0
 10
28.72365586304478
 20
-88.69294973911148
 30
0.0
 10
28.72365586304478
 20
-89.52115069376555
 30
0.0
  0
SPLINE
  5
8C
330
1F
100
AcDbEntity
  8
Layer 1
370
     0
100
AcDbSpline
210
0.0
220
0.0
230
1.0
 70
    11
 71
     3
 72
    17
 73
    13
 74
     0
 42
0.0000000001
 43
0.0000000001
 40
0.0
 40
0.0
 40
0.0
 40
0.0
 40
1.0
 40
1.0
 40
1.0
 40
2.0
 40
2.0
 40
2.0
 40
3.0
 40
3.0
 40
3.0
 40
4.0
 40
4.0
 40
4.0
 40
4.0
 10
59.72331405841987
 20
-89.52115069376555
 30
0.0
 10
59.72331405841987
 20
-90.34969615796814
 30
0.0
 10
59.05186494834467
 20
-91.02114526804333
 30
0.0
 10
58.22331948414209
 20
-91.02114526804333
 30
0.0
 10
57.39511852948803
 20
-91.02114526804333
 30
0.0
 10
56.72332490986431
 20
-90.34969615796814
 30
0.0
 10
56.72332490986431
 20
-89.52115069376555
 30
0.0
 10
56.72332490986431
 20
-88.69294973911148
 30
0.0
 10
57.39511852948803
 20
-88.02115611948777
 30
0.0
 10
58.22331948414209
 20
-88.02115611948777
 30
0.0
 10
59.05186494834467
 20
-88.02115611948777
 30
0.0
 10
59.72331405841987
 20
-88.69294973911148
 30
0.0
 10
59.72331405841987
 20
-89.52115069376555
 30
0.0
  0
SPLINE
  5
8D
330
1F
100
AcDbEntity
  8
Layer 1
370
     0
100
AcDbSpline
210
0.0
220
0.0
230
1.0
 70
    11
 71
     3
 72
    17
 73
    13
 74
     0
 42
0.0000000001
 43
0.0000000001
 40
0.0
 40
0.0
 40
0.0
 40
0.0
 40
1.0
 40
1.0
 40
1.0
 40
2.0
 40
2.0
 40
2.0
 40
3.0
 40
3.0
 40
3.0
 40
4.0
 40
4.0
 40
4.0
 40
4.0
 10
13.72336561071847
 20
-94.02113441659888
 30
0.0
 10
13.72336561071847
 20
-95.12563202916999
 30
0.0
 10
12.82798529410203
 20
-96.02135685533494
 30
0.0
 10
11.72348768153093
 20
-96.02135685533494
 30
0.0
 10
10.61899006895984
 20
-96.02135685533494
 30
0.0
 10
9.723265242794879
 20
-95.12563202916999
 30
0.0
 10
9.723265242794879
 20
-94.02113441659888
 30
0.0
 10
9.723265242794879
 20
-92.91663680402779
 30
0.0
 10
10.61899006895984
 20
-92.02125648741135
 30
0.0
 10
11.72348768153093
 20
-92.02125648741135
 30
0.0
 10
12.82798529410203
 20
-92.02125648741135
 30
0.0
 10
13.72336561071847
 20
-92.91663680402779
 30
0.0
 10
13.72336561071847
 20
-94.02113441659888
 30
0.0
  0
SPLINE
  5
8E
330
1F
100
AcDbEntity
  8
Layer 1
370
     0
100
AcDbSpline
210
0.0
220
0.0
230
1.0
 70
    11
 71
     3
 72
    17
 73
    13
 74
     0
 42
0.0000000001
 43
0.0000000001
 40
0.0
 40
0.0
 40
0.0
 40
0.0
 40
1.0
 40
1.0
 40
1.0
 40
2.0
 40
2.0
 40
2.0
 40
3.0
 40
3.0
 40
3.0
 40
4.0
 40
4.0
 40
4.0
 40
4.0
 10
55.72355820004481
 20
-136.0216715154737
 30
0.0
 10
55.72355820004481
 20
-137.1261691280449
 30
0.0
 10
54.8285223929769
 20
-138.0212049351128
 30
0.0
 10
53.7240247804058
 20
-138.0212049351128
 30
0.0
 10
52.61883814873765
 20
-138.0212049351128
 30
0.0
 10
51.72380234166975
 20
-137.1261691280449
 30
0.0
 10
51.72380234166975
 20
-136.0216715154737
 30
0.0
 10
51.72380234166975
 20
-134.9168293933541
 30
0.0
 10
52.61883814873765
 20
-134.0214490767377
 30
0.0
 10
53.7240247804058
 20
-134.0214490767377
 30
0.0
 10
54.8285223929769
 20
-134.0214490767377
 30
0.0
 10
55.72355820004481
 20
-134.9168293933541
 30
0.0
 10
55.72355820004481
 20
-136.0216715154737
 30
0.0
  0
SPLINE
  5
8F
330
1F
100
AcDbEntity
  8
Layer 1
370
     0
100
AcDbSpline
210
0.0
220
0.0
230
1.0
 70
    11
 71
     3
 72
    17
 73
    13
 74
     0
 42
0.0000000001
 43
0.0000000001
 40
0.0
 40
0.0
 40
0.0
 40
0.0
 40
1.0
 40
1.0
 40
1.0
 40
2.0
 40
2.0
 40
2.0
 40
3.0
 40
3.0
 40
3.0
 40
4.0
 40
4.0
 40
4.0
 40
4.0
 10
13.72371012026699
 20
-136.0216715154737
 30
0.0
 10
13.72371012026699
 20
-137.1261691280449
 30
0.0
 10
12.82867431319908
 20
-138.0212049351128
 30
0.0
 10
11.72417670062798
 20
-138.0212049351128
 30
0.0
 10
10.61899006895984
 20
-138.0212049351128
 30
0.0
 10
9.723954261891928
 20
-137.1261691280449
 30
0.0
 10
9.723954261891928
 20
-136.0216715154737
 30
0.0
 10
9.723954261891928
 20
-134.9168293933541
 30
0.0
 10
10.61899006895984
 20
-134.0214490767377
 30
0.0
 10
11.72417670062798
 20
-134.0214490767377
 30
0.0
 10
12.82867431319908
 20
-134.0214490767377
 30
0.0
 10
13.72371012026699
 20
-134.9168293933541
 30
0.0
 10
13.72371012026699
 20
-136.0216715154737
 30
0.0
  0
SPLINE
  5
90
330
1F
100
AcDbEntity
  8
Layer 1
370
     0
100
AcDbSpline
210
0.0
220
0.0
230
1.0
 70
    11
 71
     3
 72
    17
 73
    13
 74
     0
 42
0.0000000001
 43
0.0000000001
 40
0.0
 40
0.0
 40
0.0
 40
0.0
 40
1.0
 40
1.0
 40
1.0
 40
2.0
 40
2.0
 40
2.0
 40
3.0
 40
3.0
 40
3.0
 40
4.0
 40
4.0
 40
4.0
 40
4.0
 10
48.72381319311419
 20
-105.0213243010016
 30
0.0
 10
48.72381319311419
 20
-108.3348171387149
 30
0.0
 10
46.03732773371637
 20
-111.0213025981127
 30
0.0
 10
42.72383489600307
 20
-111.0213025981127
 30
0.0
 10
39.40999754874125
 20
-111.0213025981127
 30
0.0
 10
36.72385659889196
 20
-108.3348171387149
 30
0.0
 10
36.72385659889196
 20
-105.0213243010016
 30
0.0
 10
36.72385659889196
 20
-101.7078314632883
 30
0.0
 10
39.40999754874125
 20
-99.0213460038905
 30
0.0
 10
42.72383489600307
 20
-99.0213460038905
 30
0.0
 10
46.03732773371637
 20
-99.0213460038905
 30
0.0
 10
48.72381319311419
 20
-101.7078314632883
 30
0.0
 10
48.72381319311419
 20
-105.0213243010016
 30
0.0
  0
SPLINE
  5
91
330
1F
100
AcDbEntity
  8
Layer 1
370
     0
100
AcDbSpline
210
0.0
220
0.0
230
1.0
 70
    11
 71
     3
 72
    20
 73
    16
 74
     0
 42
0.0000000001
 43
0.0000000001
 40
0.0
 40
0.0
 40
0.0
 40
0.0
 40
1.0
 40
1.0
 40
1.0
 40
2.0
 40
2.0
 40
2.0
 40
3.0
 40
3.0
 40
3.0
 40
4.0
 40
4.0
 40
4.0
 40
5.0
 40
5.0
 40
5.0
 40
5.0
 10
221.2330077571918
 20
-7.438994681299974
 30
0.0
 10
221.2330077571918
 20
-7.438994681299974
 30
0.0
 10
221.2330077571918
 20
-63.93959416804288
 30
0.0
 10
221.2330077571918
 20
-63.93959416804288
 30
0.0
 10
221.2330077571918
 20
-63.93959416804288
 30
0.0
 10
159.2323133282475
 20
-63.93959416804288
 30
0.0
 10
159.2323133282475
 20
-63.93959416804288
 30
0.0
 10
159.2323133282475
 20
-63.93959416804288
 30
0.0
 10
159.2323133282475
 20
-1.938899739098608
 30
0.0
 10
159.2323133282475
 20
-1.938899739098608
 30
0.0
 10
159.2323133282475
 20
-1.938899739098608
 30
0.0
 10
215.7332573245389
 20
-1.938899739098608
 30
0.0
 10
215.7332573245389
 20
-1.938899739098608
 30
0.0
 10
218.7704535043352
 20
-1.938899739098608
 30
0.0
 10
221.2330077571918
 20
-4.401453991955192
 30
0.0
 10
221.2330077571918
 20
-7.438994681299974
 30
0.0
  0
SPLINE
  5
92
330
1F
100
AcDbEntity
  8
Layer 1
370
     0
100
AcDbSpline
210
0.0
220
0.0
230
1.0
 70
    11
 71
     3
 72
    17
 73
    13
 74
     0
 42
0.0000000001
 43
0.0000000001
 40
0.0
 40
0.0
 40
0.0
 40
0.0
 40
1.0
 40
1.0
 40
1.0
 40
2.0
 40
2.0
 40
2.0
 40
3.0
 40
3.0
 40
3.0
 40
4.0
 40
4.0
 40
4.0
 40
4.0
 10
217.2332518988167
 20
-38.43968640532064
 30
0.0
 10
217.2332518988167
 20
-39.26788735997469
 30
0.0
 10
216.5618027887415
 20
-39.93968097959841
 30
0.0
 10
215.7332573245389
 20
-39.93968097959841
 30
0.0
 10
214.9050563698848
 20
-39.93968097959841
 30
0.0
 10
214.2332627502611
 20
-39.26788735997469
 30
0.0
 10
214.2332627502611
 20
-38.43968640532064
 30
0.0
 10
214.2332627502611
 20
-37.61114094111805
 30
0.0
 10
214.9050563698848
 20
-36.93969183104286
 30
0.0
 10
215.7332573245389
 20
-36.93969183104286
 30
0.0
 10
216.5618027887415
 20
-36.93969183104286
 30
0.0
 10
217.2332518988167
 20
-37.61114094111805
 30
0.0
 10
217.2332518988167
 20
-38.43968640532064
 30
0.0
  0
SPLINE
  5
93
330
1F
100
AcDbEntity
  8
Layer 1
370
     0
100
AcDbSpline
210
0.0
220
0.0
230
1.0
 70
    11
 71
     3
 72
    17
 73
    13
 74
     0
 42
0.0000000001
 43
0.0000000001
 40
0.0
 40
0.0
 40
0.0
 40
0.0
 40
1.0
 40
1.0
 40
1.0
 40
2.0
 40
2.0
 40
2.0
 40
3.0
 40
3.0
 40
3.0
 40
4.0
 40
4.0
 40
4.0
 40
4.0
 10
186.2335937034416
 20
-7.439339190848499
 30
0.0
 10
186.2335937034416
 20
-8.267884655051084
 30
0.0
 10
185.5618000838179
 20
-8.939333765126278
 30
0.0
 10
184.7335991291638
 20
-8.939333765126278
 30
0.0
 10
183.9050536649613
 20
-8.939333765126278
 30
0.0
 10
183.2336045548861
 20
-8.267884655051084
 30
0.0
 10
183.2336045548861
 20
-7.439339190848499
 30
0.0
 10
183.2336045548861
 20
-6.611138236194438
 30
0.0
 10
183.9050536649613
 20
-5.93934461657072
 30
0.0
 10
184.7335991291638
 20
-5.93934461657072
 30
0.0
 10
185.5618000838179
 20
-5.93934461657072
 30
0.0
 10
186.2335937034416
 20
-6.611138236194438
 30
0.0
 10
186.2335937034416
 20
-7.439339190848499
 30
0.0
  0
SPLINE
  5
94
330
1F
100
AcDbEntity
  8
Layer 1
370
     0
100
AcDbSpline
210
0.0
220
0.0
230
1.0
 70
    11
 71
     3
 72
    17
 73
    13
 74
     0
 42
0.0000000001
 43
0.0000000001
 40
0.0
 40
0.0
 40
0.0
 40
0.0
 40
1.0
 40
1.0
 40
1.0
 40
2.0
 40
2.0
 40
2.0
 40
3.0
 40
3.0
 40
3.0
 40
4.0
 40
4.0
 40
4.0
 40
4.0
 10
217.2332518988167
 20
-7.439339190848499
 30
0.0
 10
217.2332518988167
 20
-8.267884655051084
 30
0.0
 10
216.5618027887415
 20
-8.939333765126278
 30
0.0
 10
215.7332573245389
 20
-8.939333765126278
 30
0.0
 10
214.9050563698848
 20
-8.939333765126278
 30
0.0
 10
214.2332627502611
 20
-8.267884655051084
 30
0.0
 10
214.2332627502611
 20
-7.439339190848499
 30
0.0
 10
214.2332627502611
 20
-6.611138236194438
 30
0.0
 10
214.9050563698848
 20
-5.93934461657072
 30
0.0
 10
215.7332573245389
 20
-5.93934461657072
 30
0.0
 10
216.5618027887415
 20
-5.93934461657072
 30
0.0
 10
217.2332518988167
 20
-6.611138236194438
 30
0.0
 10
217.2332518988167
 20
-7.439339190848499
 30
0.0
  0
SPLINE
  5
95
330
1F
100
AcDbEntity
  8
Layer 1
370
     0
100
AcDbSpline
210
0.0
220
0.0
230
1.0
 70
    11
 71
     3
 72
    17
 73
    13
 74
     0
 42
0.0000000001
 43
0.0000000001
 40
0.0
 40
0.0
 40
0.0
 40
0.0
 40
1.0
 40
1.0
 40
1.0
 40
2.0
 40
2.0
 40
2.0
 40
3.0
 40
3.0
 40
3.0
 40
4.0
 40
4.0
 40
4.0
 40
4.0
 10
171.2333034511153
 20
-11.93932291368184
 30
0.0
 10
171.2333034511153
 20
-13.04382052625293
 30
0.0
 10
170.3379231344989
 20
-13.93954535241789
 30
0.0
 10
169.2334255219278
 20
-13.93954535241789
 30
0.0
 10
168.1289279093567
 20
-13.93954535241789
 30
0.0
 10
167.2332030831917
 20
-13.04382052625293
 30
0.0
 10
167.2332030831917
 20
-11.93932291368184
 30
0.0
 10
167.2332030831917
 20
-10.83482530111074
 30
0.0
 10
168.1289279093567
 20
-9.939444984494306
 30
0.0
 10
169.2334255219278
 20
-9.939444984494306
 30
0.0
 10
170.3379231344989
 20
-9.939444984494306
 30
0.0
 10
171.2333034511153
 20
-10.83482530111074
 30
0.0
 10
171.2333034511153
 20
-11.93932291368184
 30
0.0
  0
SPLINE
  5
96
330
1F
100
AcDbEntity
  8
Layer 1
370
     0
100
AcDbSpline
210
0.0
220
0.0
230
1.0
 70
    11
 71
     3
 72
    17
 73
    13
 74
     0
 42
0.0000000001
 43
0.0000000001
 40
0.0
 40
0.0
 40
0.0
 40
0.0
 40
1.0
 40
1.0
 40
1.0
 40
2.0
 40
2.0
 40
2.0
 40
3.0
 40
3.0
 40
3.0
 40
4.0
 40
4.0
 40
4.0
 40
4.0
 10
213.2334960404416
 20
-53.93986001255671
 30
0.0
 10
213.2334960404416
 20
-55.0443576251278
 30
0.0
 10
212.3384602333737
 20
-55.93939343219571
 30
0.0
 10
211.2339626208026
 20
-55.93939343219571
 30
0.0
 10
210.1287759891345
 20
-55.93939343219571
 30
0.0
 10
209.2337401820666
 20
-55.0443576251278
 30
0.0
 10
209.2337401820666
 20
-53.93986001255671
 30
0.0
 10
209.2337401820666
 20
-52.83501789043708
 30
0.0
 10
210.1287759891345
 20
-51.93963757382065
 30
0.0
 10
211.2339626208026
 20
-51.93963757382065
 30
0.0
 10
212.3384602333737
 20
-51.93963757382065
 30
0.0
 10
213.2334960404416
 20
-52.83501789043708
 30
0.0
 10
213.2334960404416
 20
-53.93986001255671
 30
0.0
  0
SPLINE
  5
97
330
1F
100
AcDbEntity
  8
Layer 1
370
     0
100
AcDbSpline
210
0.0
220
0.0
230
1.0
 70
    11
 71
     3
 72
    17
 73
    13
 74
     0
 42
0.0000000001
 43
0.0000000001
 40
0.0
 40
0.0
 40
0.0
 40
0.0
 40
1.0
 40
1.0
 40
1.0
 40
2.0
 40
2.0
 40
2.0
 40
3.0
 40
3.0
 40
3.0
 40
4.0
 40
4.0
 40
4.0
 40
4.0
 10
171.2336479606638
 20
-53.93986001255671
 30
0.0
 10
171.2336479606638
 20
-55.0443576251278
 30
0.0
 10
170.3386121535959
 20
-55.93939343219571
 30
0.0
 10
169.2341145410248
 20
-55.93939343219571
 30
0.0
 10
168.1289279093567
 20
-55.93939343219571
 30
0.0
 10
167.2338921022888
 20
-55.0443576251278
 30
0.0
 10
167.2338921022888
 20
-53.93986001255671
 30
0.0
 10
167.2338921022888
 20
-52.83501789043708
 30
0.0
 10
168.1289279093567
 20
-51.93963757382065
 30
0.0
 10
169.2341145410248
 20
-51.93963757382065
 30
0.0
 10
170.3386121535959
 20
-51.93963757382065
 30
0.0
 10
171.2336479606638
 20
-52.83501789043708
 30
0.0
 10
171.2336479606638
 20
-53.93986001255671
 30
0.0
  0
SPLINE
  5
98
330
1F
100
AcDbEntity
  8
Layer 1
370
     0
100
AcDbSpline
210
0.0
220
0.0
230
1.0
 70
    11
 71
     3
 72
    17
 73
    13
 74
     0
 42
0.0000000001
 43
0.0000000001
 40
0.0
 40
0.0
 40
0.0
 40
0.0
 40
1.0
 40
1.0
 40
1.0
 40
2.0
 40
2.0
 40
2.0
 40
3.0
 40
3.0
 40
3.0
 40
4.0
 40
4.0
 40
4.0
 40
4.0
 10
206.233751033511
 20
-22.93951279808457
 30
0.0
 10
206.233751033511
 20
-26.25300563579786
 30
0.0
 10
203.5472655741132
 20
-28.93949109519568
 30
0.0
 10
200.2337727363999
 20
-28.93949109519568
 30
0.0
 10
196.9199353891381
 20
-28.93949109519568
 30
0.0
 10
194.2337944392888
 20
-26.25300563579786
 30
0.0
 10
194.2337944392888
 20
-22.93951279808457
 30
0.0
 10
194.2337944392888
 20
-19.62601996037127
 30
0.0
 10
196.9199353891381
 20
-16.93953450097345
 30
0.0
 10
200.2337727363999
 20
-16.93953450097345
 30
0.0
 10
203.5472655741132
 20
-16.93953450097345
 30
0.0
 10
206.233751033511
 20
-19.62601996037127
 30
0.0
 10
206.233751033511
 20
-22.93951279808457
 30
0.0
  0
SPLINE
  5
99
330
1F
100
AcDbEntity
  8
Layer 1
370
     0
100
AcDbSpline
210
0.0
220
0.0
230
1.0
 70
    11
 71
     3
 72
    17
 73
    13
 74
     0
 42
0.0000000001
 43
0.0000000001
 40
0.0
 40
0.0
 40
0.0
 40
0.0
 40
1.0
 40
1.0
 40
1.0
 40
2.0
 40
2.0
 40
2.0
 40
3.0
 40
3.0
 40
3.0
 40
4.0
 40
4.0
 40
4.0
 40
4.0
 10
144.8569633969455
 20
-39.36331650491612
 30
0.0
 10
144.8569633969455
 20
-39.91590982075019
 30
0.0
 10
145.3044813004794
 20
-40.36377223383267
 30
0.0
 10
145.856730106765
 20
-40.36377223383267
 30
0.0
 10
146.4089789130505
 20
-40.36377223383267
 30
0.0
 10
146.856841326133
 20
-39.91590982075019
 30
0.0
 10
146.856841326133
 20
-39.36331650491612
 30
0.0
 10
146.856841326133
 20
-38.81141220817909
 30
0.0
 10
146.4089789130505
 20
-38.36354979509662
 30
0.0
 10
145.856730106765
 20
-38.36354979509662
 30
0.0
 10
145.3044813004794
 20
-38.36354979509662
 30
0.0
 10
144.8569633969455
 20
-38.81141220817909
 30
0.0
 10
144.8569633969455
 20
-39.36331650491612
 30
0.0
  0
SPLINE
  5
9A
330
1F
100
AcDbEntity
  8
Layer 1
370
     0
100
AcDbSpline
210
0.0
220
0.0
230
1.0
 70
    11
 71
     3
 72
    17
 73
    13
 74
     0
 42
0.0000000001
 43
0.0000000001
 40
0.0
 40
0.0
 40
0.0
 40
0.0
 40
1.0
 40
1.0
 40
1.0
 40
2.0
 40
2.0
 40
2.0
 40
3.0
 40
3.0
 40
3.0
 40
4.0
 40
4.0
 40
4.0
 40
4.0
 10
134.8568847319108
 20
-39.36331650491612
 30
0.0
 10
134.8568847319108
 20
-39.91590982075019
 30
0.0
 10
135.3044026354447
 20
-40.36377223383267
 30
0.0
 10
135.8566514417303
 20
-40.36377223383267
 30
0.0
 10
136.4089002480158
 20
-40.36377223383267
 30
0.0
 10
136.8567626610983
 20
-39.91590982075019
 30
0.0
 10
136.8567626610983
 20
-39.36331650491612
 30
0.0
 10
136.8567626610983
 20
-38.81141220817909
 30
0.0
 10
136.4089002480158
 20
-38.36354979509662
 30
0.0
 10
135.8566514417303
 20
-38.36354979509662
 30
0.0
 10
135.3044026354447
 20
-38.36354979509662
 30
0.0
 10
134.8568847319108
 20
-38.81141220817909
 30
0.0
 10
134.8568847319108
 20
-39.36331650491612
 30
0.0
  0
SPLINE
  5
9B
330
1F
100
AcDbEntity
  8
Layer 1
370
     0
100
AcDbSpline
210
0.0
220
0.0
230
1.0
 70
    11
 71
     3
 72
    20
 73
    16
 74
     0
 42
0.0000000001
 43
0.0000000001
 40
0.0
 40
0.0
 40
0.0
 40
0.0
 40
1.0
 40
1.0
 40
1.0
 40
2.0
 40
2.0
 40
2.0
 40
3.0
 40
3.0
 40
3.0
 40
4.0
 40
4.0
 40
4.0
 40
5.0
 40
5.0
 40
5.0
 40
5.0
 10
157.8570312105358
 20
-1.863452147971637
 30
0.0
 10
157.8570312105358
 20
-1.863452147971637
 30
0.0
 10
157.8570312105358
 20
-31.86368814307574
 30
0.0
 10
157.8570312105358
 20
-31.86368814307574
 30
0.0
 10
157.8570312105358
 20
-37.38479816773714
 30
0.0
 10
153.3801296274536
 20
-41.86135524127077
 30
0.0
 10
147.8593641123407
 20
-41.86135524127077
 30
0.0
 10
147.8593641123407
 20
-41.86135524127077
 30
0.0
 10
106.8592827423824
 20
-41.86135524127077
 30
0.0
 10
106.8592827423824
 20
-41.86135524127077
 30
0.0
 10
106.8592827423824
 20
-41.86135524127077
 30
0.0
 10
106.8592827423824
 20
-1.863452147971637
 30
0.0
 10
106.8592827423824
 20
-1.863452147971637
 30
0.0
 10
106.8592827423824
 20
-1.863452147971637
 30
0.0
 10
157.8570312105358
 20
-1.863452147971637
 30
0.0
 10
157.8570312105358
 20
-1.863452147971637
 30
0.0
  0
SPLINE
  5
9C
330
1F
100
AcDbEntity
  8
Layer 1
370
     0
100
AcDbSpline
210
0.0
220
0.0
230
1.0
 70
    11
 71
     3
 72
    17
 73
    13
 74
     0
 42
0.0000000001
 43
0.0000000001
 40
0.0
 40
0.0
 40
0.0
 40
0.0
 40
1.0
 40
1.0
 40
1.0
 40
2.0
 40
2.0
 40
2.0
 40
3.0
 40
3.0
 40
3.0
 40
4.0
 40
4.0
 40
4.0
 40
4.0
 10
149.3579806484244
 20
-31.86231010488165
 30
0.0
 10
149.3579806484244
 20
-32.69051105953571
 30
0.0
 10
148.6865315383492
 20
-33.36230467915942
 30
0.0
 10
147.8579860741466
 20
-33.36230467915942
 30
0.0
 10
147.029440609944
 20
-33.36230467915942
 30
0.0
 10
146.3579914998688
 20
-32.69051105953571
 30
0.0
 10
146.3579914998688
 20
-31.86231010488165
 30
0.0
 10
146.3579914998688
 20
-31.03376464067906
 30
0.0
 10
147.029440609944
 20
-30.36231553060387
 30
0.0
 10
147.8579860741466
 20
-30.36231553060387
 30
0.0
 10
148.6865315383492
 20
-30.36231553060387
 30
0.0
 10
149.3579806484244
 20
-31.03376464067906
 30
0.0
 10
149.3579806484244
 20
-31.86231010488165
 30
0.0
  0
SPLINE
  5
9D
330
1F
100
AcDbEntity
  8
Layer 1
370
     0
100
AcDbSpline
210
0.0
220
0.0
230
1.0
 70
    11
 71
     3
 72
    17
 73
    13
 74
     0
 42
0.0000000001
 43
0.0000000001
 40
0.0
 40
0.0
 40
0.0
 40
0.0
 40
1.0
 40
1.0
 40
1.0
 40
2.0
 40
2.0
 40
2.0
 40
3.0
 40
3.0
 40
3.0
 40
4.0
 40
4.0
 40
4.0
 40
4.0
 10
118.856827769765
 20
-11.86146375571519
 30
0.0
 10
118.856827769765
 20
-12.96596136828629
 30
0.0
 10
117.9614474531485
 20
-13.86168619445125
 30
0.0
 10
116.8569498405774
 20
-13.86168619445125
 30
0.0
 10
115.7524522280063
 20
-13.86168619445125
 30
0.0
 10
114.8567274018414
 20
-12.96596136828629
 30
0.0
 10
114.8567274018414
 20
-11.86146375571519
 30
0.0
 10
114.8567274018414
 20
-10.75696614314409
 30
0.0
 10
115.7524522280063
 20
-9.86158582652766
 30
0.0
 10
116.8569498405774
 20
-9.86158582652766
 30
0.0
 10
117.9614474531485
 20
-9.86158582652766
 30
0.0
 10
118.856827769765
 20
-10.75696614314409
 30
0.0
 10
118.856827769765
 20
-11.86146375571519
 30
0.0
  0
SPLINE
  5
9E
330
1F
100
AcDbEntity
  8
Layer 1
370
     0
100
AcDbSpline
210
0.0
220
0.0
230
1.0
 70
    11
 71
     3
 72
    17
 73
    13
 74
     0
 42
0.0000000001
 43
0.0000000001
 40
0.0
 40
0.0
 40
0.0
 40
0.0
 40
1.0
 40
1.0
 40
1.0
 40
2.0
 40
2.0
 40
2.0
 40
3.0
 40
3.0
 40
3.0
 40
4.0
 40
4.0
 40
4.0
 40
4.0
 10
118.856827769765
 20
-31.86127657623607
 30
0.0
 10
118.856827769765
 20
-32.96577418880717
 30
0.0
 10
117.9614474531485
 20
-33.86149901497213
 30
0.0
 10
116.8569498405774
 20
-33.86149901497213
 30
0.0
 10
115.7524522280063
 20
-33.86149901497213
 30
0.0
 10
114.8567274018414
 20
-32.96577418880717
 30
0.0
 10
114.8567274018414
 20
-31.86127657623607
 30
0.0
 10
114.8567274018414
 20
-30.75677896366497
 30
0.0
 10
115.7524522280063
 20
-29.86139864704854
 30
0.0
 10
116.8569498405774
 20
-29.86139864704854
 30
0.0
 10
117.9614474531485
 20
-29.86139864704854
 30
0.0
 10
118.856827769765
 20
-30.75677896366497
 30
0.0
 10
118.856827769765
 20
-31.86127657623607
 30
0.0
  0
SPLINE
  5
9F
330
1F
100
AcDbEntity
  8
Layer 1
370
     0
100
AcDbSpline
210
0.0
220
0.0
230
1.0
 70
    11
 71
     3
 72
    17
 73
    13
 74
     0
 42
0.0000000001
 43
0.0000000001
 40
0.0
 40
0.0
 40
0.0
 40
0.0
 40
1.0
 40
1.0
 40
1.0
 40
2.0
 40
2.0
 40
2.0
 40
3.0
 40
3.0
 40
3.0
 40
4.0
 40
4.0
 40
4.0
 40
4.0
 10
149.8568304746886
 20
-11.86146375571519
 30
0.0
 10
149.8568304746886
 20
-12.96596136828629
 30
0.0
 10
148.9614501580722
 20
-13.86168619445125
 30
0.0
 10
147.8569525455011
 20
-13.86168619445125
 30
0.0
 10
146.7524549329299
 20
-13.86168619445125
 30
0.0
 10
145.856730106765
 20
-12.96596136828629
 30
0.0
 10
145.856730106765
 20
-11.86146375571519
 30
0.0
 10
145.856730106765
 20
-10.75696614314409
 30
0.0
 10
146.7524549329299
 20
-9.86158582652766
 30
0.0
 10
147.8569525455011
 20
-9.86158582652766
 30
0.0
 10
148.9614501580722
 20
-9.86158582652766
 30
0.0
 10
149.8568304746886
 20
-10.75696614314409
 30
0.0
 10
149.8568304746886
 20
-11.86146375571519
 30
0.0
  0
INSERT
  5
A1
330
1F
100
AcDbEntity
  8
Layer 1
100
AcDbBlockReference
  2
block 2
 10
0.0
 20
0.0
 30
0.0
  0
SPLINE
  5
E9
330
1F
100
AcDbEntity
  8
Layer 1
370
     0
100
AcDbSpline
210
0.0
220
0.0
230
1.0
 70
    11
 71
     3
 72
    38
 73
    34
 74
     0
 42
0.0000000001
 43
0.0000000001
 40
0.0
 40
0.0
 40
0.0
 40
0.0
 40
1.0
 40
1.0
 40
1.0
 40
2.0
 40
2.0
 40
2.0
 40
3.0
 40
3.0
 40
3.0
 40
4.0
 40
4.0
 40
4.0
 40
5.0
 40
5.0
 40
5.0
 40
6.0
 40
6.0
 40
6.0
 40
7.0
 40
7.0
 40
7.0
 40
8.0
 40
8.0
 40
8.0
 40
9.0
 40
9.0
 40
9.0
 40
10.0
 40
10.0
 40
10.0
 40
11.0
 40
11.0
 40
11.0
 40
11.0
 10
296.3974120352756
 20
-65.75670978173791
 30
0.0
 10
296.3974120352756
 20
-65.75670978173791
 30
0.0
 10
260.3965087239634
 20
-65.75670978173791
 30
0.0
 10
260.3965087239634
 20
-65.75670978173791
 30
0.0
 10
259.2940781686834
 20
-65.75670978173791
 30
0.0
 10
258.3983533425185
 20
-66.65209009835434
 30
0.0
 10
258.3983533425185
 20
-67.75486516318281
 30
0.0
 10
258.3983533425185
 20
-67.75486516318281
 30
0.0
 10
258.3983533425185
 20
-103.7559407292694
 30
0.0
 10
258.3983533425185
 20
-103.7559407292694
 30
0.0
 10
258.3959417756788
 20
-104.8604383418404
 30
0.0
 10
259.2916666018438
 20
-105.7561631680054
 30
0.0
 10
260.3992648003516
 20
-105.7561631680054
 30
0.0
 10
260.3992648003516
 20
-105.7561631680054
 30
0.0
 10
289.914086841584
 20
-105.7561631680054
 30
0.0
 10
289.914086841584
 20
-105.7561631680054
 30
0.0
 10
289.914086841584
 20
-105.7561631680054
 30
0.0
 10
274.1562200920512
 20
-89.99812416369839
 30
0.0
 10
274.1562200920512
 20
-89.99812416369839
 30
0.0
 10
271.8138996716299
 20
-87.65614825282555
 30
0.0
 10
271.8114881047902
 20
-83.85689695169204
 30
0.0
 10
274.1538085252116
 20
-81.51457653127066
 30
0.0
 10
276.4985405124726
 20
-79.16984454400962
 30
0.0
 10
280.2977918136061
 20
-79.1722561108493
 30
0.0
 10
282.6401122340275
 20
-81.51457653127066
 30
0.0
 10
282.6401122340275
 20
-81.51457653127066
 30
0.0
 10
298.3979789835602
 20
-97.27227102602916
 30
0.0
 10
298.3979789835602
 20
-97.27227102602916
 30
0.0
 10
298.3979789835602
 20
-97.27227102602916
 30
0.0
 10
298.3983234931088
 20
-67.75727673002248
 30
0.0
 10
298.3983234931088
 20
-67.75727673002248
 30
0.0
 10
298.3979789835602
 20
-66.64967853151467
 30
0.0
 10
297.5025986669438
 20
-65.75429821489823
 30
0.0
 10
296.3974120352756
 20
-65.75670978173791
 30
0.0
  0
SPLINE
  5
EA
330
1F
100
AcDbEntity
  8
Layer 1
370
     0
100
AcDbSpline
210
0.0
220
0.0
230
1.0
 70
    11
 71
     3
 72
    17
 73
    13
 74
     0
 42
0.0000000001
 43
0.0000000001
 40
0.0
 40
0.0
 40
0.0
 40
0.0
 40
1.0
 40
1.0
 40
1.0
 40
2.0
 40
2.0
 40
2.0
 40
3.0
 40
3.0
 40
3.0
 40
4.0
 40
4.0
 40
4.0
 40
4.0
 10
263.8991373038169
 20
-101.7577853478245
 30
0.0
 10
263.8987927942684
 20
-102.5852972833815
 30
0.0
 10
263.2276881937417
 20
-103.2570909030052
 30
0.0
 10
262.3998317486362
 20
-103.2570909030052
 30
0.0
 10
261.5716307939821
 20
-103.2570909030052
 30
0.0
 10
260.8981146266158
 20
-102.5832302260903
 30
0.0
 10
260.8977701170672
 20
-101.7550292714362
 30
0.0
 10
260.8977701170672
 20
-100.9268283167822
 30
0.0
 10
261.5688747175939
 20
-100.2557237162555
 30
0.0
 10
262.397075672248
 20
-100.2557237162555
 30
0.0
 10
263.2256211364506
 20
-100.2557237162555
 30
0.0
 10
263.8991373038169
 20
-100.9295843931704
 30
0.0
 10
263.8991373038169
 20
-101.7577853478245
 30
0.0
  0
SPLINE
  5
EB
330
1F
100
AcDbEntity
  8
Layer 1
370
     0
100
AcDbSpline
210
0.0
220
0.0
230
1.0
 70
    11
 71
     3
 72
    17
 73
    13
 74
     0
 42
0.0000000001
 43
0.0000000001
 40
0.0
 40
0.0
 40
0.0
 40
0.0
 40
1.0
 40
1.0
 40
1.0
 40
2.0
 40
2.0
 40
2.0
 40
3.0
 40
3.0
 40
3.0
 40
4.0
 40
4.0
 40
4.0
 40
4.0
 10
263.8987927942684
 20
-69.75784367830707
 30
0.0
 10
263.8987927942684
 20
-70.58604463296113
 30
0.0
 10
263.2280327032902
 20
-71.2571492334878
 30
0.0
 10
262.3998317486362
 20
-71.2571492334878
 30
0.0
 10
261.5688747175939
 20
-71.25473766664813
 30
0.0
 10
260.8981146266158
 20
-70.58363306612145
 30
0.0
 10
260.8981146266158
 20
-69.7554321114674
 30
0.0
 10
260.8981146266158
 20
-68.92723115681333
 30
0.0
 10
261.5688747175939
 20
-68.25612655628666
 30
0.0
 10
262.397075672248
 20
-68.25647106583519
 30
0.0
 10
263.2256211364506
 20
-68.25647106583519
 30
0.0
 10
263.8963812274287
 20
-68.92723115681333
 30
0.0
 10
263.8987927942684
 20
-69.75784367830707
 30
0.0
  0
SPLINE
  5
EC
330
1F
100
AcDbEntity
  8
Layer 1
370
     0
100
AcDbSpline
210
0.0
220
0.0
230
1.0
 70
    11
 71
     3
 72
    17
 73
    13
 74
     0
 42
0.0000000001
 43
0.0000000001
 40
0.0
 40
0.0
 40
0.0
 40
0.0
 40
1.0
 40
1.0
 40
1.0
 40
2.0
 40
2.0
 40
2.0
 40
3.0
 40
3.0
 40
3.0
 40
4.0
 40
4.0
 40
4.0
 40
4.0
 10
295.8985622090115
 20
-69.7581881878556
 30
0.0
 10
295.8985622090115
 20
-70.58604463296113
 30
0.0
 10
295.2274576084848
 20
-71.2571492334878
 30
0.0
 10
294.3992566538308
 20
-71.2571492334878
 30
0.0
 10
293.5710556991767
 20
-71.2571492334878
 30
0.0
 10
292.8975395318104
 20
-70.58363306612145
 30
0.0
 10
292.8975395318104
 20
-69.7554321114674
 30
0.0
 10
292.8975395318104
 20
-68.92723115681333
 30
0.0
 10
293.568644132337
 20
-68.25612655628666
 30
0.0
 10
294.3968450869911
 20
-68.25647106583519
 30
0.0
 10
295.2250460416452
 20
-68.25612655628666
 30
0.0
 10
295.8985622090115
 20
-68.92998723320153
 30
0.0
 10
295.8985622090115
 20
-69.7581881878556
 30
0.0
  0
SPLINE
  5
ED
330
1F
100
AcDbEntity
  8
Layer 1
370
     0
100
AcDbSpline
210
0.0
220
0.0
230
1.0
 70
    11
 71
     3
 72
    29
 73
    25
 74
     0
 42
0.0000000001
 43
0.0000000001
 40
0.0
 40
0.0
 40
0.0
 40
0.0
 40
1.0
 40
1.0
 40
1.0
 40
2.0
 40
2.0
 40
2.0
 40
3.0
 40
3.0
 40
3.0
 40
4.0
 40
4.0
 40
4.0
 40
5.0
 40
5.0
 40
5.0
 40
6.0
 40
6.0
 40
6.0
 40
7.0
 40
7.0
 40
7.0
 40
8.0
 40
8.0
 40
8.0
 40
8.0
 10
258.8248561635924
 20
-109.0703450248158
 30
0.0
 10
258.8248561635924
 20
-109.0703450248158
 30
0.0
 10
258.8248561635924
 20
-145.0715928456765
 30
0.0
 10
258.8248561635924
 20
-145.0715928456765
 30
0.0
 10
258.8248561635924
 20
-146.1754014391506
 30
0.0
 10
259.7171358942721
 20
-147.0718152844126
 30
0.0
 10
260.8250786023285
 20
-147.0718152844126
 30
0.0
 10
260.8250786023285
 20
-147.0718152844126
 30
0.0
 10
296.8225368181555
 20
-147.0718152844126
 30
0.0
 10
296.8225368181555
 20
-147.0718152844126
 30
0.0
 10
297.9266899211781
 20
-147.0718152844126
 30
0.0
 10
298.8227592568916
 20
-146.1754014391506
 30
0.0
 10
298.8227592568916
 20
-145.0715928456765
 30
0.0
 10
298.8227592568916
 20
-145.0715928456765
 30
0.0
 10
298.8227592568916
 20
-109.0703450248158
 30
0.0
 10
298.8227592568916
 20
-109.0703450248158
 30
0.0
 10
298.8227592568916
 20
-107.9665364313417
 30
0.0
 10
297.9266899211781
 20
-107.0701225860797
 30
0.0
 10
296.8225368181555
 20
-107.0701225860797
 30
0.0
 10
296.8225368181555
 20
-107.0701225860797
 30
0.0
 10
260.8250786023285
 20
-107.0701225860797
 30
0.0
 10
260.8250786023285
 20
-107.0701225860797
 30
0.0
 10
259.7171358942721
 20
-107.0701225860797
 30
0.0
 10
258.8248561635924
 20
-107.9665364313417
 30
0.0
 10
258.8248561635924
 20
-109.0703450248158
 30
0.0
  0
SPLINE
  5
EE
330
1F
100
AcDbEntity
  8
Layer 1
370
     0
100
AcDbSpline
210
0.0
220
0.0
230
1.0
 70
    11
 71
     3
 72
    17
 73
    13
 74
     0
 42
0.0000000001
 43
0.0000000001
 40
0.0
 40
0.0
 40
0.0
 40
0.0
 40
1.0
 40
1.0
 40
1.0
 40
2.0
 40
2.0
 40
2.0
 40
3.0
 40
3.0
 40
3.0
 40
4.0
 40
4.0
 40
4.0
 40
4.0
 10
296.3250650300854
 20
-143.0713704069405
 30
0.0
 10
296.3250650300854
 20
-143.9002603806916
 30
0.0
 10
295.6512043531706
 20
-144.5706759621212
 30
0.0
 10
294.8223143794194
 20
-144.5706759621212
 30
0.0
 10
293.9930798961198
 20
-144.5706759621212
 30
0.0
 10
293.3230088242387
 20
-143.8968152852064
 30
0.0
 10
293.3230088242387
 20
-143.0713704069405
 30
0.0
 10
293.3230088242387
 20
-142.2424804331894
 30
0.0
 10
293.9930798961198
 20
-141.5720648517598
 30
0.0
 10
294.8223143794194
 20
-141.5686197562745
 30
0.0
 10
295.6512043531706
 20
-141.5686197562745
 30
0.0
 10
296.3250650300854
 20
-142.2424804331894
 30
0.0
 10
296.3250650300854
 20
-143.0713704069405
 30
0.0
  0
SPLINE
  5
EF
330
1F
100
AcDbEntity
  8
Layer 1
370
     0
100
AcDbSpline
210
0.0
220
0.0
230
1.0
 70
    11
 71
     3
 72
    17
 73
    13
 74
     0
 42
0.0000000001
 43
0.0000000001
 40
0.0
 40
0.0
 40
0.0
 40
0.0
 40
1.0
 40
1.0
 40
1.0
 40
2.0
 40
2.0
 40
2.0
 40
3.0
 40
3.0
 40
3.0
 40
4.0
 40
4.0
 40
4.0
 40
4.0
 10
264.3246065962452
 20
-143.0713704069405
 30
0.0
 10
264.3246065962452
 20
-143.8968152852064
 30
0.0
 10
263.6507459193304
 20
-144.5706759621212
 30
0.0
 10
262.8253010410645
 20
-144.5706759621212
 30
0.0
 10
261.9960665577649
 20
-144.5706759621212
 30
0.0
 10
261.3225503903985
 20
-143.9002603806916
 30
0.0
 10
261.3225503903985
 20
-143.0713704069405
 30
0.0
 10
261.3225503903985
 20
-142.2424804331894
 30
0.0
 10
261.9960665577649
 20
-141.5686197562745
 30
0.0
 10
262.8253010410645
 20
-141.5686197562745
 30
0.0
 10
263.6507459193304
 20
-141.5686197562745
 30
0.0
 10
264.3246065962452
 20
-142.2424804331894
 30
0.0
 10
264.3246065962452
 20
-143.0713704069405
 30
0.0
  0
SPLINE
  5
F0
330
1F
100
AcDbEntity
  8
Layer 1
370
     0
100
AcDbSpline
210
0.0
220
0.0
230
1.0
 70
    11
 71
     3
 72
    32
 73
    28
 74
     0
 42
0.0000000001
 43
0.0000000001
 40
0.0
 40
0.0
 40
0.0
 40
0.0
 40
1.0
 40
1.0
 40
1.0
 40
2.0
 40
2.0
 40
2.0
 40
3.0
 40
3.0
 40
3.0
 40
4.0
 40
4.0
 40
4.0
 40
5.0
 40
5.0
 40
5.0
 40
6.0
 40
6.0
 40
6.0
 40
7.0
 40
7.0
 40
7.0
 40
8.0
 40
8.0
 40
8.0
 40
9.0
 40
9.0
 40
9.0
 40
9.0
 10
284.4787596945053
 20
-121.4141221484659
 30
0.0
 10
286.7187607790148
 20
-123.6506781374901
 30
0.0
 10
287.3540363864948
 20
-126.8787326071692
 30
0.0
 10
286.3838974978485
 20
-129.6830403321626
 30
0.0
 10
286.3838974978485
 20
-129.6830403321626
 30
0.0
 10
291.8305934600285
 20
-135.1269802179544
 30
0.0
 10
291.8305934600285
 20
-135.1269802179544
 30
0.0
 10
293.195884800833
 20
-136.4953721446956
 30
0.0
 10
293.195884800833
 20
-138.7105685417112
 30
0.0
 10
291.8305934600285
 20
-140.0762043920643
 30
0.0
 10
291.1463974966579
 20
-140.7604003554349
 30
0.0
 10
290.2503281609444
 20
-141.1028428466688
 30
0.0
 10
289.3542588252309
 20
-141.106287942154
 30
0.0
 10
288.4581894895174
 20
-141.1028428466688
 30
0.0
 10
287.5655652492892
 20
-140.7604003554349
 30
0.0
 10
286.8810247763701
 20
-140.0762043920643
 30
0.0
 10
286.8810247763701
 20
-140.0762043920643
 30
0.0
 10
281.4343288141901
 20
-134.6329535253695
 30
0.0
 10
281.4343288141901
 20
-134.6329535253695
 30
0.0
 10
278.6331216751334
 20
-135.5996473185307
 30
0.0
 10
275.401622109969
 20
-134.9609266155653
 30
0.0
 10
273.1650661209449
 20
-132.7278157220264
 30
0.0
 10
270.0431205922114
 20
-129.6024250978077
 30
0.0
 10
270.0431205922114
 20
-124.5360676771993
 30
0.0
 10
273.1650661209449
 20
-121.4141221484659
 30
0.0
 10
276.2908012547121
 20
-118.2887315242473
 30
0.0
 10
281.3568141657719
 20
-118.2887315242473
 30
0.0
 10
284.4787596945053
 20
-121.4141221484659
 30
0.0
  0
SPLINE
  5
F1
330
1F
100
AcDbEntity
  8
Layer 1
370
     0
100
AcDbSpline
210
0.0
220
0.0
230
1.0
 70
    11
 71
     3
 72
    17
 73
    13
 74
     0
 42
0.0000000001
 43
0.0000000001
 40
0.0
 40
0.0
 40
0.0
 40
0.0
 40
1.0
 40
1.0
 40
1.0
 40
2.0
 40
2.0
 40
2.0
 40
3.0
 40
3.0
 40
3.0
 40
4.0
 40
4.0
 40
4.0
 40
4.0
 10
296.3250650300854
 20
-111.0705674635518
 30
0.0
 10
296.3250650300854
 20
-111.8994574373029
 30
0.0
 10
295.6512043531706
 20
-112.5698730187325
 30
0.0
 10
294.8223143794194
 20
-112.5698730187325
 30
0.0
 10
293.9930798961198
 20
-112.5698730187325
 30
0.0
 10
293.3230088242387
 20
-111.8994574373029
 30
0.0
 10
293.3230088242387
 20
-111.0705674635518
 30
0.0
 10
293.3230088242387
 20
-110.2416774898007
 30
0.0
 10
293.9930798961198
 20
-109.5712619083711
 30
0.0
 10
294.8223143794194
 20
-109.5712619083711
 30
0.0
 10
295.6512043531706
 20
-109.5712619083711
 30
0.0
 10
296.3250650300854
 20
-110.2416774898007
 30
0.0
 10
296.3250650300854
 20
-111.0705674635518
 30
0.0
  0
SPLINE
  5
F2
330
1F
100
AcDbEntity
  8
Layer 1
370
     0
100
AcDbSpline
210
0.0
220
0.0
230
1.0
 70
    11
 71
     3
 72
    17
 73
    13
 74
     0
 42
0.0000000001
 43
0.0000000001
 40
0.0
 40
0.0
 40
0.0
 40
0.0
 40
1.0
 40
1.0
 40
1.0
 40
2.0
 40
2.0
 40
2.0
 40
3.0
 40
3.0
 40
3.0
 40
4.0
 40
4.0
 40
4.0
 40
4.0
 10
264.3246065962452
 20
-111.0705674635518
 30
0.0
 10
264.3246065962452
 20
-111.8994574373029
 30
0.0
 10
263.6507459193304
 20
-112.5698730187325
 30
0.0
 10
262.8253010410645
 20
-112.5698730187325
 30
0.0
 10
261.9960665577649
 20
-112.5698730187325
 30
0.0
 10
261.3225503903985
 20
-111.8994574373029
 30
0.0
 10
261.3225503903985
 20
-111.0705674635518
 30
0.0
 10
261.3225503903985
 20
-110.2416774898007
 30
0.0
 10
261.9960665577649
 20
-109.5712619083711
 30
0.0
 10
262.8253010410645
 20
-109.5712619083711
 30
0.0
 10
263.6507459193304
 20
-109.5712619083711
 30
0.0
 10
264.3246065962452
 20
-110.2416774898007
 30
0.0
 10
264.3246065962452
 20
-111.0705674635518
 30
0.0
  0
SPLINE
  5
F3
330
1F
100
AcDbEntity
  8
Layer 1
370
     0
100
AcDbSpline
210
0.0
220
0.0
230
1.0
 70
    11
 71
     3
 72
    41
 73
    37
 74
     0
 42
0.0000000001
 43
0.0000000001
 40
0.0
 40
0.0
 40
0.0
 40
0.0
 40
1.0
 40
1.0
 40
1.0
 40
2.0
 40
2.0
 40
2.0
 40
3.0
 40
3.0
 40
3.0
 40
4.0
 40
4.0
 40
4.0
 40
5.0
 40
5.0
 40
5.0
 40
6.0
 40
6.0
 40
6.0
 40
7.0
 40
7.0
 40
7.0
 40
8.0
 40
8.0
 40
8.0
 40
9.0
 40
9.0
 40
9.0
 40
10.0
 40
10.0
 40
10.0
 40
11.0
 40
11.0
 40
11.0
 40
12.0
 40
12.0
 40
12.0
 40
12.0
 10
288.4709363428128
 20
-43.79887694217528
 30
0.0
 10
288.4709363428128
 20
-43.79887694217528
 30
0.0
 10
288.4709363428128
 20
-33.71577147594606
 30
0.0
 10
288.4709363428128
 20
-33.71577147594606
 30
0.0
 10
288.473003400104
 20
-31.78272839917237
 30
0.0
 10
290.0398328267956
 20
-30.21589897248075
 30
0.0
 10
291.9704643367296
 20
-30.21624348202927
 30
0.0
 10
292.9378471489878
 20
-30.21624348202927
 30
0.0
 10
293.8142794404353
 20
-30.60760632915365
 30
0.0
 10
294.4474879906243
 20
-31.23633625521175
 30
0.0
 10
295.078629483522
 20
-31.8726453913374
 30
0.0
 10
295.4699923306464
 20
-32.7483886636879
 30
0.0
 10
295.4699923306464
 20
-33.71577147594606
 30
0.0
 10
295.4699923306464
 20
-33.71577147594606
 30
0.0
 10
295.4699923306464
 20
-43.79887694217528
 30
0.0
 10
295.4699923306464
 20
-43.79887694217528
 30
0.0
 10
296.9872123823504
 20
-44.88614907732013
 30
0.0
 10
297.9725096911319
 20
-46.66485187635462
 30
0.0
 10
297.9718206720348
 20
-48.6709309774156
 30
0.0
 10
297.9718206720348
 20
-48.6709309774156
 30
0.0
 10
297.9718206720348
 20
-26.38943141701375
 30
0.0
 10
297.9718206720348
 20
-26.38943141701375
 30
0.0
 10
297.9718206720348
 20
-26.38943141701375
 30
0.0
 10
293.3850205429732
 20
-21.80194226885507
 30
0.0
 10
293.3850205429732
 20
-21.80194226885507
 30
0.0
 10
292.6016058296274
 20
-21.01887206505778
 30
0.0
 10
291.3344997101525
 20
-21.01887206505778
 30
0.0
 10
290.555908130486
 20
-21.80228677840359
 30
0.0
 10
290.555908130486
 20
-21.80228677840359
 30
0.0
 10
285.9711750587156
 20
-26.38667534062555
 30
0.0
 10
285.9711750587156
 20
-26.38667534062555
 30
0.0
 10
285.9711750587156
 20
-26.38667534062555
 30
0.0
 10
285.9711750587156
 20
-48.67299803470675
 30
0.0
 10
285.9711750587156
 20
-48.67299803470675
 30
0.0
 10
285.9711750587156
 20
-46.66244030951495
 30
0.0
 10
286.9592284438852
 20
-44.88614907732013
 30
0.0
 10
288.4709363428128
 20
-43.79887694217528
 30
0.0
  0
SPLINE
  5
F4
330
1F
100
AcDbEntity
  8
Layer 1
370
     0
100
AcDbSpline
210
0.0
220
0.0
230
1.0
 70
    11
 71
     3
 72
    17
 73
    13
 74
     0
 42
0.0000000001
 43
0.0000000001
 40
0.0
 40
0.0
 40
0.0
 40
0.0
 40
1.0
 40
1.0
 40
1.0
 40
2.0
 40
2.0
 40
2.0
 40
3.0
 40
3.0
 40
3.0
 40
4.0
 40
4.0
 40
4.0
 40
4.0
 10
290.9079968890786
 20
-24.98279893038625
 30
0.0
 10
291.4943521406681
 20
-24.3960991692482
 30
0.0
 10
292.4445094755
 20
-24.3988552456364
 30
0.0
 10
293.0281086507013
 20
-24.98279893038625
 30
0.0
 10
293.6144639022908
 20
-25.56880967242724
 30
0.0
 10
293.6144639022908
 20
-26.51655544041947
 30
0.0
 10
293.0281086507013
 20
-27.10325520155752
 30
0.0
 10
292.4417533991118
 20
-27.68926594359852
 30
0.0
 10
291.493663121571
 20
-27.68926594359852
 30
0.0
 10
290.9079968890786
 20
-27.10325520155752
 30
0.0
 10
290.3243977138773
 20
-26.5196560263562
 30
0.0
 10
290.3216416374891
 20
-25.56880967242724
 30
0.0
 10
290.9079968890786
 20
-24.98279893038625
 30
0.0
  0
SPLINE
  5
F5
330
1F
100
AcDbEntity
  8
Layer 1
370
     0
100
AcDbSpline
210
0.0
220
0.0
230
1.0
 70
    11
 71
     3
 72
    20
 73
    16
 74
     0
 42
0.0000000001
 43
0.0000000001
 40
0.0
 40
0.0
 40
0.0
 40
0.0
 40
1.0
 40
1.0
 40
1.0
 40
2.0
 40
2.0
 40
2.0
 40
3.0
 40
3.0
 40
3.0
 40
4.0
 40
4.0
 40
4.0
 40
5.0
 40
5.0
 40
5.0
 40
5.0
 10
105.2173502341123
 20
-1.686374240029795
 30
0.0
 10
105.2173502341123
 20
-1.686374240029795
 30
0.0
 10
105.2173502341123
 20
-31.68661023513391
 30
0.0
 10
105.2173502341123
 20
-31.68661023513391
 30
0.0
 10
105.2173502341123
 20
-37.20772025979529
 30
0.0
 10
100.7404486510302
 20
-41.68427733332894
 30
0.0
 10
95.21968313591731
 20
-41.68427733332894
 30
0.0
 10
95.21968313591731
 20
-41.68427733332894
 30
0.0
 10
54.21960176595899
 20
-41.68427733332894
 30
0.0
 10
54.21960176595899
 20
-41.68427733332894
 30
0.0
 10
54.21960176595899
 20
-41.68427733332894
 30
0.0
 10
54.21960176595899
 20
-1.686374240029795
 30
0.0
 10
54.21960176595899
 20
-1.686374240029795
 30
0.0
 10
54.21960176595899
 20
-1.686374240029795
 30
0.0
 10
105.2173502341123
 20
-1.686374240029795
 30
0.0
 10
105.2173502341123
 20
-1.686374240029795
 30
0.0
  0
SPLINE
  5
F6
330
1F
100
AcDbEntity
  8
Layer 1
370
     0
100
AcDbSpline
210
0.0
220
0.0
230
1.0
 70
    11
 71
     3
 72
    17
 73
    13
 74
     0
 42
0.0000000001
 43
0.0000000001
 40
0.0
 40
0.0
 40
0.0
 40
0.0
 40
1.0
 40
1.0
 40
1.0
 40
2.0
 40
2.0
 40
2.0
 40
3.0
 40
3.0
 40
3.0
 40
4.0
 40
4.0
 40
4.0
 40
4.0
 10
96.71829967200098
 20
-31.6852321969398
 30
0.0
 10
96.71829967200098
 20
-32.51343315159387
 30
0.0
 10
96.0468505619258
 20
-33.18522677121759
 30
0.0
 10
95.2183050977232
 20
-33.18522677121759
 30
0.0
 10
94.38975963352063
 20
-33.18522677121759
 30
0.0
 10
93.71831052344542
 20
-32.51343315159387
 30
0.0
 10
93.71831052344542
 20
-31.6852321969398
 30
0.0
 10
93.71831052344542
 20
-30.85668673273722
 30
0.0
 10
94.38975963352063
 20
-30.18523762266203
 30
0.0
 10
95.2183050977232
 20
-30.18523762266203
 30
0.0
 10
96.0468505619258
 20
-30.18523762266203
 30
0.0
 10
96.71829967200098
 20
-30.85668673273722
 30
0.0
 10
96.71829967200098
 20
-31.6852321969398
 30
0.0
  0
SPLINE
  5
F7
330
1F
100
AcDbEntity
  8
Layer 1
370
     0
100
AcDbSpline
210
0.0
220
0.0
230
1.0
 70
    11
 71
     3
 72
    17
 73
    13
 74
     0
 42
0.0000000001
 43
0.0000000001
 40
0.0
 40
0.0
 40
0.0
 40
0.0
 40
1.0
 40
1.0
 40
1.0
 40
2.0
 40
2.0
 40
2.0
 40
3.0
 40
3.0
 40
3.0
 40
4.0
 40
4.0
 40
4.0
 40
4.0
 10
66.21714679334156
 20
-11.68438584777335
 30
0.0
 10
66.21714679334156
 20
-12.78888346034445
 30
0.0
 10
65.32176647672512
 20
-13.6846082865094
 30
0.0
 10
64.21726886415402
 20
-13.6846082865094
 30
0.0
 10
63.11277125158292
 20
-13.6846082865094
 30
0.0
 10
62.21704642541796
 20
-12.78888346034445
 30
0.0
 10
62.21704642541796
 20
-11.68438584777335
 30
0.0
 10
62.21704642541796
 20
-10.57988823520225
 30
0.0
 10
63.11277125158292
 20
-9.684507918585817
 30
0.0
 10
64.21726886415402
 20
-9.684507918585817
 30
0.0
 10
65.32176647672512
 20
-9.684507918585817
 30
0.0
 10
66.21714679334156
 20
-10.57988823520225
 30
0.0
 10
66.21714679334156
 20
-11.68438584777335
 30
0.0
  0
SPLINE
  5
F8
330
1F
100
AcDbEntity
  8
Layer 1
370
     0
100
AcDbSpline
210
0.0
220
0.0
230
1.0
 70
    11
 71
     3
 72
    17
 73
    13
 74
     0
 42
0.0000000001
 43
0.0000000001
 40
0.0
 40
0.0
 40
0.0
 40
0.0
 40
1.0
 40
1.0
 40
1.0
 40
2.0
 40
2.0
 40
2.0
 40
3.0
 40
3.0
 40
3.0
 40
4.0
 40
4.0
 40
4.0
 40
4.0
 10
66.21714679334156
 20
-31.68419866829423
 30
0.0
 10
66.21714679334156
 20
-32.78869628086533
 30
0.0
 10
65.32176647672512
 20
-33.68442110703028
 30
0.0
 10
64.21726886415402
 20
-33.68442110703028
 30
0.0
 10
63.11277125158292
 20
-33.68442110703028
 30
0.0
 10
62.21704642541796
 20
-32.78869628086533
 30
0.0
 10
62.21704642541796
 20
-31.68419866829423
 30
0.0
 10
62.21704642541796
 20
-30.57970105572313
 30
0.0
 10
63.11277125158292
 20
-29.6843207391067
 30
0.0
 10
64.21726886415402
 20
-29.6843207391067
 30
0.0
 10
65.32176647672512
 20
-29.6843207391067
 30
0.0
 10
66.21714679334156
 20
-30.57970105572313
 30
0.0
 10
66.21714679334156
 20
-31.68419866829423
 30
0.0
  0
SPLINE
  5
F9
330
1F
100
AcDbEntity
  8
Layer 1
370
     0
100
AcDbSpline
210
0.0
220
0.0
230
1.0
 70
    11
 71
     3
 72
    17
 73
    13
 74
     0
 42
0.0000000001
 43
0.0000000001
 40
0.0
 40
0.0
 40
0.0
 40
0.0
 40
1.0
 40
1.0
 40
1.0
 40
2.0
 40
2.0
 40
2.0
 40
3.0
 40
3.0
 40
3.0
 40
4.0
 40
4.0
 40
4.0
 40
4.0
 10
97.21714949826516
 20
-11.68438584777335
 30
0.0
 10
97.21714949826516
 20
-12.78888346034445
 30
0.0
 10
96.32176918164873
 20
-13.6846082865094
 30
0.0
 10
95.21727156907762
 20
-13.6846082865094
 30
0.0
 10
94.11277395650653
 20
-13.6846082865094
 30
0.0
 10
93.21704913034158
 20
-12.78888346034445
 30
0.0
 10
93.21704913034158
 20
-11.68438584777335
 30
0.0
 10
93.21704913034158
 20
-10.57988823520225
 30
0.0
 10
94.11277395650653
 20
-9.684507918585817
 30
0.0
 10
95.21727156907762
 20
-9.684507918585817
 30
0.0
 10
96.32176918164873
 20
-9.684507918585817
 30
0.0
 10
97.21714949826516
 20
-10.57988823520225
 30
0.0
 10
97.21714949826516
 20
-11.68438584777335
 30
0.0
  0
SPLINE
  5
FA
330
1F
100
AcDbEntity
  8
Layer 1
370
     0
100
AcDbSpline
210
0.0
220
0.0
230
1.0
 70
    11
 71
     3
 72
    17
 73
    13
 74
     0
 42
0.0000000001
 43
0.0000000001
 40
0.0
 40
0.0
 40
0.0
 40
0.0
 40
1.0
 40
1.0
 40
1.0
 40
2.0
 40
2.0
 40
2.0
 40
3.0
 40
3.0
 40
3.0
 40
4.0
 40
4.0
 40
4.0
 40
4.0
 10
144.905883752836
 20
-80.59818113219421
 30
0.0
 10
144.905883752836
 20
-81.15077444802829
 30
0.0
 10
145.35340165637
 20
-81.59863686111076
 30
0.0
 10
145.9056504626555
 20
-81.59863686111076
 30
0.0
 10
146.4578992689411
 20
-81.59863686111076
 30
0.0
 10
146.9057616820236
 20
-81.15077444802829
 30
0.0
 10
146.9057616820236
 20
-80.59818113219421
 30
0.0
 10
146.9057616820236
 20
-80.04627683545718
 30
0.0
 10
146.4578992689411
 20
-79.5984144223747
 30
0.0
 10
145.9056504626555
 20
-79.5984144223747
 30
0.0
 10
145.35340165637
 20
-79.5984144223747
 30
0.0
 10
144.905883752836
 20
-80.04627683545718
 30
0.0
 10
144.905883752836
 20
-80.59818113219421
 30
0.0
  0
SPLINE
  5
FB
330
1F
100
AcDbEntity
  8
Layer 1
370
     0
100
AcDbSpline
210
0.0
220
0.0
230
1.0
 70
    11
 71
     3
 72
    17
 73
    13
 74
     0
 42
0.0000000001
 43
0.0000000001
 40
0.0
 40
0.0
 40
0.0
 40
0.0
 40
1.0
 40
1.0
 40
1.0
 40
2.0
 40
2.0
 40
2.0
 40
3.0
 40
3.0
 40
3.0
 40
4.0
 40
4.0
 40
4.0
 40
4.0
 10
134.9058050878013
 20
-80.59818113219421
 30
0.0
 10
134.9058050878013
 20
-81.15077444802829
 30
0.0
 10
135.3533229913353
 20
-81.59863686111076
 30
0.0
 10
135.9055717976208
 20
-81.59863686111076
 30
0.0
 10
136.4578206039064
 20
-81.59863686111076
 30
0.0
 10
136.9056830169889
 20
-81.15077444802829
 30
0.0
 10
136.9056830169889
 20
-80.59818113219421
 30
0.0
 10
136.9056830169889
 20
-80.04627683545718
 30
0.0
 10
136.4578206039064
 20
-79.5984144223747
 30
0.0
 10
135.9055717976208
 20
-79.5984144223747
 30
0.0
 10
135.3533229913353
 20
-79.5984144223747
 30
0.0
 10
134.9058050878013
 20
-80.04627683545718
 30
0.0
 10
134.9058050878013
 20
-80.59818113219421
 30
0.0
  0
SPLINE
  5
FC
330
1F
100
AcDbEntity
  8
Layer 1
370
     0
100
AcDbSpline
210
0.0
220
0.0
230
1.0
 70
    11
 71
     3
 72
    20
 73
    16
 74
     0
 42
0.0000000001
 43
0.0000000001
 40
0.0
 40
0.0
 40
0.0
 40
0.0
 40
1.0
 40
1.0
 40
1.0
 40
2.0
 40
2.0
 40
2.0
 40
3.0
 40
3.0
 40
3.0
 40
4.0
 40
4.0
 40
4.0
 40
5.0
 40
5.0
 40
5.0
 40
5.0
 10
157.9059515664263
 20
-43.09831677524973
 30
0.0
 10
157.9059515664263
 20
-43.09831677524973
 30
0.0
 10
157.9059515664263
 20
-73.09855277035383
 30
0.0
 10
157.9059515664263
 20
-73.09855277035383
 30
0.0
 10
157.9059515664263
 20
-78.61966279501523
 30
0.0
 10
153.4290499833441
 20
-83.09621986854887
 30
0.0
 10
147.9082844682313
 20
-83.09621986854887
 30
0.0
 10
147.9082844682313
 20
-83.09621986854887
 30
0.0
 10
106.9082030982729
 20
-83.09621986854887
 30
0.0
 10
106.9082030982729
 20
-83.09621986854887
 30
0.0
 10
106.9082030982729
 20
-83.09621986854887
 30
0.0
 10
106.9082030982729
 20
-43.09831677524973
 30
0.0
 10
106.9082030982729
 20
-43.09831677524973
 30
0.0
 10
106.9082030982729
 20
-43.09831677524973
 30
0.0
 10
157.9059515664263
 20
-43.09831677524973
 30
0.0
 10
157.9059515664263
 20
-43.09831677524973
 30
0.0
  0
SPLINE
  5
FD
330
1F
100
AcDbEntity
  8
Layer 1
370
     0
100
AcDbSpline
210
0.0
220
0.0
230
1.0
 70
    11
 71
     3
 72
    17
 73
    13
 74
     0
 42
0.0000000001
 43
0.0000000001
 40
0.0
 40
0.0
 40
0.0
 40
0.0
 40
1.0
 40
1.0
 40
1.0
 40
2.0
 40
2.0
 40
2.0
 40
3.0
 40
3.0
 40
3.0
 40
4.0
 40
4.0
 40
4.0
 40
4.0
 10
149.406901004315
 20
-73.09717473215974
 30
0.0
 10
149.406901004315
 20
-73.9253756868138
 30
0.0
 10
148.7354518942398
 20
-74.59716930643752
 30
0.0
 10
147.9069064300372
 20
-74.59716930643752
 30
0.0
 10
147.0783609658346
 20
-74.59716930643752
 30
0.0
 10
146.4069118557594
 20
-73.9253756868138
 30
0.0
 10
146.4069118557594
 20
-73.09717473215974
 30
0.0
 10
146.4069118557594
 20
-72.26862926795715
 30
0.0
 10
147.0783609658346
 20
-71.59718015788197
 30
0.0
 10
147.9069064300372
 20
-71.59718015788197
 30
0.0
 10
148.7354518942398
 20
-71.59718015788197
 30
0.0
 10
149.406901004315
 20
-72.26862926795715
 30
0.0
 10
149.406901004315
 20
-73.09717473215974
 30
0.0
  0
SPLINE
  5
FE
330
1F
100
AcDbEntity
  8
Layer 1
370
     0
100
AcDbSpline
210
0.0
220
0.0
230
1.0
 70
    11
 71
     3
 72
    17
 73
    13
 74
     0
 42
0.0000000001
 43
0.0000000001
 40
0.0
 40
0.0
 40
0.0
 40
0.0
 40
1.0
 40
1.0
 40
1.0
 40
2.0
 40
2.0
 40
2.0
 40
3.0
 40
3.0
 40
3.0
 40
4.0
 40
4.0
 40
4.0
 40
4.0
 10
118.9057481256555
 20
-53.09632838299328
 30
0.0
 10
118.9057481256555
 20
-54.20082599556438
 30
0.0
 10
118.0103678090391
 20
-55.09655082172934
 30
0.0
 10
116.905870196468
 20
-55.09655082172934
 30
0.0
 10
115.8013725838969
 20
-55.09655082172934
 30
0.0
 10
114.9056477577319
 20
-54.20082599556438
 30
0.0
 10
114.9056477577319
 20
-53.09632838299328
 30
0.0
 10
114.9056477577319
 20
-51.99183077042218
 30
0.0
 10
115.8013725838969
 20
-51.09645045380575
 30
0.0
 10
116.905870196468
 20
-51.09645045380575
 30
0.0
 10
118.0103678090391
 20
-51.09645045380575
 30
0.0
 10
118.9057481256555
 20
-51.99183077042218
 30
0.0
 10
118.9057481256555
 20
-53.09632838299328
 30
0.0
  0
SPLINE
  5
FF
330
1F
100
AcDbEntity
  8
Layer 1
370
     0
100
AcDbSpline
210
0.0
220
0.0
230
1.0
 70
    11
 71
     3
 72
    17
 73
    13
 74
     0
 42
0.0000000001
 43
0.0000000001
 40
0.0
 40
0.0
 40
0.0
 40
0.0
 40
1.0
 40
1.0
 40
1.0
 40
2.0
 40
2.0
 40
2.0
 40
3.0
 40
3.0
 40
3.0
 40
4.0
 40
4.0
 40
4.0
 40
4.0
 10
118.9057481256555
 20
-73.09614120351416
 30
0.0
 10
118.9057481256555
 20
-74.20063881608526
 30
0.0
 10
118.0103678090391
 20
-75.09636364225022
 30
0.0
 10
116.905870196468
 20
-75.09636364225022
 30
0.0
 10
115.8013725838969
 20
-75.09636364225022
 30
0.0
 10
114.9056477577319
 20
-74.20063881608526
 30
0.0
 10
114.9056477577319
 20
-73.09614120351416
 30
0.0
 10
114.9056477577319
 20
-71.99164359094307
 30
0.0
 10
115.8013725838969
 20
-71.09626327432663
 30
0.0
 10
116.905870196468
 20
-71.09626327432663
 30
0.0
 10
118.0103678090391
 20
-71.09626327432663
 30
0.0
 10
118.9057481256555
 20
-71.99164359094307
 30
0.0
 10
118.9057481256555
 20
-73.09614120351416
 30
0.0
  0
SPLINE
  5
100
330
1F
100
AcDbEntity
  8
Layer 1
370
     0
100
AcDbSpline
210
0.0
220
0.0
230
1.0
 70
    11
 71
     3
 72
    17
 73
    13
 74
     0
 42
0.0000000001
 43
0.0000000001
 40
0.0
 40
0.0
 40
0.0
 40
0.0
 40
1.0
 40
1.0
 40
1.0
 40
2.0
 40
2.0
 40
2.0
 40
3.0
 40
3.0
 40
3.0
 40
4.0
 40
4.0
 40
4.0
 40
4.0
 10
149.9057508305791
 20
-53.09632838299328
 30
0.0
 10
149.9057508305791
 20
-54.20082599556438
 30
0.0
 10
149.0103705139627
 20
-55.09655082172934
 30
0.0
 10
147.9058729013916
 20
-55.09655082172934
 30
0.0
 10
146.8013752888205
 20
-55.09655082172934
 30
0.0
 10
145.9056504626555
 20
-54.20082599556438
 30
0.0
 10
145.9056504626555
 20
-53.09632838299328
 30
0.0
 10
145.9056504626555
 20
-51.99183077042218
 30
0.0
 10
146.8013752888205
 20
-51.09645045380575
 30
0.0
 10
147.9058729013916
 20
-51.09645045380575
 30
0.0
 10
149.0103705139627
 20
-51.09645045380575
 30
0.0
 10
149.9057508305791
 20
-51.99183077042218
 30
0.0
 10
149.9057508305791
 20
-53.09632838299328
 30
0.0
  0
SPLINE
  5
101
330
1F
100
AcDbEntity
  8
Layer 1
370
     0
100
AcDbSpline
210
0.0
220
0.0
230
1.0
 70
    11
 71
     3
 72
    20
 73
    16
 74
     0
 42
0.0000000001
 43
0.0000000001
 40
0.0
 40
0.0
 40
0.0
 40
0.0
 40
1.0
 40
1.0
 40
1.0
 40
2.0
 40
2.0
 40
2.0
 40
3.0
 40
3.0
 40
3.0
 40
4.0
 40
4.0
 40
4.0
 40
5.0
 40
5.0
 40
5.0
 40
5.0
 10
52.34478080288603
 20
-1.596284993090512
 30
0.0
 10
52.34478080288603
 20
-1.596284993090512
 30
0.0
 10
52.34478080288603
 20
-31.59652098819462
 30
0.0
 10
52.34478080288603
 20
-31.59652098819462
 30
0.0
 10
52.34478080288603
 20
-37.11763101285601
 30
0.0
 10
47.86787921980387
 20
-41.59418808638965
 30
0.0
 10
42.347113704691
 20
-41.59418808638965
 30
0.0
 10
42.347113704691
 20
-41.59418808638965
 30
0.0
 10
1.347032334732686
 20
-41.59418808638965
 30
0.0
 10
1.347032334732686
 20
-41.59418808638965
 30
0.0
 10
1.347032334732686
 20
-41.59418808638965
 30
0.0
 10
1.347032334732686
 20
-1.596284993090512
 30
0.0
 10
1.347032334732686
 20
-1.596284993090512
 30
0.0
 10
1.347032334732686
 20
-1.596284993090512
 30
0.0
 10
52.34478080288603
 20
-1.596284993090512
 30
0.0
 10
52.34478080288603
 20
-1.596284993090512
 30
0.0
  0
SPLINE
  5
102
330
1F
100
AcDbEntity
  8
Layer 1
370
     0
100
AcDbSpline
210
0.0
220
0.0
230
1.0
 70
    11
 71
     3
 72
    17
 73
    13
 74
     0
 42
0.0000000001
 43
0.0000000001
 40
0.0
 40
0.0
 40
0.0
 40
0.0
 40
1.0
 40
1.0
 40
1.0
 40
2.0
 40
2.0
 40
2.0
 40
3.0
 40
3.0
 40
3.0
 40
4.0
 40
4.0
 40
4.0
 40
4.0
 10
43.84573024077468
 20
-31.59514295000052
 30
0.0
 10
43.84573024077468
 20
-32.42334390465458
 30
0.0
 10
43.17428113069948
 20
-33.0951375242783
 30
0.0
 10
42.3457356664969
 20
-33.0951375242783
 30
0.0
 10
41.51719020229432
 20
-33.0951375242783
 30
0.0
 10
40.84574109221912
 20
-32.42334390465458
 30
0.0
 10
40.84574109221912
 20
-31.59514295000052
 30
0.0
 10
40.84574109221912
 20
-30.76659748579793
 30
0.0
 10
41.51719020229432
 20
-30.09514837572274
 30
0.0
 10
42.3457356664969
 20
-30.09514837572274
 30
0.0
 10
43.17428113069948
 20
-30.09514837572274
 30
0.0
 10
43.84573024077468
 20
-30.76659748579793
 30
0.0
 10
43.84573024077468
 20
-31.59514295000052
 30
0.0
  0
SPLINE
  5
103
330
1F
100
AcDbEntity
  8
Layer 1
370
     0
100
AcDbSpline
210
0.0
220
0.0
230
1.0
 70
    11
 71
     3
 72
    17
 73
    13
 74
     0
 42
0.0000000001
 43
0.0000000001
 40
0.0
 40
0.0
 40
0.0
 40
0.0
 40
1.0
 40
1.0
 40
1.0
 40
2.0
 40
2.0
 40
2.0
 40
3.0
 40
3.0
 40
3.0
 40
4.0
 40
4.0
 40
4.0
 40
4.0
 10
13.34457736211525
 20
-11.59429660083407
 30
0.0
 10
13.34457736211525
 20
-12.69879421340516
 30
0.0
 10
12.44919704549881
 20
-13.59451903957012
 30
0.0
 10
11.34469943292772
 20
-13.59451903957012
 30
0.0
 10
10.24020182035662
 20
-13.59451903957012
 30
0.0
 10
9.344476994191659
 20
-12.69879421340516
 30
0.0
 10
9.344476994191659
 20
-11.59429660083407
 30
0.0
 10
9.344476994191659
 20
-10.48979898826297
 30
0.0
 10
10.24020182035662
 20
-9.594418671646535
 30
0.0
 10
11.34469943292772
 20
-9.594418671646535
 30
0.0
 10
12.44919704549881
 20
-9.594418671646535
 30
0.0
 10
13.34457736211525
 20
-10.48979898826297
 30
0.0
 10
13.34457736211525
 20
-11.59429660083407
 30
0.0
  0
SPLINE
  5
104
330
1F
100
AcDbEntity
  8
Layer 1
370
     0
100
AcDbSpline
210
0.0
220
0.0
230
1.0
 70
    11
 71
     3
 72
    17
 73
    13
 74
     0
 42
0.0000000001
 43
0.0000000001
 40
0.0
 40
0.0
 40
0.0
 40
0.0
 40
1.0
 40
1.0
 40
1.0
 40
2.0
 40
2.0
 40
2.0
 40
3.0
 40
3.0
 40
3.0
 40
4.0
 40
4.0
 40
4.0
 40
4.0
 10
13.34457736211525
 20
-31.59410942135495
 30
0.0
 10
13.34457736211525
 20
-32.69860703392605
 30
0.0
 10
12.44919704549881
 20
-33.594331860091
 30
0.0
 10
11.34469943292772
 20
-33.594331860091
 30
0.0
 10
10.24020182035662
 20
-33.594331860091
 30
0.0
 10
9.344476994191659
 20
-32.69860703392605
 30
0.0
 10
9.344476994191659
 20
-31.59410942135495
 30
0.0
 10
9.344476994191659
 20
-30.48961180878385
 30
0.0
 10
10.24020182035662
 20
-29.59423149216742
 30
0.0
 10
11.34469943292772
 20
-29.59423149216742
 30
0.0
 10
12.44919704549881
 20
-29.59423149216742
 30
0.0
 10
13.34457736211525
 20
-30.48961180878385
 30
0.0
 10
13.34457736211525
 20
-31.59410942135495
 30
0.0
  0
SPLINE
  5
105
330
1F
100
AcDbEntity
  8
Layer 1
370
     0
100
AcDbSpline
210
0.0
220
0.0
230
1.0
 70
    11
 71
     3
 72
    17
 73
    13
 74
     0
 42
0.0000000001
 43
0.0000000001
 40
0.0
 40
0.0
 40
0.0
 40
0.0
 40
1.0
 40
1.0
 40
1.0
 40
2.0
 40
2.0
 40
2.0
 40
3.0
 40
3.0
 40
3.0
 40
4.0
 40
4.0
 40
4.0
 40
4.0
 10
44.34458006703886
 20
-11.59429660083407
 30
0.0
 10
44.34458006703886
 20
-12.69879421340516
 30
0.0
 10
43.44919975042242
 20
-13.59451903957012
 30
0.0
 10
42.34470213785133
 20
-13.59451903957012
 30
0.0
 10
41.24020452528023
 20
-13.59451903957012
 30
0.0
 10
40.34447969911527
 20
-12.69879421340516
 30
0.0
 10
40.34447969911527
 20
-11.59429660083407
 30
0.0
 10
40.34447969911527
 20
-10.48979898826297
 30
0.0
 10
41.24020452528023
 20
-9.594418671646535
 30
0.0
 10
42.34470213785133
 20
-9.594418671646535
 30
0.0
 10
43.44919975042242
 20
-9.594418671646535
 30
0.0
 10
44.34458006703886
 20
-10.48979898826297
 30
0.0
 10
44.34458006703886
 20
-11.59429660083407
 30
0.0
  0
SPLINE
  5
106
330
1F
100
AcDbEntity
  8
Layer 1
370
     0
100
AcDbSpline
210
0.0
220
0.0
230
1.0
 70
    11
 71
     3
 72
    20
 73
    16
 74
     0
 42
0.0000000001
 43
0.0000000001
 40
0.0
 40
0.0
 40
0.0
 40
0.0
 40
1.0
 40
1.0
 40
1.0
 40
2.0
 40
2.0
 40
2.0
 40
3.0
 40
3.0
 40
3.0
 40
4.0
 40
4.0
 40
4.0
 40
5.0
 40
5.0
 40
5.0
 40
5.0
 10
52.28914251079924
 20
-42.55778129361403
 30
0.0
 10
52.28914251079924
 20
-42.55778129361403
 30
0.0
 10
52.28914251079924
 20
-72.55801728871813
 30
0.0
 10
52.28914251079924
 20
-72.55801728871813
 30
0.0
 10
52.28914251079924
 20
-78.07912731337953
 30
0.0
 10
47.81189641816856
 20
-82.55568438691317
 30
0.0
 10
42.29147541260421
 20
-82.55568438691317
 30
0.0
 10
42.29147541260421
 20
-82.55568438691317
 30
0.0
 10
1.291221787871639
 20
-82.55568438691317
 30
0.0
 10
1.291221787871639
 20
-82.55568438691317
 30
0.0
 10
1.291221787871639
 20
-82.55568438691317
 30
0.0
 10
1.291221787871639
 20
-42.55778129361403
 30
0.0
 10
1.291221787871639
 20
-42.55778129361403
 30
0.0
 10
1.291221787871639
 20
-42.55778129361403
 30
0.0
 10
52.28914251079924
 20
-42.55778129361403
 30
0.0
 10
52.28914251079924
 20
-42.55778129361403
 30
0.0
  0
SPLINE
  5
107
330
1F
100
AcDbEntity
  8
Layer 1
370
     0
100
AcDbSpline
210
0.0
220
0.0
230
1.0
 70
    11
 71
     3
 72
    17
 73
    13
 74
     0
 42
0.0000000001
 43
0.0000000001
 40
0.0
 40
0.0
 40
0.0
 40
0.0
 40
1.0
 40
1.0
 40
1.0
 40
2.0
 40
2.0
 40
2.0
 40
3.0
 40
3.0
 40
3.0
 40
4.0
 40
4.0
 40
4.0
 40
4.0
 10
43.79009194868789
 20
-72.55663925052404
 30
0.0
 10
43.79009194868789
 20
-73.3848402051781
 30
0.0
 10
43.11829832906417
 20
-74.05663382480182
 30
0.0
 10
42.29009737441012
 20
-74.05663382480182
 30
0.0
 10
41.46120740065901
 20
-74.05663382480182
 30
0.0
 10
40.79010280013234
 20
-73.3848402051781
 30
0.0
 10
40.79010280013234
 20
-72.55663925052404
 30
0.0
 10
40.79010280013234
 20
-71.72809378632145
 30
0.0
 10
41.46120740065901
 20
-71.05664467624626
 30
0.0
 10
42.29009737441012
 20
-71.05664467624626
 30
0.0
 10
43.11829832906417
 20
-71.05664467624626
 30
0.0
 10
43.79009194868789
 20
-71.72809378632145
 30
0.0
 10
43.79009194868789
 20
-72.55663925052404
 30
0.0
  0
SPLINE
  5
108
330
1F
100
AcDbEntity
  8
Layer 1
370
     0
100
AcDbSpline
210
0.0
220
0.0
230
1.0
 70
    11
 71
     3
 72
    17
 73
    13
 74
     0
 42
0.0000000001
 43
0.0000000001
 40
0.0
 40
0.0
 40
0.0
 40
0.0
 40
1.0
 40
1.0
 40
1.0
 40
2.0
 40
2.0
 40
2.0
 40
3.0
 40
3.0
 40
3.0
 40
4.0
 40
4.0
 40
4.0
 40
4.0
 10
13.2887668152542
 20
-52.55579290135758
 30
0.0
 10
13.2887668152542
 20
-53.66029051392868
 30
0.0
 10
12.39338649863777
 20
-54.55601534009364
 30
0.0
 10
11.28888888606667
 20
-54.55601534009364
 30
0.0
 10
10.18439127349557
 20
-54.55601534009364
 30
0.0
 10
9.28866644733061
 20
-53.66029051392868
 30
0.0
 10
9.28866644733061
 20
-52.55579290135758
 30
0.0
 10
9.28866644733061
 20
-51.45129528878648
 30
0.0
 10
10.18439127349557
 20
-50.55591497217005
 30
0.0
 10
11.28888888606667
 20
-50.55591497217005
 30
0.0
 10
12.39338649863777
 20
-50.55591497217005
 30
0.0
 10
13.2887668152542
 20
-51.45129528878648
 30
0.0
 10
13.2887668152542
 20
-52.55579290135758
 30
0.0
  0
SPLINE
  5
109
330
1F
100
AcDbEntity
  8
Layer 1
370
     0
100
AcDbSpline
210
0.0
220
0.0
230
1.0
 70
    11
 71
     3
 72
    17
 73
    13
 74
     0
 42
0.0000000001
 43
0.0000000001
 40
0.0
 40
0.0
 40
0.0
 40
0.0
 40
1.0
 40
1.0
 40
1.0
 40
2.0
 40
2.0
 40
2.0
 40
3.0
 40
3.0
 40
3.0
 40
4.0
 40
4.0
 40
4.0
 40
4.0
 10
13.2887668152542
 20
-72.55560572187846
 30
0.0
 10
13.2887668152542
 20
-73.66010333444956
 30
0.0
 10
12.39338649863777
 20
-74.55582816061452
 30
0.0
 10
11.28888888606667
 20
-74.55582816061452
 30
0.0
 10
10.18439127349557
 20
-74.55582816061452
 30
0.0
 10
9.28866644733061
 20
-73.66010333444956
 30
0.0
 10
9.28866644733061
 20
-72.55560572187846
 30
0.0
 10
9.28866644733061
 20
-71.45110810930737
 30
0.0
 10
10.18439127349557
 20
-70.55572779269093
 30
0.0
 10
11.28888888606667
 20
-70.55572779269093
 30
0.0
 10
12.39338649863777
 20
-70.55572779269093
 30
0.0
 10
13.2887668152542
 20
-71.45110810930737
 30
0.0
 10
13.2887668152542
 20
-72.55560572187846
 30
0.0
  0
SPLINE
  5
10A
330
1F
100
AcDbEntity
  8
Layer 1
370
     0
100
AcDbSpline
210
0.0
220
0.0
230
1.0
 70
    11
 71
     3
 72
    17
 73
    13
 74
     0
 42
0.0000000001
 43
0.0000000001
 40
0.0
 40
0.0
 40
0.0
 40
0.0
 40
1.0
 40
1.0
 40
1.0
 40
2.0
 40
2.0
 40
2.0
 40
3.0
 40
3.0
 40
3.0
 40
4.0
 40
4.0
 40
4.0
 40
4.0
 10
44.28894177495207
 20
-52.55579290135758
 30
0.0
 10
44.28894177495207
 20
-53.66029051392868
 30
0.0
 10
43.39321694878711
 20
-54.55601534009364
 30
0.0
 10
42.28871933621602
 20
-54.55601534009364
 30
0.0
 10
41.18422172364492
 20
-54.55601534009364
 30
0.0
 10
40.28849689747996
 20
-53.66029051392868
 30
0.0
 10
40.28849689747996
 20
-52.55579290135758
 30
0.0
 10
40.28849689747996
 20
-51.45129528878648
 30
0.0
 10
41.18422172364492
 20
-50.55591497217005
 30
0.0
 10
42.28871933621602
 20
-50.55591497217005
 30
0.0
 10
43.39321694878711
 20
-50.55591497217005
 30
0.0
 10
44.28894177495207
 20
-51.45129528878648
 30
0.0
 10
44.28894177495207
 20
-52.55579290135758
 30
0.0
  0
SPLINE
  5
10B
330
1F
100
AcDbEntity
  8
Layer 1
370
     0
100
AcDbSpline
210
0.0
220
0.0
230
1.0
 70
    11
 71
     3
 72
    17
 73
    13
 74
     0
 42
0.0000000001
 43
0.0000000001
 40
0.0
 40
0.0
 40
0.0
 40
0.0
 40
1.0
 40
1.0
 40
1.0
 40
2.0
 40
2.0
 40
2.0
 40
3.0
 40
3.0
 40
3.0
 40
4.0
 40
4.0
 40
4.0
 40
4.0
 10
92.25259464924588
 20
-80.3685655181023
 30
0.0
 10
92.25259464924588
 20
-80.92115883393637
 30
0.0
 10
92.70011255277984
 20
-81.36902124701886
 30
0.0
 10
93.25236135906539
 20
-81.36902124701886
 30
0.0
 10
93.80461016535094
 20
-81.36902124701886
 30
0.0
 10
94.25247257843341
 20
-80.92115883393637
 30
0.0
 10
94.25247257843341
 20
-80.3685655181023
 30
0.0
 10
94.25247257843341
 20
-79.81666122136528
 30
0.0
 10
93.80461016535094
 20
-79.3687988082828
 30
0.0
 10
93.25236135906539
 20
-79.3687988082828
 30
0.0
 10
92.70011255277984
 20
-79.3687988082828
 30
0.0
 10
92.25259464924588
 20
-79.81666122136528
 30
0.0
 10
92.25259464924588
 20
-80.3685655181023
 30
0.0
  0
SPLINE
  5
10C
330
1F
100
AcDbEntity
  8
Layer 1
370
     0
100
AcDbSpline
210
0.0
220
0.0
230
1.0
 70
    11
 71
     3
 72
    17
 73
    13
 74
     0
 42
0.0000000001
 43
0.0000000001
 40
0.0
 40
0.0
 40
0.0
 40
0.0
 40
1.0
 40
1.0
 40
1.0
 40
2.0
 40
2.0
 40
2.0
 40
3.0
 40
3.0
 40
3.0
 40
4.0
 40
4.0
 40
4.0
 40
4.0
 10
82.25251598421119
 20
-80.3685655181023
 30
0.0
 10
82.25251598421119
 20
-80.92115883393637
 30
0.0
 10
82.70003388774514
 20
-81.36902124701886
 30
0.0
 10
83.25228269403068
 20
-81.36902124701886
 30
0.0
 10
83.80453150031623
 20
-81.36902124701886
 30
0.0
 10
84.2523939133987
 20
-80.92115883393637
 30
0.0
 10
84.2523939133987
 20
-80.3685655181023
 30
0.0
 10
84.2523939133987
 20
-79.81666122136528
 30
0.0
 10
83.80453150031623
 20
-79.3687988082828
 30
0.0
 10
83.25228269403068
 20
-79.3687988082828
 30
0.0
 10
82.70003388774514
 20
-79.3687988082828
 30
0.0
 10
82.25251598421119
 20
-79.81666122136528
 30
0.0
 10
82.25251598421119
 20
-80.3685655181023
 30
0.0
  0
SPLINE
  5
10D
330
1F
100
AcDbEntity
  8
Layer 1
370
     0
100
AcDbSpline
210
0.0
220
0.0
230
1.0
 70
    11
 71
     3
 72
    20
 73
    16
 74
     0
 42
0.0000000001
 43
0.0000000001
 40
0.0
 40
0.0
 40
0.0
 40
0.0
 40
1.0
 40
1.0
 40
1.0
 40
2.0
 40
2.0
 40
2.0
 40
3.0
 40
3.0
 40
3.0
 40
4.0
 40
4.0
 40
4.0
 40
5.0
 40
5.0
 40
5.0
 40
5.0
 10
105.2526624628361
 20
-42.86870116115783
 30
0.0
 10
105.2526624628361
 20
-42.86870116115783
 30
0.0
 10
105.2526624628361
 20
-72.86893715626194
 30
0.0
 10
105.2526624628361
 20
-72.86893715626194
 30
0.0
 10
105.2526624628361
 20
-78.39004718092332
 30
0.0
 10
100.775760879754
 20
-82.86660425445696
 30
0.0
 10
95.25499536464112
 20
-82.86660425445696
 30
0.0
 10
95.25499536464112
 20
-82.86660425445696
 30
0.0
 10
54.2549139946828
 20
-82.86660425445696
 30
0.0
 10
54.2549139946828
 20
-82.86660425445696
 30
0.0
 10
54.2549139946828
 20
-82.86660425445696
 30
0.0
 10
54.2549139946828
 20
-42.86870116115783
 30
0.0
 10
54.2549139946828
 20
-42.86870116115783
 30
0.0
 10
54.2549139946828
 20
-42.86870116115783
 30
0.0
 10
105.2526624628361
 20
-42.86870116115783
 30
0.0
 10
105.2526624628361
 20
-42.86870116115783
 30
0.0
  0
SPLINE
  5
10E
330
1F
100
AcDbEntity
  8
Layer 1
370
     0
100
AcDbSpline
210
0.0
220
0.0
230
1.0
 70
    11
 71
     3
 72
    17
 73
    13
 74
     0
 42
0.0000000001
 43
0.0000000001
 40
0.0
 40
0.0
 40
0.0
 40
0.0
 40
1.0
 40
1.0
 40
1.0
 40
2.0
 40
2.0
 40
2.0
 40
3.0
 40
3.0
 40
3.0
 40
4.0
 40
4.0
 40
4.0
 40
4.0
 10
96.75361190072479
 20
-72.86755911806783
 30
0.0
 10
96.75361190072479
 20
-73.6957600727219
 30
0.0
 10
96.0821627906496
 20
-74.36755369234561
 30
0.0
 10
95.25361732644701
 20
-74.36755369234561
 30
0.0
 10
94.42507186224444
 20
-74.36755369234561
 30
0.0
 10
93.75362275216924
 20
-73.6957600727219
 30
0.0
 10
93.75362275216924
 20
-72.86755911806783
 30
0.0
 10
93.75362275216924
 20
-72.03901365386525
 30
0.0
 10
94.42507186224444
 20
-71.36756454379005
 30
0.0
 10
95.25361732644701
 20
-71.36756454379005
 30
0.0
 10
96.0821627906496
 20
-71.36756454379005
 30
0.0
 10
96.75361190072479
 20
-72.03901365386525
 30
0.0
 10
96.75361190072479
 20
-72.86755911806783
 30
0.0
  0
SPLINE
  5
10F
330
1F
100
AcDbEntity
  8
Layer 1
370
     0
100
AcDbSpline
210
0.0
220
0.0
230
1.0
 70
    11
 71
     3
 72
    17
 73
    13
 74
     0
 42
0.0000000001
 43
0.0000000001
 40
0.0
 40
0.0
 40
0.0
 40
0.0
 40
1.0
 40
1.0
 40
1.0
 40
2.0
 40
2.0
 40
2.0
 40
3.0
 40
3.0
 40
3.0
 40
4.0
 40
4.0
 40
4.0
 40
4.0
 10
66.25245902206537
 20
-52.86671276890138
 30
0.0
 10
66.25245902206537
 20
-53.97121038147247
 30
0.0
 10
65.35707870544893
 20
-54.86693520763743
 30
0.0
 10
64.25258109287783
 20
-54.86693520763743
 30
0.0
 10
63.14808348030673
 20
-54.86693520763743
 30
0.0
 10
62.25235865414177
 20
-53.97121038147247
 30
0.0
 10
62.25235865414177
 20
-52.86671276890138
 30
0.0
 10
62.25235865414177
 20
-51.76221515633029
 30
0.0
 10
63.14808348030673
 20
-50.86683483971385
 30
0.0
 10
64.25258109287783
 20
-50.86683483971385
 30
0.0
 10
65.35707870544893
 20
-50.86683483971385
 30
0.0
 10
66.25245902206537
 20
-51.76221515633029
 30
0.0
 10
66.25245902206537
 20
-52.86671276890138
 30
0.0
  0
SPLINE
  5
110
330
1F
100
AcDbEntity
  8
Layer 1
370
     0
100
AcDbSpline
210
0.0
220
0.0
230
1.0
 70
    11
 71
     3
 72
    17
 73
    13
 74
     0
 42
0.0000000001
 43
0.0000000001
 40
0.0
 40
0.0
 40
0.0
 40
0.0
 40
1.0
 40
1.0
 40
1.0
 40
2.0
 40
2.0
 40
2.0
 40
3.0
 40
3.0
 40
3.0
 40
4.0
 40
4.0
 40
4.0
 40
4.0
 10
66.25245902206537
 20
-72.86652558942227
 30
0.0
 10
66.25245902206537
 20
-73.97102320199336
 30
0.0
 10
65.35707870544893
 20
-74.86674802815831
 30
0.0
 10
64.25258109287783
 20
-74.86674802815831
 30
0.0
 10
63.14808348030673
 20
-74.86674802815831
 30
0.0
 10
62.25235865414177
 20
-73.97102320199336
 30
0.0
 10
62.25235865414177
 20
-72.86652558942227
 30
0.0
 10
62.25235865414177
 20
-71.76202797685116
 30
0.0
 10
63.14808348030673
 20
-70.86664766023473
 30
0.0
 10
64.25258109287783
 20
-70.86664766023473
 30
0.0
 10
65.35707870544893
 20
-70.86664766023473
 30
0.0
 10
66.25245902206537
 20
-71.76202797685116
 30
0.0
 10
66.25245902206537
 20
-72.86652558942227
 30
0.0
  0
SPLINE
  5
111
330
1F
100
AcDbEntity
  8
Layer 1
370
     0
100
AcDbSpline
210
0.0
220
0.0
230
1.0
 70
    11
 71
     3
 72
    17
 73
    13
 74
     0
 42
0.0000000001
 43
0.0000000001
 40
0.0
 40
0.0
 40
0.0
 40
0.0
 40
1.0
 40
1.0
 40
1.0
 40
2.0
 40
2.0
 40
2.0
 40
3.0
 40
3.0
 40
3.0
 40
4.0
 40
4.0
 40
4.0
 40
4.0
 10
97.25246172698897
 20
-52.86671276890138
 30
0.0
 10
97.25246172698897
 20
-53.97121038147247
 30
0.0
 10
96.35708141037254
 20
-54.86693520763743
 30
0.0
 10
95.25258379780144
 20
-54.86693520763743
 30
0.0
 10
94.14808618523034
 20
-54.86693520763743
 30
0.0
 10
93.25236135906539
 20
-53.97121038147247
 30
0.0
 10
93.25236135906539
 20
-52.86671276890138
 30
0.0
 10
93.25236135906539
 20
-51.76221515633029
 30
0.0
 10
94.14808618523034
 20
-50.86683483971385
 30
0.0
 10
95.25258379780144
 20
-50.86683483971385
 30
0.0
 10
96.35708141037254
 20
-50.86683483971385
 30
0.0
 10
97.25246172698897
 20
-51.76221515633029
 30
0.0
 10
97.25246172698897
 20
-52.86671276890138
 30
0.0
  0
ENDSEC
  0
SECTION
  2
OBJECTS
  0
DICTIONARY
  5
C
330
0
100
AcDbDictionary
281
     1
  3
ACAD_GROUP
350
D
  3
ACAD_LAYOUT
350
1A
  3
ACAD_MLINESTYLE
350
17
  3
ACAD_PLOTSETTINGS
350
19
  3
ACAD_PLOTSTYLENAME
350
E
  3
ACAD_TABLESTYLE
350
112
  3
ACAD_VISUALSTYLE
350
2A
  0
DICTIONARY
  5
D
102
{ACAD_REACTORS
330
C
102
}
330
C
100
AcDbDictionary
281
     1
  0
DICTIONARY
  5
1A
102
{ACAD_REACTORS
330
C
102
}
330
C
100
AcDbDictionary
281
     1
  3
Layout1
350
1E
  3
Layout2
350
26
  3
Model
350
22
  0
DICTIONARY
  5
17
102
{ACAD_REACTORS
330
C
102
}
330
C
100
AcDbDictionary
281
     1
  3
Standard
350
18
  0
DICTIONARY
  5
19
102
{ACAD_REACTORS
330
C
102
}
330
C
100
AcDbDictionary
281
     1
  0
ACDBDICTIONARYWDFLT
  5
E
102
{ACAD_REACTORS
330
C
102
}
330
C
100
AcDbDictionary
281
     1
  3
Normal
350
F
100
AcDbDictionaryWithDefault
340
F
  0
DICTIONARY
  5
112
102
{ACAD_REACTORS
330
C
102
}
330
C
100
AcDbDictionary
281
     1
  0
DICTIONARY
  5
2A
102
{ACAD_REACTORS
330
C
102
}
330
C
100
AcDbDictionary
281
     1
  3
2dWireframe
350
2F
  3
3D Hidden
350
31
  3
3dWireframe
350
30
  3
Basic
350
32
  3
Brighten
350
36
  3
ColorChange
350
3A
  3
Conceptual
350
34
  3
Dim
350
35
  3
Facepattern
350
39
  3
Flat
350
2B
  3
FlatWithEdges
350
2C
  3
Gouraud
350
2D
  3
GouraudWithEdges
350
2E
  3
Linepattern
350
38
  3
Realistic
350
33
  3
Thicken
350
37
  0
LAYOUT
  5
1E
102
{ACAD_REACTORS
330
1A
102
}
330
1A
100
AcDbPlotSettings
  1

  2
none_device
  4

  6

 40
0.0
 41
0.0
 42
0.0
 43
0.0
 44
0.0
 45
0.0
 46
0.0
 47
0.0
 48
0.0
 49
0.0
140
0.0
141
0.0
142
1.0
143
1.0
 70
   688
 72
     0
 73
     0
 74
     5
  7

 75
    16
 76
     0
 77
     2
 78
   300
147
1.0
148
0.0
149
0.0
100
AcDbLayout
  1
Layout1
 70
     1
 71
     1
 10
0.0
 20
0.0
 11
12.0
 21
9.0
 12
0.0
 22
0.0
 32
0.0
 14
1.000000000000000E+20
 24
1.000000000000000E+20
 34
1.000000000000000E+20
 15
-1.000000000000000E+20
 25
-1.000000000000000E+20
 35
-1.000000000000000E+20
146
0.0
 13
0.0
 23
0.0
 33
0.0
 16
1.0
 26
0.0
 36
0.0
 17
0.0
 27
1.0
 37
0.0
 76
     0
330
1B
  0
LAYOUT
  5
26
102
{ACAD_REACTORS
330
1A
102
}
330
1A
100
AcDbPlotSettings
  1

  2
none_device
  4

  6

 40
0.0
 41
0.0
 42
0.0
 43
0.0
 44
0.0
 45
0.0
 46
0.0
 47
0.0
 48
0.0
 49
0.0
140
0.0
141
0.0
142
1.0
143
1.0
 70
   688
 72
     0
 73
     0
 74
     5
  7

 75
    16
 76
     0
 77
     2
 78
   300
147
1.0
148
0.0
149
0.0
100
AcDbLayout
  1
Layout2
 70
     1
 71
     2
 10
0.0
 20
0.0
 11
0.0
 21
0.0
 12
0.0
 22
0.0
 32
0.0
 14
0.0
 24
0.0
 34
0.0
 15
0.0
 25
0.0
 35
0.0
146
0.0
 13
0.0
 23
0.0
 33
0.0
 16
1.0
 26
0.0
 36
0.0
 17
0.0
 27
1.0
 37
0.0
 76
     0
330
23
  0
LAYOUT
  5
22
102
{ACAD_REACTORS
330
1A
102
}
330
1A
100
AcDbPlotSettings
  1

  2
none_device
  4

  6

 40
0.0
 41
0.0
 42
0.0
 43
0.0
 44
0.0
 45
0.0
 46
0.0
 47
0.0
 48
0.0
 49
0.0
140
0.0
141
0.0
142
1.0
143
1.0
 70
  1712
 72
     0
 73
     0
 74
     0
  7

 75
     0
 76
     0
 77
     2
 78
   300
147
1.0
148
0.0
149
0.0
100
AcDbLayout
  1
Model
 70
     1
 71
     0
 10
0.0
 20
0.0
 11
12.0
 21
9.0
 12
0.0
 22
0.0
 32
0.0
 14
1.000000000000000E+20
 24
1.000000000000000E+20
 34
1.000000000000000E+20
 15
-1.000000000000000E+20
 25
-1.000000000000000E+20
 35
-1.000000000000000E+20
146
0.0
 13
0.0
 23
0.0
 33
0.0
 16
1.0
 26
0.0
 36
0.0
 17
0.0
 27
1.0
 37
0.0
 76
     0
330
1F
331
29
  0
MLINESTYLE
  5
18
102
{ACAD_REACTORS
330
17
102
}
330
17
100
AcDbMlineStyle
  2
Standard
 70
     0
  3

 62
   256
 51
90.0
 52
90.0
 71
     2
 49
0.5
 62
   256
  6
BYLAYER
 49
-0.5
 62
   256
  6
BYLAYER
  0
ACDBPLACEHOLDER
  5
F
102
{ACAD_REACTORS
330
E
102
}
330
E
  0
VISUALSTYLE
  5
2F
102
{ACAD_REACTORS
330
2A
102
}
330
2A
100
AcDbVisualStyle
  2
2dWireframe
 70
     4
 71
     0
 72
     2
 73
     0
 90
        0
 40
-0.6
 41
-30.0
 62
     5
 63
     7
421
 16777215
 74
     1
 91
        4
 64
     7
 65
   257
 75
     1
175
     1
 42
1.0
 92
        0
 66
   257
 43
1.0
 76
     1
 77
     6
 78
     2
 67
     7
 79
     5
170
     0
171
     0
290
     0
174
     0
 93
        1
 44
0.0
173
     0
291
     0
 45
0.0
1001
ACAD
1000
AcDbSavedByObjectVersion
1070
     0
  0
VISUALSTYLE
  5
31
102
{ACAD_REACTORS
330
2A
102
}
330
2A
100
AcDbVisualStyle
  2
3D Hidden
 70
     6
 71
     1
 72
     2
 73
     2
 90
        0
 40
-0.6
 41
-30.0
 62
     5
 63
     7
421
 16777215
 74
     2
 91
        2
 64
     7
 65
   257
 75
     2
175
     1
 42
40.0
 92
        0
 66
   257
 43
1.0
 76
     1
 77
     6
 78
     2
 67
     7
 79
     3
170
     0
171
     0
290
     0
174
     0
 93
        1
 44
0.0
173
     0
291
     0
 45
0.0
1001
ACAD
1000
AcDbSavedByObjectVersion
1070
     0
  0
VISUALSTYLE
  5
30
102
{ACAD_REACTORS
330
2A
102
}
330
2A
100
AcDbVisualStyle
  2
3dWireframe
 70
     5
 71
     0
 72
     2
 73
     0
 90
        0
 40
-0.6
 41
-30.0
 62
     5
 63
     7
421
 16777215
 74
     1
 91
        4
 64
     7
 65
   257
 75
     1
175
     1
 42
1.0
 92
        0
 66
   257
 43
1.0
 76
     1
 77
     6
 78
     2
 67
     7
 79
     5
170
     0
171
     0
290
     0
174
     0
 93
        1
 44
0.0
173
     0
291
     0
 45
0.0
1001
ACAD
1000
AcDbSavedByObjectVersion
1070
     0
  0
VISUALSTYLE
  5
32
102
{ACAD_REACTORS
330
2A
102
}
330
2A
100
AcDbVisualStyle
  2
Basic
 70
     7
 71
     1
 72
     0
 73
     1
 90
        0
 40
-0.6
 41
-30.0
 62
     5
 63
     7
421
 16777215
 74
     0
 91
        4
 64
     7
 65
   257
 75
     1
175
     1
 42
1.0
 92
        8
 66
     7
 43
1.0
 76
     1
 77
     6
 78
     2
 67
     7
 79
     5
170
     0
171
     0
290
     0
174
     0
 93
        1
 44
0.0
173
     0
291
     1
 45
0.0
1001
ACAD
1000
AcDbSavedByObjectVersion
1070
     0
  0
VISUALSTYLE
  5
36
102
{ACAD_REACTORS
330
2A
102
}
330
2A
100
AcDbVisualStyle
  2
Brighten
 70
    12
 71
     2
 72
     2
 73
     0
 90
        0
 40
-0.6
 41
-30.0
 62
     5
 63
     7
421
 16777215
 74
     1
 91
        4
 64
     7
 65
   257
 75
     1
175
     1
 42
1.0
 92
        8
 66
     7
 43
1.0
 76
     1
 77
     6
 78
     2
 67
     7
 79
     5
170
     0
171
     0
290
     0
174
     0
 93
        1
 44
50.0
173
     0
291
     1
 45
0.0
1001
ACAD
1000
AcDbSavedByObjectVersion
1070
     0
  0
VISUALSTYLE
  5
3A
102
{ACAD_REACTORS
330
2A
102
}
330
2A
100
AcDbVisualStyle
  2
ColorChange
 70
    16
 71
     2
 72
     2
 73
     3
 90
        0
 40
-0.6
 41
-30.0
 62
     5
 63
     8
421
  8421504
 74
     1
 91
        4
 64
     7
 65
   257
 75
     1
175
     1
 42
1.0
 92
        8
 66
     8
424
  8421504
 43
1.0
 76
     1
 77
     6
 78
     2
 67
     7
 79
     5
170
     0
171
     0
290
     0
174
     0
 93
        1
 44
0.0
173
     0
291
     1
 45
0.0
1001
ACAD
1000
AcDbSavedByObjectVersion
1070
     0
  0
VISUALSTYLE
  5
34
102
{ACAD_REACTORS
330
2A
102
}
330
2A
100
AcDbVisualStyle
  2
Conceptual
 70
     9
 71
     3
 72
     2
 73
     0
 90
        0
 40
-0.6
 41
-30.0
 62
     5
 63
     7
421
 16777215
 74
     2
 91
        2
 64
     7
 65
   257
 75
     1
175
     1
 42
40.0
 92
        8
 66
     7
 43
1.0
 76
     1
 77
     6
 78
     2
 67
     7
 79
     3
170
     0
171
     0
290
     0
174
     0
 93
        1
 44
0.0
173
     0
291
     0
 45
0.0
1001
ACAD
1000
AcDbSavedByObjectVersion
1070
     0
  0
VISUALSTYLE
  5
35
102
{ACAD_REACTORS
330
2A
102
}
330
2A
100
AcDbVisualStyle
  2
Dim
 70
    11
 71
     2
 72
     2
 73
     0
 90
        0
 40
-0.6
 41
-30.0
 62
     5
 63
     7
421
 16777215
 74
     1
 91
        4
 64
     7
 65
   257
 75
     1
175
     1
 42
1.0
 92
        8
 66
     7
 43
1.0
 76
     1
 77
     6
 78
     2
 67
     7
 79
     5
170
     0
171
     0
290
     0
174
     0
 93
        1
 44
-50.0
173
     0
291
     1
 45
0.0
1001
ACAD
1000
AcDbSavedByObjectVersion
1070
     0
  0
VISUALSTYLE
  5
39
102
{ACAD_REACTORS
330
2A
102
}
330
2A
100
AcDbVisualStyle
  2
Facepattern
 70
    15
 71
     2
 72
     2
 73
     0
 90
        0
 40
-0.6
 41
-30.0
 62
     5
 63
     7
421
 16777215
 74
     1
 91
        4
 64
     7
 65
   257
 75
     1
175
     1
 42
1.0
 92
        8
 66
     7
 43
1.0
 76
     1
 77
     6
 78
     2
 67
     7
 79
     5
170
     0
171
     0
290
     0
174
     0
 93
        1
 44
0.0
173
     0
291
     1
 45
0.0
1001
ACAD
1000
AcDbSavedByObjectVersion
1070
     0
  0
VISUALSTYLE
  5
2B
102
{ACAD_REACTORS
330
2A
102
}
330
2A
100
AcDbVisualStyle
  2
Flat
 70
     0
 71
     2
 72
     1
 73
     1
 90
        2
 40
-0.6
 41
30.0
 62
     5
 63
     7
421
 16777215
 74
     0
 91
        4
 64
     7
 65
   257
 75
     1
175
     1
 42
1.0
 92
        8
 66
     7
 43
1.0
 76
     1
 77
     6
 78
     2
 67
     7
 79
     5
170
     0
171
     0
290
     0
174
     0
 93
       13
 44
0.0
173
     0
291
     1
 45
0.0
1001
ACAD
1000
AcDbSavedByObjectVersion
1070
     0
  0
VISUALSTYLE
  5
2C
102
{ACAD_REACTORS
330
2A
102
}
330
2A
100
AcDbVisualStyle
  2
FlatWithEdges
 70
     1
 71
     2
 72
     1
 73
     1
 90
        2
 40
-0.6
 41
30.0
 62
     5
 63
     7
421
 16777215
 74
     1
 91
        4
 64
     7
 65
   257
 75
     1
175
     1
 42
1.0
 92
        0
 66
   257
 43
1.0
 76
     1
 77
     6
 78
     2
 67
     7
 79
     5
170
     0
171
     0
290
     0
174
     0
 93
       13
 44
0.0
173
     0
291
     1
 45
0.0
1001
ACAD
1000
AcDbSavedByObjectVersion
1070
     0
  0
VISUALSTYLE
  5
2D
102
{ACAD_REACTORS
330
2A
102
}
330
2A
100
AcDbVisualStyle
  2
Gouraud
 70
     2
 71
     2
 72
     2
 73
     1
 90
        2
 40
-0.6
 41
30.0
 62
     5
 63
     7
421
 16777215
 74
     0
 91
        4
 64
     7
 65
   257
 75
     1
175
     1
 42
1.0
 92
        0
 66
     7
 43
1.0
 76
     1
 77
     6
 78
     2
 67
     7
 79
     5
170
     0
171
     0
290
     0
174
     0
 93
       13
 44
0.0
173
     0
291
     1
 45
0.0
1001
ACAD
1000
AcDbSavedByObjectVersion
1070
     0
  0
VISUALSTYLE
  5
2E
102
{ACAD_REACTORS
330
2A
102
}
330
2A
100
AcDbVisualStyle
  2
GouraudWithEdges
 70
     3
 71
     2
 72
     2
 73
     1
 90
        2
 40
-0.6
 41
30.0
 62
     5
 63
     7
421
 16777215
 74
     1
 91
        4
 64
     7
 65
   257
 75
     1
175
     1
 42
1.0
 92
        0
 66
   257
 43
1.0
 76
     1
 77
     6
 78
     2
 67
     7
 79
     5
170
     0
171
     0
290
     0
174
     0
 93
       13
 44
0.0
173
     0
291
     1
 45
0.0
1001
ACAD
1000
AcDbSavedByObjectVersion
1070
     0
  0
VISUALSTYLE
  5
38
102
{ACAD_REACTORS
330
2A
102
}
330
2A
100
AcDbVisualStyle
  2
Linepattern
 70
    14
 71
     2
 72
     2
 73
     0
 90
        0
 40
-0.6
 41
-30.0
 62
     5
 63
     7
421
 16777215
 74
     1
 91
        4
 64
     7
 65
   257
 75
     7
175
     7
 42
1.0
 92
        8
 66
     7
 43
1.0
 76
     1
 77
     6
 78
     2
 67
     7
 79
     5
170
     0
171
     0
290
     0
174
     0
 93
        1
 44
0.0
173
     0
291
     1
 45
0.0
1001
ACAD
1000
AcDbSavedByObjectVersion
1070
     0
  0
VISUALSTYLE
  5
33
102
{ACAD_REACTORS
330
2A
102
}
330
2A
100
AcDbVisualStyle
  2
Realistic
 70
     8
 71
     2
 72
     2
 73
     0
 90
        0
 40
-0.6
 41
-30.0
 62
     5
 63
     7
421
 16777215
 74
     1
 91
        0
 64
     7
 65
   257
 75
     1
175
     1
 42
1.0
 92
        8
 66
     8
424
  7895160
 43
1.0
 76
     1
 77
     6
 78
     2
 67
     7
 79
     5
170
     0
171
     0
290
     0
174
     0
 93
       13
 44
0.0
173
     0
291
     0
 45
0.0
1001
ACAD
1000
AcDbSavedByObjectVersion
1070
     0
  0
VISUALSTYLE
  5
37
102
{ACAD_REACTORS
330
2A
102
}
330
2A
100
AcDbVisualStyle
  2
Thicken
 70
    13
 71
     2
 72
     2
 73
     0
 90
        0
 40
-0.6
 41
-30.0
 62
     5
 63
     7
421
 16777215
 74
     1
 91
        4
 64
     7
 65
   257
 75
     1
175
     1
 42
1.0
 92
       12
 66
     7
 43
1.0
 76
     1
 77
     6
 78
     2
 67
     7
 79
     5
170
     0
171
     0
290
     0
174
     0
 93
        1
 44
0.0
173
     0
291
     1
 45
0.0
1001
ACAD
1000
AcDbSavedByObjectVersion
1070
     0
  0
ENDSEC
  0
EOF
