  0
SECTION
  2
HEADER
  9
$ACADVER
  1
AC1018
  9
$ACADMAINTVER
 70
     0
  9
$DWGCODEPAGE
  3
ANSI_932
  9
$INSBASE
 10
0.0
 20
0.0
 30
0.0
  9
$EXTMIN
 10
1.000000000000000E+20
 20
1.000000000000000E+20
 30
1.000000000000000E+20
  9
$EXTMAX
 10
-1.000000000000000E+20
 20
-1.000000000000000E+20
 30
-1.000000000000000E+20
  9
$LIMMIN
 10
0.0
 20
0.0
  9
$LIMMAX
 10
12.0
 20
9.0
  9
$ORTHOMODE
 70
     0
  9
$REGENMODE
 70
     1
  9
$FILLMODE
 70
     1
  9
$QTEXTMODE
 70
     0
  9
$MIRRTEXT
 70
     1
  9
$LTSCALE
 40
1.0
  9
$ATTMODE
 70
     1
  9
$TEXTSIZE
 40
0.2
  9
$TRACEWID
 40
0.05
  9
$TEXTSTYLE
  7
Standard
  9
$CLAYER
  8
0
  9
$CELTYPE
  6
ByLayer
  9
$CECOLOR
 62
   256
  9
$CELTSCALE
 40
1.0
  9
$DISPSILH
 70
     0
  9
$DIMSCALE
 40
1.0
  9
$DIMASZ
 40
0.18
  9
$DIMEXO
 40
0.0625
  9
$DIMDLI
 40
0.38
  9
$DIMRND
 40
0.0
  9
$DIMDLE
 40
0.0
  9
$DIMEXE
 40
0.18
  9
$DIMTP
 40
0.0
  9
$DIMTM
 40
0.0
  9
$DIMTXT
 40
0.18
  9
$DIMCEN
 40
0.09
  9
$DIMTSZ
 40
0.0
  9
$DIMTOL
 70
     0
  9
$DIMLIM
 70
     0
  9
$DIMTIH
 70
     1
  9
$DIMTOH
 70
     1
  9
$DIMSE1
 70
     0
  9
$DIMSE2
 70
     0
  9
$DIMTAD
 70
     0
  9
$DIMZIN
 70
     0
  9
$DIMBLK
  1

  9
$DIMASO
 70
     1
  9
$DIMSHO
 70
     1
  9
$DIMPOST
  1

  9
$DIMAPOST
  1

  9
$DIMALT
 70
     0
  9
$DIMALTD
 70
     2
  9
$DIMALTF
 40
25.4
  9
$DIMLFAC
 40
1.0
  9
$DIMTOFL
 70
     0
  9
$DIMTVP
 40
0.0
  9
$DIMTIX
 70
     0
  9
$DIMSOXD
 70
     0
  9
$DIMSAH
 70
     0
  9
$DIMBLK1
  1

  9
$DIMBLK2
  1

  9
$DIMSTYLE
  2
Standard
  9
$DIMCLRD
 70
     0
  9
$DIMCLRE
 70
     0
  9
$DIMCLRT
 70
     0
  9
$DIMTFAC
 40
1.0
  9
$DIMGAP
 40
0.09
  9
$DIMJUST
 70
     0
  9
$DIMSD1
 70
     0
  9
$DIMSD2
 70
     0
  9
$DIMTOLJ
 70
     1
  9
$DIMTZIN
 70
     0
  9
$DIMALTZ
 70
     0
  9
$DIMALTTZ
 70
     0
  9
$DIMUPT
 70
     0
  9
$DIMDEC
 70
     4
  9
$DIMTDEC
 70
     4
  9
$DIMALTU
 70
     2
  9
$DIMALTTD
 70
     2
  9
$DIMTXSTY
  7
Standard
  9
$DIMAUNIT
 70
     0
  9
$DIMADEC
 70
     0
  9
$DIMALTRND
 40
0.0
  9
$DIMAZIN
 70
     0
  9
$DIMDSEP
 70
    46
  9
$DIMATFIT
 70
     3
  9
$DIMFRAC
 70
     0
  9
$DIMLDRBLK
  1

  9
$DIMLUNIT
 70
     2
  9
$DIMLWD
 70
    -2
  9
$DIMLWE
 70
    -2
  9
$DIMTMOVE
 70
     0
  9
$LUNITS
 70
     2
  9
$LUPREC
 70
     4
  9
$SKETCHINC
 40
0.1
  9
$FILLETRAD
 40
0.5
  9
$AUNITS
 70
     0
  9
$AUPREC
 70
     0
  9
$MENU
  1
.
  9
$ELEVATION
 40
0.0
  9
$PELEVATION
 40
0.0
  9
$THICKNESS
 40
0.0
  9
$LIMCHECK
 70
     0
  9
$CHAMFERA
 40
0.5
  9
$CHAMFERB
 40
0.5
  9
$CHAMFERC
 40
1.0
  9
$CHAMFERD
 40
0.0
  9
$SKPOLY
 70
     0
  9
$TDCREATE
 40
2457053.458611111
  9
$TDUCREATE
 40
2457053.416944445
  9
$TDUPDATE
 40
2457053.458611123
  9
$TDUUPDATE
 40
2457053.416944456
  9
$TDINDWG
 40
0.0000000116
  9
$TDUSRTIMER
 40
0.0000000116
  9
$USRTIMER
 70
     1
  9
$ANGBASE
 50
0.0
  9
$ANGDIR
 70
     0
  9
$PDMODE
 70
     0
  9
$PDSIZE
 40
0.0
  9
$PLINEWID
 40
0.0
  9
$SPLFRAME
 70
     0
  9
$SPLINETYPE
 70
     6
  9
$SPLINESEGS
 70
     8
  9
$HANDSEED
  5
F4
  9
$SURFTAB1
 70
     6
  9
$SURFTAB2
 70
     6
  9
$SURFTYPE
 70
     6
  9
$SURFU
 70
     6
  9
$SURFV
 70
     6
  9
$UCSBASE
  2

  9
$UCSNAME
  2

  9
$UCSORG
 10
0.0
 20
0.0
 30
0.0
  9
$UCSXDIR
 10
1.0
 20
0.0
 30
0.0
  9
$UCSYDIR
 10
0.0
 20
1.0
 30
0.0
  9
$UCSORTHOREF
  2

  9
$UCSORTHOVIEW
 70
     0
  9
$UCSORGTOP
 10
0.0
 20
0.0
 30
0.0
  9
$UCSORGBOTTOM
 10
0.0
 20
0.0
 30
0.0
  9
$UCSORGLEFT
 10
0.0
 20
0.0
 30
0.0
  9
$UCSORGRIGHT
 10
0.0
 20
0.0
 30
0.0
  9
$UCSORGFRONT
 10
0.0
 20
0.0
 30
0.0
  9
$UCSORGBACK
 10
0.0
 20
0.0
 30
0.0
  9
$PUCSBASE
  2

  9
$PUCSNAME
  2

  9
$PUCSORG
 10
0.0
 20
0.0
 30
0.0
  9
$PUCSXDIR
 10
1.0
 20
0.0
 30
0.0
  9
$PUCSYDIR
 10
0.0
 20
1.0
 30
0.0
  9
$PUCSORTHOREF
  2

  9
$PUCSORTHOVIEW
 70
     0
  9
$PUCSORGTOP
 10
0.0
 20
0.0
 30
0.0
  9
$PUCSORGBOTTOM
 10
0.0
 20
0.0
 30
0.0
  9
$PUCSORGLEFT
 10
0.0
 20
0.0
 30
0.0
  9
$PUCSORGRIGHT
 10
0.0
 20
0.0
 30
0.0
  9
$PUCSORGFRONT
 10
0.0
 20
0.0
 30
0.0
  9
$PUCSORGBACK
 10
0.0
 20
0.0
 30
0.0
  9
$USERI1
 70
     0
  9
$USERI2
 70
     0
  9
$USERI3
 70
     0
  9
$USERI4
 70
     0
  9
$USERI5
 70
     0
  9
$USERR1
 40
0.0
  9
$USERR2
 40
0.0
  9
$USERR3
 40
0.0
  9
$USERR4
 40
0.0
  9
$USERR5
 40
0.0
  9
$WORLDVIEW
 70
     1
  9
$SHADEDGE
 70
     3
  9
$SHADEDIF
 70
    70
  9
$TILEMODE
 70
     1
  9
$MAXACTVP
 70
    64
  9
$PINSBASE
 10
0.0
 20
0.0
 30
0.0
  9
$PLIMCHECK
 70
     0
  9
$PEXTMIN
 10
1.000000000000000E+20
 20
1.000000000000000E+20
 30
1.000000000000000E+20
  9
$PEXTMAX
 10
-1.000000000000000E+20
 20
-1.000000000000000E+20
 30
-1.000000000000000E+20
  9
$PLIMMIN
 10
0.0
 20
0.0
  9
$PLIMMAX
 10
12.0
 20
9.0
  9
$UNITMODE
 70
     0
  9
$VISRETAIN
 70
     1
  9
$PLINEGEN
 70
     0
  9
$PSLTSCALE
 70
     1
  9
$TREEDEPTH
 70
  3020
  9
$CMLSTYLE
  2
Standard
  9
$CMLJUST
 70
     0
  9
$CMLSCALE
 40
1.0
  9
$PROXYGRAPHICS
 70
     1
  9
$MEASUREMENT
 70
     0
  9
$CELWEIGHT
370
    -1
  9
$ENDCAPS
280
     0
  9
$JOINSTYLE
280
     0
  9
$LWDISPLAY
290
     1
  9
$INSUNITS
 70
     1
  9
$HYPERLINKBASE
  1

  9
$STYLESHEET
  1

  9
$XEDIT
290
     1
  9
$CEPSNTYPE
380
     0
  9
$PSTYLEMODE
290
     1
  9
$FINGERPRINTGUID
  2
{0ADF3FAF-88F3-E251-F868-1EDB2AAEA5C0}
  9
$VERSIONGUID
  2
{FAEB1C32-E019-11D5-929B-00C0DF256EC4}
  9
$EXTNAMES
290
     1
  9
$PSVPSCALE
 40
0.0
  9
$OLESTARTUP
290
     0
  9
$SORTENTS
280
   127
  9
$INDEXCTL
280
     0
  9
$HIDETEXT
280
     1
  9
$XCLIPFRAME
290
     0
  9
$HALOGAP
280
     0
  9
$OBSCOLOR
 70
   257
  9
$OBSLTYPE
280
     0
  9
$INTERSECTIONDISPLAY
280
     0
  9
$INTERSECTIONCOLOR
 70
   257
  9
$DIMASSOC
280
     2
  9
$PROJECTNAME
  1

  0
ENDSEC
  0
SECTION
  2
CLASSES
  0
CLASS
  1
ACDBDICTIONARYWDFLT
  2
AcDbDictionaryWithDefault
  3
ObjectDBX Classes
 90
        0
 91
        3
280
     0
281
     0
  0
CLASS
  1
VISUALSTYLE
  2
AcDbVisualStyle
  3
ObjectDBX Classes
 90
     4095
 91
        3
280
     0
281
     0
  0
ENDSEC
  0
SECTION
  2
TABLES
  0
TABLE
  2
VPORT
  5
8
330
0
100
AcDbSymbolTable
 70
     1
  0
VPORT
  5
29
330
8
100
AcDbSymbolTableRecord
100
AcDbViewportTableRecord
  2
*Active
 70
     0
 10
0.0
 20
0.0
 11
1.0
 21
1.0
 12
0.0
 22
0.0
 13
0.0
 23
0.0
 14
0.5
 24
0.5
 15
0.5
 25
0.5
 16
0.0
 26
0.0
 36
1.0
 17
149.9992851730037
 27
-100.00009763125
 37
0.0
 40
200.0001952625
 41
1.499991387269696
 42
50.0
 43
0.0
 44
0.0
 50
0.0
 51
0.0
 71
     0
 72
   100
 73
     1
 74
     3
 75
     0
 76
     0
 77
     0
 78
     0
281
     0
 65
     1
110
0.0
120
0.0
130
0.0
111
1.0
121
0.0
131
0.0
112
0.0
122
1.0
132
0.0
 79
     0
146
0.0
  0
ENDTAB
  0
TABLE
  2
LTYPE
  5
5
330
0
100
AcDbSymbolTable
 70
     1
  0
LTYPE
  5
14
330
5
100
AcDbSymbolTableRecord
100
AcDbLinetypeTableRecord
  2
ByBlock
 70
     0
  3

 72
    65
 73
     0
 40
0.0
  0
LTYPE
  5
15
330
5
100
AcDbSymbolTableRecord
100
AcDbLinetypeTableRecord
  2
ByLayer
 70
     0
  3

 72
    65
 73
     0
 40
0.0
  0
LTYPE
  5
16
330
5
100
AcDbSymbolTableRecord
100
AcDbLinetypeTableRecord
  2
Continuous
 70
     0
  3
Solid line
 72
    65
 73
     0
 40
0.0
  0
ENDTAB
  0
TABLE
  2
LAYER
  5
2
330
0
100
AcDbSymbolTable
 70
     2
  0
LAYER
  5
10
330
2
100
AcDbSymbolTableRecord
100
AcDbLayerTableRecord
  2
0
 70
     0
 62
     7
  6
Continuous
370
    -3
390
F
  0
LAYER
  5
3B
330
2
100
AcDbSymbolTableRecord
100
AcDbLayerTableRecord
  2
Layer 1
 70
     0
 62
     7
  6
Continuous
370
    -3
390
F
  0
ENDTAB
  0
TABLE
  2
STYLE
  5
3
330
0
100
AcDbSymbolTable
 70
     1
  0
STYLE
  5
11
330
3
100
AcDbSymbolTableRecord
100
AcDbTextStyleTableRecord
  2
Standard
 70
     0
 40
0.0
 41
1.0
 50
0.0
 71
     0
 42
0.2
  3
txt
  4

  0
ENDTAB
  0
TABLE
  2
VIEW
  5
6
330
0
100
AcDbSymbolTable
 70
     0
  0
ENDTAB
  0
TABLE
  2
UCS
  5
7
330
0
100
AcDbSymbolTable
 70
     0
  0
ENDTAB
  0
TABLE
  2
APPID
  5
9
330
0
100
AcDbSymbolTable
 70
     1
  0
APPID
  5
12
330
9
100
AcDbSymbolTableRecord
100
AcDbRegAppTableRecord
  2
ACAD
 70
     0
  0
ENDTAB
  0
TABLE
  2
DIMSTYLE
  5
A
330
0
100
AcDbSymbolTable
 70
     1
100
AcDbDimStyleTable
  0
DIMSTYLE
105
27
330
A
100
AcDbSymbolTableRecord
100
AcDbDimStyleTableRecord
  2
Standard
 70
     0
340
11
  0
ENDTAB
  0
TABLE
  2
BLOCK_RECORD
  5
1
330
0
100
AcDbSymbolTable
 70
    18
  0
BLOCK_RECORD
  5
1F
330
1
100
AcDbSymbolTableRecord
100
AcDbBlockTableRecord
  2
*Model_Space
340
22
  0
BLOCK_RECORD
  5
1B
330
1
100
AcDbSymbolTableRecord
100
AcDbBlockTableRecord
  2
*Paper_Space
340
1E
  0
BLOCK_RECORD
  5
23
330
1
100
AcDbSymbolTableRecord
100
AcDbBlockTableRecord
  2
*Paper_Space0
340
26
  0
BLOCK_RECORD
  5
3C
330
1
100
AcDbSymbolTableRecord
100
AcDbBlockTableRecord
  2
block 2
340
0
102
{BLKREFS
331
3D
102
}
  0
BLOCK_RECORD
  5
46
330
1
100
AcDbSymbolTableRecord
100
AcDbBlockTableRecord
  2
block 3
340
0
102
{BLKREFS
331
47
102
}
  0
BLOCK_RECORD
  5
53
330
1
100
AcDbSymbolTableRecord
100
AcDbBlockTableRecord
  2
block 4
340
0
102
{BLKREFS
331
54
102
}
  0
BLOCK_RECORD
  5
63
330
1
100
AcDbSymbolTableRecord
100
AcDbBlockTableRecord
  2
block 5
340
0
102
{BLKREFS
331
64
102
}
  0
BLOCK_RECORD
  5
6A
330
1
100
AcDbSymbolTableRecord
100
AcDbBlockTableRecord
  2
block 6
340
0
102
{BLKREFS
331
6B
102
}
  0
BLOCK_RECORD
  5
77
330
1
100
AcDbSymbolTableRecord
100
AcDbBlockTableRecord
  2
block 7
340
0
102
{BLKREFS
331
78
102
}
  0
BLOCK_RECORD
  5
83
330
1
100
AcDbSymbolTableRecord
100
AcDbBlockTableRecord
  2
block 8
340
0
102
{BLKREFS
331
84
102
}
  0
BLOCK_RECORD
  5
8F
330
1
100
AcDbSymbolTableRecord
100
AcDbBlockTableRecord
  2
block 9
340
0
102
{BLKREFS
331
90
102
}
  0
BLOCK_RECORD
  5
95
330
1
100
AcDbSymbolTableRecord
100
AcDbBlockTableRecord
  2
block 10
340
0
102
{BLKREFS
331
96
102
}
  0
BLOCK_RECORD
  5
A6
330
1
100
AcDbSymbolTableRecord
100
AcDbBlockTableRecord
  2
block 11
340
0
102
{BLKREFS
331
A7
102
}
  0
BLOCK_RECORD
  5
B7
330
1
100
AcDbSymbolTableRecord
100
AcDbBlockTableRecord
  2
block 12
340
0
102
{BLKREFS
331
B8
102
}
  0
BLOCK_RECORD
  5
C8
330
1
100
AcDbSymbolTableRecord
100
AcDbBlockTableRecord
  2
block 13
340
0
102
{BLKREFS
331
C9
102
}
  0
BLOCK_RECORD
  5
CE
330
1
100
AcDbSymbolTableRecord
100
AcDbBlockTableRecord
  2
block 14
340
0
102
{BLKREFS
331
CF
102
}
  0
BLOCK_RECORD
  5
DA
330
1
100
AcDbSymbolTableRecord
100
AcDbBlockTableRecord
  2
block 15
340
0
102
{BLKREFS
331
DB
102
}
  0
BLOCK_RECORD
  5
E0
330
1
100
AcDbSymbolTableRecord
100
AcDbBlockTableRecord
  2
block 16
340
0
102
{BLKREFS
331
E1
102
}
  0
BLOCK_RECORD
  5
E6
330
1
100
AcDbSymbolTableRecord
100
AcDbBlockTableRecord
  2
block 17
340
0
102
{BLKREFS
331
E7
102
}
  0
BLOCK_RECORD
  5
EC
330
1
100
AcDbSymbolTableRecord
100
AcDbBlockTableRecord
  2
block 18
340
0
102
{BLKREFS
331
ED
102
}
  0
ENDTAB
  0
ENDSEC
  0
SECTION
  2
BLOCKS
  0
BLOCK
  5
20
330
1F
100
AcDbEntity
  8
0
100
AcDbBlockBegin
  2
*Model_Space
 70
     0
 71
     0
 10
0.0
 20
0.0
 30
0.0
  3
*Model_Space
  1

  0
ENDBLK
  5
21
330
1F
100
AcDbEntity
  8
0
100
AcDbBlockEnd
  0
BLOCK
  5
1C
330
1B
100
AcDbEntity
 67
     1
  8
0
100
AcDbBlockBegin
  2
*Paper_Space
 70
     0
 71
     0
 10
0.0
 20
0.0
 30
0.0
  3
*Paper_Space
  1

  0
ENDBLK
  5
1D
330
1B
100
AcDbEntity
 67
     1
  8
0
100
AcDbBlockEnd
  0
BLOCK
  5
24
330
23
100
AcDbEntity
  8
0
100
AcDbBlockBegin
  2
*Paper_Space0
 70
     0
 71
     0
 10
0.0
 20
0.0
 30
0.0
  3
*Paper_Space0
  1

  0
ENDBLK
  5
25
330
23
100
AcDbEntity
  8
0
100
AcDbBlockEnd
  0
BLOCK
  5
3E
330
3C
100
AcDbEntity
  8
0
100
AcDbBlockBegin
  2
block 2
 70
     0
 71
     0
 10
0.0
 20
0.0
 30
0.0
  3
block 2
  1

  0
SPLINE
  5
40
330
3C
100
AcDbEntity
  8
Layer 1
370
     0
100
AcDbSpline
210
0.0
220
0.0
230
1.0
 70
    11
 71
     3
 72
    17
 73
    13
 74
     0
 42
0.0000000001
 43
0.0000000001
 40
0.0
 40
0.0
 40
0.0
 40
0.0
 40
1.0
 40
1.0
 40
1.0
 40
2.0
 40
2.0
 40
2.0
 40
3.0
 40
3.0
 40
3.0
 40
4.0
 40
4.0
 40
4.0
 40
4.0
 10
10.4992730008474
 20
-59.00173880903429
 30
0.0
 10
9.670383027096294
 20
-59.00173880903429
 30
0.0
 10
8.999967445666675
 20
-58.32787813211942
 30
0.0
 10
8.999967445666675
 20
-57.49898815836831
 30
0.0
 10
8.999967445666675
 20
-56.6700981846172
 30
0.0
 10
9.673828122581543
 20
-55.99968260318758
 30
0.0
 10
10.4992730008474
 20
-55.99968260318758
 30
0.0
 10
11.32850748414704
 20
-55.99968260318758
 30
0.0
 10
11.99857855602813
 20
-56.6700981846172
 30
0.0
 10
12.00236816106191
 20
-57.49898815836831
 30
0.0
 10
12.00236816106191
 20
-58.32787813211942
 30
0.0
 10
11.32850748414704
 20
-59.00173880903429
 30
0.0
 10
10.4992730008474
 20
-59.00173880903429
 30
0.0
  0
SPLINE
  5
41
330
3C
100
AcDbEntity
  8
Layer 1
370
     0
100
AcDbSpline
210
0.0
220
0.0
230
1.0
 70
    11
 71
     3
 72
    17
 73
    13
 74
     0
 42
0.0000000001
 43
0.0000000001
 40
0.0
 40
0.0
 40
0.0
 40
0.0
 40
1.0
 40
1.0
 40
1.0
 40
2.0
 40
2.0
 40
2.0
 40
3.0
 40
3.0
 40
3.0
 40
4.0
 40
4.0
 40
4.0
 40
4.0
 10
10.4992730008474
 20
-27.00162488474265
 30
0.0
 10
9.673828122581543
 20
-27.00162488474265
 30
0.0
 10
8.999967445666675
 20
-26.32776420782778
 30
0.0
 10
8.999967445666675
 20
-25.50231932956192
 30
0.0
 10
8.999967445666675
 20
-24.67274033671376
 30
0.0
 10
9.670383027096294
 20
-23.99956867889594
 30
0.0
 10
10.4992730008474
 20
-23.99956867889594
 30
0.0
 10
11.32850748414704
 20
-23.99956867889594
 30
0.0
 10
12.00236816106191
 20
-24.67274033671376
 30
0.0
 10
12.00236816106191
 20
-25.50231932956192
 30
0.0
 10
12.00236816106191
 20
-26.32776420782778
 30
0.0
 10
11.32850748414704
 20
-27.00162488474265
 30
0.0
 10
10.4992730008474
 20
-27.00162488474265
 30
0.0
  0
SPLINE
  5
42
330
3C
100
AcDbEntity
  8
Layer 1
370
     0
100
AcDbSpline
210
0.0
220
0.0
230
1.0
 70
    11
 71
     3
 72
    17
 73
    13
 74
     0
 42
0.0000000001
 43
0.0000000001
 40
0.0
 40
0.0
 40
0.0
 40
0.0
 40
1.0
 40
1.0
 40
1.0
 40
2.0
 40
2.0
 40
2.0
 40
3.0
 40
3.0
 40
3.0
 40
4.0
 40
4.0
 40
4.0
 40
4.0
 10
42.49973143468757
 20
-59.00173880903429
 30
0.0
 10
41.67084146093646
 20
-59.00173880903429
 30
0.0
 10
41.00042587950684
 20
-58.32787813211942
 30
0.0
 10
41.00042587950684
 20
-57.49898815836831
 30
0.0
 10
41.00042587950684
 20
-56.6700981846172
 30
0.0
 10
41.67084146093646
 20
-55.99968260318758
 30
0.0
 10
42.49973143468757
 20
-55.99968260318758
 30
0.0
 10
43.3289659179872
 20
-55.99968260318758
 30
0.0
 10
43.9990369898683
 20
-56.6700981846172
 30
0.0
 10
43.9990369898683
 20
-57.49898815836831
 30
0.0
 10
43.9990369898683
 20
-58.32787813211942
 30
0.0
 10
43.3289659179872
 20
-59.00173880903429
 30
0.0
 10
42.49973143468757
 20
-59.00173880903429
 30
0.0
  0
SPLINE
  5
43
330
3C
100
AcDbEntity
  8
Layer 1
370
     0
100
AcDbSpline
210
0.0
220
0.0
230
1.0
 70
    11
 71
     3
 72
    17
 73
    13
 74
     0
 42
0.0000000001
 43
0.0000000001
 40
0.0
 40
0.0
 40
0.0
 40
0.0
 40
1.0
 40
1.0
 40
1.0
 40
2.0
 40
2.0
 40
2.0
 40
3.0
 40
3.0
 40
3.0
 40
4.0
 40
4.0
 40
4.0
 40
4.0
 10
42.49973143468757
 20
-27.00162488474265
 30
0.0
 10
41.67084146093646
 20
-27.00162488474265
 30
0.0
 10
41.00042587950684
 20
-26.32776420782778
 30
0.0
 10
41.00042587950684
 20
-25.50231932956192
 30
0.0
 10
41.00042587950684
 20
-24.67274033671376
 30
0.0
 10
41.67084146093646
 20
-23.99956867889594
 30
0.0
 10
42.49973143468757
 20
-23.99956867889594
 30
0.0
 10
43.3289659179872
 20
-23.99956867889594
 30
0.0
 10
43.9990369898683
 20
-24.67274033671376
 30
0.0
 10
43.9990369898683
 20
-25.50231932956192
 30
0.0
 10
43.9990369898683
 20
-26.32776420782778
 30
0.0
 10
43.3289659179872
 20
-27.00162488474265
 30
0.0
 10
42.49973143468757
 20
-27.00162488474265
 30
0.0
  0
SPLINE
  5
44
330
3C
100
AcDbEntity
  8
Layer 1
370
     0
100
AcDbSpline
210
0.0
220
0.0
230
1.0
 70
    11
 71
     3
 72
    41
 73
    37
 74
     0
 42
0.0000000001
 43
0.0000000001
 40
0.0
 40
0.0
 40
0.0
 40
0.0
 40
1.0
 40
1.0
 40
1.0
 40
2.0
 40
2.0
 40
2.0
 40
3.0
 40
3.0
 40
3.0
 40
4.0
 40
4.0
 40
4.0
 40
5.0
 40
5.0
 40
5.0
 40
6.0
 40
6.0
 40
6.0
 40
7.0
 40
7.0
 40
7.0
 40
8.0
 40
8.0
 40
8.0
 40
9.0
 40
9.0
 40
9.0
 40
10.0
 40
10.0
 40
10.0
 40
11.0
 40
11.0
 40
11.0
 40
12.0
 40
12.0
 40
12.0
 40
12.0
 10
32.49896375055582
 20
-45.95447318729611
 30
0.0
 10
32.49896375055582
 20
-45.95447318729611
 30
0.0
 10
32.49896375055582
 20
-41.87203503727505
 30
0.0
 10
32.49896375055582
 20
-41.87203503727505
 30
0.0
 10
32.49896375055582
 20
-41.87203503727505
 30
0.0
 10
32.48001572538694
 20
-41.87203503727505
 30
0.0
 10
32.48001572538694
 20
-41.87203503727505
 30
0.0
 10
32.48759493545449
 20
-41.74801159980606
 30
0.0
 10
32.49896375055582
 20
-41.62536620053116
 30
0.0
 10
32.49896375055582
 20
-41.49962021531954
 30
0.0
 10
32.49896375055582
 20
-38.18578286805772
 30
0.0
 10
29.81247829115799
 20
-35.49964191820843
 30
0.0
 10
26.4989854534447
 20
-35.49964191820843
 30
0.0
 10
23.18514810618288
 20
-35.49964191820843
 30
0.0
 10
20.49900715633358
 20
-38.18578286805772
 30
0.0
 10
20.49900715633358
 20
-41.49962021531954
 30
0.0
 10
20.49900715633358
 20
-41.62536620053116
 30
0.0
 10
20.51003146188638
 20
-41.74801159980606
 30
0.0
 10
20.51761067195393
 20
-41.87203503727505
 30
0.0
 10
20.51761067195393
 20
-41.87203503727505
 30
0.0
 10
20.49900715633358
 20
-41.87203503727505
 30
0.0
 10
20.49900715633358
 20
-41.87203503727505
 30
0.0
 10
20.49900715633358
 20
-41.87203503727505
 30
0.0
 10
20.49900715633358
 20
-45.95447318729611
 30
0.0
 10
20.49900715633358
 20
-45.95447318729611
 30
0.0
 10
19.25498317660987
 20
-47.36420625986034
 30
0.0
 10
18.49878471759753
 20
-49.21491155453655
 30
0.0
 10
18.49878471759753
 20
-51.24269475715461
 30
0.0
 10
18.49878471759753
 20
-55.66137422653605
 30
0.0
 10
22.08065049361178
 20
-59.24289549300178
 30
0.0
 10
26.4989854534447
 20
-59.24289549300178
 30
0.0
 10
30.91732041327761
 20
-59.24289549300178
 30
0.0
 10
34.49884167974335
 20
-55.66137422653605
 30
0.0
 10
34.49884167974335
 20
-51.24269475715461
 30
0.0
 10
34.49884167974335
 20
-49.21491155453655
 30
0.0
 10
33.742643220731
 20
-47.36420625986034
 30
0.0
 10
32.49896375055582
 20
-45.95447318729611
 30
0.0
  0
SPLINE
  5
45
330
3C
100
AcDbEntity
  8
Layer 1
370
     0
100
AcDbSpline
210
0.0
220
0.0
230
1.0
 70
    11
 71
     3
 72
   167
 73
   163
 74
     0
 42
0.0000000001
 43
0.0000000001
 40
0.0
 40
0.0
 40
0.0
 40
0.0
 40
1.0
 40
1.0
 40
1.0
 40
2.0
 40
2.0
 40
2.0
 40
3.0
 40
3.0
 40
3.0
 40
4.0
 40
4.0
 40
4.0
 40
5.0
 40
5.0
 40
5.0
 40
6.0
 40
6.0
 40
6.0
 40
7.0
 40
7.0
 40
7.0
 40
8.0
 40
8.0
 40
8.0
 40
9.0
 40
9.0
 40
9.0
 40
10.0
 40
10.0
 40
10.0
 40
11.0
 40
11.0
 40
11.0
 40
12.0
 40
12.0
 40
12.0
 40
13.0
 40
13.0
 40
13.0
 40
14.0
 40
14.0
 40
14.0
 40
15.0
 40
15.0
 40
15.0
 40
16.0
 40
16.0
 40
16.0
 40
17.0
 40
17.0
 40
17.0
 40
18.0
 40
18.0
 40
18.0
 40
19.0
 40
19.0
 40
19.0
 40
20.0
 40
20.0
 40
20.0
 40
21.0
 40
21.0
 40
21.0
 40
22.0
 40
22.0
 40
22.0
 40
23.0
 40
23.0
 40
23.0
 40
24.0
 40
24.0
 40
24.0
 40
25.0
 40
25.0
 40
25.0
 40
26.0
 40
26.0
 40
26.0
 40
27.0
 40
27.0
 40
27.0
 40
28.0
 40
28.0
 40
28.0
 40
29.0
 40
29.0
 40
29.0
 40
30.0
 40
30.0
 40
30.0
 40
31.0
 40
31.0
 40
31.0
 40
32.0
 40
32.0
 40
32.0
 40
33.0
 40
33.0
 40
33.0
 40
34.0
 40
34.0
 40
34.0
 40
35.0
 40
35.0
 40
35.0
 40
36.0
 40
36.0
 40
36.0
 40
37.0
 40
37.0
 40
37.0
 40
38.0
 40
38.0
 40
38.0
 40
39.0
 40
39.0
 40
39.0
 40
40.0
 40
40.0
 40
40.0
 40
41.0
 40
41.0
 40
41.0
 40
42.0
 40
42.0
 40
42.0
 40
43.0
 40
43.0
 40
43.0
 40
44.0
 40
44.0
 40
44.0
 40
45.0
 40
45.0
 40
45.0
 40
46.0
 40
46.0
 40
46.0
 40
47.0
 40
47.0
 40
47.0
 40
48.0
 40
48.0
 40
48.0
 40
49.0
 40
49.0
 40
49.0
 40
50.0
 40
50.0
 40
50.0
 40
51.0
 40
51.0
 40
51.0
 40
52.0
 40
52.0
 40
52.0
 40
53.0
 40
53.0
 40
53.0
 40
54.0
 40
54.0
 40
54.0
 40
54.0
 10
51.49866535170867
 20
-11.50007323931248
 30
0.0
 10
51.49866535170867
 20
-11.50007323931248
 30
0.0
 10
51.49969888035425
 20
-11.50007323931248
 30
0.0
 10
51.49969888035425
 20
-11.50007323931248
 30
0.0
 10
51.49969888035425
 20
-11.50007323931248
 30
0.0
 10
51.49969888035425
 20
-3.500217013013835
 30
0.0
 10
51.49969888035425
 20
-3.500217013013835
 30
0.0
 10
51.49969888035425
 20
-2.499761284097282
 30
0.0
 10
50.49958766098622
 20
-1.499994574277779
 30
0.0
 10
49.49982095116671
 20
-1.499994574277779
 30
0.0
 10
49.49982095116671
 20
-1.499994574277779
 30
0.0
 10
46.49983180261115
 20
-1.499994574277779
 30
0.0
 10
46.49983180261115
 20
-1.499994574277779
 30
0.0
 10
46.49983180261115
 20
-1.499994574277779
 30
0.0
 10
46.49983180261115
 20
-11.49972872976396
 30
0.0
 10
46.49983180261115
 20
-11.49972872976396
 30
0.0
 10
46.49983180261115
 20
-11.49972872976396
 30
0.0
 10
43.9990369898683
 20
-11.49972872976396
 30
0.0
 10
43.9990369898683
 20
-11.49972872976396
 30
0.0
 10
43.9990369898683
 20
-11.49972872976396
 30
0.0
 10
43.9990369898683
 20
-14.50006238786804
 30
0.0
 10
43.9990369898683
 20
-14.50006238786804
 30
0.0
 10
43.9990369898683
 20
-14.50006238786804
 30
0.0
 10
45.00052624743043
 20
-14.50006238786804
 30
0.0
 10
45.00052624743043
 20
-14.50006238786804
 30
0.0
 10
45.00052624743043
 20
-14.49971787831952
 30
0.0
 10
45.0001817378819
 20
-14.49937336877099
 30
0.0
 10
45.0001817378819
 20
-14.49902885922247
 30
0.0
 10
45.0001817378819
 20
-14.36088053026395
 30
0.0
 10
45.11214734115252
 20
-14.24891492699333
 30
0.0
 10
45.25029567011104
 20
-14.24891492699333
 30
0.0
 10
45.38809948952103
 20
-14.24891492699333
 30
0.0
 10
45.50006509279165
 20
-14.36088053026395
 30
0.0
 10
45.50006509279165
 20
-14.49902885922247
 30
0.0
 10
45.50006509279165
 20
-14.63683267863246
 30
0.0
 10
45.38809948952103
 20
-14.74879828190308
 30
0.0
 10
45.25029567011104
 20
-14.74879828190308
 30
0.0
 10
45.24960665101399
 20
-14.74879828190308
 30
0.0
 10
45.24960665101399
 20
-14.74845377235455
 30
0.0
 10
45.24891763191694
 20
-14.74845377235455
 30
0.0
 10
45.24891763191694
 20
-14.74845377235455
 30
0.0
 10
45.24891763191694
 20
-17.00016818151385
 30
0.0
 10
45.24891763191694
 20
-17.00016818151385
 30
0.0
 10
45.24891763191694
 20
-17.00016818151385
 30
0.0
 10
43.9990369898683
 20
-17.00016818151385
 30
0.0
 10
43.9990369898683
 20
-17.00016818151385
 30
0.0
 10
43.9990369898683
 20
-17.00016818151385
 30
0.0
 10
40.99904784131274
 20
-17.00016818151385
 30
0.0
 10
40.99904784131274
 20
-17.00016818151385
 30
0.0
 10
40.99904784131274
 20
-17.00016818151385
 30
0.0
 10
39.74882268971557
 20
-17.00016818151385
 30
0.0
 10
39.74882268971557
 20
-17.00016818151385
 30
0.0
 10
39.74882268971557
 20
-17.00016818151385
 30
0.0
 10
39.74882268971557
 20
-14.74845377235455
 30
0.0
 10
39.74882268971557
 20
-14.74845377235455
 30
0.0
 10
39.6113633798541
 20
-14.7477647532575
 30
0.0
 10
39.50008679568054
 20
-14.63648816908393
 30
0.0
 10
39.50008679568054
 20
-14.49902885922247
 30
0.0
 10
39.50008679568054
 20
-14.36088053026395
 30
0.0
 10
39.61205239895116
 20
-14.24891492699333
 30
0.0
 10
39.75020072790967
 20
-14.24891492699333
 30
0.0
 10
39.88800454731967
 20
-14.24891492699333
 30
0.0
 10
39.99997015059029
 20
-14.36088053026395
 30
0.0
 10
39.99997015059029
 20
-14.49902885922247
 30
0.0
 10
39.99997015059029
 20
-14.49937336877099
 30
0.0
 10
39.99962564104176
 20
-14.49971787831952
 30
0.0
 10
39.99962564104176
 20
-14.50006238786804
 30
0.0
 10
39.99962564104176
 20
-14.50006238786804
 30
0.0
 10
40.99904784131274
 20
-14.50006238786804
 30
0.0
 10
40.99904784131274
 20
-14.50006238786804
 30
0.0
 10
40.99904784131274
 20
-14.50006238786804
 30
0.0
 10
40.99904784131274
 20
-11.49972872976396
 30
0.0
 10
40.99904784131274
 20
-11.49972872976396
 30
0.0
 10
40.99904784131274
 20
-11.49972872976396
 30
0.0
 10
11.99857855602813
 20
-11.49972872976396
 30
0.0
 10
11.99857855602813
 20
-11.49972872976396
 30
0.0
 10
11.99857855602813
 20
-11.49972872976396
 30
0.0
 10
11.99857855602813
 20
-14.50006238786804
 30
0.0
 10
11.99857855602813
 20
-14.50006238786804
 30
0.0
 10
11.99857855602813
 20
-14.50006238786804
 30
0.0
 10
13.00041232313879
 20
-14.50006238786804
 30
0.0
 10
13.00041232313879
 20
-14.50006238786804
 30
0.0
 10
13.00041232313879
 20
-14.49971787831952
 30
0.0
 10
13.00006781359026
 20
-14.49937336877099
 30
0.0
 10
13.00006781359026
 20
-14.49902885922247
 30
0.0
 10
13.00006781359026
 20
-14.36088053026395
 30
0.0
 10
13.11203341686088
 20
-14.24891492699333
 30
0.0
 10
13.2501817458194
 20
-14.24891492699333
 30
0.0
 10
13.38798556522939
 20
-14.24891492699333
 30
0.0
 10
13.49995116850001
 20
-14.36088053026395
 30
0.0
 10
13.49995116850001
 20
-14.49902885922247
 30
0.0
 10
13.49995116850001
 20
-14.63683267863246
 30
0.0
 10
13.38798556522939
 20
-14.74879828190308
 30
0.0
 10
13.2501817458194
 20
-14.74879828190308
 30
0.0
 10
13.24949272672235
 20
-14.74879828190308
 30
0.0
 10
13.24914821717383
 20
-14.74845377235455
 30
0.0
 10
13.24845919807677
 20
-14.74845377235455
 30
0.0
 10
13.24845919807677
 20
-14.74845377235455
 30
0.0
 10
13.24845919807677
 20
-17.00016818151385
 30
0.0
 10
13.24845919807677
 20
-17.00016818151385
 30
0.0
 10
13.24845919807677
 20
-17.00016818151385
 30
0.0
 10
11.99857855602813
 20
-17.00016818151385
 30
0.0
 10
11.99857855602813
 20
-17.00016818151385
 30
0.0
 10
11.99857855602813
 20
-17.00016818151385
 30
0.0
 10
8.998589407472576
 20
-17.00016818151385
 30
0.0
 10
8.998589407472576
 20
-17.00016818151385
 30
0.0
 10
8.998589407472576
 20
-17.00016818151385
 30
0.0
 10
7.748364255875409
 20
-17.00016818151385
 30
0.0
 10
7.748364255875409
 20
-17.00016818151385
 30
0.0
 10
7.748364255875409
 20
-17.00016818151385
 30
0.0
 10
7.748364255875409
 20
-14.74845377235455
 30
0.0
 10
7.748364255875409
 20
-14.74845377235455
 30
0.0
 10
7.610904946013941
 20
-14.74742024370898
 30
0.0
 10
7.499972871388896
 20
-14.63614365953541
 30
0.0
 10
7.499972871388896
 20
-14.49902885922247
 30
0.0
 10
7.499972871388896
 20
-14.36088053026395
 30
0.0
 10
7.611938474659516
 20
-14.24891492699333
 30
0.0
 10
7.750086803618034
 20
-14.24891492699333
 30
0.0
 10
7.887890623028028
 20
-14.24891492699333
 30
0.0
 10
7.999856226298648
 20
-14.36088053026395
 30
0.0
 10
7.999856226298648
 20
-14.49902885922247
 30
0.0
 10
7.999856226298648
 20
-14.49937336877099
 30
0.0
 10
7.999511716750122
 20
-14.49971787831952
 30
0.0
 10
7.999511716750122
 20
-14.50006238786804
 30
0.0
 10
7.999511716750122
 20
-14.50006238786804
 30
0.0
 10
8.998589407472576
 20
-14.50006238786804
 30
0.0
 10
8.998589407472576
 20
-14.50006238786804
 30
0.0
 10
8.998589407472576
 20
-14.50006238786804
 30
0.0
 10
8.998589407472576
 20
-11.49972872976396
 30
0.0
 10
8.998589407472576
 20
-11.49972872976396
 30
0.0
 10
8.998589407472576
 20
-11.49972872976396
 30
0.0
 10
6.499172632923818
 20
-11.49972872976396
 30
0.0
 10
6.499172632923818
 20
-11.49972872976396
 30
0.0
 10
6.499172632923818
 20
-11.49972872976396
 30
0.0
 10
6.499172632923818
 20
-1.500339083826304
 30
0.0
 10
6.499172632923818
 20
-1.500339083826304
 30
0.0
 10
6.499172632923818
 20
-1.500339083826304
 30
0.0
 10
3.49918348436826
 20
-1.500339083826304
 30
0.0
 10
3.49918348436826
 20
-1.500339083826304
 30
0.0
 10
2.499416774548757
 20
-1.500339083826304
 30
0.0
 10
1.499305555180729
 20
-2.500105793645807
 30
0.0
 10
1.499305555180729
 20
-3.50056152256236
 30
0.0
 10
1.499305555180729
 20
-3.50056152256236
 30
0.0
 10
1.499305555180729
 20
-11.50041774886101
 30
0.0
 10
1.499305555180729
 20
-11.50041774886101
 30
0.0
 10
1.499305555180729
 20
-11.50041774886101
 30
0.0
 10
1.499994574277779
 20
-11.50041774886101
 30
0.0
 10
1.499994574277779
 20
-11.50041774886101
 30
0.0
 10
1.499994574277779
 20
-11.50041774886101
 30
0.0
 10
1.499994574277779
 20
-59.49955510665289
 30
0.0
 10
1.499994574277779
 20
-59.49955510665289
 30
0.0
 10
1.673110622411583
 20
-61.49994980016321
 30
0.0
 10
5.173155380651155
 20
-65.5000501680868
 30
0.0
 10
10.17302245839424
 20
-65.5000501680868
 30
0.0
 10
10.17302245839424
 20
-65.5000501680868
 30
0.0
 10
42.6731919923699
 20
-65.5000501680868
 30
0.0
 10
42.6731919923699
 20
-65.5000501680868
 30
0.0
 10
47.67305907011298
 20
-65.5000501680868
 30
0.0
 10
51.17310382835256
 20
-61.49994980016321
 30
0.0
 10
51.50004338990277
 20
-59.49955510665289
 30
0.0
 10
51.50004338990277
 20
-59.49955510665289
 30
0.0
 10
51.49866535170867
 20
-11.50007323931248
 30
0.0
 10
51.49866535170867
 20
-11.50007323931248
 30
0.0
  0
ENDBLK
  5
3F
330
3C
100
AcDbEntity
  8
0
100
AcDbBlockEnd
  0
BLOCK
  5
48
330
46
100
AcDbEntity
  8
0
100
AcDbBlockBegin
  2
block 3
 70
     0
 71
     0
 10
0.0
 20
0.0
 30
0.0
  3
block 3
  1

  0
SPLINE
  5
4A
330
46
100
AcDbEntity
  8
Layer 1
370
     0
100
AcDbSpline
210
0.0
220
0.0
230
1.0
 70
    11
 71
     3
 72
    17
 73
    13
 74
     0
 42
0.0000000001
 43
0.0000000001
 40
0.0
 40
0.0
 40
0.0
 40
0.0
 40
1.0
 40
1.0
 40
1.0
 40
2.0
 40
2.0
 40
2.0
 40
3.0
 40
3.0
 40
3.0
 40
4.0
 40
4.0
 40
4.0
 40
4.0
 10
111.4285128844693
 20
-38.59282089963999
 30
0.0
 10
111.4285128844693
 20
-39.42102185429405
 30
0.0
 10
110.7570637743941
 20
-40.09281547391777
 30
0.0
 10
109.9285183101915
 20
-40.09281547391777
 30
0.0
 10
109.1003173555374
 20
-40.09281547391777
 30
0.0
 10
108.4285237359137
 20
-39.42102185429405
 30
0.0
 10
108.4285237359137
 20
-38.59282089963999
 30
0.0
 10
108.4285237359137
 20
-37.7642754354374
 30
0.0
 10
109.1003173555374
 20
-37.09282632536221
 30
0.0
 10
109.9285183101915
 20
-37.09282632536221
 30
0.0
 10
110.7570637743941
 20
-37.09282632536221
 30
0.0
 10
111.4285128844693
 20
-37.7642754354374
 30
0.0
 10
111.4285128844693
 20
-38.59282089963999
 30
0.0
  0
SPLINE
  5
4B
330
46
100
AcDbEntity
  8
Layer 1
370
     0
100
AcDbSpline
210
0.0
220
0.0
230
1.0
 70
    11
 71
     3
 72
    17
 73
    13
 74
     0
 42
0.0000000001
 43
0.0000000001
 40
0.0
 40
0.0
 40
0.0
 40
0.0
 40
1.0
 40
1.0
 40
1.0
 40
2.0
 40
2.0
 40
2.0
 40
3.0
 40
3.0
 40
3.0
 40
4.0
 40
4.0
 40
4.0
 40
4.0
 10
80.42885468909418
 20
-7.592473685167854
 30
0.0
 10
80.42885468909418
 20
-8.42101914937044
 30
0.0
 10
79.75706106947047
 20
-9.092468259445633
 30
0.0
 10
78.9288601148164
 20
-9.092468259445633
 30
0.0
 10
78.10031465061381
 20
-9.092468259445633
 30
0.0
 10
77.42886554053862
 20
-8.42101914937044
 30
0.0
 10
77.42886554053862
 20
-7.592473685167854
 30
0.0
 10
77.42886554053862
 20
-6.764272730513794
 30
0.0
 10
78.10031465061381
 20
-6.092479110890075
 30
0.0
 10
78.9288601148164
 20
-6.092479110890075
 30
0.0
 10
79.75706106947047
 20
-6.092479110890075
 30
0.0
 10
80.42885468909418
 20
-6.764272730513794
 30
0.0
 10
80.42885468909418
 20
-7.592473685167854
 30
0.0
  0
SPLINE
  5
4C
330
46
100
AcDbEntity
  8
Layer 1
370
     0
100
AcDbSpline
210
0.0
220
0.0
230
1.0
 70
    11
 71
     3
 72
    17
 73
    13
 74
     0
 42
0.0000000001
 43
0.0000000001
 40
0.0
 40
0.0
 40
0.0
 40
0.0
 40
1.0
 40
1.0
 40
1.0
 40
2.0
 40
2.0
 40
2.0
 40
3.0
 40
3.0
 40
3.0
 40
4.0
 40
4.0
 40
4.0
 40
4.0
 10
111.4285128844693
 20
-7.592473685167854
 30
0.0
 10
111.4285128844693
 20
-8.42101914937044
 30
0.0
 10
110.7570637743941
 20
-9.092468259445633
 30
0.0
 10
109.9285183101915
 20
-9.092468259445633
 30
0.0
 10
109.1003173555374
 20
-9.092468259445633
 30
0.0
 10
108.4285237359137
 20
-8.42101914937044
 30
0.0
 10
108.4285237359137
 20
-7.592473685167854
 30
0.0
 10
108.4285237359137
 20
-6.764272730513794
 30
0.0
 10
109.1003173555374
 20
-6.092479110890075
 30
0.0
 10
109.9285183101915
 20
-6.092479110890075
 30
0.0
 10
110.7570637743941
 20
-6.092479110890075
 30
0.0
 10
111.4285128844693
 20
-6.764272730513794
 30
0.0
 10
111.4285128844693
 20
-7.592473685167854
 30
0.0
  0
SPLINE
  5
4D
330
46
100
AcDbEntity
  8
Layer 1
370
     0
100
AcDbSpline
210
0.0
220
0.0
230
1.0
 70
    11
 71
     3
 72
    17
 73
    13
 74
     0
 42
0.0000000001
 43
0.0000000001
 40
0.0
 40
0.0
 40
0.0
 40
0.0
 40
1.0
 40
1.0
 40
1.0
 40
2.0
 40
2.0
 40
2.0
 40
3.0
 40
3.0
 40
3.0
 40
4.0
 40
4.0
 40
4.0
 40
4.0
 10
65.42753090812229
 20
-22.09219156348737
 30
0.0
 10
65.42753090812229
 20
-23.19668917605847
 30
0.0
 10
64.53215059150585
 20
-24.09241400222342
 30
0.0
 10
63.42765297893476
 20
-24.09241400222342
 30
0.0
 10
62.32315536636366
 20
-24.09241400222342
 30
0.0
 10
61.4274305401987
 20
-23.19668917605847
 30
0.0
 10
61.4274305401987
 20
-22.09219156348737
 30
0.0
 10
61.4274305401987
 20
-20.98769395091627
 30
0.0
 10
62.32315536636366
 20
-20.09231363429984
 30
0.0
 10
63.42765297893476
 20
-20.09231363429984
 30
0.0
 10
64.53215059150585
 20
-20.09231363429984
 30
0.0
 10
65.42753090812229
 20
-20.98769395091627
 30
0.0
 10
65.42753090812229
 20
-22.09219156348737
 30
0.0
  0
SPLINE
  5
4E
330
46
100
AcDbEntity
  8
Layer 1
370
     0
100
AcDbSpline
210
0.0
220
0.0
230
1.0
 70
    11
 71
     3
 72
    17
 73
    13
 74
     0
 42
0.0000000001
 43
0.0000000001
 40
0.0
 40
0.0
 40
0.0
 40
0.0
 40
1.0
 40
1.0
 40
1.0
 40
2.0
 40
2.0
 40
2.0
 40
3.0
 40
3.0
 40
3.0
 40
4.0
 40
4.0
 40
4.0
 40
4.0
 10
107.4287570260942
 20
-54.09299450687606
 30
0.0
 10
107.4287570260942
 20
-55.19749211944715
 30
0.0
 10
106.5337212190263
 20
-56.09252792651507
 30
0.0
 10
105.4292236064552
 20
-56.09252792651507
 30
0.0
 10
104.324036974787
 20
-56.09252792651507
 30
0.0
 10
103.4290011677192
 20
-55.19749211944715
 30
0.0
 10
103.4290011677192
 20
-54.09299450687606
 30
0.0
 10
103.4290011677192
 20
-52.98815238475644
 30
0.0
 10
104.324036974787
 20
-52.09277206814
 30
0.0
 10
105.4292236064552
 20
-52.09277206814
 30
0.0
 10
106.5337212190263
 20
-52.09277206814
 30
0.0
 10
107.4287570260942
 20
-52.98815238475644
 30
0.0
 10
107.4287570260942
 20
-54.09299450687606
 30
0.0
  0
SPLINE
  5
4F
330
46
100
AcDbEntity
  8
Layer 1
370
     0
100
AcDbSpline
210
0.0
220
0.0
230
1.0
 70
    11
 71
     3
 72
    17
 73
    13
 74
     0
 42
0.0000000001
 43
0.0000000001
 40
0.0
 40
0.0
 40
0.0
 40
0.0
 40
1.0
 40
1.0
 40
1.0
 40
2.0
 40
2.0
 40
2.0
 40
3.0
 40
3.0
 40
3.0
 40
4.0
 40
4.0
 40
4.0
 40
4.0
 10
65.42890894631638
 20
-54.09299450687606
 30
0.0
 10
65.42890894631638
 20
-55.19749211944715
 30
0.0
 10
64.53387313924848
 20
-56.09252792651507
 30
0.0
 10
63.42937552667738
 20
-56.09252792651507
 30
0.0
 10
62.32418889500924
 20
-56.09252792651507
 30
0.0
 10
61.42915308794132
 20
-55.19749211944715
 30
0.0
 10
61.42915308794132
 20
-54.09299450687606
 30
0.0
 10
61.42915308794132
 20
-52.98815238475644
 30
0.0
 10
62.32418889500924
 20
-52.09277206814
 30
0.0
 10
63.42937552667738
 20
-52.09277206814
 30
0.0
 10
64.53387313924848
 20
-52.09277206814
 30
0.0
 10
65.42890894631638
 20
-52.98815238475644
 30
0.0
 10
65.42890894631638
 20
-54.09299450687606
 30
0.0
  0
SPLINE
  5
50
330
46
100
AcDbEntity
  8
Layer 1
370
     0
100
AcDbSpline
210
0.0
220
0.0
230
1.0
 70
    11
 71
     3
 72
    17
 73
    13
 74
     0
 42
0.0000000001
 43
0.0000000001
 40
0.0
 40
0.0
 40
0.0
 40
0.0
 40
1.0
 40
1.0
 40
1.0
 40
2.0
 40
2.0
 40
2.0
 40
3.0
 40
3.0
 40
3.0
 40
4.0
 40
4.0
 40
4.0
 40
4.0
 10
100.4290120191636
 20
-23.09264729240392
 30
0.0
 10
100.4290120191636
 20
-26.40614013011722
 30
0.0
 10
97.74252655976576
 20
-29.09262558951504
 30
0.0
 10
94.42903372205247
 20
-29.09262558951504
 30
0.0
 10
91.11519637479066
 20
-29.09262558951504
 30
0.0
 10
88.42905542494135
 20
-26.40614013011722
 30
0.0
 10
88.42905542494135
 20
-23.09264729240392
 30
0.0
 10
88.42905542494135
 20
-19.77915445469063
 30
0.0
 10
91.11519637479066
 20
-17.0926689952928
 30
0.0
 10
94.42903372205247
 20
-17.0926689952928
 30
0.0
 10
97.74252655976576
 20
-17.0926689952928
 30
0.0
 10
100.4290120191636
 20
-19.77915445469063
 30
0.0
 10
100.4290120191636
 20
-23.09264729240392
 30
0.0
  0
SPLINE
  5
51
330
46
100
AcDbEntity
  8
Layer 1
370
     0
100
AcDbSpline
210
0.0
220
0.0
230
1.0
 70
    11
 71
     3
 72
    50
 73
    46
 74
     0
 42
0.0000000001
 43
0.0000000001
 40
0.0
 40
0.0
 40
0.0
 40
0.0
 40
1.0
 40
1.0
 40
1.0
 40
2.0
 40
2.0
 40
2.0
 40
3.0
 40
3.0
 40
3.0
 40
4.0
 40
4.0
 40
4.0
 40
5.0
 40
5.0
 40
5.0
 40
6.0
 40
6.0
 40
6.0
 40
7.0
 40
7.0
 40
7.0
 40
8.0
 40
8.0
 40
8.0
 40
9.0
 40
9.0
 40
9.0
 40
10.0
 40
10.0
 40
10.0
 40
11.0
 40
11.0
 40
11.0
 40
12.0
 40
12.0
 40
12.0
 40
13.0
 40
13.0
 40
13.0
 40
14.0
 40
14.0
 40
14.0
 40
15.0
 40
15.0
 40
15.0
 40
15.0
 10
146.4270656643481
 20
-7.091556801612528
 30
0.0
 10
146.4270656643481
 20
-7.091556801612528
 30
0.0
 10
146.4270656643481
 20
-2.091689723869439
 30
0.0
 10
146.4270656643481
 20
-2.091689723869439
 30
0.0
 10
146.4270656643481
 20
-2.091689723869439
 30
0.0
 10
53.426885294803
 20
-2.091689723869439
 30
0.0
 10
53.426885294803
 20
-2.091689723869439
 30
0.0
 10
53.426885294803
 20
-2.091689723869439
 30
0.0
 10
53.426885294803
 20
-64.09066160507109
 30
0.0
 10
53.426885294803
 20
-64.09066160507109
 30
0.0
 10
53.426885294803
 20
-64.09066160507109
 30
0.0
 10
53.426885294803
 20
-64.09169513371667
 30
0.0
 10
53.426885294803
 20
-64.09169513371667
 30
0.0
 10
53.426885294803
 20
-64.09169513371667
 30
0.0
 10
53.426885294803
 20
-69.09052868281418
 30
0.0
 10
53.426885294803
 20
-69.09052868281418
 30
0.0
 10
53.426885294803
 20
-69.09052868281418
 30
0.0
 10
53.426885294803
 20
-74.0907402701058
 30
0.0
 10
58.42709688209462
 20
-74.0907402701058
 30
0.0
 10
58.42709688209462
 20
-74.0907402701058
 30
0.0
 10
88.4269883676502
 20
-74.0907402701058
 30
0.0
 10
88.4269883676502
 20
-74.0907402701058
 30
0.0
 10
93.42685544539329
 20
-74.0907402701058
 30
0.0
 10
93.42685544539329
 20
-69.09052868281418
 30
0.0
 10
93.42685544539329
 20
-69.09052868281418
 30
0.0
 10
93.42685544539329
 20
-69.09052868281418
 30
0.0
 10
93.42685544539329
 20
-64.09135062416814
 30
0.0
 10
93.42685544539329
 20
-64.09135062416814
 30
0.0
 10
93.42685544539329
 20
-64.09135062416814
 30
0.0
 10
117.4271131433863
 20
-64.09135062416814
 30
0.0
 10
117.4271131433863
 20
-64.09135062416814
 30
0.0
 10
117.4271131433863
 20
-64.09135062416814
 30
0.0
 10
117.4271131433863
 20
-64.09100611461962
 30
0.0
 10
117.4271131433863
 20
-64.09100611461962
 30
0.0
 10
117.4271131433863
 20
-42.00002033455208
 30
0.0
 10
135.3357530043605
 20
-24.09138047357785
 30
0.0
 10
157.4274278035251
 20
-24.09138047357785
 30
0.0
 10
157.4274278035251
 20
-24.09138047357785
 30
0.0
 10
157.4274278035251
 20
-22.09150254439032
 30
0.0
 10
157.4274278035251
 20
-22.09150254439032
 30
0.0
 10
157.4274278035251
 20
-22.09150254439032
 30
0.0
 10
157.4274278035251
 20
-7.091901311161052
 30
0.0
 10
157.4274278035251
 20
-7.091901311161052
 30
0.0
 10
157.4274278035251
 20
-7.091901311161052
 30
0.0
 10
146.4270656643481
 20
-7.091556801612528
 30
0.0
 10
146.4270656643481
 20
-7.091556801612528
 30
0.0
  0
SPLINE
  5
52
330
46
100
AcDbEntity
  8
Layer 1
370
     0
100
AcDbSpline
210
0.0
220
0.0
230
1.0
 70
    11
 71
     3
 72
    29
 73
    25
 74
     0
 42
0.0000000001
 43
0.0000000001
 40
0.0
 40
0.0
 40
0.0
 40
0.0
 40
1.0
 40
1.0
 40
1.0
 40
2.0
 40
2.0
 40
2.0
 40
3.0
 40
3.0
 40
3.0
 40
4.0
 40
4.0
 40
4.0
 40
5.0
 40
5.0
 40
5.0
 40
6.0
 40
6.0
 40
6.0
 40
7.0
 40
7.0
 40
7.0
 40
8.0
 40
8.0
 40
8.0
 40
8.0
 10
65.92741426303203
 20
-14.09233533718872
 30
0.0
 10
65.92741426303203
 20
-14.64458414347427
 30
0.0
 10
65.47989635949808
 20
-15.09210204700823
 30
0.0
 10
64.92764755321254
 20
-15.09210204700823
 30
0.0
 10
64.92764755321254
 20
-15.09210204700823
 30
0.0
 10
61.92765840465697
 20
-15.09210204700823
 30
0.0
 10
61.92765840465697
 20
-15.09210204700823
 30
0.0
 10
61.37540959837143
 20
-15.09210204700823
 30
0.0
 10
60.92754718528895
 20
-14.64458414347427
 30
0.0
 10
60.92754718528895
 20
-14.09233533718872
 30
0.0
 10
60.92754718528895
 20
-14.09233533718872
 30
0.0
 10
60.92754718528895
 20
-8.092357040077605
 30
0.0
 10
60.92754718528895
 20
-8.092357040077605
 30
0.0
 10
60.92754718528895
 20
-7.540108233792057
 30
0.0
 10
61.37540959837143
 20
-7.092245820709578
 30
0.0
 10
61.92765840465697
 20
-7.092245820709578
 30
0.0
 10
61.92765840465697
 20
-7.092245820709578
 30
0.0
 10
64.92764755321254
 20
-7.092245820709578
 30
0.0
 10
64.92764755321254
 20
-7.092245820709578
 30
0.0
 10
65.47989635949808
 20
-7.092245820709578
 30
0.0
 10
65.92741426303203
 20
-7.540108233792057
 30
0.0
 10
65.92741426303203
 20
-8.092357040077605
 30
0.0
 10
65.92741426303203
 20
-8.092357040077605
 30
0.0
 10
65.92741426303203
 20
-14.09233533718872
 30
0.0
 10
65.92741426303203
 20
-14.09233533718872
 30
0.0
  0
ENDBLK
  5
49
330
46
100
AcDbEntity
  8
0
100
AcDbBlockEnd
  0
BLOCK
  5
55
330
53
100
AcDbEntity
  8
0
100
AcDbBlockBegin
  2
block 4
 70
     0
 71
     0
 10
0.0
 20
0.0
 30
0.0
  3
block 4
  1

  0
SPLINE
  5
57
330
53
100
AcDbEntity
  8
Layer 1
370
     0
100
AcDbSpline
210
0.0
220
0.0
230
1.0
 70
    11
 71
     3
 72
    17
 73
    13
 74
     0
 42
0.0000000001
 43
0.0000000001
 40
0.0
 40
0.0
 40
0.0
 40
0.0
 40
1.0
 40
1.0
 40
1.0
 40
2.0
 40
2.0
 40
2.0
 40
3.0
 40
3.0
 40
3.0
 40
4.0
 40
4.0
 40
4.0
 40
4.0
 10
168.4982421453755
 20
-37.25784639910568
 30
0.0
 10
168.4982421453755
 20
-36.42964544445162
 30
0.0
 10
169.1693467459021
 20
-35.7578518248279
 30
0.0
 10
169.9985812292018
 20
-35.7578518248279
 30
0.0
 10
170.8267821838558
 20
-35.7578518248279
 30
0.0
 10
171.4985758034795
 20
-36.42964544445162
 30
0.0
 10
171.4985758034795
 20
-37.25784639910568
 30
0.0
 10
171.4985758034795
 20
-38.08604735375974
 30
0.0
 10
170.8267821838558
 20
-38.75784097338346
 30
0.0
 10
169.9985812292018
 20
-38.75784097338346
 30
0.0
 10
169.1693467459021
 20
-38.75784097338346
 30
0.0
 10
168.4982421453755
 20
-38.08604735375974
 30
0.0
 10
168.4982421453755
 20
-37.25784639910568
 30
0.0
  0
SPLINE
  5
58
330
53
100
AcDbEntity
  8
Layer 1
370
     0
100
AcDbSpline
210
0.0
220
0.0
230
1.0
 70
    11
 71
     3
 72
    17
 73
    13
 74
     0
 42
0.0000000001
 43
0.0000000001
 40
0.0
 40
0.0
 40
0.0
 40
0.0
 40
1.0
 40
1.0
 40
1.0
 40
2.0
 40
2.0
 40
2.0
 40
3.0
 40
3.0
 40
3.0
 40
4.0
 40
4.0
 40
4.0
 40
4.0
 10
199.4979003407505
 20
-68.25819361357782
 30
0.0
 10
199.4979003407505
 20
-67.42964814937523
 30
0.0
 10
200.1696939603742
 20
-66.75819903930004
 30
0.0
 10
200.9978949150283
 20
-66.75819903930004
 30
0.0
 10
201.8264403792309
 20
-66.75819903930004
 30
0.0
 10
202.4978894893061
 20
-67.42964814937523
 30
0.0
 10
202.4978894893061
 20
-68.25819361357782
 30
0.0
 10
202.4978894893061
 20
-69.08639456823188
 30
0.0
 10
201.8264403792309
 20
-69.7581881878556
 30
0.0
 10
200.9978949150283
 20
-69.7581881878556
 30
0.0
 10
200.1696939603742
 20
-69.7581881878556
 30
0.0
 10
199.4979003407505
 20
-69.08639456823188
 30
0.0
 10
199.4979003407505
 20
-68.25819361357782
 30
0.0
  0
SPLINE
  5
59
330
53
100
AcDbEntity
  8
Layer 1
370
     0
100
AcDbSpline
210
0.0
220
0.0
230
1.0
 70
    11
 71
     3
 72
    17
 73
    13
 74
     0
 42
0.0000000001
 43
0.0000000001
 40
0.0
 40
0.0
 40
0.0
 40
0.0
 40
1.0
 40
1.0
 40
1.0
 40
2.0
 40
2.0
 40
2.0
 40
3.0
 40
3.0
 40
3.0
 40
4.0
 40
4.0
 40
4.0
 40
4.0
 10
168.4982421453755
 20
-68.25819361357782
 30
0.0
 10
168.4982421453755
 20
-67.42964814937523
 30
0.0
 10
169.1693467459021
 20
-66.75819903930004
 30
0.0
 10
169.9985812292018
 20
-66.75819903930004
 30
0.0
 10
170.8267821838558
 20
-66.75819903930004
 30
0.0
 10
171.4985758034795
 20
-67.42964814937523
 30
0.0
 10
171.4985758034795
 20
-68.25819361357782
 30
0.0
 10
171.4985758034795
 20
-69.08639456823188
 30
0.0
 10
170.8267821838558
 20
-69.7581881878556
 30
0.0
 10
169.9985812292018
 20
-69.7581881878556
 30
0.0
 10
169.1693467459021
 20
-69.7581881878556
 30
0.0
 10
168.4982421453755
 20
-69.08639456823188
 30
0.0
 10
168.4982421453755
 20
-68.25819361357782
 30
0.0
  0
SPLINE
  5
5A
330
53
100
AcDbEntity
  8
Layer 1
370
     0
100
AcDbSpline
210
0.0
220
0.0
230
1.0
 70
    11
 71
     3
 72
    17
 73
    13
 74
     0
 42
0.0000000001
 43
0.0000000001
 40
0.0
 40
0.0
 40
0.0
 40
0.0
 40
1.0
 40
1.0
 40
1.0
 40
2.0
 40
2.0
 40
2.0
 40
3.0
 40
3.0
 40
3.0
 40
4.0
 40
4.0
 40
4.0
 40
4.0
 10
214.4992241217224
 20
-53.7584757352583
 30
0.0
 10
214.4992241217224
 20
-52.6539781226872
 30
0.0
 10
215.3946044383389
 20
-51.75825329652224
 30
0.0
 10
216.49910205091
 20
-51.75825329652224
 30
0.0
 10
217.603599663481
 20
-51.75825329652224
 30
0.0
 10
218.499324489646
 20
-52.6539781226872
 30
0.0
 10
218.499324489646
 20
-53.7584757352583
 30
0.0
 10
218.499324489646
 20
-54.8629733478294
 30
0.0
 10
217.603599663481
 20
-55.75835366444583
 30
0.0
 10
216.49910205091
 20
-55.75835366444583
 30
0.0
 10
215.3946044383389
 20
-55.75835366444583
 30
0.0
 10
214.4992241217224
 20
-54.8629733478294
 30
0.0
 10
214.4992241217224
 20
-53.7584757352583
 30
0.0
  0
SPLINE
  5
5B
330
53
100
AcDbEntity
  8
Layer 1
370
     0
100
AcDbSpline
210
0.0
220
0.0
230
1.0
 70
    11
 71
     3
 72
    17
 73
    13
 74
     0
 42
0.0000000001
 43
0.0000000001
 40
0.0
 40
0.0
 40
0.0
 40
0.0
 40
1.0
 40
1.0
 40
1.0
 40
2.0
 40
2.0
 40
2.0
 40
3.0
 40
3.0
 40
3.0
 40
4.0
 40
4.0
 40
4.0
 40
4.0
 10
172.498342513299
 20
-21.75784504664387
 30
0.0
 10
172.498342513299
 20
-20.65334743407277
 30
0.0
 10
173.3933783203669
 20
-19.75831162700487
 30
0.0
 10
174.497875932938
 20
-19.75831162700487
 30
0.0
 10
175.6030625646062
 20
-19.75831162700487
 30
0.0
 10
176.4980983716741
 20
-20.65334743407277
 30
0.0
 10
176.4980983716741
 20
-21.75784504664387
 30
0.0
 10
176.4980983716741
 20
-22.86234265921497
 30
0.0
 10
175.6030625646062
 20
-23.75806748537993
 30
0.0
 10
174.497875932938
 20
-23.75806748537993
 30
0.0
 10
173.3933783203669
 20
-23.75806748537993
 30
0.0
 10
172.498342513299
 20
-22.86234265921497
 30
0.0
 10
172.498342513299
 20
-21.75784504664387
 30
0.0
  0
SPLINE
  5
5C
330
53
100
AcDbEntity
  8
Layer 1
370
     0
100
AcDbSpline
210
0.0
220
0.0
230
1.0
 70
    11
 71
     3
 72
    17
 73
    13
 74
     0
 42
0.0000000001
 43
0.0000000001
 40
0.0
 40
0.0
 40
0.0
 40
0.0
 40
1.0
 40
1.0
 40
1.0
 40
2.0
 40
2.0
 40
2.0
 40
3.0
 40
3.0
 40
3.0
 40
4.0
 40
4.0
 40
4.0
 40
4.0
 10
214.4978460835283
 20
-21.75784504664387
 30
0.0
 10
214.4978460835283
 20
-20.65334743407277
 30
0.0
 10
215.3928818905962
 20
-19.75831162700487
 30
0.0
 10
216.4973795031673
 20
-19.75831162700487
 30
0.0
 10
217.6025661348355
 20
-19.75831162700487
 30
0.0
 10
218.4976019419034
 20
-20.65334743407277
 30
0.0
 10
218.4976019419034
 20
-21.75784504664387
 30
0.0
 10
218.4976019419034
 20
-22.86234265921497
 30
0.0
 10
217.6025661348355
 20
-23.75806748537993
 30
0.0
 10
216.4973795031673
 20
-23.75806748537993
 30
0.0
 10
215.3928818905962
 20
-23.75806748537993
 30
0.0
 10
214.4978460835283
 20
-22.86234265921497
 30
0.0
 10
214.4978460835283
 20
-21.75784504664387
 30
0.0
  0
SPLINE
  5
5D
330
53
100
AcDbEntity
  8
Layer 1
370
     0
100
AcDbSpline
210
0.0
220
0.0
230
1.0
 70
    11
 71
     3
 72
    17
 73
    13
 74
     0
 42
0.0000000001
 43
0.0000000001
 40
0.0
 40
0.0
 40
0.0
 40
0.0
 40
1.0
 40
1.0
 40
1.0
 40
2.0
 40
2.0
 40
2.0
 40
3.0
 40
3.0
 40
3.0
 40
4.0
 40
4.0
 40
4.0
 40
4.0
 10
179.4977430106811
 20
-52.75802000634175
 30
0.0
 10
179.4977430106811
 20
-49.44452716862845
 30
0.0
 10
182.1842284700789
 20
-46.75804170923063
 30
0.0
 10
185.4977213077922
 20
-46.75804170923063
 30
0.0
 10
188.8112141455055
 20
-46.75804170923063
 30
0.0
 10
191.4976996049034
 20
-49.44452716862845
 30
0.0
 10
191.4976996049034
 20
-52.75802000634175
 30
0.0
 10
191.4976996049034
 20
-56.07151284405504
 30
0.0
 10
188.8112141455055
 20
-58.75799830345287
 30
0.0
 10
185.4977213077922
 20
-58.75799830345287
 30
0.0
 10
182.1842284700789
 20
-58.75799830345287
 30
0.0
 10
179.4977430106811
 20
-56.07151284405504
 30
0.0
 10
179.4977430106811
 20
-52.75802000634175
 30
0.0
  0
SPLINE
  5
5E
330
53
100
AcDbEntity
  8
Layer 1
370
     0
100
AcDbSpline
210
0.0
220
0.0
230
1.0
 70
    11
 71
     3
 72
    50
 73
    46
 74
     0
 42
0.0000000001
 43
0.0000000001
 40
0.0
 40
0.0
 40
0.0
 40
0.0
 40
1.0
 40
1.0
 40
1.0
 40
2.0
 40
2.0
 40
2.0
 40
3.0
 40
3.0
 40
3.0
 40
4.0
 40
4.0
 40
4.0
 40
5.0
 40
5.0
 40
5.0
 40
6.0
 40
6.0
 40
6.0
 40
7.0
 40
7.0
 40
7.0
 40
8.0
 40
8.0
 40
8.0
 40
9.0
 40
9.0
 40
9.0
 40
10.0
 40
10.0
 40
10.0
 40
11.0
 40
11.0
 40
11.0
 40
12.0
 40
12.0
 40
12.0
 40
13.0
 40
13.0
 40
13.0
 40
14.0
 40
14.0
 40
14.0
 40
15.0
 40
15.0
 40
15.0
 40
15.0
 10
133.4996893654966
 20
-68.75911049713314
 30
0.0
 10
133.4996893654966
 20
-68.75911049713314
 30
0.0
 10
133.4996893654966
 20
-73.75897757487623
 30
0.0
 10
133.4996893654966
 20
-73.75897757487623
 30
0.0
 10
133.4996893654966
 20
-73.75897757487623
 30
0.0
 10
226.4998697350417
 20
-73.75897757487623
 30
0.0
 10
226.4998697350417
 20
-73.75897757487623
 30
0.0
 10
226.4998697350417
 20
-73.75897757487623
 30
0.0
 10
226.4998697350417
 20
-11.76017794844885
 30
0.0
 10
226.4998697350417
 20
-11.76017794844885
 30
0.0
 10
226.4998697350417
 20
-11.76017794844885
 30
0.0
 10
226.4998697350417
 20
-11.75879991025474
 30
0.0
 10
226.4998697350417
 20
-11.75879991025474
 30
0.0
 10
226.4998697350417
 20
-11.75879991025474
 30
0.0
 10
226.4998697350417
 20
-6.759966361157231
 30
0.0
 10
226.4998697350417
 20
-6.759966361157231
 30
0.0
 10
226.4998697350417
 20
-6.759966361157231
 30
0.0
 10
226.4998697350417
 20
-1.759754773865617
 30
0.0
 10
221.4996581477501
 20
-1.759754773865617
 30
0.0
 10
221.4996581477501
 20
-1.759754773865617
 30
0.0
 10
191.4997666621945
 20
-1.759754773865617
 30
0.0
 10
191.4997666621945
 20
-1.759754773865617
 30
0.0
 10
186.4995550749029
 20
-1.759754773865617
 30
0.0
 10
186.4995550749029
 20
-6.759966361157231
 30
0.0
 10
186.4995550749029
 20
-6.759966361157231
 30
0.0
 10
186.4995550749029
 20
-6.759966361157231
 30
0.0
 10
186.4995550749029
 20
-11.75948892935179
 30
0.0
 10
186.4995550749029
 20
-11.75948892935179
 30
0.0
 10
186.4995550749029
 20
-11.75948892935179
 30
0.0
 10
162.499986396007
 20
-11.75948892935179
 30
0.0
 10
162.499986396007
 20
-11.75948892935179
 30
0.0
 10
162.499986396007
 20
-11.75948892935179
 30
0.0
 10
162.499986396007
 20
-11.75948892935179
 30
0.0
 10
162.499986396007
 20
-11.75948892935179
 30
0.0
 10
162.4996418864584
 20
-33.85064696419359
 30
0.0
 10
144.5906575159357
 20
-51.75928682516782
 30
0.0
 10
122.4994994810939
 20
-51.75928682516782
 30
0.0
 10
122.4994994810939
 20
-51.75928682516782
 30
0.0
 10
122.4994994810939
 20
-53.75916475435535
 30
0.0
 10
122.4994994810939
 20
-53.75916475435535
 30
0.0
 10
122.4994994810939
 20
-53.75916475435535
 30
0.0
 10
122.4994994810939
 20
-68.75876598758462
 30
0.0
 10
122.4994994810939
 20
-68.75876598758462
 30
0.0
 10
122.4994994810939
 20
-68.75876598758462
 30
0.0
 10
133.4996893654966
 20
-68.75911049713314
 30
0.0
 10
133.4996893654966
 20
-68.75911049713314
 30
0.0
  0
SPLINE
  5
5F
330
53
100
AcDbEntity
  8
Layer 1
370
     0
100
AcDbSpline
210
0.0
220
0.0
230
1.0
 70
    11
 71
     3
 72
    29
 73
    25
 74
     0
 42
0.0000000001
 43
0.0000000001
 40
0.0
 40
0.0
 40
0.0
 40
0.0
 40
1.0
 40
1.0
 40
1.0
 40
2.0
 40
2.0
 40
2.0
 40
3.0
 40
3.0
 40
3.0
 40
4.0
 40
4.0
 40
4.0
 40
5.0
 40
5.0
 40
5.0
 40
6.0
 40
6.0
 40
6.0
 40
7.0
 40
7.0
 40
7.0
 40
8.0
 40
8.0
 40
8.0
 40
8.0
 10
213.9993407668127
 20
-61.75833196155695
 30
0.0
 10
213.9993407668127
 20
-61.2060831552714
 30
0.0
 10
214.4468586703466
 20
-60.75856525173744
 30
0.0
 10
214.9991074766322
 20
-60.75856525173744
 30
0.0
 10
214.9991074766322
 20
-60.75856525173744
 30
0.0
 10
217.9990966251877
 20
-60.75856525173744
 30
0.0
 10
217.9990966251877
 20
-60.75856525173744
 30
0.0
 10
218.5513454314733
 20
-60.75856525173744
 30
0.0
 10
218.9992078445558
 20
-61.2060831552714
 30
0.0
 10
218.9992078445558
 20
-61.75833196155695
 30
0.0
 10
218.9992078445558
 20
-61.75833196155695
 30
0.0
 10
218.9992078445558
 20
-67.75831025866806
 30
0.0
 10
218.9992078445558
 20
-67.75831025866806
 30
0.0
 10
218.9992078445558
 20
-68.31055906495361
 30
0.0
 10
218.5513454314733
 20
-68.7584214780361
 30
0.0
 10
217.9990966251877
 20
-68.7584214780361
 30
0.0
 10
217.9990966251877
 20
-68.7584214780361
 30
0.0
 10
214.9991074766322
 20
-68.7584214780361
 30
0.0
 10
214.9991074766322
 20
-68.7584214780361
 30
0.0
 10
214.4468586703466
 20
-68.7584214780361
 30
0.0
 10
213.9993407668127
 20
-68.31055906495361
 30
0.0
 10
213.9993407668127
 20
-67.75831025866806
 30
0.0
 10
213.9993407668127
 20
-67.75831025866806
 30
0.0
 10
213.9993407668127
 20
-61.75833196155695
 30
0.0
 10
213.9993407668127
 20
-61.75833196155695
 30
0.0
  0
ENDBLK
  5
56
330
53
100
AcDbEntity
  8
0
100
AcDbBlockEnd
  0
BLOCK
  5
65
330
63
100
AcDbEntity
  8
0
100
AcDbBlockBegin
  2
block 5
 70
     0
 71
     0
 10
0.0
 20
0.0
 30
0.0
  3
block 5
  1

  0
SPLINE
  5
67
330
63
100
AcDbEntity
  8
Layer 1
370
     0
100
AcDbSpline
210
0.0
220
0.0
230
1.0
 70
    11
 71
     3
 72
    17
 73
    13
 74
     0
 42
0.0000000001
 43
0.0000000001
 40
0.0
 40
0.0
 40
0.0
 40
0.0
 40
1.0
 40
1.0
 40
1.0
 40
2.0
 40
2.0
 40
2.0
 40
3.0
 40
3.0
 40
3.0
 40
4.0
 40
4.0
 40
4.0
 40
4.0
 10
145.419719744461
 20
-131.2505587779513
 30
0.0
 10
146.5242173570321
 20
-131.2505587779513
 30
0.0
 10
147.4192531641
 20
-130.3555229708834
 30
0.0
 10
147.4192531641
 20
-129.2510253583123
 30
0.0
 10
147.4192531641
 20
-128.1458387266441
 30
0.0
 10
146.5242173570321
 20
-127.2508029195762
 30
0.0
 10
145.419719744461
 20
-127.2508029195762
 30
0.0
 10
144.3148776223414
 20
-127.2508029195762
 30
0.0
 10
143.419497305725
 20
-128.1458387266441
 30
0.0
 10
143.419497305725
 20
-129.2510253583123
 30
0.0
 10
143.419497305725
 20
-130.3555229708834
 30
0.0
 10
144.3148776223414
 20
-131.2505587779513
 30
0.0
 10
145.419719744461
 20
-131.2505587779513
 30
0.0
  0
SPLINE
  5
68
330
63
100
AcDbEntity
  8
Layer 1
370
     0
100
AcDbSpline
210
0.0
220
0.0
230
1.0
 70
    11
 71
     3
 72
    17
 73
    13
 74
     0
 42
0.0000000001
 43
0.0000000001
 40
0.0
 40
0.0
 40
0.0
 40
0.0
 40
1.0
 40
1.0
 40
1.0
 40
2.0
 40
2.0
 40
2.0
 40
3.0
 40
3.0
 40
3.0
 40
4.0
 40
4.0
 40
4.0
 40
4.0
 10
145.419719744461
 20
-89.25071069817344
 30
0.0
 10
146.5242173570321
 20
-89.25071069817344
 30
0.0
 10
147.4192531641
 20
-88.35567489110554
 30
0.0
 10
147.4192531641
 20
-87.25117727853443
 30
0.0
 10
147.4192531641
 20
-86.14599064686628
 30
0.0
 10
146.5242173570321
 20
-85.25095483979838
 30
0.0
 10
145.419719744461
 20
-85.25095483979838
 30
0.0
 10
144.3148776223414
 20
-85.25095483979838
 30
0.0
 10
143.419497305725
 20
-86.14599064686628
 30
0.0
 10
143.419497305725
 20
-87.25117727853443
 30
0.0
 10
143.419497305725
 20
-88.35567489110554
 30
0.0
 10
144.3148776223414
 20
-89.25071069817344
 30
0.0
 10
145.419719744461
 20
-89.25071069817344
 30
0.0
  0
SPLINE
  5
69
330
63
100
AcDbEntity
  8
Layer 1
370
     0
100
AcDbSpline
210
0.0
220
0.0
230
1.0
 70
    11
 71
     3
 72
    50
 73
    46
 74
     0
 42
0.0000000001
 43
0.0000000001
 40
0.0
 40
0.0
 40
0.0
 40
0.0
 40
1.0
 40
1.0
 40
1.0
 40
2.0
 40
2.0
 40
2.0
 40
3.0
 40
3.0
 40
3.0
 40
4.0
 40
4.0
 40
4.0
 40
5.0
 40
5.0
 40
5.0
 40
6.0
 40
6.0
 40
6.0
 40
7.0
 40
7.0
 40
7.0
 40
8.0
 40
8.0
 40
8.0
 40
9.0
 40
9.0
 40
9.0
 40
10.0
 40
10.0
 40
10.0
 40
11.0
 40
11.0
 40
11.0
 40
12.0
 40
12.0
 40
12.0
 40
13.0
 40
13.0
 40
13.0
 40
14.0
 40
14.0
 40
14.0
 40
15.0
 40
15.0
 40
15.0
 40
15.0
 10
110.4995428868717
 20
-116.9995767936668
 30
0.0
 10
110.4995428868717
 20
-116.9995767936668
 30
0.0
 10
98.50027531174646
 20
-116.9995767936668
 30
0.0
 10
98.50027531174646
 20
-116.9995767936668
 30
0.0
 10
98.50027531174646
 20
-116.9995767936668
 30
0.0
 10
98.49993080219794
 20
-103.4996256251668
 30
0.0
 10
98.49993080219794
 20
-103.4996256251668
 30
0.0
 10
98.49993080219794
 20
-103.4996256251668
 30
0.0
 10
93.50006372445485
 20
-106.0000759283611
 30
0.0
 10
93.50006372445485
 20
-106.0000759283611
 30
0.0
 10
93.50006372445485
 20
-106.0000759283611
 30
0.0
 10
93.50006372445485
 20
-77.49948999798625
 30
0.0
 10
93.50006372445485
 20
-77.49948999798625
 30
0.0
 10
93.50006372445485
 20
-77.49948999798625
 30
0.0
 10
155.4992078604308
 20
-77.49948999798625
 30
0.0
 10
155.4992078604308
 20
-77.49948999798625
 30
0.0
 10
155.4992078604308
 20
-77.49948999798625
 30
0.0
 10
155.5005858986248
 20
-77.49948999798625
 30
0.0
 10
155.5005858986248
 20
-77.49948999798625
 30
0.0
 10
155.5005858986248
 20
-77.49948999798625
 30
0.0
 10
160.4994194477224
 20
-77.49948999798625
 30
0.0
 10
160.4994194477224
 20
-77.49948999798625
 30
0.0
 10
160.4994194477224
 20
-77.49948999798625
 30
0.0
 10
165.499631035014
 20
-77.49948999798625
 30
0.0
 10
165.499631035014
 20
-82.49970158527786
 30
0.0
 10
165.499631035014
 20
-82.49970158527786
 30
0.0
 10
165.499631035014
 20
-112.4995930708334
 30
0.0
 10
165.499631035014
 20
-112.4995930708334
 30
0.0
 10
165.499631035014
 20
-117.4998046581251
 30
0.0
 10
160.4994194477224
 20
-117.4998046581251
 30
0.0
 10
160.4994194477224
 20
-117.4998046581251
 30
0.0
 10
160.4994194477224
 20
-117.4998046581251
 30
0.0
 10
155.4998968795278
 20
-117.4998046581251
 30
0.0
 10
155.4998968795278
 20
-117.4998046581251
 30
0.0
 10
155.4998968795278
 20
-117.4998046581251
 30
0.0
 10
155.4998968795278
 20
-141.4997178465695
 30
0.0
 10
155.4998968795278
 20
-141.4997178465695
 30
0.0
 10
155.4998968795278
 20
-141.4997178465695
 30
0.0
 10
155.4998968795278
 20
-141.4997178465695
 30
0.0
 10
155.4998968795278
 20
-141.4997178465695
 30
0.0
 10
155.4998968795278
 20
-141.4997178465695
 30
0.0
 10
135.4868204413887
 20
-141.4997178465695
 30
0.0
 10
135.4868204413887
 20
-141.4997178465695
 30
0.0
 10
135.2194810317333
 20
-127.9246635964911
 30
0.0
 10
124.1393649320728
 20
-116.9995767936668
 30
0.0
 10
110.4995428868717
 20
-116.9995767936668
 30
0.0
  0
ENDBLK
  5
66
330
63
100
AcDbEntity
  8
0
100
AcDbBlockEnd
  0
BLOCK
  5
6C
330
6A
100
AcDbEntity
  8
0
100
AcDbBlockBegin
  2
block 6
 70
     0
 71
     0
 10
0.0
 20
0.0
 30
0.0
  3
block 6
  1

  0
SPLINE
  5
6E
330
6A
100
AcDbEntity
  8
Layer 1
370
     0
100
AcDbSpline
210
0.0
220
0.0
230
1.0
 70
    11
 71
     3
 72
    17
 73
    13
 74
     0
 42
0.0000000001
 43
0.0000000001
 40
0.0
 40
0.0
 40
0.0
 40
0.0
 40
1.0
 40
1.0
 40
1.0
 40
2.0
 40
2.0
 40
2.0
 40
3.0
 40
3.0
 40
3.0
 40
4.0
 40
4.0
 40
4.0
 40
4.0
 10
60.50121661898928
 20
-105.4977810066117
 30
0.0
 10
60.50121661898928
 20
-104.6695800519576
 30
0.0
 10
59.83011201846261
 20
-103.9977864323339
 30
0.0
 10
59.00087753516298
 20
-103.9977864323339
 30
0.0
 10
58.17267658050892
 20
-103.9977864323339
 30
0.0
 10
57.5008829608852
 20
-104.6695800519576
 30
0.0
 10
57.5008829608852
 20
-105.4977810066117
 30
0.0
 10
57.5008829608852
 20
-106.3259819612657
 30
0.0
 10
58.17267658050892
 20
-106.9977755808895
 30
0.0
 10
59.00087753516298
 20
-106.9977755808895
 30
0.0
 10
59.83011201846261
 20
-106.9977755808895
 30
0.0
 10
60.50121661898928
 20
-106.3259819612657
 30
0.0
 10
60.50121661898928
 20
-105.4977810066117
 30
0.0
  0
SPLINE
  5
6F
330
6A
100
AcDbEntity
  8
Layer 1
370
     0
100
AcDbSpline
210
0.0
220
0.0
230
1.0
 70
    11
 71
     3
 72
    17
 73
    13
 74
     0
 42
0.0000000001
 43
0.0000000001
 40
0.0
 40
0.0
 40
0.0
 40
0.0
 40
1.0
 40
1.0
 40
1.0
 40
2.0
 40
2.0
 40
2.0
 40
3.0
 40
3.0
 40
3.0
 40
4.0
 40
4.0
 40
4.0
 40
4.0
 10
29.5015584236142
 20
-136.4981282210838
 30
0.0
 10
29.5015584236142
 20
-135.6695827568812
 30
0.0
 10
28.82993705876474
 20
-134.998133646806
 30
0.0
 10
28.00173610411068
 20
-134.998133646806
 30
0.0
 10
27.17284613035957
 20
-134.998133646806
 30
0.0
 10
26.5017415298329
 20
-135.6695827568812
 30
0.0
 10
26.5017415298329
 20
-136.4981282210838
 30
0.0
 10
26.5017415298329
 20
-137.3263291757379
 30
0.0
 10
27.17284613035957
 20
-137.9981227953616
 30
0.0
 10
28.00173610411068
 20
-137.9981227953616
 30
0.0
 10
28.82993705876474
 20
-137.9981227953616
 30
0.0
 10
29.5015584236142
 20
-137.3263291757379
 30
0.0
 10
29.5015584236142
 20
-136.4981282210838
 30
0.0
  0
SPLINE
  5
70
330
6A
100
AcDbEntity
  8
Layer 1
370
     0
100
AcDbSpline
210
0.0
220
0.0
230
1.0
 70
    11
 71
     3
 72
    17
 73
    13
 74
     0
 42
0.0000000001
 43
0.0000000001
 40
0.0
 40
0.0
 40
0.0
 40
0.0
 40
1.0
 40
1.0
 40
1.0
 40
2.0
 40
2.0
 40
2.0
 40
3.0
 40
3.0
 40
3.0
 40
4.0
 40
4.0
 40
4.0
 40
4.0
 10
60.50121661898928
 20
-136.4981282210838
 30
0.0
 10
60.50121661898928
 20
-135.6695827568812
 30
0.0
 10
59.83011201846261
 20
-134.998133646806
 30
0.0
 10
59.00087753516298
 20
-134.998133646806
 30
0.0
 10
58.17267658050892
 20
-134.998133646806
 30
0.0
 10
57.5008829608852
 20
-135.6695827568812
 30
0.0
 10
57.5008829608852
 20
-136.4981282210838
 30
0.0
 10
57.5008829608852
 20
-137.3263291757379
 30
0.0
 10
58.17267658050892
 20
-137.9981227953616
 30
0.0
 10
59.00087753516298
 20
-137.9981227953616
 30
0.0
 10
59.83011201846261
 20
-137.9981227953616
 30
0.0
 10
60.50121661898928
 20
-137.3263291757379
 30
0.0
 10
60.50121661898928
 20
-136.4981282210838
 30
0.0
  0
SPLINE
  5
71
330
6A
100
AcDbEntity
  8
Layer 1
370
     0
100
AcDbSpline
210
0.0
220
0.0
230
1.0
 70
    11
 71
     3
 72
    17
 73
    13
 74
     0
 42
0.0000000001
 43
0.0000000001
 40
0.0
 40
0.0
 40
0.0
 40
0.0
 40
1.0
 40
1.0
 40
1.0
 40
2.0
 40
2.0
 40
2.0
 40
3.0
 40
3.0
 40
3.0
 40
4.0
 40
4.0
 40
4.0
 40
4.0
 10
14.50040689741657
 20
-121.9984103427643
 30
0.0
 10
14.50040689741657
 20
-120.8939127301932
 30
0.0
 10
13.60468207125161
 20
-119.9981879040282
 30
0.0
 10
12.50018445868051
 20
-119.9981879040282
 30
0.0
 10
11.39568684610941
 20
-119.9981879040282
 30
0.0
 10
10.49996201994445
 20
-120.8939127301932
 30
0.0
 10
10.49996201994445
 20
-121.9984103427643
 30
0.0
 10
10.49996201994445
 20
-123.1029079553354
 30
0.0
 10
11.39568684610941
 20
-123.9982882719518
 30
0.0
 10
12.50018445868051
 20
-123.9982882719518
 30
0.0
 10
13.60468207125161
 20
-123.9982882719518
 30
0.0
 10
14.50040689741657
 20
-123.1029079553354
 30
0.0
 10
14.50040689741657
 20
-121.9984103427643
 30
0.0
  0
SPLINE
  5
72
330
6A
100
AcDbEntity
  8
Layer 1
370
     0
100
AcDbSpline
210
0.0
220
0.0
230
1.0
 70
    11
 71
     3
 72
    17
 73
    13
 74
     0
 42
0.0000000001
 43
0.0000000001
 40
0.0
 40
0.0
 40
0.0
 40
0.0
 40
1.0
 40
1.0
 40
1.0
 40
2.0
 40
2.0
 40
2.0
 40
3.0
 40
3.0
 40
3.0
 40
4.0
 40
4.0
 40
4.0
 40
4.0
 10
56.5011162510657
 20
-89.99795190892412
 30
0.0
 10
56.5011162510657
 20
-88.89345429635303
 30
0.0
 10
55.60608044399779
 20
-87.99841848928511
 30
0.0
 10
54.50158283142669
 20
-87.99841848928511
 30
0.0
 10
53.39639619975854
 20
-87.99841848928511
 30
0.0
 10
52.50136039269064
 20
-88.89345429635303
 30
0.0
 10
52.50136039269064
 20
-89.99795190892412
 30
0.0
 10
52.50136039269064
 20
-91.10244952149523
 30
0.0
 10
53.39639619975854
 20
-91.99817434766018
 30
0.0
 10
54.50158283142669
 20
-91.99817434766018
 30
0.0
 10
55.60608044399779
 20
-91.99817434766018
 30
0.0
 10
56.5011162510657
 20
-91.10244952149523
 30
0.0
 10
56.5011162510657
 20
-89.99795190892412
 30
0.0
  0
SPLINE
  5
73
330
6A
100
AcDbEntity
  8
Layer 1
370
     0
100
AcDbSpline
210
0.0
220
0.0
230
1.0
 70
    11
 71
     3
 72
    17
 73
    13
 74
     0
 42
0.0000000001
 43
0.0000000001
 40
0.0
 40
0.0
 40
0.0
 40
0.0
 40
1.0
 40
1.0
 40
1.0
 40
2.0
 40
2.0
 40
2.0
 40
3.0
 40
3.0
 40
3.0
 40
4.0
 40
4.0
 40
4.0
 40
4.0
 10
14.50178493561067
 20
-89.99795190892412
 30
0.0
 10
14.50178493561067
 20
-88.89345429635303
 30
0.0
 10
13.60674912854276
 20
-87.99841848928511
 30
0.0
 10
12.50225151597166
 20
-87.99841848928511
 30
0.0
 10
11.39706488430351
 20
-87.99841848928511
 30
0.0
 10
10.5020290772356
 20
-88.89345429635303
 30
0.0
 10
10.5020290772356
 20
-89.99795190892412
 30
0.0
 10
10.5020290772356
 20
-91.10244952149523
 30
0.0
 10
11.39706488430351
 20
-91.99817434766018
 30
0.0
 10
12.50225151597166
 20
-91.99817434766018
 30
0.0
 10
13.60674912854276
 20
-91.99817434766018
 30
0.0
 10
14.50178493561067
 20
-91.10244952149523
 30
0.0
 10
14.50178493561067
 20
-89.99795190892412
 30
0.0
  0
SPLINE
  5
74
330
6A
100
AcDbEntity
  8
Layer 1
370
     0
100
AcDbSpline
210
0.0
220
0.0
230
1.0
 70
    11
 71
     3
 72
    17
 73
    13
 74
     0
 42
0.0000000001
 43
0.0000000001
 40
0.0
 40
0.0
 40
0.0
 40
0.0
 40
1.0
 40
1.0
 40
1.0
 40
2.0
 40
2.0
 40
2.0
 40
3.0
 40
3.0
 40
3.0
 40
4.0
 40
4.0
 40
4.0
 40
4.0
 10
49.5017157536836
 20
-120.9979546138477
 30
0.0
 10
49.5017157536836
 20
-117.6844617761344
 30
0.0
 10
46.81523029428578
 20
-114.9979763167366
 30
0.0
 10
43.50173745657249
 20
-114.9979763167366
 30
0.0
 10
40.18824461885919
 20
-114.9979763167366
 30
0.0
 10
37.50175915946136
 20
-117.6844617761344
 30
0.0
 10
37.50175915946136
 20
-120.9979546138477
 30
0.0
 10
37.50175915946136
 20
-124.311447451561
 30
0.0
 10
40.18824461885919
 20
-126.9979329109589
 30
0.0
 10
43.50173745657249
 20
-126.9979329109589
 30
0.0
 10
46.81523029428578
 20
-126.9979329109589
 30
0.0
 10
49.5017157536836
 20
-124.311447451561
 30
0.0
 10
49.5017157536836
 20
-120.9979546138477
 30
0.0
  0
SPLINE
  5
75
330
6A
100
AcDbEntity
  8
Layer 1
370
     0
100
AcDbSpline
210
0.0
220
0.0
230
1.0
 70
    11
 71
     3
 72
    50
 73
    46
 74
     0
 42
0.0000000001
 43
0.0000000001
 40
0.0
 40
0.0
 40
0.0
 40
0.0
 40
1.0
 40
1.0
 40
1.0
 40
2.0
 40
2.0
 40
2.0
 40
3.0
 40
3.0
 40
3.0
 40
4.0
 40
4.0
 40
4.0
 40
5.0
 40
5.0
 40
5.0
 40
6.0
 40
6.0
 40
6.0
 40
7.0
 40
7.0
 40
7.0
 40
8.0
 40
8.0
 40
8.0
 40
9.0
 40
9.0
 40
9.0
 40
10.0
 40
10.0
 40
10.0
 40
11.0
 40
11.0
 40
11.0
 40
12.0
 40
12.0
 40
12.0
 40
13.0
 40
13.0
 40
13.0
 40
14.0
 40
14.0
 40
14.0
 40
15.0
 40
15.0
 40
15.0
 40
15.0
 10
92.99966360522231
 20
-136.9993896141877
 30
0.0
 10
92.99966360522231
 20
-136.9993896141877
 30
0.0
 10
95.49976939886811
 20
-141.9989121823822
 30
0.0
 10
95.49976939886811
 20
-141.9989121823822
 30
0.0
 10
95.49976939886811
 20
-141.9989121823822
 30
0.0
 10
2.499761284097282
 20
-141.9989121823822
 30
0.0
 10
2.499761284097282
 20
-141.9989121823822
 30
0.0
 10
2.499761284097282
 20
-141.9989121823822
 30
0.0
 10
2.499761284097282
 20
-80.0002848107291
 30
0.0
 10
2.499761284097282
 20
-80.0002848107291
 30
0.0
 10
2.499761284097282
 20
-80.0002848107291
 30
0.0
 10
2.499761284097282
 20
-79.998906772535
 30
0.0
 10
2.499761284097282
 20
-79.998906772535
 30
0.0
 10
2.499761284097282
 20
-79.998906772535
 30
0.0
 10
2.499761284097282
 20
-74.99972871388896
 30
0.0
 10
2.499761284097282
 20
-74.99972871388896
 30
0.0
 10
2.499761284097282
 20
-74.99972871388896
 30
0.0
 10
2.499761284097282
 20
-69.99951712659734
 30
0.0
 10
7.499972871388896
 20
-69.99951712659734
 30
0.0
 10
7.499972871388896
 20
-69.99951712659734
 30
0.0
 10
37.49969210217021
 20
-69.99951712659734
 30
0.0
 10
37.49969210217021
 20
-69.99951712659734
 30
0.0
 10
42.49990368946183
 20
-69.99951712659734
 30
0.0
 10
42.49990368946183
 20
-74.99972871388896
 30
0.0
 10
42.49990368946183
 20
-74.99972871388896
 30
0.0
 10
42.49990368946183
 20
-74.99972871388896
 30
0.0
 10
42.49990368946183
 20
-79.99959579163205
 30
0.0
 10
42.49990368946183
 20
-79.99959579163205
 30
0.0
 10
42.49990368946183
 20
-79.99959579163205
 30
0.0
 10
66.49947236835777
 20
-79.99959579163205
 30
0.0
 10
66.49947236835777
 20
-79.99959579163205
 30
0.0
 10
66.49947236835777
 20
-79.99959579163205
 30
0.0
 10
66.49947236835777
 20
-79.99959579163205
 30
0.0
 10
66.49947236835777
 20
-79.99959579163205
 30
0.0
 10
66.4998168779063
 20
-102.0905815716996
 30
0.0
 10
84.40880124842906
 20
-119.9992214326738
 30
0.0
 10
106.4999592832709
 20
-119.9992214326738
 30
0.0
 10
106.4999592832709
 20
-119.9992214326738
 30
0.0
 10
106.4999592832709
 20
-121.9990993618613
 30
0.0
 10
106.4999592832709
 20
-121.9990993618613
 30
0.0
 10
106.4999592832709
 20
-121.9990993618613
 30
0.0
 10
106.4999592832709
 20
-136.9987005950906
 30
0.0
 10
106.4999592832709
 20
-136.9987005950906
 30
0.0
 10
106.4999592832709
 20
-136.9987005950906
 30
0.0
 10
92.99966360522231
 20
-136.9993896141877
 30
0.0
 10
92.99966360522231
 20
-136.9993896141877
 30
0.0
  0
SPLINE
  5
76
330
6A
100
AcDbEntity
  8
Layer 1
370
     0
100
AcDbSpline
210
0.0
220
0.0
230
1.0
 70
    11
 71
     3
 72
    29
 73
    25
 74
     0
 42
0.0000000001
 43
0.0000000001
 40
0.0
 40
0.0
 40
0.0
 40
0.0
 40
1.0
 40
1.0
 40
1.0
 40
2.0
 40
2.0
 40
2.0
 40
3.0
 40
3.0
 40
3.0
 40
4.0
 40
4.0
 40
4.0
 40
5.0
 40
5.0
 40
5.0
 40
6.0
 40
6.0
 40
6.0
 40
7.0
 40
7.0
 40
7.0
 40
8.0
 40
8.0
 40
8.0
 40
8.0
 10
14.99994574277779
 20
-129.9982665690629
 30
0.0
 10
14.99994574277779
 20
-129.4460177627774
 30
0.0
 10
14.55277234879236
 20
-128.9984998592434
 30
0.0
 10
14.00017903295829
 20
-128.9984998592434
 30
0.0
 10
14.00017903295829
 20
-128.9984998592434
 30
0.0
 10
11.00018988440273
 20
-128.9984998592434
 30
0.0
 10
11.00018988440273
 20
-128.9984998592434
 30
0.0
 10
10.44828558766571
 20
-128.9984998592434
 30
0.0
 10
10.00042317458323
 20
-129.4460177627774
 30
0.0
 10
10.00042317458323
 20
-129.9982665690629
 30
0.0
 10
10.00042317458323
 20
-129.9982665690629
 30
0.0
 10
10.00042317458323
 20
-135.998244866174
 30
0.0
 10
10.00042317458323
 20
-135.998244866174
 30
0.0
 10
10.00042317458323
 20
-136.5504936724596
 30
0.0
 10
10.44828558766571
 20
-136.9983560855421
 30
0.0
 10
11.00018988440273
 20
-136.9983560855421
 30
0.0
 10
11.00018988440273
 20
-136.9983560855421
 30
0.0
 10
14.00017903295829
 20
-136.9983560855421
 30
0.0
 10
14.00017903295829
 20
-136.9983560855421
 30
0.0
 10
14.55277234879236
 20
-136.9983560855421
 30
0.0
 10
14.99994574277779
 20
-136.5504936724596
 30
0.0
 10
14.99994574277779
 20
-135.998244866174
 30
0.0
 10
14.99994574277779
 20
-135.998244866174
 30
0.0
 10
14.99994574277779
 20
-129.9982665690629
 30
0.0
 10
14.99994574277779
 20
-129.9982665690629
 30
0.0
  0
ENDBLK
  5
6D
330
6A
100
AcDbEntity
  8
0
100
AcDbBlockEnd
  0
BLOCK
  5
79
330
77
100
AcDbEntity
  8
0
100
AcDbBlockBegin
  2
block 7
 70
     0
 71
     0
 10
0.0
 20
0.0
 30
0.0
  3
block 7
  1

  0
SPLINE
  5
7B
330
77
100
AcDbEntity
  8
Layer 1
370
     0
100
AcDbSpline
210
0.0
220
0.0
230
1.0
 70
    11
 71
     3
 72
    17
 73
    13
 74
     0
 42
0.0000000001
 43
0.0000000001
 40
0.0
 40
0.0
 40
0.0
 40
0.0
 40
1.0
 40
1.0
 40
1.0
 40
2.0
 40
2.0
 40
2.0
 40
3.0
 40
3.0
 40
3.0
 40
4.0
 40
4.0
 40
4.0
 40
4.0
 10
93.49868568626074
 20
-188.4987439849934
 30
0.0
 10
93.49868568626074
 20
-189.0513373008274
 30
0.0
 10
93.9462035897947
 20
-189.4991997139099
 30
0.0
 10
94.49845239608025
 20
-189.4991997139099
 30
0.0
 10
95.0507012023658
 20
-189.4991997139099
 30
0.0
 10
95.49856361544828
 20
-189.0513373008274
 30
0.0
 10
95.49856361544828
 20
-188.4987439849934
 30
0.0
 10
95.49856361544828
 20
-187.9468396882563
 30
0.0
 10
95.0507012023658
 20
-187.4989772751739
 30
0.0
 10
94.49845239608025
 20
-187.4989772751739
 30
0.0
 10
93.9462035897947
 20
-187.4989772751739
 30
0.0
 10
93.49868568626074
 20
-187.9468396882563
 30
0.0
 10
93.49868568626074
 20
-188.4987439849934
 30
0.0
  0
SPLINE
  5
7C
330
77
100
AcDbEntity
  8
Layer 1
370
     0
100
AcDbSpline
210
0.0
220
0.0
230
1.0
 70
    11
 71
     3
 72
    17
 73
    13
 74
     0
 42
0.0000000001
 43
0.0000000001
 40
0.0
 40
0.0
 40
0.0
 40
0.0
 40
1.0
 40
1.0
 40
1.0
 40
2.0
 40
2.0
 40
2.0
 40
3.0
 40
3.0
 40
3.0
 40
4.0
 40
4.0
 40
4.0
 40
4.0
 10
83.49860702122605
 20
-188.5011555518331
 30
0.0
 10
83.49860702122605
 20
-189.0537488676671
 30
0.0
 10
83.94612492476
 20
-189.5016112807496
 30
0.0
 10
84.49837373104555
 20
-189.5016112807496
 30
0.0
 10
85.0506225373311
 20
-189.5016112807496
 30
0.0
 10
85.49848495041358
 20
-189.0537488676671
 30
0.0
 10
85.49848495041358
 20
-188.5011555518331
 30
0.0
 10
85.49848495041358
 20
-187.949251255096
 30
0.0
 10
85.0506225373311
 20
-187.5013888420135
 30
0.0
 10
84.49837373104555
 20
-187.5013888420135
 30
0.0
 10
83.94612492476
 20
-187.5013888420135
 30
0.0
 10
83.49860702122605
 20
-187.949251255096
 30
0.0
 10
83.49860702122605
 20
-188.5011555518331
 30
0.0
  0
SPLINE
  5
7D
330
77
100
AcDbEntity
  8
Layer 1
370
     0
100
AcDbSpline
210
0.0
220
0.0
230
1.0
 70
    11
 71
     3
 72
    20
 73
    16
 74
     0
 42
0.0000000001
 43
0.0000000001
 40
0.0
 40
0.0
 40
0.0
 40
0.0
 40
1.0
 40
1.0
 40
1.0
 40
2.0
 40
2.0
 40
2.0
 40
3.0
 40
3.0
 40
3.0
 40
4.0
 40
4.0
 40
4.0
 40
5.0
 40
5.0
 40
5.0
 40
5.0
 10
106.5011650666907
 20
-144.499017976028
 30
0.0
 10
106.5011650666907
 20
-144.499017976028
 30
0.0
 10
106.5011650666907
 20
-174.4992539711321
 30
0.0
 10
106.5011650666907
 20
-184.4989881266183
 30
0.0
 10
106.5011650666907
 20
-184.4989881266183
 30
0.0
 10
106.8029554311986
 20
-194.4994113012015
 30
0.0
 10
97.00096975656574
 20
-194.4994113012015
 30
0.0
 10
97.00096975656574
 20
-194.4994113012015
 30
0.0
 10
55.50100503169767
 20
-194.4994113012015
 30
0.0
 10
55.50100503169767
 20
-194.4994113012015
 30
0.0
 10
55.50100503169767
 20
-194.4994113012015
 30
0.0
 10
55.50100503169767
 20
-144.499017976028
 30
0.0
 10
55.50100503169767
 20
-144.499017976028
 30
0.0
 10
55.50100503169767
 20
-144.499017976028
 30
0.0
 10
106.5011650666907
 20
-144.499017976028
 30
0.0
 10
106.5011650666907
 20
-144.499017976028
 30
0.0
  0
SPLINE
  5
7E
330
77
100
AcDbEntity
  8
Layer 1
370
     0
100
AcDbSpline
210
0.0
220
0.0
230
1.0
 70
    11
 71
     3
 72
    17
 73
    13
 74
     0
 42
0.0000000001
 43
0.0000000001
 40
0.0
 40
0.0
 40
0.0
 40
0.0
 40
1.0
 40
1.0
 40
1.0
 40
2.0
 40
2.0
 40
2.0
 40
3.0
 40
3.0
 40
3.0
 40
4.0
 40
4.0
 40
4.0
 40
4.0
 10
97.99970293773966
 20
-174.5002874997777
 30
0.0
 10
97.99970293773966
 20
-175.3284884544318
 30
0.0
 10
97.32825382766447
 20
-175.999937564507
 30
0.0
 10
96.49970836346188
 20
-175.999937564507
 30
0.0
 10
95.6711628992593
 20
-175.999937564507
 30
0.0
 10
94.9997137891841
 20
-175.3284884544318
 30
0.0
 10
94.9997137891841
 20
-174.5002874997777
 30
0.0
 10
94.9997137891841
 20
-173.6713975260266
 30
0.0
 10
95.6711628992593
 20
-173.0002929254999
 30
0.0
 10
96.49970836346188
 20
-173.0002929254999
 30
0.0
 10
97.32825382766447
 20
-173.0002929254999
 30
0.0
 10
97.99970293773966
 20
-173.6713975260266
 30
0.0
 10
97.99970293773966
 20
-174.5002874997777
 30
0.0
  0
SPLINE
  5
7F
330
77
100
AcDbEntity
  8
Layer 1
370
     0
100
AcDbSpline
210
0.0
220
0.0
230
1.0
 70
    11
 71
     3
 72
    17
 73
    13
 74
     0
 42
0.0000000001
 43
0.0000000001
 40
0.0
 40
0.0
 40
0.0
 40
0.0
 40
1.0
 40
1.0
 40
1.0
 40
2.0
 40
2.0
 40
2.0
 40
3.0
 40
3.0
 40
3.0
 40
4.0
 40
4.0
 40
4.0
 40
4.0
 10
67.49855005908023
 20
-154.4994411506113
 30
0.0
 10
67.49855005908023
 20
-155.6039387631824
 30
0.0
 10
66.60316974246379
 20
-156.4996635893473
 30
0.0
 10
65.4986721298927
 20
-156.4996635893473
 30
0.0
 10
64.3941745173216
 20
-156.4996635893473
 30
0.0
 10
63.49844969115664
 20
-155.6039387631824
 30
0.0
 10
63.49844969115664
 20
-154.4994411506113
 30
0.0
 10
63.49844969115664
 20
-153.3949435380402
 30
0.0
 10
64.3941745173216
 20
-152.4992187118752
 30
0.0
 10
65.4986721298927
 20
-152.4992187118752
 30
0.0
 10
66.60316974246379
 20
-152.4992187118752
 30
0.0
 10
67.49855005908023
 20
-153.3949435380402
 30
0.0
 10
67.49855005908023
 20
-154.4994411506113
 30
0.0
  0
SPLINE
  5
80
330
77
100
AcDbEntity
  8
Layer 1
370
     0
100
AcDbSpline
210
0.0
220
0.0
230
1.0
 70
    11
 71
     3
 72
    17
 73
    13
 74
     0
 42
0.0000000001
 43
0.0000000001
 40
0.0
 40
0.0
 40
0.0
 40
0.0
 40
1.0
 40
1.0
 40
1.0
 40
2.0
 40
2.0
 40
2.0
 40
3.0
 40
3.0
 40
3.0
 40
4.0
 40
4.0
 40
4.0
 40
4.0
 10
67.49855005908023
 20
-174.4989094615836
 30
0.0
 10
67.49855005908023
 20
-175.6034070741547
 30
0.0
 10
66.60316974246379
 20
-176.4994764098682
 30
0.0
 10
65.4986721298927
 20
-176.4994764098682
 30
0.0
 10
64.3941745173216
 20
-176.4994764098682
 30
0.0
 10
63.49844969115664
 20
-175.6034070741547
 30
0.0
 10
63.49844969115664
 20
-174.4989094615836
 30
0.0
 10
63.49844969115664
 20
-173.3944118490125
 30
0.0
 10
64.3941745173216
 20
-172.4993760419446
 30
0.0
 10
65.4986721298927
 20
-172.4993760419446
 30
0.0
 10
66.60316974246379
 20
-172.4993760419446
 30
0.0
 10
67.49855005908023
 20
-173.3944118490125
 30
0.0
 10
67.49855005908023
 20
-174.4989094615836
 30
0.0
  0
SPLINE
  5
81
330
77
100
AcDbEntity
  8
Layer 1
370
     0
100
AcDbSpline
210
0.0
220
0.0
230
1.0
 70
    11
 71
     3
 72
    17
 73
    13
 74
     0
 42
0.0000000001
 43
0.0000000001
 40
0.0
 40
0.0
 40
0.0
 40
0.0
 40
1.0
 40
1.0
 40
1.0
 40
2.0
 40
2.0
 40
2.0
 40
3.0
 40
3.0
 40
3.0
 40
4.0
 40
4.0
 40
4.0
 40
4.0
 10
98.50096433084352
 20
-154.4994411506113
 30
0.0
 10
98.50096433084352
 20
-155.6039387631824
 30
0.0
 10
97.60558401422708
 20
-156.4996635893473
 30
0.0
 10
96.50108640165598
 20
-156.4996635893473
 30
0.0
 10
95.39658878908489
 20
-156.4996635893473
 30
0.0
 10
94.50086396291992
 20
-155.6039387631824
 30
0.0
 10
94.50086396291992
 20
-154.4994411506113
 30
0.0
 10
94.50086396291992
 20
-153.3949435380402
 30
0.0
 10
95.39658878908489
 20
-152.4992187118752
 30
0.0
 10
96.50108640165598
 20
-152.4992187118752
 30
0.0
 10
97.60558401422708
 20
-152.4992187118752
 30
0.0
 10
98.50096433084352
 20
-153.3949435380402
 30
0.0
 10
98.50096433084352
 20
-154.4994411506113
 30
0.0
  0
SPLINE
  5
82
330
77
100
AcDbEntity
  8
Layer 1
370
     0
100
AcDbSpline
210
0.0
220
0.0
230
1.0
 70
    11
 71
     3
 72
    29
 73
    25
 74
     0
 42
0.0000000001
 43
0.0000000001
 40
0.0
 40
0.0
 40
0.0
 40
0.0
 40
1.0
 40
1.0
 40
1.0
 40
2.0
 40
2.0
 40
2.0
 40
3.0
 40
3.0
 40
3.0
 40
4.0
 40
4.0
 40
4.0
 40
5.0
 40
5.0
 40
5.0
 40
6.0
 40
6.0
 40
6.0
 40
7.0
 40
7.0
 40
7.0
 40
8.0
 40
8.0
 40
8.0
 40
8.0
 10
68.00084498082965
 20
-188.4994330040904
 30
0.0
 10
68.00084498082965
 20
-189.0513373008274
 30
0.0
 10
67.5533270772957
 20
-189.4991997139099
 30
0.0
 10
67.00107827101014
 20
-189.4991997139099
 30
0.0
 10
67.00107827101014
 20
-189.4991997139099
 30
0.0
 10
64.00108912245459
 20
-189.4991997139099
 30
0.0
 10
64.00108912245459
 20
-189.4991997139099
 30
0.0
 10
63.44884031616904
 20
-189.4991997139099
 30
0.0
 10
63.00097790308656
 20
-189.0513373008274
 30
0.0
 10
63.00097790308656
 20
-188.4994330040904
 30
0.0
 10
63.00097790308656
 20
-188.4994330040904
 30
0.0
 10
63.00097790308656
 20
-182.4994547069793
 30
0.0
 10
63.00097790308656
 20
-182.4994547069793
 30
0.0
 10
63.00097790308656
 20
-181.9468613911452
 30
0.0
 10
63.44884031616904
 20
-181.4989989780628
 30
0.0
 10
64.00108912245459
 20
-181.4989989780628
 30
0.0
 10
64.00108912245459
 20
-181.4989989780628
 30
0.0
 10
67.00107827101014
 20
-181.4989989780628
 30
0.0
 10
67.00107827101014
 20
-181.4989989780628
 30
0.0
 10
67.5533270772957
 20
-181.4989989780628
 30
0.0
 10
68.00084498082965
 20
-181.9468613911452
 30
0.0
 10
68.00084498082965
 20
-182.4994547069793
 30
0.0
 10
68.00084498082965
 20
-182.4994547069793
 30
0.0
 10
68.00084498082965
 20
-188.4994330040904
 30
0.0
 10
68.00084498082965
 20
-188.4994330040904
 30
0.0
  0
ENDBLK
  5
7A
330
77
100
AcDbEntity
  8
0
100
AcDbBlockEnd
  0
BLOCK
  5
85
330
83
100
AcDbEntity
  8
0
100
AcDbBlockBegin
  2
block 8
 70
     0
 71
     0
 10
0.0
 20
0.0
 30
0.0
  3
block 8
  1

  0
SPLINE
  5
87
330
83
100
AcDbEntity
  8
Layer 1
370
     0
100
AcDbSpline
210
0.0
220
0.0
230
1.0
 70
    11
 71
     3
 72
    17
 73
    13
 74
     0
 42
0.0000000001
 43
0.0000000001
 40
0.0
 40
0.0
 40
0.0
 40
0.0
 40
1.0
 40
1.0
 40
1.0
 40
2.0
 40
2.0
 40
2.0
 40
3.0
 40
3.0
 40
3.0
 40
4.0
 40
4.0
 40
4.0
 40
4.0
 10
40.49761419343463
 20
-188.4987439849934
 30
0.0
 10
40.49761419343463
 20
-189.0513373008274
 30
0.0
 10
40.94478758742005
 20
-189.4991997139099
 30
0.0
 10
41.49738090325413
 20
-189.4991997139099
 30
0.0
 10
42.04928519999115
 20
-189.4991997139099
 30
0.0
 10
42.49714761307363
 20
-189.0513373008274
 30
0.0
 10
42.49714761307363
 20
-188.4987439849934
 30
0.0
 10
42.49714761307363
 20
-187.9468396882563
 30
0.0
 10
42.04928519999115
 20
-187.4989772751739
 30
0.0
 10
41.49738090325413
 20
-187.4989772751739
 30
0.0
 10
40.94478758742005
 20
-187.4989772751739
 30
0.0
 10
40.49761419343463
 20
-187.9468396882563
 30
0.0
 10
40.49761419343463
 20
-188.4987439849934
 30
0.0
  0
SPLINE
  5
88
330
83
100
AcDbEntity
  8
Layer 1
370
     0
100
AcDbSpline
210
0.0
220
0.0
230
1.0
 70
    11
 71
     3
 72
    17
 73
    13
 74
     0
 42
0.0000000001
 43
0.0000000001
 40
0.0
 40
0.0
 40
0.0
 40
0.0
 40
1.0
 40
1.0
 40
1.0
 40
2.0
 40
2.0
 40
2.0
 40
3.0
 40
3.0
 40
3.0
 40
4.0
 40
4.0
 40
4.0
 40
4.0
 10
30.4971910188514
 20
-188.5015000613816
 30
0.0
 10
30.4971910188514
 20
-189.0540933772157
 30
0.0
 10
30.94505343193388
 20
-189.5019557902981
 30
0.0
 10
31.4969577286709
 20
-189.5019557902981
 30
0.0
 10
32.04955104450497
 20
-189.5019557902981
 30
0.0
 10
32.49741345758746
 20
-189.0540933772157
 30
0.0
 10
32.49741345758746
 20
-188.5015000613816
 30
0.0
 10
32.49741345758746
 20
-187.9495957646446
 30
0.0
 10
32.04955104450497
 20
-187.5017333515621
 30
0.0
 10
31.4969577286709
 20
-187.5017333515621
 30
0.0
 10
30.94505343193388
 20
-187.5017333515621
 30
0.0
 10
30.4971910188514
 20
-187.9495957646446
 30
0.0
 10
30.4971910188514
 20
-188.5015000613816
 30
0.0
  0
SPLINE
  5
89
330
83
100
AcDbEntity
  8
Layer 1
370
     0
100
AcDbSpline
210
0.0
220
0.0
230
1.0
 70
    11
 71
     3
 72
    20
 73
    16
 74
     0
 42
0.0000000001
 43
0.0000000001
 40
0.0
 40
0.0
 40
0.0
 40
0.0
 40
1.0
 40
1.0
 40
1.0
 40
2.0
 40
2.0
 40
2.0
 40
3.0
 40
3.0
 40
3.0
 40
4.0
 40
4.0
 40
4.0
 40
5.0
 40
5.0
 40
5.0
 40
5.0
 10
53.50009357386456
 20
-144.499017976028
 30
0.0
 10
53.50009357386456
 20
-144.499017976028
 30
0.0
 10
53.50009357386456
 20
-174.4992539711321
 30
0.0
 10
53.50009357386456
 20
-184.4989881266183
 30
0.0
 10
53.50009357386456
 20
-184.4989881266183
 30
0.0
 10
53.80188393837245
 20
-194.4994113012015
 30
0.0
 10
43.99989826373961
 20
-194.4994113012015
 30
0.0
 10
43.99989826373961
 20
-194.4994113012015
 30
0.0
 10
2.499933538871545
 20
-194.4994113012015
 30
0.0
 10
2.499933538871545
 20
-194.4994113012015
 30
0.0
 10
2.499933538871545
 20
-194.4994113012015
 30
0.0
 10
2.499933538871545
 20
-144.499017976028
 30
0.0
 10
2.499933538871545
 20
-144.499017976028
 30
0.0
 10
2.499933538871545
 20
-144.499017976028
 30
0.0
 10
53.50009357386456
 20
-144.499017976028
 30
0.0
 10
53.50009357386456
 20
-144.499017976028
 30
0.0
  0
SPLINE
  5
8A
330
83
100
AcDbEntity
  8
Layer 1
370
     0
100
AcDbSpline
210
0.0
220
0.0
230
1.0
 70
    11
 71
     3
 72
    17
 73
    13
 74
     0
 42
0.0000000001
 43
0.0000000001
 40
0.0
 40
0.0
 40
0.0
 40
0.0
 40
1.0
 40
1.0
 40
1.0
 40
2.0
 40
2.0
 40
2.0
 40
3.0
 40
3.0
 40
3.0
 40
4.0
 40
4.0
 40
4.0
 40
4.0
 10
44.99828693536502
 20
-174.5006320093262
 30
0.0
 10
44.99828693536502
 20
-175.3288329639803
 30
0.0
 10
44.32718233483835
 20
-175.999937564507
 30
0.0
 10
43.49829236108724
 20
-175.999937564507
 30
0.0
 10
42.67009140643317
 20
-175.999937564507
 30
0.0
 10
41.99829778680945
 20
-175.3288329639803
 30
0.0
 10
41.99829778680945
 20
-174.5006320093262
 30
0.0
 10
41.99829778680945
 20
-173.6717420355751
 30
0.0
 10
42.67009140643317
 20
-173.0006374350484
 30
0.0
 10
43.49829236108724
 20
-173.0006374350484
 30
0.0
 10
44.32718233483835
 20
-173.0006374350484
 30
0.0
 10
44.99828693536502
 20
-173.6717420355751
 30
0.0
 10
44.99828693536502
 20
-174.5006320093262
 30
0.0
  0
SPLINE
  5
8B
330
83
100
AcDbEntity
  8
Layer 1
370
     0
100
AcDbSpline
210
0.0
220
0.0
230
1.0
 70
    11
 71
     3
 72
    17
 73
    13
 74
     0
 42
0.0000000001
 43
0.0000000001
 40
0.0
 40
0.0
 40
0.0
 40
0.0
 40
1.0
 40
1.0
 40
1.0
 40
2.0
 40
2.0
 40
2.0
 40
3.0
 40
3.0
 40
3.0
 40
4.0
 40
4.0
 40
4.0
 40
4.0
 10
14.4974785662541
 20
-154.4994411506113
 30
0.0
 10
14.4974785662541
 20
-155.6039387631824
 30
0.0
 10
13.60209824963767
 20
-156.4996635893473
 30
0.0
 10
12.49760063706657
 20
-156.4996635893473
 30
0.0
 10
11.39310302449547
 20
-156.4996635893473
 30
0.0
 10
10.49737819833052
 20
-155.6039387631824
 30
0.0
 10
10.49737819833052
 20
-154.4994411506113
 30
0.0
 10
10.49737819833052
 20
-153.3949435380402
 30
0.0
 10
11.39310302449547
 20
-152.4992187118752
 30
0.0
 10
12.49760063706657
 20
-152.4992187118752
 30
0.0
 10
13.60209824963767
 20
-152.4992187118752
 30
0.0
 10
14.4974785662541
 20
-153.3949435380402
 30
0.0
 10
14.4974785662541
 20
-154.4994411506113
 30
0.0
  0
SPLINE
  5
8C
330
83
100
AcDbEntity
  8
Layer 1
370
     0
100
AcDbSpline
210
0.0
220
0.0
230
1.0
 70
    11
 71
     3
 72
    17
 73
    13
 74
     0
 42
0.0000000001
 43
0.0000000001
 40
0.0
 40
0.0
 40
0.0
 40
0.0
 40
1.0
 40
1.0
 40
1.0
 40
2.0
 40
2.0
 40
2.0
 40
3.0
 40
3.0
 40
3.0
 40
4.0
 40
4.0
 40
4.0
 40
4.0
 10
14.4974785662541
 20
-174.4992539711321
 30
0.0
 10
14.4974785662541
 20
-175.6037515837032
 30
0.0
 10
13.60209824963767
 20
-176.4994764098682
 30
0.0
 10
12.49760063706657
 20
-176.4994764098682
 30
0.0
 10
11.39310302449547
 20
-176.4994764098682
 30
0.0
 10
10.49737819833052
 20
-175.6037515837032
 30
0.0
 10
10.49737819833052
 20
-174.4992539711321
 30
0.0
 10
10.49737819833052
 20
-173.394756358561
 30
0.0
 10
11.39310302449547
 20
-172.4997205514931
 30
0.0
 10
12.49760063706657
 20
-172.4997205514931
 30
0.0
 10
13.60209824963767
 20
-172.4997205514931
 30
0.0
 10
14.4974785662541
 20
-173.394756358561
 30
0.0
 10
14.4974785662541
 20
-174.4992539711321
 30
0.0
  0
SPLINE
  5
8D
330
83
100
AcDbEntity
  8
Layer 1
370
     0
100
AcDbSpline
210
0.0
220
0.0
230
1.0
 70
    11
 71
     3
 72
    17
 73
    13
 74
     0
 42
0.0000000001
 43
0.0000000001
 40
0.0
 40
0.0
 40
0.0
 40
0.0
 40
1.0
 40
1.0
 40
1.0
 40
2.0
 40
2.0
 40
2.0
 40
3.0
 40
3.0
 40
3.0
 40
4.0
 40
4.0
 40
4.0
 40
4.0
 10
45.49989283801739
 20
-154.4994411506113
 30
0.0
 10
45.49989283801739
 20
-155.6039387631824
 30
0.0
 10
44.60416801185243
 20
-156.4996635893473
 30
0.0
 10
43.49967039928134
 20
-156.4996635893473
 30
0.0
 10
42.39517278671023
 20
-156.4996635893473
 30
0.0
 10
41.49944796054528
 20
-155.6039387631824
 30
0.0
 10
41.49944796054528
 20
-154.4994411506113
 30
0.0
 10
41.49944796054528
 20
-153.3949435380402
 30
0.0
 10
42.39517278671023
 20
-152.4992187118752
 30
0.0
 10
43.49967039928134
 20
-152.4992187118752
 30
0.0
 10
44.60416801185243
 20
-152.4992187118752
 30
0.0
 10
45.49989283801739
 20
-153.3949435380402
 30
0.0
 10
45.49989283801739
 20
-154.4994411506113
 30
0.0
  0
SPLINE
  5
8E
330
83
100
AcDbEntity
  8
Layer 1
370
     0
100
AcDbSpline
210
0.0
220
0.0
230
1.0
 70
    11
 71
     3
 72
    29
 73
    25
 74
     0
 42
0.0000000001
 43
0.0000000001
 40
0.0
 40
0.0
 40
0.0
 40
0.0
 40
1.0
 40
1.0
 40
1.0
 40
2.0
 40
2.0
 40
2.0
 40
3.0
 40
3.0
 40
3.0
 40
4.0
 40
4.0
 40
4.0
 40
5.0
 40
5.0
 40
5.0
 40
6.0
 40
6.0
 40
6.0
 40
7.0
 40
7.0
 40
7.0
 40
8.0
 40
8.0
 40
8.0
 40
8.0
 10
14.99977348800353
 20
-188.4994330040904
 30
0.0
 10
14.99977348800353
 20
-189.0513373008274
 30
0.0
 10
14.55225558446958
 20
-189.4991997139099
 30
0.0
 10
14.00000677818403
 20
-189.4991997139099
 30
0.0
 10
14.00000677818403
 20
-189.4991997139099
 30
0.0
 10
11.00001762962847
 20
-189.4991997139099
 30
0.0
 10
11.00001762962847
 20
-189.4991997139099
 30
0.0
 10
10.44776882334292
 20
-189.4991997139099
 30
0.0
 10
9.99990641026044
 20
-189.0513373008274
 30
0.0
 10
9.99990641026044
 20
-188.4994330040904
 30
0.0
 10
9.99990641026044
 20
-188.4994330040904
 30
0.0
 10
9.99990641026044
 20
-182.4994547069793
 30
0.0
 10
9.99990641026044
 20
-182.4994547069793
 30
0.0
 10
9.99990641026044
 20
-181.9468613911452
 30
0.0
 10
10.44776882334292
 20
-181.4989989780628
 30
0.0
 10
11.00001762962847
 20
-181.4989989780628
 30
0.0
 10
11.00001762962847
 20
-181.4989989780628
 30
0.0
 10
14.00000677818403
 20
-181.4989989780628
 30
0.0
 10
14.00000677818403
 20
-181.4989989780628
 30
0.0
 10
14.55225558446958
 20
-181.4989989780628
 30
0.0
 10
14.99977348800353
 20
-181.9468613911452
 30
0.0
 10
14.99977348800353
 20
-182.4994547069793
 30
0.0
 10
14.99977348800353
 20
-182.4994547069793
 30
0.0
 10
14.99977348800353
 20
-188.4994330040904
 30
0.0
 10
14.99977348800353
 20
-188.4994330040904
 30
0.0
  0
ENDBLK
  5
86
330
83
100
AcDbEntity
  8
0
100
AcDbBlockEnd
  0
BLOCK
  5
91
330
8F
100
AcDbEntity
  8
0
100
AcDbBlockBegin
  2
block 9
 70
     0
 71
     0
 10
0.0
 20
0.0
 30
0.0
  3
block 9
  1

  0
SPLINE
  5
93
330
8F
100
AcDbEntity
  8
Layer 1
370
     0
100
AcDbSpline
210
0.0
220
0.0
230
1.0
 70
    11
 71
     3
 72
    17
 73
    13
 74
     0
 42
0.0000000001
 43
0.0000000001
 40
0.0
 40
0.0
 40
0.0
 40
0.0
 40
1.0
 40
1.0
 40
1.0
 40
2.0
 40
2.0
 40
2.0
 40
3.0
 40
3.0
 40
3.0
 40
4.0
 40
4.0
 40
4.0
 40
4.0
 10
112.0000542254722
 20
-131.4999836910833
 30
0.0
 10
111.1715087612696
 20
-131.4999836910833
 30
0.0
 10
110.5000596511944
 20
-130.8288790905567
 30
0.0
 10
110.5000596511944
 20
-129.9999891168056
 30
0.0
 10
110.5000596511944
 20
-129.1717881621515
 30
0.0
 10
111.1715087612696
 20
-128.4999945425278
 30
0.0
 10
112.0000542254722
 20
-128.4999945425278
 30
0.0
 10
112.8285996896748
 20
-128.4999945425278
 30
0.0
 10
113.50004879975
 20
-129.1717881621515
 30
0.0
 10
113.50004879975
 20
-129.9999891168056
 30
0.0
 10
113.50004879975
 20
-130.8288790905567
 30
0.0
 10
112.8285996896748
 20
-131.4999836910833
 30
0.0
 10
112.0000542254722
 20
-131.4999836910833
 30
0.0
  0
SPLINE
  5
94
330
8F
100
AcDbEntity
  8
Layer 1
370
     0
100
AcDbSpline
210
0.0
220
0.0
230
1.0
 70
    11
 71
     3
 72
    17
 73
    13
 74
     0
 42
0.0000000001
 43
0.0000000001
 40
0.0
 40
0.0
 40
0.0
 40
0.0
 40
1.0
 40
1.0
 40
1.0
 40
2.0
 40
2.0
 40
2.0
 40
3.0
 40
3.0
 40
3.0
 40
4.0
 40
4.0
 40
4.0
 40
4.0
 10
112.0000542254722
 20
-132.4997504009029
 30
0.0
 10
110.6192599549841
 20
-132.4997504009029
 30
0.0
 10
109.4999484318264
 20
-131.3807833872937
 30
0.0
 10
109.4999484318264
 20
-129.9999891168056
 30
0.0
 10
109.4999484318264
 20
-128.6191948463174
 30
0.0
 10
110.6192599549841
 20
-127.5002278327083
 30
0.0
 10
112.0000542254722
 20
-127.5002278327083
 30
0.0
 10
113.3805039864118
 20
-127.5002278327083
 30
0.0
 10
114.500160019118
 20
-128.6191948463174
 30
0.0
 10
114.500160019118
 20
-129.9999891168056
 30
0.0
 10
114.500160019118
 20
-131.3807833872937
 30
0.0
 10
113.3805039864118
 20
-132.4997504009029
 30
0.0
 10
112.0000542254722
 20
-132.4997504009029
 30
0.0
  0
ENDBLK
  5
92
330
8F
100
AcDbEntity
  8
0
100
AcDbBlockEnd
  0
BLOCK
  5
97
330
95
100
AcDbEntity
  8
0
100
AcDbBlockBegin
  2
block 10
 70
     0
 71
     0
 10
0.0
 20
0.0
 30
0.0
  3
block 10
  1

  0
SPLINE
  5
99
330
95
100
AcDbEntity
  8
Layer 1
370
     0
100
AcDbSpline
210
0.0
220
0.0
230
1.0
 70
    11
 71
     3
 72
    20
 73
    16
 74
     0
 42
0.0000000001
 43
0.0000000001
 40
0.0
 40
0.0
 40
0.0
 40
0.0
 40
1.0
 40
1.0
 40
1.0
 40
2.0
 40
2.0
 40
2.0
 40
3.0
 40
3.0
 40
3.0
 40
4.0
 40
4.0
 40
4.0
 40
5.0
 40
5.0
 40
5.0
 40
5.0
 10
162.5010199246525
 20
-199.0000840431319
 30
0.0
 10
162.5010199246525
 20
-199.0000840431319
 30
0.0
 10
162.5010199246525
 20
-178.9999267130625
 30
0.0
 10
162.5010199246525
 20
-169.0001925575764
 30
0.0
 10
162.5010199246525
 20
-169.0001925575764
 30
0.0
 10
162.1992295601447
 20
-158.9994248734446
 30
0.0
 10
172.0012152347775
 20
-158.9994248734446
 30
0.0
 10
172.0012152347775
 20
-158.9994248734446
 30
0.0
 10
213.5011799596456
 20
-158.9994248734446
 30
0.0
 10
213.5011799596456
 20
-158.9994248734446
 30
0.0
 10
213.5011799596456
 20
-158.9994248734446
 30
0.0
 10
213.5011799596456
 20
-199.0000840431319
 30
0.0
 10
213.5011799596456
 20
-199.0000840431319
 30
0.0
 10
213.5011799596456
 20
-199.0000840431319
 30
0.0
 10
162.5010199246525
 20
-199.0000840431319
 30
0.0
 10
162.5010199246525
 20
-199.0000840431319
 30
0.0
  0
SPLINE
  5
9A
330
95
100
AcDbEntity
  8
Layer 1
370
     0
100
AcDbSpline
210
0.0
220
0.0
230
1.0
 70
    11
 71
     3
 72
    17
 73
    13
 74
     0
 42
0.0000000001
 43
0.0000000001
 40
0.0
 40
0.0
 40
0.0
 40
0.0
 40
1.0
 40
1.0
 40
1.0
 40
2.0
 40
2.0
 40
2.0
 40
3.0
 40
3.0
 40
3.0
 40
4.0
 40
4.0
 40
4.0
 40
4.0
 10
201.503634932263
 20
-188.9996608685487
 30
0.0
 10
201.503634932263
 20
-187.8951632559776
 30
0.0
 10
202.3990152488794
 20
-186.9994384298126
 30
0.0
 10
203.5035128614505
 20
-186.9994384298126
 30
0.0
 10
204.6080104740216
 20
-186.9994384298126
 30
0.0
 10
205.5037353001866
 20
-187.8951632559776
 30
0.0
 10
205.5037353001866
 20
-188.9996608685487
 30
0.0
 10
205.5037353001866
 20
-190.1041584811198
 30
0.0
 10
204.6080104740216
 20
-190.9998833072848
 30
0.0
 10
203.5035128614505
 20
-190.9998833072848
 30
0.0
 10
202.3990152488794
 20
-190.9998833072848
 30
0.0
 10
201.503634932263
 20
-190.1041584811198
 30
0.0
 10
201.503634932263
 20
-188.9996608685487
 30
0.0
  0
SPLINE
  5
9B
330
95
100
AcDbEntity
  8
Layer 1
370
     0
100
AcDbSpline
210
0.0
220
0.0
230
1.0
 70
    11
 71
     3
 72
    17
 73
    13
 74
     0
 42
0.0000000001
 43
0.0000000001
 40
0.0
 40
0.0
 40
0.0
 40
0.0
 40
1.0
 40
1.0
 40
1.0
 40
2.0
 40
2.0
 40
2.0
 40
3.0
 40
3.0
 40
3.0
 40
4.0
 40
4.0
 40
4.0
 40
4.0
 10
201.503634932263
 20
-168.9998480480278
 30
0.0
 10
201.503634932263
 20
-167.8953504354567
 30
0.0
 10
202.3990152488794
 20
-166.9996256092918
 30
0.0
 10
203.5035128614505
 20
-166.9996256092918
 30
0.0
 10
204.6080104740216
 20
-166.9996256092918
 30
0.0
 10
205.5037353001866
 20
-167.8953504354567
 30
0.0
 10
205.5037353001866
 20
-168.9998480480278
 30
0.0
 10
205.5037353001866
 20
-170.1043456605989
 30
0.0
 10
204.6080104740216
 20
-170.9993814676668
 30
0.0
 10
203.5035128614505
 20
-170.9993814676668
 30
0.0
 10
202.3990152488794
 20
-170.9993814676668
 30
0.0
 10
201.503634932263
 20
-170.1043456605989
 30
0.0
 10
201.503634932263
 20
-168.9998480480278
 30
0.0
  0
SPLINE
  5
9C
330
95
100
AcDbEntity
  8
Layer 1
370
     0
100
AcDbSpline
210
0.0
220
0.0
230
1.0
 70
    11
 71
     3
 72
    17
 73
    13
 74
     0
 42
0.0000000001
 43
0.0000000001
 40
0.0
 40
0.0
 40
0.0
 40
0.0
 40
1.0
 40
1.0
 40
1.0
 40
2.0
 40
2.0
 40
2.0
 40
3.0
 40
3.0
 40
3.0
 40
4.0
 40
4.0
 40
4.0
 40
4.0
 10
170.5012206604997
 20
-188.9996608685487
 30
0.0
 10
170.5012206604997
 20
-187.8951632559776
 30
0.0
 10
171.3969454866647
 20
-186.9994384298126
 30
0.0
 10
172.5014430992358
 20
-186.9994384298126
 30
0.0
 10
173.6059407118069
 20
-186.9994384298126
 30
0.0
 10
174.5016655379718
 20
-187.8951632559776
 30
0.0
 10
174.5016655379718
 20
-188.9996608685487
 30
0.0
 10
174.5016655379718
 20
-190.1041584811198
 30
0.0
 10
173.6059407118069
 20
-190.9998833072848
 30
0.0
 10
172.5014430992358
 20
-190.9998833072848
 30
0.0
 10
171.3969454866647
 20
-190.9998833072848
 30
0.0
 10
170.5012206604997
 20
-190.1041584811198
 30
0.0
 10
170.5012206604997
 20
-188.9996608685487
 30
0.0
  0
POLYLINE
  5
9D
330
95
100
AcDbEntity
  8
Layer 1
370
     0
100
AcDb2dPolyline
 66
     1
 10
0.0
 20
0.0
 30
0.0
  0
VERTEX
  5
9E
330
9D
100
AcDbEntity
  8
Layer 1
370
     0
100
AcDbVertex
100
AcDb2dVertex
 10
173.2524739150202
 20
-167.7010470500886
 30
0.0
  0
VERTEX
  5
9F
330
9D
100
AcDbEntity
  8
Layer 1
370
     0
100
AcDbVertex
100
AcDb2dVertex
 10
174.0028157117076
 20
-169.0001925575764
 30
0.0
  0
VERTEX
  5
A0
330
9D
100
AcDbEntity
  8
Layer 1
370
     0
100
AcDbVertex
100
AcDb2dVertex
 10
173.2524739150202
 20
-170.2993380650641
 30
0.0
  0
VERTEX
  5
A1
330
9D
100
AcDbEntity
  8
Layer 1
370
     0
100
AcDbVertex
100
AcDb2dVertex
 10
171.7524793407424
 20
-170.2993380650641
 30
0.0
  0
VERTEX
  5
A2
330
9D
100
AcDbEntity
  8
Layer 1
370
     0
100
AcDbVertex
100
AcDb2dVertex
 10
171.0028265631521
 20
-169.0001925575764
 30
0.0
  0
VERTEX
  5
A3
330
9D
100
AcDbEntity
  8
Layer 1
370
     0
100
AcDbVertex
100
AcDb2dVertex
 10
171.7524793407424
 20
-167.7010470500886
 30
0.0
  0
VERTEX
  5
A4
330
9D
100
AcDbEntity
  8
Layer 1
370
     0
100
AcDbVertex
100
AcDb2dVertex
 10
173.2524739150202
 20
-167.7010470500886
 30
0.0
  0
SEQEND
  5
A5
330
9D
100
AcDbEntity
  8
Layer 1
370
     0
  0
ENDBLK
  5
98
330
95
100
AcDbEntity
  8
0
100
AcDbBlockEnd
  0
BLOCK
  5
A8
330
A6
100
AcDbEntity
  8
0
100
AcDbBlockBegin
  2
block 11
 70
     0
 71
     0
 10
0.0
 20
0.0
 30
0.0
  3
block 11
  1

  0
SPLINE
  5
AA
330
A6
100
AcDbEntity
  8
Layer 1
370
     0
100
AcDbSpline
210
0.0
220
0.0
230
1.0
 70
    11
 71
     3
 72
    20
 73
    16
 74
     0
 42
0.0000000001
 43
0.0000000001
 40
0.0
 40
0.0
 40
0.0
 40
0.0
 40
1.0
 40
1.0
 40
1.0
 40
2.0
 40
2.0
 40
2.0
 40
3.0
 40
3.0
 40
3.0
 40
4.0
 40
4.0
 40
4.0
 40
5.0
 40
5.0
 40
5.0
 40
5.0
 10
218.9998968636528
 20
-74.99869518524339
 30
0.0
 10
218.9998968636528
 20
-74.99869518524339
 30
0.0
 10
218.9998968636528
 20
-94.99885251531279
 30
0.0
 10
218.9998968636528
 20
-104.998586670799
 30
0.0
 10
218.9998968636528
 20
-104.998586670799
 30
0.0
 10
219.3016872281607
 20
-114.9990098453822
 30
0.0
 10
209.4997015535279
 20
-114.9990098453822
 30
0.0
 10
209.4997015535279
 20
-114.9990098453822
 30
0.0
 10
168.0000813382083
 20
-114.9990098453822
 30
0.0
 10
168.0000813382083
 20
-114.9990098453822
 30
0.0
 10
168.0000813382083
 20
-114.9990098453822
 30
0.0
 10
168.0000813382083
 20
-74.99869518524339
 30
0.0
 10
168.0000813382083
 20
-74.99869518524339
 30
0.0
 10
168.0000813382083
 20
-74.99869518524339
 30
0.0
 10
218.9998968636528
 20
-74.99869518524339
 30
0.0
 10
218.9998968636528
 20
-74.99869518524339
 30
0.0
  0
SPLINE
  5
AB
330
A6
100
AcDbEntity
  8
Layer 1
370
     0
100
AcDbSpline
210
0.0
220
0.0
230
1.0
 70
    11
 71
     3
 72
    17
 73
    13
 74
     0
 42
0.0000000001
 43
0.0000000001
 40
0.0
 40
0.0
 40
0.0
 40
0.0
 40
1.0
 40
1.0
 40
1.0
 40
2.0
 40
2.0
 40
2.0
 40
3.0
 40
3.0
 40
3.0
 40
4.0
 40
4.0
 40
4.0
 40
4.0
 10
179.9972818560423
 20
-84.99911835982661
 30
0.0
 10
179.9972818560423
 20
-86.1036159723977
 30
0.0
 10
179.1022460489745
 20
-86.99934079856267
 30
0.0
 10
177.9977484364034
 20
-86.99934079856267
 30
0.0
 10
176.8932508238323
 20
-86.99934079856267
 30
0.0
 10
175.9975259976673
 20
-86.1036159723977
 30
0.0
 10
175.9975259976673
 20
-84.99911835982661
 30
0.0
 10
175.9975259976673
 20
-83.89462074725552
 30
0.0
 10
176.8932508238323
 20
-82.99889592109055
 30
0.0
 10
177.9977484364034
 20
-82.99889592109055
 30
0.0
 10
179.1022460489745
 20
-82.99889592109055
 30
0.0
 10
179.9972818560423
 20
-83.89462074725552
 30
0.0
 10
179.9972818560423
 20
-84.99911835982661
 30
0.0
  0
SPLINE
  5
AC
330
A6
100
AcDbEntity
  8
Layer 1
370
     0
100
AcDbSpline
210
0.0
220
0.0
230
1.0
 70
    11
 71
     3
 72
    17
 73
    13
 74
     0
 42
0.0000000001
 43
0.0000000001
 40
0.0
 40
0.0
 40
0.0
 40
0.0
 40
1.0
 40
1.0
 40
1.0
 40
2.0
 40
2.0
 40
2.0
 40
3.0
 40
3.0
 40
3.0
 40
4.0
 40
4.0
 40
4.0
 40
4.0
 10
179.9972818560423
 20
-104.9989311803475
 30
0.0
 10
179.9972818560423
 20
-106.1034287929186
 30
0.0
 10
179.1022460489745
 20
-106.9991536190835
 30
0.0
 10
177.9977484364034
 20
-106.9991536190835
 30
0.0
 10
176.8932508238323
 20
-106.9991536190835
 30
0.0
 10
175.9975259976673
 20
-106.1034287929186
 30
0.0
 10
175.9975259976673
 20
-104.9989311803475
 30
0.0
 10
175.9975259976673
 20
-103.8944335677764
 30
0.0
 10
176.8932508238323
 20
-102.9993977607085
 30
0.0
 10
177.9977484364034
 20
-102.9993977607085
 30
0.0
 10
179.1022460489745
 20
-102.9993977607085
 30
0.0
 10
179.9972818560423
 20
-103.8944335677764
 30
0.0
 10
179.9972818560423
 20
-104.9989311803475
 30
0.0
  0
SPLINE
  5
AD
330
A6
100
AcDbEntity
  8
Layer 1
370
     0
100
AcDbSpline
210
0.0
220
0.0
230
1.0
 70
    11
 71
     3
 72
    17
 73
    13
 74
     0
 42
0.0000000001
 43
0.0000000001
 40
0.0
 40
0.0
 40
0.0
 40
0.0
 40
1.0
 40
1.0
 40
1.0
 40
2.0
 40
2.0
 40
2.0
 40
3.0
 40
3.0
 40
3.0
 40
4.0
 40
4.0
 40
4.0
 40
4.0
 10
210.9996961278056
 20
-84.99911835982661
 30
0.0
 10
210.9996961278056
 20
-86.1036159723977
 30
0.0
 10
210.1039713016407
 20
-86.99934079856267
 30
0.0
 10
208.9994736890696
 20
-86.99934079856267
 30
0.0
 10
207.8949760764985
 20
-86.99934079856267
 30
0.0
 10
206.9992512503335
 20
-86.1036159723977
 30
0.0
 10
206.9992512503335
 20
-84.99911835982661
 30
0.0
 10
206.9992512503335
 20
-83.89462074725552
 30
0.0
 10
207.8949760764985
 20
-82.99889592109055
 30
0.0
 10
208.9994736890696
 20
-82.99889592109055
 30
0.0
 10
210.1039713016407
 20
-82.99889592109055
 30
0.0
 10
210.9996961278056
 20
-83.89462074725552
 30
0.0
 10
210.9996961278056
 20
-84.99911835982661
 30
0.0
  0
POLYLINE
  5
AE
330
A6
100
AcDbEntity
  8
Layer 1
370
     0
100
AcDb2dPolyline
 66
     1
 10
0.0
 20
0.0
 30
0.0
  0
VERTEX
  5
AF
330
AE
100
AcDbEntity
  8
Layer 1
370
     0
100
AcDbVertex
100
AcDb2dVertex
 10
208.2484428732851
 20
-106.2977321782867
 30
0.0
  0
VERTEX
  5
B0
330
AE
100
AcDbEntity
  8
Layer 1
370
     0
100
AcDbVertex
100
AcDb2dVertex
 10
207.4981010765977
 20
-104.998586670799
 30
0.0
  0
VERTEX
  5
B1
330
AE
100
AcDbEntity
  8
Layer 1
370
     0
100
AcDbVertex
100
AcDb2dVertex
 10
208.2484428732851
 20
-103.6994411633112
 30
0.0
  0
VERTEX
  5
B2
330
AE
100
AcDbEntity
  8
Layer 1
370
     0
100
AcDbVertex
100
AcDb2dVertex
 10
209.7484374475629
 20
-103.6994411633112
 30
0.0
  0
VERTEX
  5
B3
330
AE
100
AcDbEntity
  8
Layer 1
370
     0
100
AcDbVertex
100
AcDb2dVertex
 10
210.4980902251533
 20
-104.998586670799
 30
0.0
  0
VERTEX
  5
B4
330
AE
100
AcDbEntity
  8
Layer 1
370
     0
100
AcDbVertex
100
AcDb2dVertex
 10
209.7484374475629
 20
-106.2977321782867
 30
0.0
  0
VERTEX
  5
B5
330
AE
100
AcDbEntity
  8
Layer 1
370
     0
100
AcDbVertex
100
AcDb2dVertex
 10
208.2484428732851
 20
-106.2977321782867
 30
0.0
  0
SEQEND
  5
B6
330
AE
100
AcDbEntity
  8
Layer 1
370
     0
  0
ENDBLK
  5
A9
330
A6
100
AcDbEntity
  8
0
100
AcDbBlockEnd
  0
BLOCK
  5
B9
330
B7
100
AcDbEntity
  8
0
100
AcDbBlockBegin
  2
block 12
 70
     0
 71
     0
 10
0.0
 20
0.0
 30
0.0
  3
block 12
  1

  0
SPLINE
  5
BB
330
B7
100
AcDbEntity
  8
Layer 1
370
     0
100
AcDbSpline
210
0.0
220
0.0
230
1.0
 70
    11
 71
     3
 72
    20
 73
    16
 74
     0
 42
0.0000000001
 43
0.0000000001
 40
0.0
 40
0.0
 40
0.0
 40
0.0
 40
1.0
 40
1.0
 40
1.0
 40
2.0
 40
2.0
 40
2.0
 40
3.0
 40
3.0
 40
3.0
 40
4.0
 40
4.0
 40
4.0
 40
5.0
 40
5.0
 40
5.0
 40
5.0
 10
162.5010199246525
 20
-156.9992024347085
 30
0.0
 10
162.5010199246525
 20
-156.9992024347085
 30
0.0
 10
162.5010199246525
 20
-136.9990451046391
 30
0.0
 10
162.5010199246525
 20
-126.999310949153
 30
0.0
 10
162.5010199246525
 20
-126.999310949153
 30
0.0
 10
162.1992295601447
 20
-116.9988877745697
 30
0.0
 10
172.0012152347775
 20
-116.9988877745697
 30
0.0
 10
172.0012152347775
 20
-116.9988877745697
 30
0.0
 10
213.5011799596456
 20
-116.9988877745697
 30
0.0
 10
213.5011799596456
 20
-116.9988877745697
 30
0.0
 10
213.5011799596456
 20
-116.9988877745697
 30
0.0
 10
213.5011799596456
 20
-156.9992024347085
 30
0.0
 10
213.5011799596456
 20
-156.9992024347085
 30
0.0
 10
213.5011799596456
 20
-156.9992024347085
 30
0.0
 10
162.5010199246525
 20
-156.9992024347085
 30
0.0
 10
162.5010199246525
 20
-156.9992024347085
 30
0.0
  0
SPLINE
  5
BC
330
B7
100
AcDbEntity
  8
Layer 1
370
     0
100
AcDbSpline
210
0.0
220
0.0
230
1.0
 70
    11
 71
     3
 72
    17
 73
    13
 74
     0
 42
0.0000000001
 43
0.0000000001
 40
0.0
 40
0.0
 40
0.0
 40
0.0
 40
1.0
 40
1.0
 40
1.0
 40
2.0
 40
2.0
 40
2.0
 40
3.0
 40
3.0
 40
3.0
 40
4.0
 40
4.0
 40
4.0
 40
4.0
 10
201.503634932263
 20
-146.9987792601253
 30
0.0
 10
201.503634932263
 20
-145.8942816475542
 30
0.0
 10
202.3990152488794
 20
-144.9985568213893
 30
0.0
 10
203.5035128614505
 20
-144.9985568213893
 30
0.0
 10
204.6080104740216
 20
-144.9985568213893
 30
0.0
 10
205.5037353001866
 20
-145.8942816475542
 30
0.0
 10
205.5037353001866
 20
-146.9987792601253
 30
0.0
 10
205.5037353001866
 20
-148.1032768726964
 30
0.0
 10
204.6080104740216
 20
-148.9990016988614
 30
0.0
 10
203.5035128614505
 20
-148.9990016988614
 30
0.0
 10
202.3990152488794
 20
-148.9990016988614
 30
0.0
 10
201.503634932263
 20
-148.1032768726964
 30
0.0
 10
201.503634932263
 20
-146.9987792601253
 30
0.0
  0
SPLINE
  5
BD
330
B7
100
AcDbEntity
  8
Layer 1
370
     0
100
AcDbSpline
210
0.0
220
0.0
230
1.0
 70
    11
 71
     3
 72
    17
 73
    13
 74
     0
 42
0.0000000001
 43
0.0000000001
 40
0.0
 40
0.0
 40
0.0
 40
0.0
 40
1.0
 40
1.0
 40
1.0
 40
2.0
 40
2.0
 40
2.0
 40
3.0
 40
3.0
 40
3.0
 40
4.0
 40
4.0
 40
4.0
 40
4.0
 10
201.503634932263
 20
-126.999310949153
 30
0.0
 10
201.503634932263
 20
-125.8948133365819
 30
0.0
 10
202.3990152488794
 20
-124.9990885104169
 30
0.0
 10
203.5035128614505
 20
-124.9990885104169
 30
0.0
 10
204.6080104740216
 20
-124.9990885104169
 30
0.0
 10
205.5037353001866
 20
-125.8948133365819
 30
0.0
 10
205.5037353001866
 20
-126.999310949153
 30
0.0
 10
205.5037353001866
 20
-128.1038085617241
 30
0.0
 10
204.6080104740216
 20
-128.998844368792
 30
0.0
 10
203.5035128614505
 20
-128.998844368792
 30
0.0
 10
202.3990152488794
 20
-128.998844368792
 30
0.0
 10
201.503634932263
 20
-128.1038085617241
 30
0.0
 10
201.503634932263
 20
-126.999310949153
 30
0.0
  0
SPLINE
  5
BE
330
B7
100
AcDbEntity
  8
Layer 1
370
     0
100
AcDbSpline
210
0.0
220
0.0
230
1.0
 70
    11
 71
     3
 72
    17
 73
    13
 74
     0
 42
0.0000000001
 43
0.0000000001
 40
0.0
 40
0.0
 40
0.0
 40
0.0
 40
1.0
 40
1.0
 40
1.0
 40
2.0
 40
2.0
 40
2.0
 40
3.0
 40
3.0
 40
3.0
 40
4.0
 40
4.0
 40
4.0
 40
4.0
 10
170.5012206604997
 20
-146.9987792601253
 30
0.0
 10
170.5012206604997
 20
-145.8942816475542
 30
0.0
 10
171.3969454866647
 20
-144.9985568213893
 30
0.0
 10
172.5014430992358
 20
-144.9985568213893
 30
0.0
 10
173.6059407118069
 20
-144.9985568213893
 30
0.0
 10
174.5016655379718
 20
-145.8942816475542
 30
0.0
 10
174.5016655379718
 20
-146.9987792601253
 30
0.0
 10
174.5016655379718
 20
-148.1032768726964
 30
0.0
 10
173.6059407118069
 20
-148.9990016988614
 30
0.0
 10
172.5014430992358
 20
-148.9990016988614
 30
0.0
 10
171.3969454866647
 20
-148.9990016988614
 30
0.0
 10
170.5012206604997
 20
-148.1032768726964
 30
0.0
 10
170.5012206604997
 20
-146.9987792601253
 30
0.0
  0
POLYLINE
  5
BF
330
B7
100
AcDbEntity
  8
Layer 1
370
     0
100
AcDb2dPolyline
 66
     1
 10
0.0
 20
0.0
 30
0.0
  0
VERTEX
  5
C0
330
BF
100
AcDbEntity
  8
Layer 1
370
     0
100
AcDbVertex
100
AcDb2dVertex
 10
173.2524739150202
 20
-125.7005099512138
 30
0.0
  0
VERTEX
  5
C1
330
BF
100
AcDbEntity
  8
Layer 1
370
     0
100
AcDbVertex
100
AcDb2dVertex
 10
174.0028157117076
 20
-126.999310949153
 30
0.0
  0
VERTEX
  5
C2
330
BF
100
AcDbEntity
  8
Layer 1
370
     0
100
AcDbVertex
100
AcDb2dVertex
 10
173.2524739150202
 20
-128.2988009661892
 30
0.0
  0
VERTEX
  5
C3
330
BF
100
AcDbEntity
  8
Layer 1
370
     0
100
AcDbVertex
100
AcDb2dVertex
 10
171.7524793407424
 20
-128.2988009661892
 30
0.0
  0
VERTEX
  5
C4
330
BF
100
AcDbEntity
  8
Layer 1
370
     0
100
AcDbVertex
100
AcDb2dVertex
 10
171.0028265631521
 20
-126.999310949153
 30
0.0
  0
VERTEX
  5
C5
330
BF
100
AcDbEntity
  8
Layer 1
370
     0
100
AcDbVertex
100
AcDb2dVertex
 10
171.7524793407424
 20
-125.7005099512138
 30
0.0
  0
VERTEX
  5
C6
330
BF
100
AcDbEntity
  8
Layer 1
370
     0
100
AcDbVertex
100
AcDb2dVertex
 10
173.2524739150202
 20
-125.7005099512138
 30
0.0
  0
SEQEND
  5
C7
330
BF
100
AcDbEntity
  8
Layer 1
370
     0
  0
ENDBLK
  5
BA
330
B7
100
AcDbEntity
  8
0
100
AcDbBlockEnd
  0
BLOCK
  5
CA
330
C8
100
AcDbEntity
  8
0
100
AcDbBlockBegin
  2
block 13
 70
     0
 71
     0
 10
0.0
 20
0.0
 30
0.0
  3
block 13
  1

  0
SPLINE
  5
CC
330
C8
100
AcDbEntity
  8
Layer 1
370
     0
100
AcDbSpline
210
0.0
220
0.0
230
1.0
 70
    11
 71
     3
 72
    17
 73
    13
 74
     0
 42
0.0000000001
 43
0.0000000001
 40
0.0
 40
0.0
 40
0.0
 40
0.0
 40
1.0
 40
1.0
 40
1.0
 40
2.0
 40
2.0
 40
2.0
 40
3.0
 40
3.0
 40
3.0
 40
4.0
 40
4.0
 40
4.0
 40
4.0
 10
112.0003987350207
 20
-138.0001898526527
 30
0.0
 10
111.1718532708181
 20
-138.0001898526527
 30
0.0
 10
110.500404160743
 20
-137.3290852521261
 30
0.0
 10
110.500404160743
 20
-136.5001952783749
 30
0.0
 10
110.500404160743
 20
-135.6719943237209
 30
0.0
 10
111.1718532708181
 20
-135.0002007040972
 30
0.0
 10
112.0003987350207
 20
-135.0002007040972
 30
0.0
 10
112.8289441992233
 20
-135.0002007040972
 30
0.0
 10
113.5003933092985
 20
-135.6719943237209
 30
0.0
 10
113.5003933092985
 20
-136.5001952783749
 30
0.0
 10
113.5003933092985
 20
-137.3290852521261
 30
0.0
 10
112.8289441992233
 20
-138.0001898526527
 30
0.0
 10
112.0003987350207
 20
-138.0001898526527
 30
0.0
  0
SPLINE
  5
CD
330
C8
100
AcDbEntity
  8
Layer 1
370
     0
100
AcDbSpline
210
0.0
220
0.0
230
1.0
 70
    11
 71
     3
 72
    17
 73
    13
 74
     0
 42
0.0000000001
 43
0.0000000001
 40
0.0
 40
0.0
 40
0.0
 40
0.0
 40
1.0
 40
1.0
 40
1.0
 40
2.0
 40
2.0
 40
2.0
 40
3.0
 40
3.0
 40
3.0
 40
4.0
 40
4.0
 40
4.0
 40
4.0
 10
112.0003987350207
 20
-138.9999565624722
 30
0.0
 10
110.6196044645326
 20
-138.9999565624722
 30
0.0
 10
109.5002929413749
 20
-137.8809895488631
 30
0.0
 10
109.5002929413749
 20
-136.5001952783749
 30
0.0
 10
109.5002929413749
 20
-135.1194010078868
 30
0.0
 10
110.6196044645326
 20
-134.0004339942777
 30
0.0
 10
112.0003987350207
 20
-134.0004339942777
 30
0.0
 10
113.3808484959604
 20
-134.0004339942777
 30
0.0
 10
114.5005045286665
 20
-135.1194010078868
 30
0.0
 10
114.5005045286665
 20
-136.5001952783749
 30
0.0
 10
114.5005045286665
 20
-137.8809895488631
 30
0.0
 10
113.3808484959604
 20
-138.9999565624722
 30
0.0
 10
112.0003987350207
 20
-138.9999565624722
 30
0.0
  0
ENDBLK
  5
CB
330
C8
100
AcDbEntity
  8
0
100
AcDbBlockEnd
  0
BLOCK
  5
D0
330
CE
100
AcDbEntity
  8
0
100
AcDbBlockBegin
  2
block 14
 70
     0
 71
     0
 10
0.0
 20
0.0
 30
0.0
  3
block 14
  1

  0
SPLINE
  5
D2
330
CE
100
AcDbEntity
  8
Layer 1
370
     0
100
AcDbSpline
210
0.0
220
0.0
230
1.0
 70
    11
 71
     3
 72
    17
 73
    13
 74
     0
 42
0.0000000001
 43
0.0000000001
 40
0.0
 40
0.0
 40
0.0
 40
0.0
 40
1.0
 40
1.0
 40
1.0
 40
2.0
 40
2.0
 40
2.0
 40
3.0
 40
3.0
 40
3.0
 40
4.0
 40
4.0
 40
4.0
 40
4.0
 10
146.9974012219312
 20
-188.4994330040904
 30
0.0
 10
146.9974012219312
 20
-189.0520263199245
 30
0.0
 10
147.4452636350137
 20
-189.499888733007
 30
0.0
 10
147.9971679317507
 20
-189.499888733007
 30
0.0
 10
148.5497612475848
 20
-189.499888733007
 30
0.0
 10
148.9976236606673
 20
-189.0520263199245
 30
0.0
 10
148.9976236606673
 20
-188.4994330040904
 30
0.0
 10
148.9976236606673
 20
-187.9475287073534
 30
0.0
 10
148.5497612475848
 20
-187.4996662942709
 30
0.0
 10
147.9971679317507
 20
-187.4996662942709
 30
0.0
 10
147.4452636350137
 20
-187.4996662942709
 30
0.0
 10
146.9974012219312
 20
-187.9475287073534
 30
0.0
 10
146.9974012219312
 20
-188.4994330040904
 30
0.0
  0
SPLINE
  5
D3
330
CE
100
AcDbEntity
  8
Layer 1
370
     0
100
AcDbSpline
210
0.0
220
0.0
230
1.0
 70
    11
 71
     3
 72
    17
 73
    13
 74
     0
 42
0.0000000001
 43
0.0000000001
 40
0.0
 40
0.0
 40
0.0
 40
0.0
 40
1.0
 40
1.0
 40
1.0
 40
2.0
 40
2.0
 40
2.0
 40
3.0
 40
3.0
 40
3.0
 40
4.0
 40
4.0
 40
4.0
 40
4.0
 10
136.997667066445
 20
-188.5018445709301
 30
0.0
 10
136.997667066445
 20
-189.0544378867642
 30
0.0
 10
137.4448404604305
 20
-189.5023002998467
 30
0.0
 10
137.9974337762645
 20
-189.5023002998467
 30
0.0
 10
138.5493380730016
 20
-189.5023002998467
 30
0.0
 10
138.997200486084
 20
-189.0544378867642
 30
0.0
 10
138.997200486084
 20
-188.5018445709301
 30
0.0
 10
138.997200486084
 20
-187.9499402741931
 30
0.0
 10
138.5493380730016
 20
-187.5020778611106
 30
0.0
 10
137.9974337762645
 20
-187.5020778611106
 30
0.0
 10
137.4448404604305
 20
-187.5020778611106
 30
0.0
 10
136.997667066445
 20
-187.9499402741931
 30
0.0
 10
136.997667066445
 20
-188.5018445709301
 30
0.0
  0
SPLINE
  5
D4
330
CE
100
AcDbEntity
  8
Layer 1
370
     0
100
AcDbSpline
210
0.0
220
0.0
230
1.0
 70
    11
 71
     3
 72
    20
 73
    16
 74
     0
 42
0.0000000001
 43
0.0000000001
 40
0.0
 40
0.0
 40
0.0
 40
0.0
 40
1.0
 40
1.0
 40
1.0
 40
2.0
 40
2.0
 40
2.0
 40
3.0
 40
3.0
 40
3.0
 40
4.0
 40
4.0
 40
4.0
 40
5.0
 40
5.0
 40
5.0
 40
5.0
 10
159.9998806023611
 20
-144.4997069951251
 30
0.0
 10
159.9998806023611
 20
-144.4997069951251
 30
0.0
 10
159.9998806023611
 20
-174.4999429902292
 30
0.0
 10
159.9998806023611
 20
-184.4996771457154
 30
0.0
 10
159.9998806023611
 20
-184.4996771457154
 30
0.0
 10
160.301670966869
 20
-194.5001003202986
 30
0.0
 10
150.4996852922362
 20
-194.5001003202986
 30
0.0
 10
150.4996852922362
 20
-194.5001003202986
 30
0.0
 10
109.0000650769167
 20
-194.5001003202986
 30
0.0
 10
109.0000650769167
 20
-194.5001003202986
 30
0.0
 10
109.0000650769167
 20
-194.5001003202986
 30
0.0
 10
109.0000650769167
 20
-144.4997069951251
 30
0.0
 10
109.0000650769167
 20
-144.4997069951251
 30
0.0
 10
109.0000650769167
 20
-144.4997069951251
 30
0.0
 10
159.9998806023611
 20
-144.4997069951251
 30
0.0
 10
159.9998806023611
 20
-144.4997069951251
 30
0.0
  0
SPLINE
  5
D5
330
CE
100
AcDbEntity
  8
Layer 1
370
     0
100
AcDbSpline
210
0.0
220
0.0
230
1.0
 70
    11
 71
     3
 72
    17
 73
    13
 74
     0
 42
0.0000000001
 43
0.0000000001
 40
0.0
 40
0.0
 40
0.0
 40
0.0
 40
1.0
 40
1.0
 40
1.0
 40
2.0
 40
2.0
 40
2.0
 40
3.0
 40
3.0
 40
3.0
 40
4.0
 40
4.0
 40
4.0
 40
4.0
 10
151.4987629829587
 20
-174.5009765188748
 30
0.0
 10
151.4987629829587
 20
-175.3291774735288
 30
0.0
 10
150.8269693633349
 20
-176.000626583604
 30
0.0
 10
149.9987684086809
 20
-176.000626583604
 30
0.0
 10
149.1698784349298
 20
-176.000626583604
 30
0.0
 10
148.4987738344031
 20
-175.3291774735288
 30
0.0
 10
148.4987738344031
 20
-174.5009765188748
 30
0.0
 10
148.4987738344031
 20
-173.6720865451236
 30
0.0
 10
149.1698784349298
 20
-173.000981944597
 30
0.0
 10
149.9987684086809
 20
-173.000981944597
 30
0.0
 10
150.8269693633349
 20
-173.000981944597
 30
0.0
 10
151.4987629829587
 20
-173.6720865451236
 30
0.0
 10
151.4987629829587
 20
-174.5009765188748
 30
0.0
  0
SPLINE
  5
D6
330
CE
100
AcDbEntity
  8
Layer 1
370
     0
100
AcDbSpline
210
0.0
220
0.0
230
1.0
 70
    11
 71
     3
 72
    17
 73
    13
 74
     0
 42
0.0000000001
 43
0.0000000001
 40
0.0
 40
0.0
 40
0.0
 40
0.0
 40
1.0
 40
1.0
 40
1.0
 40
2.0
 40
2.0
 40
2.0
 40
3.0
 40
3.0
 40
3.0
 40
4.0
 40
4.0
 40
4.0
 40
4.0
 10
120.9972655947507
 20
-154.5001301697083
 30
0.0
 10
120.9972655947507
 20
-155.6046277822794
 30
0.0
 10
120.1022297876828
 20
-156.5003526084444
 30
0.0
 10
118.9977321751117
 20
-156.5003526084444
 30
0.0
 10
117.8932345625406
 20
-156.5003526084444
 30
0.0
 10
116.9975097363756
 20
-155.6046277822794
 30
0.0
 10
116.9975097363756
 20
-154.5001301697083
 30
0.0
 10
116.9975097363756
 20
-153.3956325571372
 30
0.0
 10
117.8932345625406
 20
-152.4999077309722
 30
0.0
 10
118.9977321751117
 20
-152.4999077309722
 30
0.0
 10
120.1022297876828
 20
-152.4999077309722
 30
0.0
 10
120.9972655947507
 20
-153.3956325571372
 30
0.0
 10
120.9972655947507
 20
-154.5001301697083
 30
0.0
  0
SPLINE
  5
D7
330
CE
100
AcDbEntity
  8
Layer 1
370
     0
100
AcDbSpline
210
0.0
220
0.0
230
1.0
 70
    11
 71
     3
 72
    17
 73
    13
 74
     0
 42
0.0000000001
 43
0.0000000001
 40
0.0
 40
0.0
 40
0.0
 40
0.0
 40
1.0
 40
1.0
 40
1.0
 40
2.0
 40
2.0
 40
2.0
 40
3.0
 40
3.0
 40
3.0
 40
4.0
 40
4.0
 40
4.0
 40
4.0
 10
120.9972655947507
 20
-174.4995984806807
 30
0.0
 10
120.9972655947507
 20
-175.6040960932518
 30
0.0
 10
120.1022297876828
 20
-176.5001654289652
 30
0.0
 10
118.9977321751117
 20
-176.5001654289652
 30
0.0
 10
117.8932345625406
 20
-176.5001654289652
 30
0.0
 10
116.9975097363756
 20
-175.6040960932518
 30
0.0
 10
116.9975097363756
 20
-174.4995984806807
 30
0.0
 10
116.9975097363756
 20
-173.3951008681096
 30
0.0
 10
117.8932345625406
 20
-172.5000650610417
 30
0.0
 10
118.9977321751117
 20
-172.5000650610417
 30
0.0
 10
120.1022297876828
 20
-172.5000650610417
 30
0.0
 10
120.9972655947507
 20
-173.3951008681096
 30
0.0
 10
120.9972655947507
 20
-174.4995984806807
 30
0.0
  0
SPLINE
  5
D8
330
CE
100
AcDbEntity
  8
Layer 1
370
     0
100
AcDbSpline
210
0.0
220
0.0
230
1.0
 70
    11
 71
     3
 72
    17
 73
    13
 74
     0
 42
0.0000000001
 43
0.0000000001
 40
0.0
 40
0.0
 40
0.0
 40
0.0
 40
1.0
 40
1.0
 40
1.0
 40
2.0
 40
2.0
 40
2.0
 40
3.0
 40
3.0
 40
3.0
 40
4.0
 40
4.0
 40
4.0
 40
4.0
 10
151.999679866514
 20
-154.5001301697083
 30
0.0
 10
151.999679866514
 20
-155.6046277822794
 30
0.0
 10
151.1046440594461
 20
-156.5003526084444
 30
0.0
 10
150.000146446875
 20
-156.5003526084444
 30
0.0
 10
148.8956488343039
 20
-156.5003526084444
 30
0.0
 10
147.9999240081389
 20
-155.6046277822794
 30
0.0
 10
147.9999240081389
 20
-154.5001301697083
 30
0.0
 10
147.9999240081389
 20
-153.3956325571372
 30
0.0
 10
148.8956488343039
 20
-152.4999077309722
 30
0.0
 10
150.000146446875
 20
-152.4999077309722
 30
0.0
 10
151.1046440594461
 20
-152.4999077309722
 30
0.0
 10
151.999679866514
 20
-153.3956325571372
 30
0.0
 10
151.999679866514
 20
-154.5001301697083
 30
0.0
  0
SPLINE
  5
D9
330
CE
100
AcDbEntity
  8
Layer 1
370
     0
100
AcDbSpline
210
0.0
220
0.0
230
1.0
 70
    11
 71
     3
 72
    29
 73
    25
 74
     0
 42
0.0000000001
 43
0.0000000001
 40
0.0
 40
0.0
 40
0.0
 40
0.0
 40
1.0
 40
1.0
 40
1.0
 40
2.0
 40
2.0
 40
2.0
 40
3.0
 40
3.0
 40
3.0
 40
4.0
 40
4.0
 40
4.0
 40
5.0
 40
5.0
 40
5.0
 40
6.0
 40
6.0
 40
6.0
 40
7.0
 40
7.0
 40
7.0
 40
8.0
 40
8.0
 40
8.0
 40
8.0
 10
121.4995605165001
 20
-188.5001220231875
 30
0.0
 10
121.4995605165001
 20
-189.0520263199245
 30
0.0
 10
121.0523871225147
 20
-189.499888733007
 30
0.0
 10
120.4997938066806
 20
-189.499888733007
 30
0.0
 10
120.4997938066806
 20
-189.499888733007
 30
0.0
 10
117.4998046581251
 20
-189.499888733007
 30
0.0
 10
117.4998046581251
 20
-189.499888733007
 30
0.0
 10
116.947900361388
 20
-189.499888733007
 30
0.0
 10
116.5000379483055
 20
-189.0520263199245
 30
0.0
 10
116.5000379483055
 20
-188.5001220231875
 30
0.0
 10
116.5000379483055
 20
-188.5001220231875
 30
0.0
 10
116.5000379483055
 20
-182.5001437260764
 30
0.0
 10
116.5000379483055
 20
-182.5001437260764
 30
0.0
 10
116.5000379483055
 20
-181.9475504102423
 30
0.0
 10
116.947900361388
 20
-181.4996879971598
 30
0.0
 10
117.4998046581251
 20
-181.4996879971598
 30
0.0
 10
117.4998046581251
 20
-181.4996879971598
 30
0.0
 10
120.4997938066806
 20
-181.4996879971598
 30
0.0
 10
120.4997938066806
 20
-181.4996879971598
 30
0.0
 10
121.0523871225147
 20
-181.4996879971598
 30
0.0
 10
121.4995605165001
 20
-181.9475504102423
 30
0.0
 10
121.4995605165001
 20
-182.5001437260764
 30
0.0
 10
121.4995605165001
 20
-182.5001437260764
 30
0.0
 10
121.4995605165001
 20
-188.5001220231875
 30
0.0
 10
121.4995605165001
 20
-188.5001220231875
 30
0.0
  0
ENDBLK
  5
D1
330
CE
100
AcDbEntity
  8
0
100
AcDbBlockEnd
  0
BLOCK
  5
DC
330
DA
100
AcDbEntity
  8
0
100
AcDbBlockBegin
  2
block 15
 70
     0
 71
     0
 10
0.0
 20
0.0
 30
0.0
  3
block 15
  1

  0
SPLINE
  5
DE
330
DA
100
AcDbEntity
  8
Layer 1
370
     0
100
AcDbSpline
210
0.0
220
0.0
230
1.0
 70
    11
 71
     3
 72
    17
 73
    13
 74
     0
 42
0.0000000001
 43
0.0000000001
 40
0.0
 40
0.0
 40
0.0
 40
0.0
 40
1.0
 40
1.0
 40
1.0
 40
2.0
 40
2.0
 40
2.0
 40
3.0
 40
3.0
 40
3.0
 40
4.0
 40
4.0
 40
4.0
 40
4.0
 10
118.5006048965901
 20
-131.4996391815348
 30
0.0
 10
117.6720594323875
 20
-131.4996391815348
 30
0.0
 10
117.0006103223124
 20
-130.8285345810081
 30
0.0
 10
117.0006103223124
 20
-129.999644607257
 30
0.0
 10
117.0006103223124
 20
-129.171443652603
 30
0.0
 10
117.6720594323875
 20
-128.4996500329792
 30
0.0
 10
118.5006048965901
 20
-128.4996500329792
 30
0.0
 10
119.3291503607927
 20
-128.4996500329792
 30
0.0
 10
120.0005994708679
 20
-129.171443652603
 30
0.0
 10
120.0005994708679
 20
-129.999644607257
 30
0.0
 10
120.0005994708679
 20
-130.8285345810081
 30
0.0
 10
119.3291503607927
 20
-131.4996391815348
 30
0.0
 10
118.5006048965901
 20
-131.4996391815348
 30
0.0
  0
SPLINE
  5
DF
330
DA
100
AcDbEntity
  8
Layer 1
370
     0
100
AcDbSpline
210
0.0
220
0.0
230
1.0
 70
    11
 71
     3
 72
    17
 73
    13
 74
     0
 42
0.0000000001
 43
0.0000000001
 40
0.0
 40
0.0
 40
0.0
 40
0.0
 40
1.0
 40
1.0
 40
1.0
 40
2.0
 40
2.0
 40
2.0
 40
3.0
 40
3.0
 40
3.0
 40
4.0
 40
4.0
 40
4.0
 40
4.0
 10
118.5006048965901
 20
-132.4994058913543
 30
0.0
 10
117.119810626102
 20
-132.4994058913543
 30
0.0
 10
116.0004991029443
 20
-131.3804388777452
 30
0.0
 10
116.0004991029443
 20
-129.999644607257
 30
0.0
 10
116.0004991029443
 20
-128.6188503367689
 30
0.0
 10
117.119810626102
 20
-127.4998833231598
 30
0.0
 10
118.5006048965901
 20
-127.4998833231598
 30
0.0
 10
119.8810546575297
 20
-127.4998833231598
 30
0.0
 10
121.0007106902359
 20
-128.6188503367689
 30
0.0
 10
121.0007106902359
 20
-129.999644607257
 30
0.0
 10
121.0007106902359
 20
-131.3804388777452
 30
0.0
 10
119.8810546575297
 20
-132.4994058913543
 30
0.0
 10
118.5006048965901
 20
-132.4994058913543
 30
0.0
  0
ENDBLK
  5
DD
330
DA
100
AcDbEntity
  8
0
100
AcDbBlockEnd
  0
BLOCK
  5
E2
330
E0
100
AcDbEntity
  8
0
100
AcDbBlockBegin
  2
block 16
 70
     0
 71
     0
 10
0.0
 20
0.0
 30
0.0
  3
block 16
  1

  0
SPLINE
  5
E4
330
E0
100
AcDbEntity
  8
Layer 1
370
     0
100
AcDbSpline
210
0.0
220
0.0
230
1.0
 70
    11
 71
     3
 72
    17
 73
    13
 74
     0
 42
0.0000000001
 43
0.0000000001
 40
0.0
 40
0.0
 40
0.0
 40
0.0
 40
1.0
 40
1.0
 40
1.0
 40
2.0
 40
2.0
 40
2.0
 40
3.0
 40
3.0
 40
3.0
 40
4.0
 40
4.0
 40
4.0
 40
4.0
 10
118.5009494061387
 20
-137.9998453431042
 30
0.0
 10
117.6724039419361
 20
-137.9998453431042
 30
0.0
 10
117.0009548318609
 20
-137.3287407425775
 30
0.0
 10
117.0009548318609
 20
-136.4998507688264
 30
0.0
 10
117.0009548318609
 20
-135.6716498141724
 30
0.0
 10
117.6724039419361
 20
-134.9998561945486
 30
0.0
 10
118.5009494061387
 20
-134.9998561945486
 30
0.0
 10
119.3294948703412
 20
-134.9998561945486
 30
0.0
 10
120.0009439804164
 20
-135.6716498141724
 30
0.0
 10
120.0009439804164
 20
-136.4998507688264
 30
0.0
 10
120.0009439804164
 20
-137.3287407425775
 30
0.0
 10
119.3294948703412
 20
-137.9998453431042
 30
0.0
 10
118.5009494061387
 20
-137.9998453431042
 30
0.0
  0
SPLINE
  5
E5
330
E0
100
AcDbEntity
  8
Layer 1
370
     0
100
AcDbSpline
210
0.0
220
0.0
230
1.0
 70
    11
 71
     3
 72
    17
 73
    13
 74
     0
 42
0.0000000001
 43
0.0000000001
 40
0.0
 40
0.0
 40
0.0
 40
0.0
 40
1.0
 40
1.0
 40
1.0
 40
2.0
 40
2.0
 40
2.0
 40
3.0
 40
3.0
 40
3.0
 40
4.0
 40
4.0
 40
4.0
 40
4.0
 10
118.5009494061387
 20
-138.9996120529237
 30
0.0
 10
117.1201551356505
 20
-138.9996120529237
 30
0.0
 10
116.0008436124928
 20
-137.8806450393146
 30
0.0
 10
116.0008436124928
 20
-136.4998507688264
 30
0.0
 10
116.0008436124928
 20
-135.1190564983383
 30
0.0
 10
117.1201551356505
 20
-134.0000894847292
 30
0.0
 10
118.5009494061387
 20
-134.0000894847292
 30
0.0
 10
119.8813991670783
 20
-134.0000894847292
 30
0.0
 10
121.0010551997845
 20
-135.1190564983383
 30
0.0
 10
121.0010551997845
 20
-136.4998507688264
 30
0.0
 10
121.0010551997845
 20
-137.8806450393146
 30
0.0
 10
119.8813991670783
 20
-138.9996120529237
 30
0.0
 10
118.5009494061387
 20
-138.9996120529237
 30
0.0
  0
ENDBLK
  5
E3
330
E0
100
AcDbEntity
  8
0
100
AcDbBlockEnd
  0
BLOCK
  5
E8
330
E6
100
AcDbEntity
  8
0
100
AcDbBlockBegin
  2
block 17
 70
     0
 71
     0
 10
0.0
 20
0.0
 30
0.0
  3
block 17
  1

  0
SPLINE
  5
EA
330
E6
100
AcDbEntity
  8
Layer 1
370
     0
100
AcDbSpline
210
0.0
220
0.0
230
1.0
 70
    11
 71
     3
 72
    17
 73
    13
 74
     0
 42
0.0000000001
 43
0.0000000001
 40
0.0
 40
0.0
 40
0.0
 40
0.0
 40
1.0
 40
1.0
 40
1.0
 40
2.0
 40
2.0
 40
2.0
 40
3.0
 40
3.0
 40
3.0
 40
4.0
 40
4.0
 40
4.0
 40
4.0
 10
125.0001220390625
 20
-131.4999836910833
 30
0.0
 10
124.1715765748599
 20
-131.4999836910833
 30
0.0
 10
123.5001274647847
 20
-130.8288790905567
 30
0.0
 10
123.5001274647847
 20
-129.9999891168056
 30
0.0
 10
123.5001274647847
 20
-129.1717881621515
 30
0.0
 10
124.1715765748599
 20
-128.4999945425278
 30
0.0
 10
125.0001220390625
 20
-128.4999945425278
 30
0.0
 10
125.8286675032651
 20
-128.4999945425278
 30
0.0
 10
126.5001166133403
 20
-129.1717881621515
 30
0.0
 10
126.5001166133403
 20
-129.9999891168056
 30
0.0
 10
126.5001166133403
 20
-130.8288790905567
 30
0.0
 10
125.8286675032651
 20
-131.4999836910833
 30
0.0
 10
125.0001220390625
 20
-131.4999836910833
 30
0.0
  0
SPLINE
  5
EB
330
E6
100
AcDbEntity
  8
Layer 1
370
     0
100
AcDbSpline
210
0.0
220
0.0
230
1.0
 70
    11
 71
     3
 72
    17
 73
    13
 74
     0
 42
0.0000000001
 43
0.0000000001
 40
0.0
 40
0.0
 40
0.0
 40
0.0
 40
1.0
 40
1.0
 40
1.0
 40
2.0
 40
2.0
 40
2.0
 40
3.0
 40
3.0
 40
3.0
 40
4.0
 40
4.0
 40
4.0
 40
4.0
 10
125.0001220390625
 20
-132.4997504009029
 30
0.0
 10
123.6193277685743
 20
-132.4997504009029
 30
0.0
 10
122.5000162454167
 20
-131.3807833872937
 30
0.0
 10
122.5000162454167
 20
-129.9999891168056
 30
0.0
 10
122.5000162454167
 20
-128.6191948463174
 30
0.0
 10
123.6193277685743
 20
-127.5002278327083
 30
0.0
 10
125.0001220390625
 20
-127.5002278327083
 30
0.0
 10
126.3805718000021
 20
-127.5002278327083
 30
0.0
 10
127.5002278327083
 20
-128.6191948463174
 30
0.0
 10
127.5002278327083
 20
-129.9999891168056
 30
0.0
 10
127.5002278327083
 20
-131.3807833872937
 30
0.0
 10
126.3805718000021
 20
-132.4997504009029
 30
0.0
 10
125.0001220390625
 20
-132.4997504009029
 30
0.0
  0
ENDBLK
  5
E9
330
E6
100
AcDbEntity
  8
0
100
AcDbBlockEnd
  0
BLOCK
  5
EE
330
EC
100
AcDbEntity
  8
0
100
AcDbBlockBegin
  2
block 18
 70
     0
 71
     0
 10
0.0
 20
0.0
 30
0.0
  3
block 18
  1

  0
SPLINE
  5
F0
330
EC
100
AcDbEntity
  8
Layer 1
370
     0
100
AcDbSpline
210
0.0
220
0.0
230
1.0
 70
    11
 71
     3
 72
    17
 73
    13
 74
     0
 42
0.0000000001
 43
0.0000000001
 40
0.0
 40
0.0
 40
0.0
 40
0.0
 40
1.0
 40
1.0
 40
1.0
 40
2.0
 40
2.0
 40
2.0
 40
3.0
 40
3.0
 40
3.0
 40
4.0
 40
4.0
 40
4.0
 40
4.0
 10
125.000466548611
 20
-138.0001898526527
 30
0.0
 10
124.1719210844084
 20
-138.0001898526527
 30
0.0
 10
123.5004719743332
 20
-137.3290852521261
 30
0.0
 10
123.5004719743332
 20
-136.5001952783749
 30
0.0
 10
123.5004719743332
 20
-135.6719943237209
 30
0.0
 10
124.1719210844084
 20
-135.0002007040972
 30
0.0
 10
125.000466548611
 20
-135.0002007040972
 30
0.0
 10
125.8290120128136
 20
-135.0002007040972
 30
0.0
 10
126.5004611228888
 20
-135.6719943237209
 30
0.0
 10
126.5004611228888
 20
-136.5001952783749
 30
0.0
 10
126.5004611228888
 20
-137.3290852521261
 30
0.0
 10
125.8290120128136
 20
-138.0001898526527
 30
0.0
 10
125.000466548611
 20
-138.0001898526527
 30
0.0
  0
SPLINE
  5
F1
330
EC
100
AcDbEntity
  8
Layer 1
370
     0
100
AcDbSpline
210
0.0
220
0.0
230
1.0
 70
    11
 71
     3
 72
    17
 73
    13
 74
     0
 42
0.0000000001
 43
0.0000000001
 40
0.0
 40
0.0
 40
0.0
 40
0.0
 40
1.0
 40
1.0
 40
1.0
 40
2.0
 40
2.0
 40
2.0
 40
3.0
 40
3.0
 40
3.0
 40
4.0
 40
4.0
 40
4.0
 40
4.0
 10
125.000466548611
 20
-138.9999565624722
 30
0.0
 10
123.6196722781229
 20
-138.9999565624722
 30
0.0
 10
122.5003607549652
 20
-137.8809895488631
 30
0.0
 10
122.5003607549652
 20
-136.5001952783749
 30
0.0
 10
122.5003607549652
 20
-135.1194010078868
 30
0.0
 10
123.6196722781229
 20
-134.0004339942777
 30
0.0
 10
125.000466548611
 20
-134.0004339942777
 30
0.0
 10
126.3809163095506
 20
-134.0004339942777
 30
0.0
 10
127.5005723422568
 20
-135.1194010078868
 30
0.0
 10
127.5005723422568
 20
-136.5001952783749
 30
0.0
 10
127.5005723422568
 20
-137.8809895488631
 30
0.0
 10
126.3809163095506
 20
-138.9999565624722
 30
0.0
 10
125.000466548611
 20
-138.9999565624722
 30
0.0
  0
ENDBLK
  5
EF
330
EC
100
AcDbEntity
  8
0
100
AcDbBlockEnd
  0
ENDSEC
  0
SECTION
  2
ENTITIES
  0
INSERT
  5
3D
330
1F
100
AcDbEntity
  8
Layer 1
100
AcDbBlockReference
  2
block 2
 10
0.0
 20
0.0
 30
0.0
  0
INSERT
  5
47
330
1F
100
AcDbEntity
  8
Layer 1
100
AcDbBlockReference
  2
block 3
 10
0.0
 20
0.0
 30
0.0
  0
INSERT
  5
54
330
1F
100
AcDbEntity
  8
Layer 1
100
AcDbBlockReference
  2
block 4
 10
0.0
 20
0.0
 30
0.0
  0
POLYLINE
  5
60
330
1F
100
AcDbEntity
  8
Layer 1
370
     0
100
AcDb2dPolyline
 66
     1
 10
0.0
 20
0.0
 30
0.0
  0
VERTEX
  5
61
330
60
100
AcDbEntity
  8
Layer 1
370
     0
100
AcDbVertex
100
AcDb2dVertex
 10
82.12401392261137
 20
-80.49241670079704
 30
0.0
  0
VERTEX
  5
F2
330
60
100
AcDbEntity
  8
0
100
AcDbVertex
100
AcDb2dVertex
 10
82.12401392261137
 20
-80.49241670079704
 30
0.0
  0
SEQEND
  5
62
330
60
100
AcDbEntity
  8
Layer 1
370
     0
  0
INSERT
  5
64
330
1F
100
AcDbEntity
  8
Layer 1
100
AcDbBlockReference
  2
block 5
 10
0.0
 20
0.0
 30
0.0
  0
INSERT
  5
6B
330
1F
100
AcDbEntity
  8
Layer 1
100
AcDbBlockReference
  2
block 6
 10
0.0
 20
0.0
 30
0.0
  0
INSERT
  5
78
330
1F
100
AcDbEntity
  8
Layer 1
100
AcDbBlockReference
  2
block 7
 10
0.0
 20
0.0
 30
0.0
  0
INSERT
  5
84
330
1F
100
AcDbEntity
  8
Layer 1
100
AcDbBlockReference
  2
block 8
 10
0.0
 20
0.0
 30
0.0
  0
INSERT
  5
90
330
1F
100
AcDbEntity
  8
Layer 1
100
AcDbBlockReference
  2
block 9
 10
0.0
 20
0.0
 30
0.0
  0
INSERT
  5
96
330
1F
100
AcDbEntity
  8
Layer 1
100
AcDbBlockReference
  2
block 10
 10
0.0
 20
0.0
 30
0.0
  0
INSERT
  5
A7
330
1F
100
AcDbEntity
  8
Layer 1
100
AcDbBlockReference
  2
block 11
 10
0.0
 20
0.0
 30
0.0
  0
INSERT
  5
B8
330
1F
100
AcDbEntity
  8
Layer 1
100
AcDbBlockReference
  2
block 12
 10
0.0
 20
0.0
 30
0.0
  0
INSERT
  5
C9
330
1F
100
AcDbEntity
  8
Layer 1
100
AcDbBlockReference
  2
block 13
 10
0.0
 20
0.0
 30
0.0
  0
INSERT
  5
CF
330
1F
100
AcDbEntity
  8
Layer 1
100
AcDbBlockReference
  2
block 14
 10
0.0
 20
0.0
 30
0.0
  0
INSERT
  5
DB
330
1F
100
AcDbEntity
  8
Layer 1
100
AcDbBlockReference
  2
block 15
 10
0.0
 20
0.0
 30
0.0
  0
INSERT
  5
E1
330
1F
100
AcDbEntity
  8
Layer 1
100
AcDbBlockReference
  2
block 16
 10
0.0
 20
0.0
 30
0.0
  0
INSERT
  5
E7
330
1F
100
AcDbEntity
  8
Layer 1
100
AcDbBlockReference
  2
block 17
 10
0.0
 20
0.0
 30
0.0
  0
INSERT
  5
ED
330
1F
100
AcDbEntity
  8
Layer 1
100
AcDbBlockReference
  2
block 18
 10
0.0
 20
0.0
 30
0.0
  0
ENDSEC
  0
SECTION
  2
OBJECTS
  0
DICTIONARY
  5
C
330
0
100
AcDbDictionary
281
     1
  3
ACAD_GROUP
350
D
  3
ACAD_LAYOUT
350
1A
  3
ACAD_MLINESTYLE
350
17
  3
ACAD_PLOTSETTINGS
350
19
  3
ACAD_PLOTSTYLENAME
350
E
  3
ACAD_TABLESTYLE
350
F3
  3
ACAD_VISUALSTYLE
350
2A
  0
DICTIONARY
  5
D
102
{ACAD_REACTORS
330
C
102
}
330
C
100
AcDbDictionary
281
     1
  0
DICTIONARY
  5
1A
102
{ACAD_REACTORS
330
C
102
}
330
C
100
AcDbDictionary
281
     1
  3
Layout1
350
1E
  3
Layout2
350
26
  3
Model
350
22
  0
DICTIONARY
  5
17
102
{ACAD_REACTORS
330
C
102
}
330
C
100
AcDbDictionary
281
     1
  3
Standard
350
18
  0
DICTIONARY
  5
19
102
{ACAD_REACTORS
330
C
102
}
330
C
100
AcDbDictionary
281
     1
  0
ACDBDICTIONARYWDFLT
  5
E
102
{ACAD_REACTORS
330
C
102
}
330
C
100
AcDbDictionary
281
     1
  3
Normal
350
F
100
AcDbDictionaryWithDefault
340
F
  0
DICTIONARY
  5
F3
102
{ACAD_REACTORS
330
C
102
}
330
C
100
AcDbDictionary
281
     1
  0
DICTIONARY
  5
2A
102
{ACAD_REACTORS
330
C
102
}
330
C
100
AcDbDictionary
281
     1
  3
2dWireframe
350
2F
  3
3D Hidden
350
31
  3
3dWireframe
350
30
  3
Basic
350
32
  3
Brighten
350
36
  3
ColorChange
350
3A
  3
Conceptual
350
34
  3
Dim
350
35
  3
Facepattern
350
39
  3
Flat
350
2B
  3
FlatWithEdges
350
2C
  3
Gouraud
350
2D
  3
GouraudWithEdges
350
2E
  3
Linepattern
350
38
  3
Realistic
350
33
  3
Thicken
350
37
  0
LAYOUT
  5
1E
102
{ACAD_REACTORS
330
1A
102
}
330
1A
100
AcDbPlotSettings
  1

  2
none_device
  4

  6

 40
0.0
 41
0.0
 42
0.0
 43
0.0
 44
0.0
 45
0.0
 46
0.0
 47
0.0
 48
0.0
 49
0.0
140
0.0
141
0.0
142
1.0
143
1.0
 70
   688
 72
     0
 73
     0
 74
     5
  7

 75
    16
 76
     0
 77
     2
 78
   300
147
1.0
148
0.0
149
0.0
100
AcDbLayout
  1
Layout1
 70
     1
 71
     1
 10
0.0
 20
0.0
 11
12.0
 21
9.0
 12
0.0
 22
0.0
 32
0.0
 14
1.000000000000000E+20
 24
1.000000000000000E+20
 34
1.000000000000000E+20
 15
-1.000000000000000E+20
 25
-1.000000000000000E+20
 35
-1.000000000000000E+20
146
0.0
 13
0.0
 23
0.0
 33
0.0
 16
1.0
 26
0.0
 36
0.0
 17
0.0
 27
1.0
 37
0.0
 76
     0
330
1B
  0
LAYOUT
  5
26
102
{ACAD_REACTORS
330
1A
102
}
330
1A
100
AcDbPlotSettings
  1

  2
none_device
  4

  6

 40
0.0
 41
0.0
 42
0.0
 43
0.0
 44
0.0
 45
0.0
 46
0.0
 47
0.0
 48
0.0
 49
0.0
140
0.0
141
0.0
142
1.0
143
1.0
 70
   688
 72
     0
 73
     0
 74
     5
  7

 75
    16
 76
     0
 77
     2
 78
   300
147
1.0
148
0.0
149
0.0
100
AcDbLayout
  1
Layout2
 70
     1
 71
     2
 10
0.0
 20
0.0
 11
0.0
 21
0.0
 12
0.0
 22
0.0
 32
0.0
 14
0.0
 24
0.0
 34
0.0
 15
0.0
 25
0.0
 35
0.0
146
0.0
 13
0.0
 23
0.0
 33
0.0
 16
1.0
 26
0.0
 36
0.0
 17
0.0
 27
1.0
 37
0.0
 76
     0
330
23
  0
LAYOUT
  5
22
102
{ACAD_REACTORS
330
1A
102
}
330
1A
100
AcDbPlotSettings
  1

  2
none_device
  4

  6

 40
0.0
 41
0.0
 42
0.0
 43
0.0
 44
0.0
 45
0.0
 46
0.0
 47
0.0
 48
0.0
 49
0.0
140
0.0
141
0.0
142
1.0
143
1.0
 70
  1712
 72
     0
 73
     0
 74
     0
  7

 75
     0
 76
     0
 77
     2
 78
   300
147
1.0
148
0.0
149
0.0
100
AcDbLayout
  1
Model
 70
     1
 71
     0
 10
0.0
 20
0.0
 11
12.0
 21
9.0
 12
0.0
 22
0.0
 32
0.0
 14
1.000000000000000E+20
 24
1.000000000000000E+20
 34
1.000000000000000E+20
 15
-1.000000000000000E+20
 25
-1.000000000000000E+20
 35
-1.000000000000000E+20
146
0.0
 13
0.0
 23
0.0
 33
0.0
 16
1.0
 26
0.0
 36
0.0
 17
0.0
 27
1.0
 37
0.0
 76
     0
330
1F
331
29
  0
MLINESTYLE
  5
18
102
{ACAD_REACTORS
330
17
102
}
330
17
100
AcDbMlineStyle
  2
Standard
 70
     0
  3

 62
   256
 51
90.0
 52
90.0
 71
     2
 49
0.5
 62
   256
  6
BYLAYER
 49
-0.5
 62
   256
  6
BYLAYER
  0
ACDBPLACEHOLDER
  5
F
102
{ACAD_REACTORS
330
E
102
}
330
E
  0
VISUALSTYLE
  5
2F
102
{ACAD_REACTORS
330
2A
102
}
330
2A
100
AcDbVisualStyle
  2
2dWireframe
 70
     4
 71
     0
 72
     2
 73
     0
 90
        0
 40
-0.6
 41
-30.0
 62
     5
 63
     7
421
 16777215
 74
     1
 91
        4
 64
     7
 65
   257
 75
     1
175
     1
 42
1.0
 92
        0
 66
   257
 43
1.0
 76
     1
 77
     6
 78
     2
 67
     7
 79
     5
170
     0
171
     0
290
     0
174
     0
 93
        1
 44
0.0
173
     0
291
     0
 45
0.0
1001
ACAD
1000
AcDbSavedByObjectVersion
1070
     0
  0
VISUALSTYLE
  5
31
102
{ACAD_REACTORS
330
2A
102
}
330
2A
100
AcDbVisualStyle
  2
3D Hidden
 70
     6
 71
     1
 72
     2
 73
     2
 90
        0
 40
-0.6
 41
-30.0
 62
     5
 63
     7
421
 16777215
 74
     2
 91
        2
 64
     7
 65
   257
 75
     2
175
     1
 42
40.0
 92
        0
 66
   257
 43
1.0
 76
     1
 77
     6
 78
     2
 67
     7
 79
     3
170
     0
171
     0
290
     0
174
     0
 93
        1
 44
0.0
173
     0
291
     0
 45
0.0
1001
ACAD
1000
AcDbSavedByObjectVersion
1070
     0
  0
VISUALSTYLE
  5
30
102
{ACAD_REACTORS
330
2A
102
}
330
2A
100
AcDbVisualStyle
  2
3dWireframe
 70
     5
 71
     0
 72
     2
 73
     0
 90
        0
 40
-0.6
 41
-30.0
 62
     5
 63
     7
421
 16777215
 74
     1
 91
        4
 64
     7
 65
   257
 75
     1
175
     1
 42
1.0
 92
        0
 66
   257
 43
1.0
 76
     1
 77
     6
 78
     2
 67
     7
 79
     5
170
     0
171
     0
290
     0
174
     0
 93
        1
 44
0.0
173
     0
291
     0
 45
0.0
1001
ACAD
1000
AcDbSavedByObjectVersion
1070
     0
  0
VISUALSTYLE
  5
32
102
{ACAD_REACTORS
330
2A
102
}
330
2A
100
AcDbVisualStyle
  2
Basic
 70
     7
 71
     1
 72
     0
 73
     1
 90
        0
 40
-0.6
 41
-30.0
 62
     5
 63
     7
421
 16777215
 74
     0
 91
        4
 64
     7
 65
   257
 75
     1
175
     1
 42
1.0
 92
        8
 66
     7
 43
1.0
 76
     1
 77
     6
 78
     2
 67
     7
 79
     5
170
     0
171
     0
290
     0
174
     0
 93
        1
 44
0.0
173
     0
291
     1
 45
0.0
1001
ACAD
1000
AcDbSavedByObjectVersion
1070
     0
  0
VISUALSTYLE
  5
36
102
{ACAD_REACTORS
330
2A
102
}
330
2A
100
AcDbVisualStyle
  2
Brighten
 70
    12
 71
     2
 72
     2
 73
     0
 90
        0
 40
-0.6
 41
-30.0
 62
     5
 63
     7
421
 16777215
 74
     1
 91
        4
 64
     7
 65
   257
 75
     1
175
     1
 42
1.0
 92
        8
 66
     7
 43
1.0
 76
     1
 77
     6
 78
     2
 67
     7
 79
     5
170
     0
171
     0
290
     0
174
     0
 93
        1
 44
50.0
173
     0
291
     1
 45
0.0
1001
ACAD
1000
AcDbSavedByObjectVersion
1070
     0
  0
VISUALSTYLE
  5
3A
102
{ACAD_REACTORS
330
2A
102
}
330
2A
100
AcDbVisualStyle
  2
ColorChange
 70
    16
 71
     2
 72
     2
 73
     3
 90
        0
 40
-0.6
 41
-30.0
 62
     5
 63
     8
421
  8421504
 74
     1
 91
        4
 64
     7
 65
   257
 75
     1
175
     1
 42
1.0
 92
        8
 66
     8
424
  8421504
 43
1.0
 76
     1
 77
     6
 78
     2
 67
     7
 79
     5
170
     0
171
     0
290
     0
174
     0
 93
        1
 44
0.0
173
     0
291
     1
 45
0.0
1001
ACAD
1000
AcDbSavedByObjectVersion
1070
     0
  0
VISUALSTYLE
  5
34
102
{ACAD_REACTORS
330
2A
102
}
330
2A
100
AcDbVisualStyle
  2
Conceptual
 70
     9
 71
     3
 72
     2
 73
     0
 90
        0
 40
-0.6
 41
-30.0
 62
     5
 63
     7
421
 16777215
 74
     2
 91
        2
 64
     7
 65
   257
 75
     1
175
     1
 42
40.0
 92
        8
 66
     7
 43
1.0
 76
     1
 77
     6
 78
     2
 67
     7
 79
     3
170
     0
171
     0
290
     0
174
     0
 93
        1
 44
0.0
173
     0
291
     0
 45
0.0
1001
ACAD
1000
AcDbSavedByObjectVersion
1070
     0
  0
VISUALSTYLE
  5
35
102
{ACAD_REACTORS
330
2A
102
}
330
2A
100
AcDbVisualStyle
  2
Dim
 70
    11
 71
     2
 72
     2
 73
     0
 90
        0
 40
-0.6
 41
-30.0
 62
     5
 63
     7
421
 16777215
 74
     1
 91
        4
 64
     7
 65
   257
 75
     1
175
     1
 42
1.0
 92
        8
 66
     7
 43
1.0
 76
     1
 77
     6
 78
     2
 67
     7
 79
     5
170
     0
171
     0
290
     0
174
     0
 93
        1
 44
-50.0
173
     0
291
     1
 45
0.0
1001
ACAD
1000
AcDbSavedByObjectVersion
1070
     0
  0
VISUALSTYLE
  5
39
102
{ACAD_REACTORS
330
2A
102
}
330
2A
100
AcDbVisualStyle
  2
Facepattern
 70
    15
 71
     2
 72
     2
 73
     0
 90
        0
 40
-0.6
 41
-30.0
 62
     5
 63
     7
421
 16777215
 74
     1
 91
        4
 64
     7
 65
   257
 75
     1
175
     1
 42
1.0
 92
        8
 66
     7
 43
1.0
 76
     1
 77
     6
 78
     2
 67
     7
 79
     5
170
     0
171
     0
290
     0
174
     0
 93
        1
 44
0.0
173
     0
291
     1
 45
0.0
1001
ACAD
1000
AcDbSavedByObjectVersion
1070
     0
  0
VISUALSTYLE
  5
2B
102
{ACAD_REACTORS
330
2A
102
}
330
2A
100
AcDbVisualStyle
  2
Flat
 70
     0
 71
     2
 72
     1
 73
     1
 90
        2
 40
-0.6
 41
30.0
 62
     5
 63
     7
421
 16777215
 74
     0
 91
        4
 64
     7
 65
   257
 75
     1
175
     1
 42
1.0
 92
        8
 66
     7
 43
1.0
 76
     1
 77
     6
 78
     2
 67
     7
 79
     5
170
     0
171
     0
290
     0
174
     0
 93
       13
 44
0.0
173
     0
291
     1
 45
0.0
1001
ACAD
1000
AcDbSavedByObjectVersion
1070
     0
  0
VISUALSTYLE
  5
2C
102
{ACAD_REACTORS
330
2A
102
}
330
2A
100
AcDbVisualStyle
  2
FlatWithEdges
 70
     1
 71
     2
 72
     1
 73
     1
 90
        2
 40
-0.6
 41
30.0
 62
     5
 63
     7
421
 16777215
 74
     1
 91
        4
 64
     7
 65
   257
 75
     1
175
     1
 42
1.0
 92
        0
 66
   257
 43
1.0
 76
     1
 77
     6
 78
     2
 67
     7
 79
     5
170
     0
171
     0
290
     0
174
     0
 93
       13
 44
0.0
173
     0
291
     1
 45
0.0
1001
ACAD
1000
AcDbSavedByObjectVersion
1070
     0
  0
VISUALSTYLE
  5
2D
102
{ACAD_REACTORS
330
2A
102
}
330
2A
100
AcDbVisualStyle
  2
Gouraud
 70
     2
 71
     2
 72
     2
 73
     1
 90
        2
 40
-0.6
 41
30.0
 62
     5
 63
     7
421
 16777215
 74
     0
 91
        4
 64
     7
 65
   257
 75
     1
175
     1
 42
1.0
 92
        0
 66
     7
 43
1.0
 76
     1
 77
     6
 78
     2
 67
     7
 79
     5
170
     0
171
     0
290
     0
174
     0
 93
       13
 44
0.0
173
     0
291
     1
 45
0.0
1001
ACAD
1000
AcDbSavedByObjectVersion
1070
     0
  0
VISUALSTYLE
  5
2E
102
{ACAD_REACTORS
330
2A
102
}
330
2A
100
AcDbVisualStyle
  2
GouraudWithEdges
 70
     3
 71
     2
 72
     2
 73
     1
 90
        2
 40
-0.6
 41
30.0
 62
     5
 63
     7
421
 16777215
 74
     1
 91
        4
 64
     7
 65
   257
 75
     1
175
     1
 42
1.0
 92
        0
 66
   257
 43
1.0
 76
     1
 77
     6
 78
     2
 67
     7
 79
     5
170
     0
171
     0
290
     0
174
     0
 93
       13
 44
0.0
173
     0
291
     1
 45
0.0
1001
ACAD
1000
AcDbSavedByObjectVersion
1070
     0
  0
VISUALSTYLE
  5
38
102
{ACAD_REACTORS
330
2A
102
}
330
2A
100
AcDbVisualStyle
  2
Linepattern
 70
    14
 71
     2
 72
     2
 73
     0
 90
        0
 40
-0.6
 41
-30.0
 62
     5
 63
     7
421
 16777215
 74
     1
 91
        4
 64
     7
 65
   257
 75
     7
175
     7
 42
1.0
 92
        8
 66
     7
 43
1.0
 76
     1
 77
     6
 78
     2
 67
     7
 79
     5
170
     0
171
     0
290
     0
174
     0
 93
        1
 44
0.0
173
     0
291
     1
 45
0.0
1001
ACAD
1000
AcDbSavedByObjectVersion
1070
     0
  0
VISUALSTYLE
  5
33
102
{ACAD_REACTORS
330
2A
102
}
330
2A
100
AcDbVisualStyle
  2
Realistic
 70
     8
 71
     2
 72
     2
 73
     0
 90
        0
 40
-0.6
 41
-30.0
 62
     5
 63
     7
421
 16777215
 74
     1
 91
        0
 64
     7
 65
   257
 75
     1
175
     1
 42
1.0
 92
        8
 66
     8
424
  7895160
 43
1.0
 76
     1
 77
     6
 78
     2
 67
     7
 79
     5
170
     0
171
     0
290
     0
174
     0
 93
       13
 44
0.0
173
     0
291
     0
 45
0.0
1001
ACAD
1000
AcDbSavedByObjectVersion
1070
     0
  0
VISUALSTYLE
  5
37
102
{ACAD_REACTORS
330
2A
102
}
330
2A
100
AcDbVisualStyle
  2
Thicken
 70
    13
 71
     2
 72
     2
 73
     0
 90
        0
 40
-0.6
 41
-30.0
 62
     5
 63
     7
421
 16777215
 74
     1
 91
        4
 64
     7
 65
   257
 75
     1
175
     1
 42
1.0
 92
       12
 66
     7
 43
1.0
 76
     1
 77
     6
 78
     2
 67
     7
 79
     5
170
     0
171
     0
290
     0
174
     0
 93
        1
 44
0.0
173
     0
291
     1
 45
0.0
1001
ACAD
1000
AcDbSavedByObjectVersion
1070
     0
  0
ENDSEC
  0
EOF
